<svg width="355" height="270" viewBox="0 0 355 270" fill="none" xmlns="http://www.w3.org/2000/svg">
<g filter="url(#filter0_d_96_319576)">
<rect x="37.1974" y="16.3438" width="298.915" height="205.077" rx="10" transform="rotate(-1.12196 37.1974 16.3438)" fill="white"/>
<rect x="37.7071" y="16.8339" width="297.915" height="204.077" rx="9.5" transform="rotate(-1.12196 37.7071 16.8339)" stroke="#D9D9D9"/>
</g>
<path d="M56.7157 45.0884L60.3351 45.0225C61.6149 44.9992 62.6281 45.3475 63.3746 46.0674C64.1345 46.787 64.5262 47.7934 64.5498 49.0865C64.5733 50.3796 64.2186 51.4062 63.4857 52.1664C62.766 52.9262 61.7663 53.3178 60.4866 53.3411L54.8075 53.4445L54.5657 40.1667L62.1045 40.0295L62.138 41.8692L56.6589 41.9689L56.7157 45.0884ZM60.2253 46.6848L56.7459 46.7481L56.8358 51.6873L60.3153 51.624C61.0618 51.6104 61.6508 51.3663 62.0822 50.8917C62.527 50.4168 62.7427 49.8128 62.7293 49.0796C62.7162 48.3597 62.4789 47.7773 62.0174 47.3323C61.5692 46.887 60.9719 46.6712 60.2253 46.6848ZM67.8122 53.2078L65.8125 53.2442L65.6334 43.4058L67.6331 43.3694L67.7077 47.4687L68.8275 47.4483C68.9632 46.1123 69.4572 45.0431 70.3094 44.2408C71.1749 43.4383 72.2876 43.0246 73.6474 42.9999C75.1404 42.9727 76.3355 43.4243 77.2326 44.3548C78.1295 45.272 78.5921 46.5104 78.6205 48.0702C78.6491 49.6432 78.2321 50.911 77.3695 51.8736C76.5069 52.8361 75.3224 53.3311 73.8159 53.3585C72.4162 53.384 71.2756 52.998 70.3943 52.2006C69.513 51.4032 68.9933 50.3258 68.8352 48.9684L67.7354 48.9885L67.8122 53.2078ZM73.8054 51.6784C74.7252 51.6617 75.4263 51.3489 75.9086 50.74C76.391 50.1311 76.6218 49.2601 76.6012 48.1269C76.5808 47.0071 76.3185 46.1517 75.8143 45.5608C75.3235 44.9697 74.6115 44.6826 73.6783 44.6996C72.7451 44.7166 72.0374 45.0295 71.555 45.6384C71.0727 46.2473 70.8417 47.1116 70.8621 48.2314C70.8825 49.3512 71.1449 50.2133 71.6493 50.8175C72.1535 51.4084 72.8722 51.6954 73.8054 51.6784ZM84.7666 51.4588C85.6065 51.4435 86.2477 51.1385 86.6903 50.5437C87.1459 49.9353 87.3639 49.0912 87.3443 48.0113C87.3237 46.8782 87.0609 45.9962 86.556 45.3653C86.0644 44.7341 85.412 44.4259 84.5988 44.4407C83.8123 44.4551 83.1713 44.7734 82.6759 45.3959C82.1938 46.0181 81.963 46.8891 81.9834 48.0089C82.0023 49.0488 82.251 49.891 82.7295 50.5358C83.2077 51.1672 83.8868 51.4749 84.7666 51.4588ZM82.2381 57.6059L80.2584 57.6419L79.9945 43.1443L81.9341 43.109L81.9666 44.8887C82.5017 43.5188 83.5292 42.8199 85.0489 42.7923C86.302 42.7695 87.3304 43.2175 88.1339 44.1363C88.9374 45.0552 89.3541 46.3345 89.3839 47.9742C89.4123 49.534 89.0683 50.7804 88.3518 51.7136C87.6354 52.6468 86.6573 53.1247 85.4175 53.1473C83.8844 53.1752 82.7853 52.5017 82.1201 51.127L82.2381 57.6059ZM95.5972 51.2817C96.5171 51.2649 97.2182 50.9521 97.7005 50.3432C98.1828 49.7343 98.4137 48.8633 98.393 47.7302C98.3726 46.6104 98.1104 45.755 97.6062 45.1641C97.1153 44.5729 96.4033 44.2858 95.4702 44.3028C94.537 44.3198 93.8292 44.6327 93.3469 45.2416C92.8646 45.8505 92.6336 46.7148 92.654 47.8347C92.6744 48.9545 92.9368 49.8165 93.4412 50.4208C93.9454 51.0117 94.664 51.2986 95.5972 51.2817ZM95.6078 52.9617C94.0881 52.9894 92.8796 52.538 91.9826 51.6075C91.0852 50.6637 90.6225 49.4186 90.5943 47.8722C90.5657 46.2991 90.9895 45.0378 91.8657 44.0884C92.7416 43.1256 93.9328 42.6305 95.4392 42.6031C96.9323 42.5759 98.1274 43.0276 99.0245 43.958C99.9213 44.8752 100.384 46.1137 100.412 47.6734C100.441 49.2465 100.024 50.5143 99.1614 51.4768C98.2987 52.4393 97.1142 52.9343 95.6078 52.9617ZM110.685 52.4272L108.445 52.468L105.719 47.7168L103.911 49.53L103.966 52.5495L101.947 52.5863L101.767 42.7479L103.787 42.7111L103.869 47.2304L108.126 42.6321L110.586 42.5874L107.133 46.3108L110.685 52.4272ZM116.489 50.8813C117.329 50.866 117.97 50.5609 118.412 49.9661C118.868 49.3577 119.086 48.5136 119.066 47.4338C119.046 46.3006 118.783 45.4186 118.278 44.7877C117.786 44.1565 117.134 43.8484 116.321 43.8632C115.534 43.8775 114.893 44.1959 114.398 44.8183C113.916 45.4405 113.685 46.3116 113.705 47.4314C113.724 48.4712 113.973 49.3135 114.452 49.9582C114.93 50.5896 115.609 50.8973 116.489 50.8813ZM113.96 57.0283L111.981 57.0644L111.717 42.5668L113.656 42.5315L113.689 44.3112C114.224 42.9412 115.251 42.2424 116.771 42.2147C118.024 42.1919 119.052 42.6399 119.856 43.5588C120.659 44.4776 121.076 45.7569 121.106 47.3966C121.134 48.9564 120.79 50.2029 120.074 51.1361C119.357 52.0693 118.379 52.5471 117.14 52.5697C115.606 52.5976 114.507 51.9242 113.842 50.5494L113.96 57.0283ZM128.898 48.435L128.892 47.0148C128.853 47.0689 128.801 47.1165 128.735 47.1577C128.682 47.1854 128.603 47.2201 128.497 47.2621C128.404 47.2904 128.318 47.3187 128.238 47.3468C128.172 47.3747 128.059 47.4034 127.9 47.433C127.754 47.4623 127.641 47.4844 127.561 47.4992C127.481 47.5139 127.335 47.5366 127.122 47.5672C126.923 47.5975 126.783 47.62 126.703 47.6348C125.839 47.7972 125.223 48.0085 124.855 48.2686C124.486 48.5153 124.306 48.9253 124.317 49.4985C124.335 50.4984 124.911 50.988 126.044 50.9674C126.87 50.9523 127.546 50.7066 128.071 50.2303C128.609 49.7405 128.884 49.142 128.898 48.435ZM130.985 52.0576L129.125 52.0915C129.111 52.065 129.063 51.6192 128.98 50.7539C128.373 51.8318 127.243 52.3858 125.59 52.4158C123.444 52.4549 122.353 51.5146 122.318 49.5949C122.309 49.1017 122.382 48.6736 122.535 48.3108C122.701 47.9344 122.896 47.6441 123.119 47.44C123.342 47.2226 123.672 47.0365 124.109 46.8819C124.56 46.7137 124.944 46.6 125.263 46.5408C125.595 46.4681 126.06 46.3863 126.659 46.2954C127.098 46.2207 127.41 46.1684 127.596 46.1383C127.795 46.0947 128.001 46.0376 128.213 45.967C128.438 45.8829 128.59 45.7868 128.668 45.6787C128.759 45.557 128.81 45.4094 128.82 45.2359C128.8 44.116 128.076 43.5691 126.65 43.5951C125.25 43.6206 124.508 44.2675 124.425 45.5359L122.565 45.5698C122.563 43.2628 123.942 42.0841 126.701 42.0339C128.181 42.007 129.24 42.3144 129.879 42.9562C130.517 43.5847 130.848 44.5455 130.871 45.8386L130.985 52.0576ZM137.346 51.9418L135.386 51.9774L135.237 43.7588L131.557 43.8258L131.528 42.2061L140.846 42.0364L140.876 43.6561L137.196 43.7231L137.346 51.9418ZM144.191 51.8171L142.272 51.8521L142.093 42.0137L144.052 41.978L144.183 49.1768L148.771 41.8921L150.871 41.8539L151.05 51.6923L149.091 51.7279L148.956 44.3292L144.191 51.8171ZM161.227 51.507L159.267 51.5427L159.202 47.9832L156.703 48.0288L154.348 51.6322L152.288 51.6697L154.841 47.9626C153.209 47.659 152.377 46.6739 152.347 45.0075C152.329 44.0077 152.614 43.2224 153.204 42.6515C153.794 42.0807 154.609 41.7858 155.648 41.7669L161.048 41.6686L161.227 51.507ZM155.875 46.5436L159.175 46.4835L159.116 43.224L155.816 43.2841C155.256 43.2943 154.819 43.449 154.504 43.7481C154.19 44.0472 154.037 44.45 154.046 44.9566C154.056 45.4632 154.223 45.8602 154.548 46.1477C154.873 46.4218 155.316 46.5538 155.875 46.5436Z" fill="black"/>
<rect x="53.196" y="144.661" width="272.695" height="61.5269" rx="10" transform="rotate(-1.12196 53.196 144.661)" fill="#F6F8FA"/>
<g filter="url(#filter1_d_96_319576)">
<path fill-rule="evenodd" clip-rule="evenodd" d="M98.3459 159.377L80.9453 162.287C80.7667 161.219 79.7566 160.498 78.6888 160.677L70.9551 161.97C69.8873 162.148 69.1665 163.158 69.3451 164.226L70.3149 170.027C70.4935 171.095 71.5036 171.816 72.5714 171.637L99.6389 167.112C100.707 166.933 101.428 165.923 101.249 164.855L100.602 160.987C100.424 159.92 99.4137 159.199 98.3459 159.377Z" fill="white"/>
<path d="M96.7358 161.634L73.5348 165.513C72.467 165.691 71.7462 166.702 71.925 167.771L72.2482 169.704C72.4267 170.772 73.4368 171.493 74.5047 171.314L97.7057 167.435C98.7735 167.257 99.4943 166.247 99.3157 165.179L98.9925 163.245C98.8139 162.177 97.8037 161.456 96.7358 161.634Z" fill="#EEEEEE"/>
<path d="M98.9925 163.245L71.925 167.771C70.8571 167.949 70.1363 168.959 70.3149 170.027L73.5473 189.361C73.7256 190.427 74.7359 191.149 75.8038 190.971L102.871 186.446C103.939 186.267 104.66 185.256 104.481 184.189L101.249 164.855C101.07 163.787 100.06 163.067 98.9925 163.245Z" fill="url(#paint0_linear_96_319576)"/>
<path d="M89.816 179.686L82.0823 180.979C81.5487 181.068 81.1877 181.573 81.2768 182.106C81.3659 182.639 81.8713 183.001 82.4055 182.912L90.1392 181.619C90.6728 181.53 91.0337 181.024 90.9444 180.49C90.855 179.956 90.3502 179.597 89.816 179.686ZM81.1123 175.177L92.7125 173.238C93.2461 173.149 93.6072 172.644 93.518 172.11C93.4288 171.577 92.9237 171.216 92.3894 171.305L80.7892 173.245C80.2556 173.334 79.8946 173.839 79.9839 174.373C80.0732 174.907 80.5781 175.267 81.1123 175.177ZM93.0366 175.172L81.4364 177.112C80.9028 177.201 80.5418 177.706 80.6309 178.239C80.72 178.772 81.2253 179.134 81.7595 179.044L93.3597 177.105C93.8933 177.016 94.2544 176.511 94.165 175.976C94.0756 175.441 93.5708 175.083 93.0366 175.172Z" fill="#EEEEEE"/>
</g>
<rect x="51.3086" y="73.6577" width="272.695" height="61.5269" rx="10" transform="rotate(-1.12196 51.3086 73.6577)" fill="#F6F8FA"/>
<path d="M117.628 96.1142L119.126 96.0869C118.941 97.1825 118.509 98.0492 117.829 98.687C117.16 99.3246 116.297 99.653 115.243 99.6722C114.02 99.6945 113.014 99.288 112.224 98.453C111.434 97.6179 111.025 96.4165 110.996 94.8487C110.968 93.309 111.324 92.0796 112.063 91.1607C112.812 90.2416 113.835 89.7702 115.132 89.7466C116.233 89.7265 117.135 90.0275 117.837 90.6495C118.548 91.2713 118.96 92.0666 119.071 93.0354L117.573 93.0627C117.496 92.4293 117.24 91.9346 116.804 91.5785C116.368 91.213 115.818 91.0363 115.156 91.0484C114.279 91.0643 113.613 91.4032 113.158 92.0649C112.712 92.7171 112.5 93.6265 112.522 94.7929C112.543 95.9594 112.788 96.8511 113.256 97.468C113.734 98.0847 114.403 98.3853 115.261 98.3697C115.952 98.3571 116.494 98.1512 116.888 97.7519C117.292 97.3525 117.538 96.8066 117.628 96.1142ZM123.247 98.2103C123.891 98.1985 124.381 97.9796 124.719 97.5534C125.057 97.1271 125.218 96.5174 125.204 95.7242C125.19 94.9404 125.006 94.3416 124.653 93.928C124.309 93.5141 123.811 93.3132 123.158 93.3251C122.505 93.337 122.009 93.556 121.672 93.9822C121.334 94.4085 121.172 95.0135 121.187 95.7974C121.201 96.5812 121.384 97.1847 121.738 97.6076C122.09 98.0213 122.594 98.2222 123.247 98.2103ZM123.254 99.3863C122.19 99.4057 121.344 99.0897 120.717 98.4384C120.088 97.7777 119.764 96.9061 119.745 95.8236C119.725 94.7225 120.021 93.8396 120.635 93.175C121.248 92.501 122.082 92.1545 123.136 92.1353C124.181 92.1162 125.018 92.4324 125.646 93.0837C126.274 93.7258 126.597 94.5927 126.617 95.6845C126.637 96.7856 126.346 97.6731 125.742 98.3469C125.138 99.0206 124.309 99.3671 123.254 99.3863ZM129.119 99.0975L127.747 99.1225L127.622 92.2356L131.975 92.1564L131.996 93.2902L129.014 93.3445L129.119 99.0975ZM137.898 98.9377L136.526 98.9626L136.422 93.2096L134.028 93.2532L133.961 94.9487C133.917 96.0977 133.797 96.968 133.602 97.5596C133.408 98.1419 133.144 98.5341 132.812 98.7362C132.479 98.9383 132.001 99.045 131.375 99.0564L131.137 99.0608L131.117 97.9409L131.285 97.9379C131.658 97.9311 131.942 97.8606 132.135 97.7264C132.338 97.592 132.506 97.3042 132.638 96.8631C132.769 96.4126 132.851 95.7577 132.882 94.8983L133 92.1377L137.773 92.0508L137.898 98.9377ZM143.427 96.2746L143.423 95.2805C143.396 95.3183 143.359 95.3517 143.313 95.3805C143.276 95.3999 143.22 95.4242 143.146 95.4536C143.081 95.4734 143.021 95.4932 142.965 95.5129C142.919 95.5324 142.84 95.5525 142.728 95.5732C142.626 95.5937 142.547 95.6092 142.491 95.6195C142.435 95.6299 142.333 95.6457 142.184 95.6671C142.044 95.6883 141.947 95.7041 141.891 95.7145C141.286 95.8281 140.855 95.976 140.597 96.1581C140.338 96.3308 140.213 96.6178 140.22 97.0191C140.233 97.719 140.636 98.0617 141.429 98.0472C142.008 98.0367 142.481 97.8647 142.848 97.5313C143.224 97.1884 143.418 96.7695 143.427 96.2746ZM144.888 98.8104L143.586 98.8341C143.576 98.8156 143.542 98.5035 143.485 97.8978C143.06 98.6523 142.269 99.0401 141.112 99.0612C139.609 99.0885 138.846 98.4303 138.821 97.0866C138.815 96.7413 138.865 96.4416 138.973 96.1877C139.089 95.9242 139.226 95.721 139.382 95.5781C139.538 95.4259 139.769 95.2957 140.075 95.1874C140.39 95.0697 140.659 94.9901 140.883 94.9487C141.115 94.8978 141.441 94.8405 141.86 94.7769C142.167 94.7246 142.385 94.6879 142.516 94.6669C142.655 94.6364 142.799 94.5964 142.948 94.547C143.105 94.4881 143.211 94.4209 143.266 94.3452C143.33 94.26 143.365 94.1567 143.372 94.0352C143.358 93.2513 142.852 92.8685 141.853 92.8867C140.873 92.9045 140.354 93.3574 140.296 94.2452L138.994 94.2689C138.993 92.654 139.958 91.829 141.889 91.7938C142.925 91.775 143.667 91.9902 144.113 92.4395C144.56 92.8794 144.792 93.552 144.808 94.4571L144.888 98.8104ZM155.462 98.6179L146.098 98.7884L145.972 91.9015L147.33 91.8768L147.435 97.6438L150.095 97.5954L149.99 91.8284L151.319 91.8042L151.424 97.5712L154.084 97.5228L153.979 91.7557L155.337 91.731L155.462 98.6179ZM157.817 94.5844L161.344 94.5201C161.323 93.9044 161.147 93.4269 160.814 93.0875C160.481 92.7482 160.063 92.5831 159.559 92.5923C159.045 92.6017 158.629 92.7866 158.309 93.1472C157.998 93.4982 157.834 93.9773 157.817 94.5844ZM162.802 95.3897L157.791 95.481C157.831 96.1617 158.018 96.6904 158.352 97.067C158.695 97.4435 159.142 97.6267 159.692 97.6167C160.093 97.6094 160.432 97.5052 160.709 97.3042C160.994 97.1029 161.181 96.8288 161.268 96.4818L162.723 96.4553C162.312 97.9377 161.308 98.6935 159.712 98.7225C158.658 98.7417 157.845 98.4391 157.273 97.8148C156.702 97.1811 156.406 96.295 156.385 95.1565C156.364 94.0087 156.628 93.1124 157.176 92.4677C157.734 91.8227 158.521 91.491 159.538 91.4725C160.583 91.4535 161.383 91.7796 161.936 92.451C162.49 93.1224 162.779 94.1019 162.802 95.3897ZM165.239 98.4399L163.881 98.4646L163.756 91.5777L165.114 91.553L165.165 94.3666L168.594 94.3041L168.543 91.4906L169.915 91.4656L170.04 98.3525L168.668 98.3774L168.615 95.4239L165.185 95.4864L165.239 98.4399ZM172.558 98.3066L171.215 98.3311L171.089 91.4442L172.461 91.4192L172.553 96.4584L175.765 91.3591L177.234 91.3323L177.36 98.2192L175.988 98.2442L175.894 93.065L172.558 98.3066ZM179.721 94.1855L183.249 94.1213C183.228 93.5056 183.051 93.0281 182.719 92.6887C182.386 92.3494 181.967 92.1843 181.463 92.1935C180.95 92.2028 180.533 92.3878 180.213 92.7483C179.902 93.0994 179.738 93.5785 179.721 94.1855ZM184.707 94.9909L179.696 95.0822C179.736 95.7629 179.923 96.2915 180.257 96.6682C180.6 97.0447 181.046 97.2279 181.597 97.2179C181.998 97.2106 182.337 97.1064 182.613 96.9053C182.899 96.7041 183.085 96.43 183.172 96.083L184.628 96.0565C184.216 97.5389 183.213 98.2947 181.617 98.3237C180.562 98.3429 179.75 98.0403 179.178 97.416C178.606 96.7823 178.31 95.8962 178.29 94.7577C178.269 93.6099 178.532 92.7136 179.081 92.0688C179.638 91.4239 180.426 91.0922 181.443 91.0737C182.488 91.0547 183.288 91.3808 183.841 92.0522C184.395 92.7236 184.683 93.7031 184.707 94.9909ZM192.617 96.9472C193.261 96.9355 193.752 96.7165 194.09 96.2903C194.427 95.8641 194.589 95.2544 194.574 94.4612C194.56 93.6773 194.377 93.0786 194.024 92.6649C193.68 92.2511 193.182 92.0502 192.528 92.062C191.875 92.0739 191.38 92.293 191.042 92.7192C190.704 93.1454 190.543 93.7505 190.557 94.5343C190.571 95.3182 190.755 95.9216 191.108 96.3446C191.461 96.7583 191.964 96.9591 192.617 96.9472ZM192.625 98.1233C191.561 98.1427 190.715 97.8267 190.087 97.1753C189.459 96.5147 189.135 95.6431 189.115 94.5606C189.095 93.4594 189.392 92.5766 190.005 91.912C190.618 91.238 191.452 90.8914 192.507 90.8722C193.552 90.8532 194.388 91.1694 195.016 91.8207C195.644 92.4627 195.968 93.3296 195.988 94.4215C196.008 95.5226 195.716 96.4101 195.112 97.0838C194.508 97.7576 193.679 98.1041 192.625 98.1233ZM202.05 97.7697L200.692 97.7944L200.566 90.9075L201.924 90.8828L201.975 93.6963L205.405 93.6339L205.354 90.8204L206.725 90.7954L206.851 97.6823L205.479 97.7072L205.425 94.7537L201.996 94.8162L202.05 97.7697ZM209.198 93.6488L212.726 93.5846C212.705 92.9689 212.529 92.4914 212.196 92.152C211.863 91.8127 211.444 91.6476 210.94 91.6568C210.427 91.6662 210.011 91.8511 209.69 92.2117C209.379 92.5627 209.215 93.0418 209.198 93.6488ZM214.184 94.4542L209.173 94.5455C209.213 95.2262 209.4 95.7549 209.734 96.1315C210.077 96.508 210.523 96.6912 211.074 96.6812C211.475 96.6739 211.814 96.5697 212.09 96.3687C212.376 96.1674 212.563 95.8933 212.65 95.5463L214.105 95.5198C213.694 97.0022 212.69 97.758 211.094 97.787C210.04 97.8062 209.227 97.5036 208.655 96.8793C208.084 96.2456 207.787 95.3595 207.767 94.221C207.746 93.0732 208.009 92.1769 208.558 91.5322C209.116 90.8872 209.903 90.5555 210.92 90.537C211.965 90.518 212.765 90.8441 213.318 91.5155C213.872 92.1869 214.161 93.1664 214.184 94.4542ZM218.436 96.4632C219.024 96.4524 219.473 96.2389 219.783 95.8225C220.102 95.3967 220.254 94.8058 220.241 94.0499C220.226 93.2567 220.042 92.6393 219.689 92.1976C219.345 91.7558 218.888 91.5401 218.319 91.5505C217.768 91.5605 217.32 91.7834 216.973 92.2191C216.635 92.6546 216.474 93.2643 216.488 94.0482C216.501 94.7761 216.675 95.3657 217.01 95.817C217.345 96.259 217.82 96.4744 218.436 96.4632ZM216.666 100.766L215.28 100.791L215.096 90.643L216.453 90.6183L216.476 91.8641C216.851 90.9051 217.57 90.4159 218.634 90.3965C219.511 90.3806 220.231 90.6942 220.793 91.3374C221.356 91.9806 221.647 92.8761 221.668 94.0239C221.688 95.1157 221.447 95.9883 220.946 96.6415C220.444 97.2947 219.76 97.6293 218.892 97.6451C217.819 97.6646 217.049 97.1932 216.584 96.2308L216.666 100.766ZM227.123 94.7507L227.119 93.7566C227.091 93.7945 227.055 93.8278 227.009 93.8567C226.972 93.876 226.916 93.9004 226.842 93.9297C226.777 93.9496 226.717 93.9693 226.661 93.989C226.615 94.0085 226.536 94.0286 226.424 94.0493C226.322 94.0699 226.243 94.0853 226.187 94.0957C226.131 94.106 226.029 94.1219 225.88 94.1433C225.74 94.1645 225.642 94.1803 225.586 94.1906C224.982 94.3043 224.55 94.4522 224.292 94.6342C224.034 94.807 223.909 95.094 223.916 95.4952C223.929 96.1951 224.332 96.5378 225.125 96.5234C225.703 96.5129 226.176 96.3409 226.544 96.0075C226.92 95.6646 227.113 95.2457 227.123 94.7507ZM228.583 97.2866L227.282 97.3103C227.272 97.2918 227.238 96.9797 227.18 96.374C226.755 97.1285 225.964 97.5163 224.807 97.5374C223.305 97.5647 222.541 96.9065 222.517 95.5627C222.511 95.2174 222.561 94.9178 222.669 94.6638C222.785 94.4003 222.921 94.1971 223.078 94.0543C223.233 93.9021 223.464 93.7718 223.771 93.6636C224.086 93.5458 224.355 93.4662 224.578 93.4248C224.811 93.3739 225.136 93.3167 225.555 93.253C225.862 93.2008 226.081 93.1641 226.211 93.1431C226.351 93.1125 226.495 93.0726 226.643 93.0232C226.801 92.9643 226.907 92.897 226.962 92.8213C227.026 92.7362 227.061 92.6328 227.068 92.5114C227.054 91.7275 226.547 91.3446 225.549 91.3628C224.569 91.3807 224.05 91.8335 223.991 92.7214L222.69 92.7451C222.688 91.1302 223.653 90.3052 225.585 90.27C226.621 90.2511 227.362 90.4663 227.809 90.9156C228.256 91.3555 228.488 92.0281 228.504 92.9333L228.583 97.2866ZM232.661 94.0478L231.961 94.0605L231.945 93.1367L232.616 93.1245C233.083 93.116 233.436 93.0209 233.675 92.8391C233.924 92.6572 234.046 92.403 234.04 92.0764C234.027 91.4045 233.513 91.0778 232.496 91.0963C231.394 91.1164 230.852 91.5743 230.868 92.4702L229.496 92.4952C229.54 91.8036 229.805 91.2433 230.292 90.8144C230.788 90.3853 231.531 90.1617 232.52 90.1437C233.407 90.1276 234.096 90.2831 234.587 90.6102C235.088 90.9371 235.343 91.3805 235.353 91.9404C235.361 92.3417 235.236 92.6847 234.98 92.9694C234.733 93.2446 234.391 93.4235 233.954 93.5062C234.431 93.5628 234.826 93.7377 235.139 94.0307C235.462 94.3142 235.628 94.7032 235.637 95.1978C235.649 95.851 235.383 96.3786 234.839 96.7806C234.296 97.1732 233.557 97.378 232.624 97.395C231.616 97.4134 230.852 97.2079 230.331 96.7787C229.809 96.3401 229.523 95.7619 229.473 95.044L230.845 95.019C230.89 95.9704 231.477 96.4357 232.606 96.4152C233.129 96.4057 233.538 96.2956 233.833 96.0848C234.127 95.8741 234.271 95.5541 234.263 95.1248C234.25 94.3876 233.716 94.0286 232.661 94.0478ZM237.938 97.1162L236.567 97.1412L236.441 90.2544L240.795 90.1751L240.815 91.3089L237.834 91.3632L237.938 97.1162ZM246.718 96.9564L245.346 96.9814L245.241 91.2283L242.848 91.2719L242.78 92.9674C242.736 94.1164 242.616 94.9867 242.422 95.5784C242.227 96.1607 241.964 96.5529 241.631 96.755C241.299 96.957 240.82 97.0638 240.195 97.0752L239.957 97.0795L239.936 95.9597L240.104 95.9566C240.478 95.9498 240.761 95.8793 240.955 95.7451C241.158 95.6107 241.325 95.323 241.457 94.8818C241.589 94.4313 241.67 93.7764 241.701 92.917L241.819 90.1564L246.592 90.0695L246.718 96.9564ZM252.247 94.2933L252.242 93.2992C252.215 93.3371 252.178 93.3704 252.132 93.3992C252.095 93.4186 252.04 93.4429 251.966 93.4723C251.901 93.4921 251.84 93.5119 251.785 93.5316C251.738 93.5511 251.659 93.5712 251.548 93.5919C251.445 93.6124 251.366 93.6279 251.31 93.6382C251.255 93.6486 251.152 93.6645 251.003 93.6858C250.864 93.7071 250.766 93.7228 250.71 93.7332C250.105 93.8469 249.674 93.9948 249.416 94.1768C249.158 94.3495 249.032 94.6365 249.04 95.0378C249.052 95.7377 249.455 96.0804 250.248 96.066C250.827 96.0554 251.3 95.8835 251.667 95.5501C252.044 95.2072 252.237 94.7882 252.247 94.2933ZM253.707 96.8291L252.405 96.8528C252.396 96.8344 252.362 96.5222 252.304 95.9165C251.879 96.6711 251.088 97.0589 249.931 97.0799C248.428 97.1073 247.665 96.4491 247.641 95.1053C247.634 94.76 247.685 94.4604 247.792 94.2064C247.909 93.9429 248.045 93.7397 248.201 93.5968C248.357 93.4446 248.588 93.3144 248.894 93.2062C249.209 93.0884 249.479 93.0088 249.702 92.9674C249.934 92.9165 250.26 92.8592 250.679 92.7956C250.986 92.7433 251.205 92.7067 251.335 92.6856C251.475 92.6551 251.619 92.6151 251.767 92.5658C251.925 92.5069 252.031 92.4396 252.085 92.3639C252.149 92.2787 252.185 92.1754 252.192 92.0539C252.178 91.2701 251.671 90.8872 250.673 90.9054C249.693 90.9232 249.174 91.3761 249.115 92.264L247.813 92.2877C247.812 90.6728 248.777 89.8477 250.709 89.8126C251.745 89.7937 252.486 90.0089 252.933 90.4582C253.38 90.8981 253.611 91.5707 253.628 92.4759L253.707 96.8291ZM264.281 96.6366L254.917 96.8071L254.792 89.9203L256.149 89.8955L256.254 95.6626L258.914 95.6142L258.809 89.8471L260.139 89.8229L260.244 95.5899L262.903 95.5415L262.798 89.7745L264.156 89.7498L264.281 96.6366ZM266.636 92.6031L270.163 92.5389C270.143 91.9231 269.966 91.4456 269.633 91.1063C269.3 90.7669 268.882 90.6019 268.378 90.611C267.865 90.6204 267.448 90.8053 267.128 91.1659C266.817 91.5169 266.653 91.996 266.636 92.6031ZM271.621 93.4085L266.61 93.4997C266.651 94.1804 266.838 94.7091 267.171 95.0858C267.514 95.4622 267.961 95.6455 268.511 95.6354C268.913 95.6281 269.252 95.524 269.528 95.3229C269.814 95.1217 270 94.8476 270.087 94.5006L271.543 94.4741C271.131 95.9565 270.127 96.7122 268.532 96.7413C267.477 96.7605 266.664 96.4579 266.093 95.8335C265.521 95.1998 265.225 94.3137 265.204 93.1752C265.183 92.0274 265.447 91.1312 265.995 90.4864C266.553 89.8415 267.34 89.5097 268.358 89.4912C269.403 89.4722 270.202 89.7984 270.756 90.4697C271.309 91.1411 271.598 92.1207 271.621 93.4085ZM274.058 96.4586L272.701 96.4833L272.575 89.5965L273.933 89.5717L273.984 92.3853L277.414 92.3228L277.362 89.5093L278.734 89.4843L278.86 96.3712L277.488 96.3962L277.434 93.4427L274.005 93.5051L274.058 96.4586ZM281.378 96.3253L280.034 96.3498L279.909 89.463L281.28 89.438L281.372 94.4771L284.584 89.3778L286.054 89.3511L286.179 96.2379L284.807 96.2629L284.713 91.0838L281.378 96.3253ZM288.711 96.1918L287.368 96.2163L287.242 89.3294L288.614 89.3045L288.706 94.3436L291.917 89.2443L293.387 89.2175L293.513 96.1044L292.141 96.1294L292.046 90.9502L288.711 96.1918Z" fill="black"/>
<path d="M116.496 169.073L119.183 169.024C119.762 169.014 120.207 168.861 120.519 168.566C120.831 168.262 120.982 167.858 120.973 167.354C120.964 166.868 120.808 166.512 120.506 166.284C120.212 166.047 119.804 165.933 119.281 165.942L116.44 165.994L116.496 169.073ZM119.059 162.194L116.371 162.243L116.417 164.776L119.231 164.725C120.183 164.708 120.651 164.27 120.635 163.411C120.62 162.581 120.095 162.175 119.059 162.194ZM119.093 170.244L115.076 170.317L114.907 161.023L119.302 160.943C120.179 160.927 120.855 161.134 121.33 161.564C121.813 161.985 122.062 162.55 122.075 163.259C122.084 163.781 121.966 164.204 121.72 164.526C121.483 164.847 121.179 165.068 120.808 165.186C121.868 165.475 122.409 166.231 122.431 167.453C122.447 168.321 122.175 168.998 121.614 169.484C121.053 169.971 120.213 170.224 119.093 170.244ZM123.161 163.281L124.519 163.256L124.561 165.566L127.248 165.517C127.986 165.504 128.568 165.694 128.995 166.087C129.422 166.481 129.642 167.032 129.655 167.742C129.668 168.46 129.469 169.029 129.056 169.447C128.644 169.865 128.069 170.081 127.332 170.094L123.286 170.168L123.161 163.281ZM127.183 166.526L124.579 166.574L124.625 169.093L127.229 169.046C127.611 169.039 127.912 168.922 128.132 168.694C128.352 168.465 128.459 168.155 128.451 167.764C128.444 167.362 128.327 167.056 128.099 166.846C127.871 166.626 127.565 166.519 127.183 166.526ZM131.741 170.014L130.341 170.04L130.216 163.153L131.616 163.127L131.741 170.014ZM134.329 169.967L132.971 169.992L132.846 163.105L139.005 162.993L139.13 169.88L137.758 169.904L137.653 164.151L134.224 164.214L134.329 169.967ZM146.799 169.74L145.428 169.765L145.323 164.012L142.929 164.055L142.862 165.751C142.818 166.9 142.698 167.77 142.504 168.362C142.309 168.944 142.045 169.336 141.713 169.538C141.381 169.741 140.902 169.847 140.276 169.859L140.039 169.863L140.018 168.743L140.186 168.74C140.559 168.733 140.843 168.663 141.036 168.529C141.239 168.394 141.407 168.106 141.539 167.665C141.671 167.215 141.752 166.56 141.783 165.701L141.901 162.94L146.674 162.853L146.799 169.74ZM152.328 167.077L152.324 166.083C152.297 166.121 152.26 166.154 152.214 166.183C152.177 166.202 152.121 166.226 152.047 166.256C151.982 166.276 151.922 166.295 151.866 166.315C151.82 166.335 151.741 166.355 151.629 166.375C151.527 166.396 151.448 166.411 151.392 166.422C151.336 166.432 151.234 166.448 151.085 166.469C150.945 166.491 150.848 166.506 150.792 166.517C150.187 166.63 149.756 166.778 149.498 166.96C149.24 167.133 149.114 167.42 149.121 167.821C149.134 168.521 149.537 168.864 150.33 168.849C150.909 168.839 151.382 168.667 151.749 168.334C152.126 167.991 152.319 167.572 152.328 167.077ZM153.789 169.613L152.487 169.636C152.477 169.618 152.444 169.306 152.386 168.7C151.961 169.455 151.17 169.842 150.013 169.863C148.51 169.891 147.747 169.233 147.722 167.889C147.716 167.543 147.767 167.244 147.874 166.99C147.991 166.726 148.127 166.523 148.283 166.38C148.439 166.228 148.67 166.098 148.976 165.99C149.291 165.872 149.56 165.792 149.784 165.751C150.016 165.7 150.342 165.643 150.761 165.579C151.068 165.527 151.287 165.49 151.417 165.469C151.556 165.439 151.7 165.399 151.849 165.349C152.006 165.29 152.113 165.223 152.167 165.147C152.231 165.062 152.266 164.959 152.274 164.837C152.259 164.054 151.753 163.671 150.754 163.689C149.775 163.707 149.255 164.16 149.197 165.047L147.895 165.071C147.894 163.456 148.859 162.631 150.791 162.596C151.826 162.577 152.568 162.792 153.015 163.242C153.461 163.682 153.693 164.354 153.709 165.259L153.789 169.613ZM158.242 169.532L156.87 169.557L156.765 163.803L154.19 163.85L154.169 162.717L160.692 162.598L160.713 163.732L158.137 163.779L158.242 169.532ZM161.564 162.582L162.922 162.557L162.964 164.867L165.652 164.818C166.389 164.804 166.971 164.995 167.398 165.388C167.826 165.782 168.046 166.333 168.059 167.042C168.072 167.761 167.872 168.329 167.46 168.748C167.047 169.166 166.472 169.382 165.735 169.395L161.69 169.469L161.564 162.582ZM165.586 165.827L162.983 165.875L163.028 168.394L165.632 168.347C166.015 168.34 166.316 168.222 166.536 167.994C166.756 167.766 166.862 167.456 166.855 167.064C166.848 166.663 166.73 166.357 166.502 166.147C166.274 165.927 165.969 165.82 165.586 165.827ZM170.144 169.315L168.745 169.34L168.619 162.453L170.019 162.428L170.144 169.315Z" fill="black"/>
<path d="M115.291 115.338L117.594 115.296C118.09 115.287 118.472 115.156 118.739 114.903C119.007 114.642 119.136 114.296 119.128 113.864C119.121 113.448 118.987 113.142 118.728 112.947C118.476 112.744 118.126 112.646 117.678 112.654L115.243 112.698L115.291 115.338ZM117.488 109.441L115.184 109.483L115.224 111.655L117.635 111.611C118.451 111.596 118.852 111.22 118.839 110.485C118.826 109.773 118.375 109.425 117.488 109.441ZM117.517 116.342L114.074 116.404L113.929 108.438L117.696 108.369C118.448 108.355 119.027 108.533 119.434 108.901C119.849 109.262 120.062 109.746 120.073 110.354C120.081 110.802 119.979 111.164 119.768 111.44C119.565 111.716 119.305 111.904 118.987 112.006C119.895 112.254 120.359 112.901 120.378 113.949C120.392 114.693 120.158 115.273 119.678 115.69C119.197 116.107 118.477 116.324 117.517 116.342ZM125.008 114.069L126.219 114.047C126.144 114.736 125.866 115.297 125.386 115.73C124.906 116.155 124.31 116.374 123.598 116.387C122.806 116.401 122.165 116.141 121.675 115.606C121.185 115.063 120.931 114.279 120.912 113.255C120.894 112.239 121.12 111.475 121.591 110.963C122.061 110.45 122.709 110.186 123.532 110.171C124.284 110.157 124.9 110.346 125.379 110.738C125.858 111.129 126.132 111.68 126.201 112.391L124.99 112.413C124.934 112.006 124.776 111.697 124.517 111.485C124.257 111.274 123.935 111.172 123.551 111.179C123.103 111.187 122.746 111.358 122.48 111.69C122.222 112.015 122.099 112.526 122.112 113.221C122.125 113.933 122.271 114.475 122.549 114.846C122.828 115.209 123.187 115.386 123.627 115.378C123.987 115.372 124.297 115.254 124.557 115.025C124.825 114.788 124.975 114.47 125.008 114.069ZM128.063 112.729L131.086 112.674C131.069 112.146 130.917 111.737 130.632 111.446C130.347 111.155 129.988 111.014 129.556 111.022C129.116 111.03 128.759 111.188 128.484 111.497C128.218 111.798 128.077 112.209 128.063 112.729ZM132.336 113.419L128.041 113.498C128.075 114.081 128.236 114.534 128.522 114.857C128.816 115.18 129.198 115.337 129.67 115.328C130.014 115.322 130.305 115.233 130.542 115.06C130.787 114.888 130.946 114.653 131.021 114.355L132.269 114.333C131.916 115.603 131.055 116.251 129.688 116.276C128.784 116.292 128.087 116.033 127.597 115.498C127.107 114.955 126.853 114.195 126.836 113.219C126.818 112.236 127.044 111.467 127.514 110.915C127.992 110.362 128.667 110.078 129.539 110.062C130.434 110.045 131.12 110.325 131.594 110.9C132.069 111.476 132.316 112.316 132.336 113.419ZM137.017 117.775L136.141 117.791L136.091 115.043L136.307 115.039C136.611 115.034 136.846 114.969 137.012 114.846C137.177 114.715 137.309 114.465 137.406 114.095C137.511 113.717 137.577 113.164 137.604 112.435L137.705 110.069L141.796 109.995L141.886 114.938L142.786 114.921L142.836 117.669L141.96 117.685L141.928 115.897L136.984 115.987L137.017 117.775ZM140.638 110.988L138.586 111.025L138.529 112.478C138.479 113.712 138.283 114.555 137.939 115.01L140.71 114.959L140.638 110.988ZM147.311 113.603L147.307 112.751C147.284 112.783 147.252 112.812 147.213 112.836C147.181 112.853 147.133 112.874 147.07 112.899C147.014 112.916 146.962 112.933 146.915 112.95C146.875 112.967 146.807 112.984 146.711 113.002C146.624 113.019 146.556 113.032 146.508 113.041C146.46 113.05 146.373 113.064 146.245 113.082C146.125 113.1 146.041 113.114 145.994 113.123C145.475 113.22 145.105 113.347 144.884 113.503C144.663 113.651 144.555 113.897 144.562 114.241C144.573 114.841 144.918 115.135 145.598 115.122C146.094 115.113 146.499 114.966 146.814 114.68C147.137 114.386 147.302 114.027 147.311 113.603ZM148.562 115.776L147.446 115.797C147.438 115.781 147.409 115.513 147.36 114.994C146.996 115.641 146.318 115.973 145.326 115.991C144.038 116.015 143.384 115.451 143.363 114.299C143.357 114.003 143.4 113.746 143.493 113.528C143.592 113.302 143.709 113.128 143.843 113.006C143.977 112.875 144.175 112.764 144.437 112.671C144.707 112.57 144.938 112.502 145.129 112.466C145.329 112.423 145.608 112.374 145.967 112.319C146.23 112.274 146.418 112.243 146.529 112.225C146.649 112.199 146.772 112.164 146.899 112.122C147.035 112.072 147.126 112.014 147.172 111.949C147.227 111.876 147.257 111.787 147.264 111.683C147.251 111.011 146.817 110.683 145.961 110.699C145.122 110.714 144.677 111.102 144.626 111.863L143.511 111.884C143.509 110.499 144.337 109.792 145.992 109.762C146.88 109.746 147.516 109.93 147.899 110.316C148.282 110.693 148.48 111.269 148.494 112.045L148.562 115.776ZM150.763 115.736L149.599 115.757L149.492 109.854L150.656 109.833L150.7 112.245L153.639 112.191L153.595 109.78L154.771 109.758L154.879 115.661L153.703 115.683L153.657 113.151L150.717 113.205L150.763 115.736ZM157.049 115.622L155.885 115.643L155.778 109.74L156.942 109.719L156.986 112.13L159.925 112.077L159.881 109.665L161.057 109.644L161.164 115.547L159.989 115.568L159.943 113.037L157.003 113.09L157.049 115.622ZM162.064 109.626L163.227 109.604L163.264 111.584L165.567 111.542C166.199 111.531 166.698 111.694 167.064 112.031C167.43 112.368 167.619 112.841 167.63 113.449C167.641 114.065 167.47 114.552 167.117 114.91C166.763 115.269 166.27 115.454 165.639 115.465L162.171 115.529L162.064 109.626ZM165.511 112.407L163.279 112.448L163.319 114.608L165.55 114.567C165.878 114.561 166.136 114.46 166.325 114.265C166.513 114.069 166.604 113.804 166.598 113.468C166.592 113.124 166.491 112.861 166.296 112.681C166.101 112.493 165.839 112.401 165.511 112.407ZM169.418 115.397L168.218 115.418L168.111 109.515L169.31 109.494L169.418 115.397ZM171.478 111.939L174.501 111.884C174.484 111.356 174.332 110.946 174.047 110.656C173.762 110.365 173.403 110.223 172.971 110.231C172.531 110.239 172.174 110.398 171.899 110.707C171.633 111.008 171.492 111.418 171.478 111.939ZM175.751 112.629L171.456 112.707C171.49 113.291 171.651 113.744 171.937 114.067C172.231 114.389 172.613 114.546 173.085 114.538C173.429 114.531 173.72 114.442 173.957 114.27C174.202 114.097 174.361 113.862 174.436 113.565L175.684 113.542C175.331 114.813 174.47 115.461 173.103 115.486C172.199 115.502 171.502 115.243 171.012 114.707C170.522 114.164 170.268 113.405 170.251 112.429C170.233 111.445 170.459 110.677 170.929 110.124C171.407 109.571 172.082 109.287 172.954 109.271C173.849 109.255 174.535 109.535 175.009 110.11C175.484 110.685 175.731 111.525 175.751 112.629ZM182.532 114.306C183.083 114.296 183.504 114.108 183.793 113.743C184.083 113.377 184.221 112.855 184.209 112.175C184.197 111.503 184.039 110.99 183.737 110.635C183.442 110.28 183.015 110.108 182.455 110.118C181.895 110.129 181.471 110.316 181.181 110.682C180.892 111.047 180.753 111.566 180.766 112.238C180.778 112.909 180.935 113.427 181.238 113.789C181.54 114.144 181.972 114.316 182.532 114.306ZM182.538 115.314C181.626 115.33 180.901 115.06 180.363 114.501C179.824 113.935 179.547 113.188 179.53 112.26C179.513 111.316 179.767 110.559 180.293 109.99C180.818 109.412 181.533 109.115 182.437 109.099C183.333 109.082 184.05 109.353 184.588 109.912C185.126 110.462 185.404 111.205 185.421 112.141C185.438 113.085 185.188 113.845 184.67 114.423C184.152 115 183.442 115.297 182.538 115.314ZM190.274 112.881L191.485 112.858C191.41 113.548 191.132 114.109 190.652 114.542C190.172 114.967 189.575 115.186 188.864 115.199C188.072 115.213 187.431 114.953 186.941 114.417C186.451 113.874 186.197 113.091 186.178 112.067C186.16 111.051 186.386 110.287 186.856 109.774C187.327 109.262 187.975 108.998 188.798 108.983C189.55 108.969 190.166 109.158 190.645 109.549C191.124 109.941 191.398 110.492 191.467 111.203L190.255 111.225C190.2 110.818 190.042 110.508 189.782 110.297C189.523 110.086 189.201 109.984 188.817 109.991C188.369 109.999 188.012 110.169 187.746 110.502C187.488 110.827 187.365 111.337 187.378 112.033C187.391 112.745 187.537 113.286 187.815 113.657C188.094 114.02 188.453 114.198 188.893 114.19C189.253 114.183 189.563 114.066 189.823 113.837C190.091 113.6 190.241 113.281 190.274 112.881ZM195.443 114.923L194.267 114.944L194.177 110.013L191.969 110.053L191.952 109.081L197.543 108.98L197.56 109.951L195.353 109.992L195.443 114.923ZM202.125 112.605L202.122 111.753C202.099 111.785 202.067 111.814 202.028 111.838C201.996 111.855 201.948 111.876 201.885 111.901C201.829 111.918 201.777 111.935 201.73 111.952C201.69 111.969 201.622 111.986 201.526 112.004C201.439 112.021 201.371 112.034 201.323 112.043C201.275 112.052 201.188 112.066 201.06 112.084C200.94 112.102 200.856 112.116 200.809 112.125C200.29 112.222 199.92 112.349 199.699 112.505C199.478 112.653 199.37 112.899 199.377 113.243C199.388 113.843 199.733 114.137 200.413 114.124C200.909 114.115 201.314 113.968 201.629 113.682C201.952 113.388 202.117 113.029 202.125 112.605ZM203.377 114.778L202.261 114.799C202.253 114.783 202.224 114.515 202.175 113.996C201.811 114.643 201.132 114.975 200.141 114.993C198.853 115.017 198.198 114.453 198.178 113.301C198.172 113.005 198.215 112.748 198.307 112.53C198.407 112.304 198.524 112.13 198.658 112.008C198.792 111.877 198.99 111.766 199.252 111.673C199.522 111.572 199.753 111.504 199.944 111.468C200.144 111.425 200.423 111.376 200.782 111.321C201.045 111.276 201.233 111.245 201.344 111.227C201.464 111.201 201.587 111.166 201.714 111.124C201.85 111.074 201.941 111.016 201.987 110.951C202.042 110.878 202.072 110.789 202.079 110.685C202.066 110.013 201.632 109.685 200.776 109.701C199.937 109.716 199.492 110.104 199.441 110.865L198.326 110.886C198.324 109.501 199.152 108.794 200.807 108.764C201.695 108.748 202.331 108.932 202.714 109.318C203.097 109.695 203.295 110.271 203.309 111.047L203.377 114.778ZM205.614 114.738L204.414 114.759L204.307 108.856L205.507 108.835L205.552 111.294L206.223 111.282C206.305 110.48 206.601 109.839 207.113 109.357C207.632 108.876 208.299 108.628 209.115 108.613C210.011 108.597 210.728 108.868 211.266 109.426C211.805 109.976 212.082 110.719 212.099 111.655C212.116 112.599 211.866 113.36 211.349 113.937C210.831 114.515 210.12 114.812 209.216 114.828C208.377 114.843 207.692 114.612 207.163 114.133C206.635 113.655 206.323 113.008 206.228 112.194L205.568 112.206L205.614 114.738ZM209.21 113.82C209.762 113.81 210.183 113.622 210.472 113.257C210.761 112.892 210.9 112.369 210.888 111.689C210.875 111.017 210.718 110.504 210.416 110.149C210.121 109.795 209.694 109.622 209.134 109.633C208.574 109.643 208.149 109.831 207.86 110.196C207.571 110.561 207.432 111.08 207.444 111.752C207.456 112.424 207.614 112.941 207.917 113.303C208.219 113.658 208.65 113.83 209.21 113.82ZM215.694 114.554L214.519 114.575L214.429 109.644L212.221 109.684L212.204 108.713L217.795 108.611L217.812 109.583L215.605 109.623L215.694 114.554ZM222.007 112.303L223.219 112.281C223.144 112.97 222.866 113.531 222.386 113.964C221.905 114.389 221.309 114.608 220.597 114.621C219.805 114.635 219.165 114.375 218.675 113.84C218.185 113.297 217.931 112.513 217.912 111.489C217.893 110.473 218.12 109.709 218.59 109.196C219.061 108.684 219.708 108.42 220.532 108.405C221.284 108.391 221.9 108.58 222.379 108.971C222.858 109.363 223.132 109.914 223.201 110.625L221.989 110.647C221.934 110.24 221.776 109.931 221.516 109.719C221.256 109.508 220.934 109.406 220.551 109.413C220.103 109.421 219.746 109.592 219.48 109.924C219.222 110.249 219.099 110.759 219.111 111.455C219.124 112.167 219.27 112.709 219.549 113.08C219.828 113.443 220.187 113.62 220.627 113.612C220.987 113.606 221.297 113.488 221.557 113.259C221.824 113.022 221.975 112.703 222.007 112.303ZM229.144 114.309L227.968 114.331L227.929 112.195L226.43 112.222L225.017 114.384L223.781 114.407L225.313 112.183C224.333 112 223.834 111.409 223.816 110.41C223.805 109.81 223.977 109.338 224.331 108.996C224.684 108.653 225.173 108.477 225.797 108.465L229.037 108.406L229.144 114.309ZM225.933 111.331L227.913 111.295L227.877 109.339L225.898 109.375C225.562 109.382 225.299 109.474 225.111 109.654C224.922 109.833 224.83 110.075 224.836 110.379C224.841 110.683 224.942 110.921 225.137 111.094C225.332 111.258 225.597 111.337 225.933 111.331ZM234.395 114.214L233.231 114.235L233.123 108.332L238.402 108.236L238.51 114.139L237.334 114.16L237.244 109.229L234.305 109.282L234.395 114.214ZM242.297 113.218C242.849 113.208 243.269 113.02 243.559 112.655C243.848 112.289 243.986 111.767 243.974 111.087C243.962 110.415 243.804 109.902 243.502 109.547C243.207 109.192 242.78 109.02 242.22 109.03C241.66 109.04 241.236 109.228 240.946 109.594C240.657 109.959 240.518 110.478 240.531 111.149C240.543 111.821 240.7 112.339 241.003 112.701C241.305 113.056 241.737 113.228 242.297 113.218ZM242.303 114.226C241.391 114.242 240.666 113.971 240.128 113.413C239.589 112.847 239.312 112.1 239.295 111.172C239.278 110.228 239.532 109.471 240.058 108.902C240.583 108.324 241.298 108.027 242.202 108.01C243.098 107.994 243.815 108.265 244.353 108.823C244.891 109.374 245.169 110.117 245.186 111.053C245.203 111.996 244.953 112.757 244.435 113.335C243.918 113.912 243.207 114.209 242.303 114.226ZM246.237 115.786L245.361 115.802L245.311 113.055L245.527 113.051C245.831 113.045 246.066 112.981 246.231 112.858C246.397 112.727 246.529 112.476 246.626 112.107C246.731 111.729 246.797 111.175 246.824 110.447L246.925 108.08L251.016 108.006L251.106 112.949L252.006 112.933L252.056 115.68L251.18 115.696L251.147 113.909L246.204 113.999L246.237 115.786ZM249.858 108.999L247.806 109.037L247.749 110.49C247.699 111.723 247.502 112.567 247.159 113.021L249.93 112.971L249.858 108.999ZM258.337 111.065L257.737 111.076L257.722 110.284L258.298 110.274C258.698 110.267 259.001 110.185 259.206 110.029C259.419 109.873 259.523 109.655 259.518 109.375C259.508 108.8 259.066 108.52 258.195 108.535C257.251 108.553 256.786 108.945 256.8 109.713L255.624 109.734C255.661 109.142 255.888 108.661 256.306 108.294C256.731 107.926 257.368 107.734 258.216 107.719C258.976 107.705 259.566 107.838 259.987 108.119C260.416 108.399 260.635 108.779 260.644 109.259C260.65 109.603 260.544 109.897 260.324 110.141C260.112 110.377 259.819 110.53 259.444 110.601C259.853 110.65 260.192 110.799 260.461 111.051C260.737 111.294 260.879 111.627 260.887 112.051C260.897 112.611 260.669 113.063 260.204 113.408C259.738 113.744 259.105 113.92 258.305 113.934C257.441 113.95 256.786 113.774 256.339 113.406C255.892 113.03 255.647 112.534 255.604 111.919L256.78 111.898C256.818 112.713 257.322 113.112 258.29 113.094C258.737 113.086 259.088 112.992 259.341 112.811C259.593 112.631 259.716 112.356 259.71 111.988C259.698 111.357 259.24 111.049 258.337 111.065ZM265.4 111.453L265.396 110.601C265.373 110.633 265.341 110.662 265.302 110.686C265.27 110.703 265.222 110.724 265.159 110.749C265.103 110.766 265.051 110.783 265.004 110.8C264.964 110.817 264.896 110.834 264.8 110.852C264.713 110.869 264.645 110.882 264.597 110.891C264.549 110.9 264.462 110.914 264.334 110.932C264.214 110.95 264.13 110.964 264.083 110.973C263.564 111.07 263.195 111.197 262.973 111.353C262.752 111.501 262.644 111.747 262.651 112.091C262.662 112.691 263.007 112.985 263.687 112.972C264.183 112.963 264.588 112.816 264.903 112.53C265.226 112.236 265.391 111.877 265.4 111.453ZM266.651 113.626L265.535 113.647C265.527 113.631 265.498 113.363 265.449 112.844C265.085 113.491 264.407 113.823 263.415 113.841C262.127 113.865 261.473 113.301 261.452 112.149C261.446 111.853 261.489 111.596 261.582 111.378C261.681 111.152 261.798 110.978 261.932 110.856C262.066 110.725 262.264 110.614 262.526 110.521C262.796 110.42 263.027 110.352 263.218 110.316C263.418 110.273 263.697 110.224 264.056 110.169C264.319 110.124 264.507 110.093 264.618 110.075C264.738 110.049 264.861 110.014 264.989 109.972C265.124 109.922 265.215 109.864 265.261 109.799C265.316 109.726 265.346 109.637 265.353 109.533C265.34 108.861 264.906 108.533 264.05 108.549C263.211 108.564 262.766 108.952 262.715 109.713L261.6 109.734C261.598 108.349 262.426 107.642 264.081 107.612C264.969 107.596 265.605 107.78 265.988 108.165C266.371 108.543 266.569 109.119 266.583 109.895L266.651 113.626ZM276.648 115.233L275.772 115.249L275.739 113.461L267.688 113.607L267.581 107.704L268.745 107.683L268.835 112.626L271.114 112.585L271.024 107.642L272.164 107.621L272.254 112.564L274.534 112.523L274.444 107.579L275.608 107.558L275.698 112.501L276.598 112.485L276.648 115.233ZM278.547 113.41L277.396 113.431L277.288 107.528L278.464 107.506L278.543 111.826L281.295 107.455L282.555 107.432L282.663 113.335L281.487 113.356L281.406 108.917L278.547 113.41ZM286.801 113.259L285.625 113.281L285.535 108.35L283.328 108.39L283.31 107.418L288.901 107.316L288.919 108.288L286.711 108.328L286.801 113.259ZM291.997 112.313C292.549 112.303 292.97 112.115 293.259 111.75C293.549 111.384 293.687 110.862 293.675 110.182C293.663 109.51 293.505 108.997 293.203 108.642C292.908 108.287 292.481 108.115 291.921 108.125C291.361 108.136 290.937 108.323 290.647 108.689C290.358 109.054 290.219 109.573 290.231 110.244C290.244 110.916 290.401 111.434 290.704 111.796C291.006 112.151 291.438 112.323 291.997 112.313ZM292.004 113.321C291.092 113.337 290.367 113.066 289.829 112.508C289.29 111.942 289.013 111.195 288.996 110.267C288.979 109.323 289.233 108.566 289.758 107.997C290.284 107.419 290.999 107.122 291.903 107.106C292.798 107.089 293.516 107.36 294.054 107.919C294.592 108.469 294.869 109.212 294.886 110.148C294.904 111.092 294.653 111.852 294.136 112.43C293.618 113.007 292.908 113.304 292.004 113.321ZM299.411 104.076L300.239 104.061C300.251 104.693 300.072 105.189 299.702 105.547C299.341 105.898 298.896 106.078 298.368 106.088C297.84 106.097 297.385 105.934 297.003 105.596C296.628 105.251 296.435 104.763 296.424 104.131L297.264 104.115C297.279 104.491 297.384 104.781 297.58 104.986C297.775 105.19 298.033 105.29 298.353 105.284C298.673 105.278 298.927 105.169 299.115 104.958C299.312 104.746 299.41 104.452 299.411 104.076ZM296.995 113.074L295.843 113.095L295.736 107.192L296.911 107.17L296.99 111.49L299.743 107.119L301.003 107.096L301.11 112.999L299.934 113.02L299.854 108.581L296.995 113.074Z" fill="#9A9A9A"/>
<path d="M121.194 187.239L119.934 187.262L119.808 180.351L116.041 180.419L116.167 187.33L114.919 187.353L114.774 179.386L121.049 179.272L121.194 187.239ZM124.863 186.308C125.367 186.299 125.751 186.116 126.017 185.759C126.29 185.394 126.421 184.887 126.409 184.239C126.397 183.559 126.239 183.03 125.936 182.652C125.641 182.273 125.25 182.088 124.762 182.097C124.29 182.105 123.906 182.296 123.608 182.67C123.319 183.043 123.181 183.566 123.193 184.238C123.204 184.862 123.353 185.367 123.64 185.754C123.927 186.133 124.335 186.317 124.863 186.308ZM123.346 189.996L122.158 190.018L121.999 181.319L123.163 181.298L123.183 182.366C123.504 181.544 124.12 181.124 125.032 181.108C125.784 181.094 126.401 181.363 126.883 181.914C127.365 182.466 127.615 183.233 127.633 184.217C127.65 185.153 127.444 185.901 127.014 186.461C126.584 187.021 125.997 187.307 125.253 187.321C124.333 187.338 123.674 186.933 123.275 186.109L123.346 189.996ZM131.361 186.201C131.913 186.191 132.334 186.004 132.623 185.638C132.912 185.273 133.051 184.75 133.039 184.071C133.026 183.399 132.869 182.885 132.566 182.531C132.272 182.176 131.845 182.004 131.285 182.014C130.725 182.024 130.3 182.212 130.011 182.577C129.722 182.943 129.583 183.461 129.595 184.133C129.607 184.805 129.765 185.322 130.067 185.685C130.37 186.039 130.801 186.212 131.361 186.201ZM131.367 187.209C130.456 187.226 129.731 186.955 129.192 186.397C128.654 185.831 128.376 185.084 128.359 184.156C128.342 183.212 128.596 182.455 129.122 181.885C129.648 181.308 130.362 181.011 131.266 180.994C132.162 180.978 132.879 181.249 133.417 181.807C133.956 182.358 134.233 183.101 134.25 184.036C134.267 184.98 134.017 185.741 133.5 186.319C132.982 186.896 132.271 187.193 131.367 187.209ZM136.359 186.963L135.207 186.984L135.099 181.081L136.275 181.059L136.354 185.378L139.107 181.008L140.366 180.985L140.474 186.888L139.298 186.909L139.217 182.47L136.359 186.963ZM143.951 184.112L143.351 184.123L143.336 183.331L143.912 183.32C144.312 183.313 144.615 183.232 144.82 183.076C145.033 182.92 145.137 182.702 145.132 182.422C145.122 181.846 144.681 181.566 143.809 181.582C142.865 181.599 142.4 181.992 142.414 182.76L141.238 182.781C141.275 182.188 141.503 181.708 141.92 181.34C142.345 180.973 142.982 180.781 143.83 180.766C144.59 180.752 145.18 180.885 145.601 181.165C146.031 181.446 146.25 181.826 146.258 182.306C146.265 182.65 146.158 182.944 145.938 183.188C145.727 183.423 145.433 183.577 145.058 183.648C145.467 183.696 145.806 183.846 146.075 184.097C146.351 184.34 146.493 184.674 146.501 185.098C146.511 185.658 146.284 186.11 145.818 186.454C145.352 186.791 144.719 186.966 143.919 186.981C143.055 186.997 142.4 186.821 141.953 186.453C141.506 186.077 141.261 185.581 141.218 184.966L142.394 184.944C142.432 185.76 142.936 186.159 143.904 186.141C144.352 186.133 144.702 186.039 144.955 185.858C145.207 185.677 145.33 185.403 145.324 185.035C145.312 184.403 144.855 184.095 143.951 184.112ZM150.394 186.707L147.286 186.764L147.179 180.861L150.55 180.799C151.214 180.787 151.7 180.91 152.009 181.169C152.318 181.419 152.476 181.756 152.484 182.18C152.49 182.524 152.403 182.814 152.223 183.049C152.044 183.276 151.802 183.425 151.499 183.494C151.837 183.552 152.123 183.711 152.36 183.971C152.597 184.223 152.719 184.564 152.727 184.996C152.736 185.516 152.552 185.928 152.173 186.231C151.795 186.534 151.202 186.692 150.394 186.707ZM148.411 185.891L150.21 185.858C151.098 185.842 151.536 185.51 151.524 184.862C151.513 184.23 151.119 183.921 150.343 183.935L148.376 183.971L148.411 185.891ZM148.363 183.275L150.295 183.24C150.983 183.228 151.322 182.954 151.312 182.418C151.302 181.882 150.933 181.62 150.205 181.634L148.334 181.668L148.363 183.275ZM156.282 185.748C156.834 185.738 157.254 185.55 157.544 185.185C157.833 184.819 157.972 184.297 157.959 183.617C157.947 182.945 157.79 182.432 157.487 182.077C157.193 181.722 156.765 181.55 156.206 181.56C155.646 181.571 155.221 181.758 154.932 182.124C154.642 182.489 154.504 183.008 154.516 183.679C154.528 184.351 154.686 184.869 154.988 185.231C155.291 185.586 155.722 185.758 156.282 185.748ZM156.288 186.756C155.376 186.772 154.651 186.501 154.113 185.943C153.575 185.377 153.297 184.63 153.28 183.702C153.263 182.758 153.517 182.001 154.043 181.432C154.568 180.854 155.283 180.557 156.187 180.541C157.083 180.524 157.8 180.795 158.338 181.354C158.876 181.904 159.154 182.647 159.171 183.583C159.188 184.527 158.938 185.287 158.42 185.865C157.903 186.442 157.192 186.739 156.288 186.756ZM160.222 188.316L159.346 188.332L159.296 185.585L159.512 185.581C159.816 185.575 160.051 185.511 160.217 185.388C160.382 185.257 160.514 185.007 160.611 184.637C160.716 184.259 160.782 183.705 160.809 182.977L160.91 180.611L165.001 180.536L165.091 185.479L165.991 185.463L166.041 188.21L165.165 188.226L165.133 186.439L160.189 186.529L160.222 188.316ZM163.843 181.529L161.791 181.567L161.734 183.02C161.684 184.253 161.488 185.097 161.144 185.551L163.915 185.501L163.843 181.529ZM171.875 186.316L170.7 186.337L170.661 184.202L169.161 184.229L167.748 186.391L166.512 186.414L168.044 184.189C167.065 184.007 166.566 183.416 166.547 182.416C166.537 181.816 166.708 181.345 167.062 181.003C167.416 180.66 167.905 180.483 168.528 180.472L171.768 180.413L171.875 186.316ZM168.665 183.338L170.644 183.302L170.609 181.346L168.629 181.382C168.293 181.388 168.031 181.481 167.842 181.661C167.653 181.84 167.562 182.082 167.567 182.386C167.573 182.69 167.673 182.928 167.868 183.1C168.063 183.265 168.329 183.344 168.665 183.338ZM176.006 186.241L174.83 186.262L174.74 181.331L172.533 181.371L172.515 180.399L178.106 180.297L178.124 181.269L175.916 181.31L176.006 186.241ZM182.319 183.989L183.531 183.967C183.455 184.657 183.177 185.218 182.697 185.651C182.217 186.076 181.621 186.295 180.909 186.307C180.117 186.322 179.476 186.062 178.986 185.526C178.496 184.983 178.242 184.2 178.223 183.176C178.205 182.16 178.431 181.396 178.902 180.883C179.373 180.37 180.02 180.107 180.844 180.092C181.596 180.078 182.211 180.267 182.69 180.658C183.17 181.049 183.444 181.601 183.513 182.311L182.301 182.333C182.245 181.926 182.088 181.617 181.828 181.406C181.568 181.195 181.246 181.092 180.862 181.099C180.414 181.108 180.057 181.278 179.791 181.611C179.533 181.936 179.41 182.446 179.423 183.142C179.436 183.854 179.582 184.395 179.861 184.766C180.139 185.129 180.499 185.307 180.939 185.299C181.299 185.292 181.608 185.175 181.868 184.946C182.136 184.709 182.286 184.39 182.319 183.989ZM189.456 185.996L188.28 186.017L188.241 183.882L186.741 183.909L185.328 186.071L184.093 186.093L185.624 183.869C184.645 183.687 184.146 183.096 184.128 182.096C184.117 181.496 184.288 181.025 184.642 180.683C184.996 180.34 185.485 180.163 186.109 180.152L189.348 180.093L189.456 185.996ZM186.245 183.018L188.225 182.982L188.189 181.026L186.209 181.062C185.873 181.068 185.611 181.161 185.422 181.34C185.234 181.52 185.142 181.762 185.147 182.066C185.153 182.37 185.253 182.608 185.449 182.78C185.644 182.945 185.909 183.024 186.245 183.018ZM194.548 182.483L197.571 182.428C197.554 181.9 197.402 181.49 197.117 181.2C196.832 180.909 196.473 180.767 196.041 180.775C195.601 180.783 195.244 180.942 194.97 181.251C194.703 181.552 194.562 181.962 194.548 182.483ZM198.821 183.173L194.526 183.251C194.561 183.835 194.721 184.288 195.007 184.611C195.301 184.933 195.684 185.09 196.155 185.082C196.499 185.075 196.79 184.986 197.027 184.814C197.272 184.641 197.431 184.406 197.506 184.109L198.754 184.086C198.401 185.357 197.541 186.005 196.173 186.03C195.269 186.046 194.572 185.787 194.082 185.251C193.592 184.708 193.338 183.949 193.321 182.973C193.303 181.989 193.529 181.221 193.999 180.668C194.477 180.115 195.152 179.831 196.024 179.815C196.919 179.799 197.605 180.079 198.079 180.654C198.554 181.229 198.801 182.069 198.821 183.173ZM202.936 179.845L202.979 182.245L204.819 179.811L206.199 179.786L203.828 182.722L206.414 185.687L204.987 185.713L203 183.361L203.043 185.748L201.939 185.769L201.896 183.381L199.995 185.804L198.58 185.83L201.044 182.772L198.568 179.925L199.948 179.9L201.875 182.265L201.832 179.866L202.936 179.845ZM207.295 182.25L210.319 182.195C210.301 181.668 210.15 181.258 209.864 180.967C209.579 180.677 209.22 180.535 208.788 180.543C208.349 180.551 207.991 180.71 207.717 181.019C207.45 181.319 207.31 181.73 207.295 182.25ZM211.569 182.941L207.273 183.019C207.308 183.602 207.468 184.056 207.754 184.378C208.048 184.701 208.431 184.858 208.903 184.85C209.247 184.843 209.537 184.754 209.774 184.582C210.019 184.409 210.179 184.174 210.253 183.877L211.501 183.854C211.148 185.125 210.288 185.773 208.92 185.797C208.016 185.814 207.319 185.555 206.83 185.019C206.34 184.476 206.086 183.717 206.068 182.741C206.05 181.757 206.276 180.989 206.746 180.436C207.224 179.883 207.899 179.599 208.771 179.583C209.667 179.567 210.352 179.846 210.827 180.422C211.301 180.997 211.549 181.837 211.569 182.941ZM219.092 185.456L218.025 185.476L217.943 180.964L216.381 185.506L215.205 185.527L213.48 181.07L213.561 185.557L212.494 185.576L212.386 179.673L214.066 179.643L215.793 184.208L217.353 179.583L218.985 179.553L219.092 185.456ZM221.109 181.999L224.132 181.944C224.115 181.416 223.963 181.007 223.678 180.716C223.393 180.425 223.034 180.284 222.602 180.291C222.162 180.3 221.805 180.458 221.531 180.767C221.264 181.068 221.124 181.479 221.109 181.999ZM225.382 182.689L221.087 182.767C221.122 183.351 221.282 183.804 221.568 184.127C221.862 184.45 222.245 184.607 222.717 184.598C223.06 184.592 223.351 184.503 223.588 184.33C223.833 184.158 223.992 183.923 224.067 183.625L225.315 183.603C224.962 184.873 224.102 185.521 222.734 185.546C221.83 185.562 221.133 185.303 220.643 184.768C220.153 184.225 219.899 183.465 219.882 182.489C219.864 181.506 220.09 180.737 220.56 180.185C221.038 179.632 221.713 179.348 222.585 179.332C223.481 179.315 224.166 179.595 224.64 180.17C225.115 180.746 225.362 181.585 225.382 182.689ZM230.204 183.118L231.415 183.096C231.34 183.785 231.062 184.346 230.582 184.779C230.102 185.204 229.506 185.423 228.794 185.436C228.002 185.45 227.361 185.19 226.871 184.655C226.381 184.111 226.127 183.328 226.108 182.304C226.09 181.288 226.316 180.524 226.787 180.011C227.257 179.499 227.905 179.235 228.728 179.22C229.48 179.206 230.096 179.395 230.575 179.786C231.054 180.178 231.328 180.729 231.397 181.44L230.186 181.462C230.13 181.055 229.972 180.745 229.713 180.534C229.453 180.323 229.131 180.221 228.747 180.228C228.299 180.236 227.942 180.406 227.676 180.739C227.418 181.064 227.295 181.574 227.308 182.27C227.321 182.982 227.467 183.523 227.745 183.894C228.024 184.257 228.383 184.435 228.823 184.427C229.183 184.42 229.493 184.303 229.753 184.074C230.021 183.837 230.171 183.518 230.204 183.118ZM237.34 185.124L236.165 185.145L236.126 183.01L234.626 183.037L233.213 185.199L231.977 185.222L233.509 182.997C232.53 182.815 232.031 182.224 232.013 181.224C232.002 180.624 232.173 180.153 232.527 179.811C232.881 179.468 233.37 179.291 233.993 179.28L237.233 179.221L237.34 185.124ZM234.13 182.146L236.109 182.11L236.074 180.154L234.094 180.19C233.758 180.196 233.496 180.289 233.307 180.469C233.118 180.648 233.027 180.89 233.032 181.194C233.038 181.498 233.138 181.736 233.333 181.908C233.528 182.073 233.794 182.152 234.13 182.146ZM243.511 185.012L242.347 185.033L242.302 182.561C241.77 182.803 241.113 182.931 240.329 182.945C239.625 182.958 239.09 182.828 238.725 182.554C238.368 182.273 238.182 181.748 238.169 180.98L238.136 179.205L239.312 179.183L239.344 180.935C239.352 181.367 239.465 181.661 239.684 181.817C239.911 181.973 240.248 182.047 240.696 182.038C241.384 182.026 241.914 181.916 242.286 181.709L242.239 179.13L243.403 179.109L243.511 185.012ZM245.696 184.972L244.532 184.993L244.425 179.09L245.588 179.069L245.632 181.48L248.572 181.427L248.528 179.015L249.704 178.994L249.811 184.897L248.635 184.918L248.589 182.387L245.65 182.44L245.696 184.972ZM253.598 183.976C254.15 183.966 254.57 183.778 254.86 183.413C255.149 183.047 255.288 182.525 255.275 181.845C255.263 181.173 255.106 180.66 254.803 180.305C254.509 179.951 254.082 179.778 253.522 179.789C252.962 179.799 252.537 179.987 252.248 180.352C251.958 180.717 251.82 181.236 251.832 181.908C251.844 182.58 252.002 183.097 252.304 183.459C252.607 183.814 253.038 183.986 253.598 183.976ZM253.604 184.984C252.692 185.001 251.967 184.73 251.429 184.171C250.891 183.605 250.613 182.858 250.596 181.93C250.579 180.986 250.833 180.23 251.359 179.66C251.885 179.082 252.599 178.785 253.503 178.769C254.399 178.752 255.116 179.023 255.654 179.582C256.192 180.132 256.47 180.875 256.487 181.811C256.504 182.755 256.254 183.515 255.736 184.093C255.219 184.67 254.508 184.967 253.604 184.984ZM258.339 184.742L257.032 184.765L257.006 183.338L258.313 183.314L258.339 184.742Z" fill="#9A9A9A"/>
<rect x="292.503" y="27.893" width="29" height="29" rx="14.5" transform="rotate(-3.13628 292.503 27.893)" fill="white"/>
<rect x="292.503" y="27.893" width="29" height="29" rx="14.5" transform="rotate(-3.13628 292.503 27.893)" stroke="#E3E3E3"/>
<path d="M311.313 37.6285L304.235 45.5276M303.825 38.0388L311.724 45.1173" stroke="#4F4F4F" stroke-width="1.25" stroke-linecap="round" stroke-linejoin="round"/>
<g filter="url(#filter2_d_96_319576)">
<path fill-rule="evenodd" clip-rule="evenodd" d="M92.9899 88.678L75.3703 92.3597C75.1442 91.2777 74.085 90.5852 73.0037 90.8111L65.1727 92.4474C64.0914 92.6733 63.3981 93.7321 63.6241 94.814L64.8514 100.687C65.0773 101.769 66.1367 102.462 67.218 102.236L94.6262 96.509C95.7075 96.2831 96.4007 95.2237 96.1747 94.1424L95.3564 90.2259C95.1304 89.1446 94.0712 88.4521 92.9899 88.678Z" fill="white"/>
<path d="M91.4411 91.0441L67.9481 95.953C66.8668 96.179 66.1736 97.2384 66.3998 98.321L66.8088 100.279C67.0348 101.36 68.0942 102.053 69.1755 101.827L92.6684 96.9182C93.7497 96.6923 94.4429 95.6329 94.217 94.5516L93.808 92.594C93.5819 91.512 92.5223 90.8182 91.4411 91.0441Z" fill="#EEEEEE"/>
<path d="M93.8078 92.5933L66.399 98.3205C65.3179 98.5464 64.6245 99.6059 64.8504 100.687L68.9413 120.265C69.1672 121.346 70.2267 122.039 71.3079 121.813L98.7167 116.086C99.7979 115.86 100.491 114.801 100.265 113.72L96.1744 94.1419C95.9485 93.0607 94.889 92.3674 93.8078 92.5933Z" fill="url(#paint1_linear_96_319576)"/>
<path fill-rule="evenodd" clip-rule="evenodd" d="M85.2464 100.512L77.4154 102.148C76.8751 102.261 76.5278 102.791 76.6409 103.332L77.0498 105.289C77.1628 105.83 77.6926 106.177 78.2336 106.064C78.7746 105.951 79.121 105.421 79.008 104.88L78.8037 103.902L80.7613 103.493L82.3976 111.324L81.4185 111.529C80.8781 111.642 80.5309 112.171 80.6439 112.712C80.757 113.253 81.2864 113.599 81.8274 113.486L85.7425 112.667C86.2828 112.555 86.6302 112.025 86.5173 111.485C86.4044 110.945 85.8746 110.598 85.3336 110.711L84.3545 110.915L82.7182 103.084L84.6758 102.675L84.8801 103.653C84.9931 104.194 85.523 104.541 86.064 104.428C86.6049 104.315 86.9514 103.785 86.8384 103.244L86.4295 101.287C86.3164 100.746 85.7867 100.399 85.2457 100.512L85.2464 100.512Z" fill="#EEEEEE"/>
</g>
<defs>
<filter id="filter0_d_96_319576" x="0.391235" y="6.68457" width="354.485" height="262.503" filterUnits="userSpaceOnUse" color-interpolation-filters="sRGB">
<feFlood flood-opacity="0" result="BackgroundImageFix"/>
<feColorMatrix in="SourceAlpha" type="matrix" values="0 0 0 0 0 0 0 0 0 0 0 0 0 0 0 0 0 0 127 0" result="hardAlpha"/>
<feOffset dx="-11" dy="22"/>
<feGaussianBlur stdDeviation="13"/>
<feComposite in2="hardAlpha" operator="out"/>
<feColorMatrix type="matrix" values="0 0 0 0 0 0 0 0 0 0 0 0 0 0 0 0 0 0 0.1 0"/>
<feBlend mode="normal" in2="BackgroundImageFix" result="effect1_dropShadow_96_319576"/>
<feBlend mode="normal" in="SourceGraphic" in2="effect1_dropShadow_96_319576" result="shape"/>
</filter>
<filter id="filter1_d_96_319576" x="63.3179" y="159.35" width="43.1906" height="39.6477" filterUnits="userSpaceOnUse" color-interpolation-filters="sRGB">
<feFlood flood-opacity="0" result="BackgroundImageFix"/>
<feColorMatrix in="SourceAlpha" type="matrix" values="0 0 0 0 0 0 0 0 0 0 0 0 0 0 0 0 0 0 127 0" result="hardAlpha"/>
<feOffset dx="-2" dy="4"/>
<feGaussianBlur stdDeviation="2"/>
<feComposite in2="hardAlpha" operator="out"/>
<feColorMatrix type="matrix" values="0 0 0 0 0 0 0 0 0 0 0 0 0 0 0 0 0 0 0.1 0"/>
<feBlend mode="normal" in2="BackgroundImageFix" result="effect1_dropShadow_96_319576"/>
<feBlend mode="normal" in="SourceGraphic" in2="effect1_dropShadow_96_319576" result="shape"/>
</filter>
<filter id="filter2_d_96_319576" x="57.5814" y="87.6353" width="44.7266" height="41.2209" filterUnits="userSpaceOnUse" color-interpolation-filters="sRGB">
<feFlood flood-opacity="0" result="BackgroundImageFix"/>
<feColorMatrix in="SourceAlpha" type="matrix" values="0 0 0 0 0 0 0 0 0 0 0 0 0 0 0 0 0 0 127 0" result="hardAlpha"/>
<feOffset dx="-2" dy="3"/>
<feGaussianBlur stdDeviation="2"/>
<feComposite in2="hardAlpha" operator="out"/>
<feColorMatrix type="matrix" values="0 0 0 0 0 0 0 0 0 0 0 0 0 0 0 0 0 0 0.1 0"/>
<feBlend mode="normal" in2="BackgroundImageFix" result="effect1_dropShadow_96_319576"/>
<feBlend mode="normal" in="SourceGraphic" in2="effect1_dropShadow_96_319576" result="shape"/>
</filter>
<linearGradient id="paint0_linear_96_319576" x1="85.4587" y1="165.508" x2="89.3375" y2="188.708" gradientUnits="userSpaceOnUse">
<stop stop-color="white"/>
<stop offset="1" stop-color="#F0F0F0"/>
</linearGradient>
<linearGradient id="paint1_linear_96_319576" x1="80.1034" y1="95.4569" x2="85.0123" y2="118.95" gradientUnits="userSpaceOnUse">
<stop offset="0.394543" stop-color="white"/>
<stop offset="1" stop-color="#EFEFEF"/>
</linearGradient>
</defs>
</svg>
