<svg width="233" height="163" viewBox="0 0 233 163" fill="none" xmlns="http://www.w3.org/2000/svg">
<g filter="url(#filter0_d_96_319641)">
<path d="M223.06 33.3849L212.409 141.786C211.723 148.761 205.506 153.866 198.531 153.181L12.6361 134.915C5.66124 134.23 0.556274 128.013 1.24161 121.038L11.8929 12.6362C12.5782 5.66135 18.7957 0.556379 25.7706 1.24171L211.672 19.5078C214.167 19.7531 216.429 20.708 218.258 22.1571C221.554 24.7358 223.5 28.906 223.06 33.3849Z" fill="url(#paint0_linear_96_319641)"/>
<path d="M223.06 33.3848L214.972 115.695C194.371 121.275 172.232 116.535 167.736 106.436C164.44 99.0325 173.103 94.3636 172.116 81.2053C171.643 74.9692 169.261 70.2131 165.655 65.5891C160.827 59.3737 153.79 53.4085 146.264 44.4457C141.424 38.6837 129.561 24.5579 123.682 10.8621L211.665 19.5071C214.161 19.7523 216.423 20.7072 218.257 22.1632C221.56 24.7362 223.501 28.8996 223.06 33.3848Z" fill="url(#paint1_linear_96_319641)"/>
<path d="M220.256 61.9162L212.408 141.786C211.723 148.761 205.512 153.861 198.538 153.175L12.6366 134.909C5.66174 134.224 0.562411 128.013 1.24774 121.038L7.27376 59.7094C11.2685 56.4639 15.8598 53.5108 21.0995 51.1582C37.0778 43.9681 51.6397 45.9863 80.1105 50.3059C114.413 55.5079 116.259 61.6516 140.463 64.7877C150.423 66.0821 158.627 66.143 165.654 65.5892C189.345 63.6663 199.549 54.5573 217.822 60.9822C218.633 61.2704 219.443 61.5773 220.256 61.9162Z" fill="url(#paint2_linear_96_319641)"/>
<path d="M78.1854 6.39185C71.4448 39.6396 41.3031 63.3815 7.0654 61.7669L11.8929 12.6362C12.5782 5.66135 18.7957 0.556379 25.7706 1.24171L78.1854 6.39185Z" fill="url(#paint3_linear_96_319641)"/>
<path opacity="0.33" d="M156.751 149.07L67.9289 140.342L110.07 105.741C113.718 102.752 119.148 103.286 122.144 106.927L156.751 149.07Z" fill="url(#paint4_linear_96_319641)"/>
<path opacity="0.27" d="M212.554 140.304L212.409 141.78C211.724 148.755 205.506 153.86 198.531 153.175L12.6367 134.909C5.66187 134.224 0.556895 128.007 1.24223 121.032L6.12623 71.3254C9.81247 69.8055 13.9993 68.7832 18.5837 68.7283C29.2054 68.6162 37.0199 73.8052 46.1828 80.055C63.7566 92.0451 65.8881 100.37 75.7347 108.083C94.6768 122.924 112.486 112.269 146.695 116.489C172.466 119.679 199.129 130.256 212.554 140.304Z" fill="url(#paint5_linear_96_319641)"/>
<path opacity="0.53" d="M223.06 33.3849L212.409 141.786C211.723 148.761 205.506 153.866 198.531 153.181L12.6361 134.915C5.66124 134.23 0.556274 128.013 1.24161 121.038L11.8929 12.6362C12.5782 5.66135 18.7957 0.556379 25.7706 1.24171L211.672 19.5078C214.167 19.7531 216.429 20.708 218.258 22.1571C221.554 24.7358 223.5 28.906 223.06 33.3849Z" fill="url(#paint6_linear_96_319641)"/>
<path d="M17.58 112.489L18.4239 103.803L19.9974 103.955L19.2817 111.323L23.1074 111.694L22.9793 113.014L17.58 112.489ZM30.6645 104.992L32.2381 105.145L31.6867 110.82C31.6263 111.442 31.4261 111.975 31.0862 112.418C30.7491 112.862 30.3032 113.191 29.7486 113.406C29.1943 113.617 28.5637 113.689 27.8568 113.62C27.1471 113.551 26.5406 113.36 26.0374 113.045C25.5345 112.728 25.1603 112.319 24.9149 111.819C24.6696 111.318 24.5771 110.757 24.6375 110.135L25.1889 104.46L26.7624 104.613L26.2239 110.156C26.1887 110.518 26.2366 110.848 26.3674 111.146C26.5011 111.445 26.7058 111.689 26.9814 111.878C27.2572 112.065 27.5945 112.177 27.9932 112.216C28.3919 112.255 28.7446 112.209 29.0512 112.079C29.3609 111.947 29.6087 111.747 29.7945 111.479C29.9803 111.212 30.0908 110.897 30.126 110.535L30.6645 104.992ZM41.0989 108.964L39.5126 108.81C39.4926 108.545 39.4316 108.307 39.3295 108.094C39.2277 107.879 39.0932 107.692 38.9259 107.533C38.7587 107.374 38.5626 107.248 38.3376 107.154C38.1157 107.059 37.8719 106.998 37.6061 106.972C37.1339 106.926 36.7038 107.004 36.316 107.206C35.9284 107.406 35.6093 107.723 35.3587 108.158C35.1083 108.59 34.9514 109.133 34.888 109.786C34.8234 110.451 34.8722 111.021 35.0344 111.496C35.1997 111.969 35.452 112.339 35.7915 112.606C36.134 112.87 36.5399 113.025 37.0093 113.071C37.2694 113.096 37.5159 113.086 37.7487 113.04C37.9846 112.991 38.1996 112.908 38.3938 112.79C38.5908 112.672 38.7611 112.52 38.9047 112.334C39.0512 112.149 39.1608 111.931 39.2336 111.681L40.8191 111.844C40.7196 112.251 40.5533 112.626 40.3202 112.969C40.0899 113.312 39.803 113.606 39.4594 113.853C39.116 114.096 38.7247 114.275 38.2855 114.389C37.8465 114.501 37.3683 114.531 36.8509 114.481C36.0874 114.407 35.4231 114.164 34.858 113.752C34.2929 113.341 33.8703 112.784 33.5901 112.083C33.31 111.383 33.2153 110.566 33.3059 109.633C33.3968 108.697 33.6485 107.913 34.0608 107.283C34.4735 106.649 34.9967 106.185 35.6305 105.89C36.2642 105.594 36.96 105.484 37.7178 105.557C38.2014 105.604 38.6444 105.716 39.0468 105.892C39.4493 106.068 39.8003 106.303 40.1 106.598C40.3999 106.89 40.636 107.235 40.8085 107.634C40.984 108.031 41.0808 108.474 41.0989 108.964ZM41.9807 114.86L42.8246 106.173L44.3982 106.326L44.0409 110.003L48.066 110.394L48.4232 106.717L50.001 106.87L49.1571 115.557L47.5793 115.403L47.9378 111.713L43.9128 111.322L43.5543 115.012L41.9807 114.86ZM56.2011 109.883C56.1975 109.509 56.0587 109.204 55.7847 108.969C55.5135 108.735 55.1446 108.595 54.6781 108.549C54.3501 108.517 54.0639 108.54 53.8196 108.616C53.5753 108.692 53.3827 108.809 53.2418 108.966C53.1009 109.124 53.0185 109.311 52.9945 109.529C52.9769 109.71 53.0027 109.871 53.0718 110.012C53.1437 110.153 53.2472 110.277 53.3824 110.384C53.5178 110.489 53.6701 110.581 53.8394 110.66C54.0087 110.739 54.1803 110.809 54.3543 110.868L55.1489 111.151C55.4695 111.259 55.7747 111.393 56.0646 111.553C56.3574 111.712 56.6143 111.903 56.8354 112.124C57.0594 112.346 57.2284 112.603 57.3426 112.897C57.4568 113.191 57.4956 113.525 57.4591 113.901C57.4096 114.41 57.236 114.846 56.9383 115.208C56.6408 115.567 56.2354 115.832 55.7223 116.002C55.2122 116.169 54.6094 116.219 53.9138 116.152C53.238 116.086 52.6615 115.924 52.1841 115.667C51.7096 115.409 51.3519 115.066 51.111 114.638C50.8729 114.209 50.7706 113.706 50.804 113.126L52.3521 113.277C52.3453 113.582 52.4142 113.842 52.5587 114.059C52.7032 114.276 52.9021 114.446 53.1554 114.571C53.4116 114.696 53.7037 114.774 54.0317 114.806C54.3739 114.839 54.6785 114.817 54.9457 114.741C55.216 114.661 55.4336 114.537 55.5985 114.367C55.7637 114.195 55.8598 113.984 55.8868 113.736C55.9059 113.509 55.8576 113.316 55.7418 113.157C55.6263 112.994 55.456 112.852 55.2309 112.73C55.009 112.606 54.7463 112.489 54.443 112.38L53.4794 112.029C52.7819 111.776 52.2435 111.442 51.8641 111.029C51.4878 110.613 51.3298 110.094 51.3903 109.471C51.44 108.96 51.6221 108.525 51.9365 108.167C52.2538 107.81 52.6631 107.549 53.1644 107.383C53.666 107.215 54.2208 107.16 54.8287 107.22C55.4451 107.279 55.9747 107.439 56.4176 107.699C56.8635 107.957 57.201 108.288 57.43 108.692C57.6592 109.094 57.7543 109.54 57.7153 110.03L56.2011 109.883ZM58.625 116.477L59.4689 107.79L61.0425 107.943L60.6852 111.62L64.7103 112.011L65.0675 108.334L66.6453 108.487L65.8014 117.174L64.2236 117.021L64.5821 113.33L60.557 112.939L60.1986 116.629L58.625 116.477ZM69.9303 108.807L69.0864 117.493L67.5128 117.34L68.3567 108.654L69.9303 108.807ZM73.2078 109.125L72.3639 117.811L70.7904 117.658L71.6343 108.972L73.2078 109.125ZM77.0305 118.265L77.8744 109.578L81.1318 109.895C81.7991 109.96 82.3469 110.138 82.7751 110.431C83.2062 110.724 83.5165 111.1 83.7061 111.558C83.8987 112.013 83.9683 112.517 83.9147 113.068C83.8606 113.625 83.6952 114.108 83.4185 114.518C83.1417 114.928 82.7623 115.235 82.28 115.439C81.7981 115.641 81.222 115.709 80.5519 115.644L78.393 115.434L78.5187 114.141L80.4655 114.33C80.8557 114.368 81.1818 114.331 81.4438 114.219C81.7058 114.108 81.9077 113.939 82.0496 113.713C82.1942 113.487 82.2815 113.22 82.3115 112.912C82.3414 112.604 82.307 112.327 82.2082 112.08C82.1123 111.834 81.9448 111.634 81.7057 111.479C81.4698 111.322 81.1554 111.224 80.7623 111.186L79.3202 111.046L78.6041 118.418L77.0305 118.265ZM84.8644 119.026L83.1848 118.863L87.0867 110.473L89.0293 110.662L91.2477 119.646L89.5681 119.483L87.9189 112.352L87.851 112.346L84.8644 119.026ZM85.2504 115.625L89.8311 116.07L89.7083 117.334L85.1276 116.889L85.2504 115.625ZM92.3918 119.757L93.2357 111.071L96.4931 111.387C97.1604 111.452 97.709 111.622 98.1389 111.898C98.5716 112.174 98.8836 112.533 99.0748 112.974C99.2691 113.412 99.3393 113.909 99.2855 114.463C99.2314 115.02 99.0656 115.492 98.7883 115.879C98.514 116.263 98.137 116.545 97.6572 116.724C97.1777 116.9 96.6043 116.955 95.937 116.89L93.617 116.665L93.7439 115.359L95.8519 115.564C96.2421 115.601 96.5668 115.579 96.8261 115.495C97.0856 115.409 97.2849 115.267 97.424 115.07C97.5662 114.869 97.6523 114.615 97.6822 114.307C97.7122 113.999 97.6769 113.73 97.5765 113.5C97.4763 113.268 97.3073 113.083 97.0695 112.946C96.8319 112.806 96.5166 112.717 96.1236 112.679L94.6815 112.538L93.9654 119.91L92.3918 119.757ZM97.2616 116.257L99.0296 120.402L97.2736 120.231L95.5438 116.09L97.2616 116.257ZM100.494 113.107L100.622 111.788L107.553 112.462L107.424 113.781L104.74 113.52L104.024 120.887L102.463 120.736L103.179 113.368L100.494 113.107ZM116.027 113.285L115.183 121.971L113.783 121.835L110.265 115.521L110.193 115.514L109.618 121.431L108.045 121.278L108.889 112.591L110.297 112.728L113.81 119.046L113.887 119.054L114.462 113.133L116.027 113.285ZM116.898 122.138L117.741 113.452L123.391 114L123.263 115.319L119.187 114.923L118.958 117.282L122.741 117.649L122.613 118.968L118.83 118.601L118.599 120.972L122.709 121.371L122.581 122.69L116.898 122.138ZM124.152 122.843L124.996 114.156L128.254 114.473C128.921 114.538 129.47 114.708 129.9 114.984C130.332 115.26 130.644 115.618 130.835 116.059C131.03 116.498 131.1 116.994 131.046 117.548C130.992 118.105 130.826 118.577 130.549 118.964C130.275 119.349 129.898 119.63 129.418 119.809C128.938 119.985 128.365 120.041 127.698 119.976L125.378 119.751L125.505 118.444L127.612 118.649C128.003 118.687 128.327 118.664 128.587 118.581C128.846 118.495 129.046 118.353 129.185 118.155C129.327 117.955 129.413 117.701 129.443 117.393C129.473 117.084 129.438 116.816 129.337 116.586C129.237 116.354 129.068 116.169 128.83 116.032C128.593 115.891 128.277 115.802 127.884 115.764L126.442 115.624L125.726 122.996L124.152 122.843ZM129.022 119.343L130.79 123.488L129.034 123.317L127.304 119.176L129.022 119.343Z" fill="white"/>
<path d="M36.5649 32.9161L36.8992 29.5539L38.2777 29.691L37.9434 33.0532L36.5649 32.9161Z" fill="white"/>
<path d="M40.4659 33.4107C39.1882 33.2836 38.2613 32.5561 38.3444 31.7203C38.4275 30.8846 39.5088 30.3518 40.7721 30.4774C42.0113 30.6006 43.0006 31.3344 42.9051 32.295L42.9008 32.3382L39.6683 32.0169C39.7285 32.3381 40.0721 32.5906 40.5716 32.6402C40.9751 32.6803 41.3141 32.5879 41.5018 32.4077L42.8323 32.54C42.5017 33.1329 41.5802 33.5215 40.4659 33.4107ZM40.6976 31.2267C40.2749 31.1846 39.9412 31.3212 39.7727 31.5519L41.5691 31.7305C41.4446 31.4707 41.1203 31.2687 40.6976 31.2267Z" fill="white"/>
<path d="M43.0425 33.5601L43.3768 30.1979L44.7649 30.3359L44.6537 31.4551C45.0146 31.1417 45.5587 30.9872 46.1687 31.0479C47.2783 31.1582 48.0001 31.8508 47.9189 32.6674C47.8377 33.4839 46.9884 34.0252 45.8836 33.9154C45.2736 33.8547 44.7706 33.5961 44.4784 33.2178L44.4306 33.6981L43.0425 33.5601ZM45.5105 33.0828C46.1012 33.1415 46.5372 32.9035 46.5735 32.5385C46.6103 32.1686 46.2297 31.8494 45.6389 31.7907C45.0385 31.731 44.5881 31.9676 44.5518 32.3326C44.5151 32.7025 44.9101 33.0231 45.5105 33.0828Z" fill="white"/>
<path d="M50.2411 34.3826C48.9634 34.2555 48.0365 33.5279 48.1196 32.6922C48.2027 31.8564 49.284 31.3237 50.5473 31.4492C51.7865 31.5725 52.7758 32.3063 52.6803 33.2669L52.676 33.3101L49.4435 32.9887C49.5037 33.31 49.8473 33.5624 50.3468 33.6121C50.7503 33.6522 51.0893 33.5598 51.277 33.3796L52.6075 33.5119C52.2769 34.1047 51.3554 34.4933 50.2411 34.3826ZM50.4728 32.1985C50.0501 32.1565 49.7164 32.2931 49.5479 32.5237L51.3443 32.7024C51.2198 32.4426 50.8955 32.2406 50.4728 32.1985Z" fill="white"/>
<path d="M54.64 34.786C53.5305 34.6756 52.8135 33.9835 52.8951 33.1621C52.9758 32.3504 53.8204 31.8086 54.9251 31.9185C55.5351 31.9791 56.0381 32.2377 56.3303 32.616L56.4416 31.4969L57.8297 31.6349L57.4954 34.9971L56.1073 34.8591L56.1556 34.374C55.7941 34.6921 55.25 34.8466 54.64 34.786ZM55.1698 34.0431C55.7702 34.1028 56.2206 33.8663 56.2569 33.5012C56.2937 33.1314 55.8987 32.8108 55.2983 32.7511C54.7075 32.6923 54.2763 32.9308 54.24 33.2958C54.2033 33.6657 54.579 33.9844 55.1698 34.0431Z" fill="white"/>
<path d="M60.0163 35.3544C58.7386 35.2274 57.8118 34.4998 57.8948 33.6641C57.9779 32.8283 59.0592 32.2955 60.3225 32.4211C61.5617 32.5443 62.551 33.2781 62.4555 34.2388L62.4512 34.282L59.2187 33.9606C59.2789 34.2819 59.6225 34.5343 60.122 34.584C60.5255 34.6241 60.8645 34.5317 61.0522 34.3515L62.3827 34.4838C62.0521 35.0766 61.1306 35.4652 60.0163 35.3544ZM60.248 33.1704C59.8253 33.1284 59.4916 33.265 59.3231 33.4956L61.1195 33.6742C60.995 33.4145 60.6707 33.2124 60.248 33.1704Z" fill="white"/>
<path d="M63.875 35.6314L62.2677 32.7212L63.7711 32.8707L64.2457 33.7571L64.7159 34.6381L65.3552 33.8674L65.9902 33.0913L67.3975 33.2313L65.2487 35.7679L63.875 35.6314Z" fill="white"/>
<path d="M39.6568 28.5498C38.0526 28.3903 37.0897 27.8289 36.9212 27.0361L38.3958 27.1827C38.5011 27.4891 38.9306 27.7064 39.6847 27.7814C40.5157 27.864 40.8523 27.7471 40.8699 27.5694C40.9335 26.9305 36.9047 27.5438 37.0642 25.9395C37.1377 25.1998 38.0947 24.7953 39.6941 24.9544C41.2984 25.1139 42.268 25.705 42.413 26.4907L41.0008 26.3503C40.9046 26.0497 40.4098 25.8065 39.6653 25.7325C38.8824 25.6546 38.5885 25.7806 38.5727 25.9391C38.5097 26.5731 42.5275 26.0219 42.3733 27.5733C42.2992 28.3178 41.3043 28.7136 39.6568 28.5498Z" fill="white"/>
<path d="M42.5702 28.7376L42.9045 25.3754L47.5972 25.842L47.5127 26.6921L44.2465 26.3674L44.2031 26.8045L46.6575 27.0485L46.5787 27.841L44.1243 27.597L44.0784 28.0581L47.3446 28.3829L47.2629 29.2042L42.5702 28.7376Z" fill="white"/>
<path d="M50.2252 29.6103C48.5249 29.4412 47.3467 28.5577 47.4494 27.525C47.5521 26.4923 48.8812 25.8581 50.5815 26.0271C52.277 26.1957 53.4552 27.0792 53.3525 28.1119C53.2498 29.1446 51.9208 29.7789 50.2252 29.6103ZM50.3164 28.6929C51.1474 28.7755 51.8038 28.4672 51.8539 27.9629C51.9036 27.4634 51.3207 27.0319 50.4898 26.9493C49.654 26.8662 48.9977 27.1745 48.948 27.674C48.8979 28.1783 49.4807 28.6098 50.3164 28.6929Z" fill="white"/>
<path d="M25.5547 28.6961C26.59 27.8427 28.1289 27.9913 28.9818 29.0271L32.2862 33.0397C31.2415 33.8811 29.7068 33.7251 28.8528 32.6907L25.5547 28.6961Z" fill="white"/>
<path d="M27.7328 23.1605C28.768 22.3071 30.3069 22.4557 31.1599 23.4914L34.4642 27.504C33.4196 28.3454 31.8849 28.1894 31.0309 27.1551L27.7328 23.1605Z" fill="white"/>
<path d="M33.0187 30.3074L27.3627 23.5991L27.3612 23.5972C26.6203 24.5026 26.8873 25.6958 27.7349 26.7018L32.7734 32.7096C33.5258 32.1172 33.6359 31.0395 33.0187 30.3074Z" fill="white"/>
<path d="M28.9859 58.6405L28.8814 59.7039L27.3744 59.4863L28.1372 60.7866L27.1304 61.2624L26.5137 59.8249L25.6291 61.1149L24.7529 60.454L25.7354 59.3253L24.2274 59.2466L24.3318 58.1832L25.8252 58.412L25.083 57.0948L26.071 56.6172L26.6877 58.0546L27.5723 56.7647L28.4672 57.4274L27.4641 58.573L28.9859 58.6405Z" fill="white"/>
<path d="M36.7929 59.4075L36.6884 60.471L35.1813 60.2534L35.9441 61.5537L34.9373 62.0295L34.3207 60.592L33.436 61.882L32.5599 61.2211L33.5424 60.0924L32.0343 60.0137L32.1388 58.9502L33.6321 59.1791L32.8899 57.8619L33.8779 57.3843L34.4946 58.8217L35.3792 57.5318L36.2742 58.1944L35.271 59.3401L36.7929 59.4075Z" fill="white"/>
<path d="M44.6059 60.1752L44.5014 61.2387L42.9943 61.0211L43.7571 62.3214L42.7503 62.7972L42.1337 61.3597L41.249 62.6497L40.3729 61.9888L41.3554 60.8601L39.8473 60.7814L39.9518 59.7179L41.4451 59.9468L40.7029 58.6296L41.6909 58.152L42.3076 59.5894L43.1923 58.2995L44.0872 58.9621L43.084 60.1078L44.6059 60.1752Z" fill="white"/>
<path d="M52.4189 60.9431L52.3144 62.0065L50.8073 61.7889L51.5701 63.0892L50.5633 63.565L49.9467 62.1275L49.062 63.4175L48.1859 62.7567L49.1684 61.6279L47.6603 61.5492L47.7648 60.4858L49.2581 60.7146L48.516 59.3974L49.504 58.9198L50.1206 60.3572L51.0053 59.0673L51.9002 59.73L50.8971 60.8756L52.4189 60.9431Z" fill="white"/>
<path d="M65.6435 62.2423L65.539 63.3057L64.0319 63.0881L64.7947 64.3884L63.7879 64.8642L63.1713 63.4267L62.2866 64.7167L61.4105 64.0558L62.393 62.9271L60.8849 62.8484L60.9894 61.785L62.4827 62.0138L61.7405 60.6966L62.7285 60.219L63.3452 61.6564L64.2298 60.3665L65.1248 61.0292L64.1216 62.1748L65.6435 62.2423Z" fill="white"/>
<path d="M73.4565 63.01L73.352 64.0734L71.8449 63.8558L72.6077 65.1561L71.6009 65.6319L70.9843 64.1944L70.0996 65.4844L69.2235 64.8235L70.206 63.6948L68.6979 63.6161L68.8024 62.5527L70.2957 62.7815L69.5535 61.4643L70.5415 60.9867L71.1582 62.4241L72.0429 61.1342L72.9378 61.7969L71.9347 62.9425L73.4565 63.01Z" fill="white"/>
<path d="M81.2695 63.7778L81.165 64.8412L79.6579 64.6237L80.4207 65.9239L79.414 66.3997L78.7973 64.9623L77.9126 66.2522L77.0365 65.5914L78.019 64.4626L76.5109 64.3839L76.6154 63.3205L78.1087 63.5493L77.3666 62.2322L78.3546 61.7545L78.9712 63.192L79.8559 61.902L80.7508 62.5647L79.7477 63.7104L81.2695 63.7778Z" fill="white"/>
<path d="M89.0764 64.5449L88.9719 65.6083L87.4649 65.3907L88.2277 66.691L87.2209 67.1668L86.6042 65.7293L85.7196 67.0193L84.8434 66.3585L85.8259 65.2297L84.3179 65.151L84.4223 64.0876L85.9157 64.3164L85.1735 62.9993L86.1615 62.5216L86.7782 63.959L87.6628 62.6691L88.5577 63.3318L87.5546 64.4774L89.0764 64.5449Z" fill="white"/>
<path d="M102.306 65.8448L102.202 66.9082L100.695 66.6907L101.458 67.9909L100.451 68.4667L99.8343 67.0293L98.9496 68.3192L98.0735 67.6584L99.056 66.5296L97.5479 66.4509L97.6524 65.3875L99.1457 65.6163L98.4036 64.2992L99.3916 63.8215L100.008 65.259L100.893 63.969L101.788 64.6317L100.785 65.7774L102.306 65.8448Z" fill="white"/>
<path d="M110.113 66.6119L110.009 67.6753L108.502 67.4578L109.265 68.758L108.258 69.2338L107.641 67.7964L106.757 69.0863L105.88 68.4255L106.863 67.2967L105.355 67.218L105.459 66.1546L106.953 66.3834L106.21 65.0663L107.198 64.5886L107.815 66.0261L108.7 64.7361L109.595 65.3988L108.592 66.5445L110.113 66.6119Z" fill="white"/>
<path d="M117.926 67.3796L117.822 68.443L116.315 68.2255L117.078 69.5257L116.071 70.0015L115.454 68.5641L114.57 69.854L113.693 69.1932L114.676 68.0644L113.168 67.9857L113.272 66.9223L114.766 67.1511L114.024 65.834L115.012 65.3563L115.628 66.7938L116.513 65.5038L117.408 66.1665L116.405 67.3122L117.926 67.3796Z" fill="white"/>
<path d="M125.739 68.1473L125.635 69.2107L124.128 68.9932L124.891 70.2934L123.884 70.7692L123.267 69.3318L122.383 70.6217L121.506 69.9609L122.489 68.8321L120.981 68.7534L121.085 67.69L122.579 67.9188L121.837 66.6017L122.825 66.124L123.441 67.5615L124.326 66.2715L125.221 66.9342L124.218 68.0799L125.739 68.1473Z" fill="white"/>
<path d="M132.955 79.1132L133.079 77.8496L137.608 74.0566C138.817 73.0638 139.46 72.1733 139.538 71.3851C139.602 70.7283 139.452 70.2019 139.088 69.7935C138.724 69.3851 138.254 69.1557 137.678 69.0992C136.577 68.991 135.725 69.4315 135.129 70.4276L133.902 69.5366C134.34 68.8153 134.909 68.2965 135.597 67.9726C136.286 67.6487 137.024 67.5254 137.813 67.6029C138.788 67.6988 139.607 68.1076 140.264 68.8164C140.92 69.5314 141.198 70.4303 141.091 71.5187C140.975 72.6948 140.155 73.9089 138.63 75.1612L135.367 77.8344L140.641 78.3525L140.493 79.8538L132.955 79.1132Z" fill="white"/>
<path d="M148.15 73.6589C149.022 73.9151 149.716 74.3685 150.22 75.0244C150.73 75.6809 150.937 76.4717 150.846 77.3912C150.735 78.5235 150.259 79.3799 149.419 79.9605C148.579 80.5411 147.602 80.7736 146.489 80.6642C145.601 80.5769 144.832 80.2993 144.184 79.8251C143.536 79.3509 143.105 78.7212 142.893 77.9235L144.27 77.2819C144.508 78.3916 145.3 79.0126 146.645 79.1447C147.364 79.2154 147.97 79.0855 148.465 78.7488C148.958 78.4184 149.236 77.9088 149.302 77.2332C149.368 76.5576 149.195 76.0037 148.776 75.5773C148.357 75.1508 147.788 74.8991 147.069 74.8284L146.668 74.7891L146.143 73.7774L149.197 70.3954L144.017 69.8864L144.16 68.4352L151.154 69.1223L151.013 70.4917L148.15 73.6589Z" fill="white"/>
<path d="M162.378 78.3031L162.235 79.7544L160.822 79.6155L160.604 81.83L159.053 81.6775L159.27 79.4631L153.321 78.8785L153.464 77.4273L158.428 69.8433L160.092 70.0068L155.128 77.5908L159.407 78.0112L159.731 74.7145L161.282 74.867L160.958 78.1636L162.378 78.3031Z" fill="white"/>
<path d="M168.81 75.4551C169.911 75.5633 170.811 75.9801 171.504 76.7051C172.203 77.4306 172.497 78.3627 172.384 79.5074C172.273 80.6397 171.797 81.4961 170.957 82.0767C170.117 82.6573 169.14 82.8898 168.027 82.7804C167.138 82.6931 166.365 82.4024 165.706 81.9082C165.047 81.4139 164.62 80.7467 164.425 79.9064L165.812 79.2849C165.913 79.8695 166.171 80.3243 166.586 80.662C167.002 80.9996 167.531 81.2033 168.176 81.2666C168.907 81.3385 169.52 81.2092 170.014 80.8725C170.508 80.5358 170.785 80.0324 170.852 79.3568C170.918 78.6812 170.745 78.1274 170.326 77.701C169.907 77.2745 169.344 77.0234 168.631 76.9533L165.334 76.6294L166.348 70.6215L172.741 71.2497L172.598 72.701L167.619 72.2117L167.108 75.2879L168.81 75.4551Z" fill="white"/>
<path d="M21.1925 100.292C20.5107 100.225 19.9698 99.9447 19.5699 99.4507C19.17 98.9567 19.0052 98.3847 19.0697 97.7278C19.1342 97.071 19.4073 96.542 19.8957 96.1353C20.3841 95.7285 20.9692 95.5586 21.651 95.6256C22.0639 95.6662 22.4294 95.8032 22.7544 96.0309C23.0788 96.2649 23.3219 96.554 23.4833 96.9046L22.9346 97.1539C22.8278 96.8908 22.6592 96.6784 22.4175 96.5031C22.1757 96.3277 21.901 96.2313 21.5945 96.2011C21.0753 96.1501 20.6396 96.2778 20.2754 96.5768C19.9176 96.8764 19.7075 97.2789 19.6583 97.7794C19.6098 98.2735 19.7312 98.7086 20.0302 99.0728C20.3229 99.4363 20.7317 99.647 21.2509 99.698C21.5574 99.7281 21.8463 99.6807 22.1169 99.562C22.3881 99.4371 22.5949 99.2616 22.7502 99.0305L23.2405 99.3756C23.0203 99.6887 22.7248 99.9312 22.3611 100.098C21.9974 100.264 21.6054 100.333 21.1925 100.292Z" fill="white" fill-opacity="0.6"/>
<path d="M26.7207 97.507L27.2774 97.5617L26.9615 100.777L26.4047 100.722L26.4588 100.172C26.1355 100.57 25.7143 100.743 25.1826 100.691C24.7322 100.646 24.3666 100.446 24.0801 100.083C23.793 99.7268 23.676 99.311 23.7227 98.8356C23.7688 98.3665 23.9645 97.9815 24.3161 97.6813C24.6671 97.3873 25.0653 97.2559 25.5157 97.3002C26.0474 97.3524 26.4331 97.6051 26.6666 98.0575L26.7207 97.507ZM25.3055 100.147C25.6307 100.179 25.9171 100.093 26.1512 99.8953C26.3917 99.6979 26.5251 99.4331 26.5571 99.1078C26.589 98.7825 26.5097 98.4968 26.3123 98.2564C26.1149 98.0159 25.8569 97.8769 25.5316 97.8449C25.2126 97.8136 24.9263 97.8991 24.6921 98.0972C24.4517 98.2946 24.3183 98.5594 24.2863 98.8847C24.2543 99.21 24.3336 99.4957 24.5311 99.7361C24.7279 99.9828 24.9864 100.116 25.3055 100.147Z" fill="white" fill-opacity="0.6"/>
<path d="M28.6325 98.2379C28.8532 97.8554 29.2107 97.6884 29.6924 97.7357L29.6352 98.3175C29.3612 98.2779 29.1224 98.3302 28.9068 98.4669C28.6975 98.6043 28.5722 98.8509 28.5378 99.2012L28.3706 100.903L27.8139 100.848L28.1298 97.6327L28.6866 97.6874L28.6325 98.2379Z" fill="white" fill-opacity="0.6"/>
<path d="M32.8465 96.8077L33.4033 96.8624L32.9613 101.36L32.4046 101.305L32.4587 100.755C32.1354 101.153 31.7141 101.326 31.1824 101.274C30.732 101.23 30.3664 101.029 30.08 100.666C29.7929 100.31 29.6759 99.8941 29.7226 99.4187C29.7687 98.9496 29.9644 98.5646 30.316 98.2644C30.667 97.9704 31.0652 97.839 31.5156 97.8833C32.0473 97.9355 32.433 98.1882 32.6664 98.6406L32.8465 96.8077ZM31.311 100.737C31.6363 100.769 31.9226 100.683 32.1568 100.485C32.3972 100.288 32.5306 100.023 32.5626 99.6978C32.5945 99.3725 32.5152 99.0868 32.3178 98.8463C32.1204 98.6059 31.8624 98.4669 31.5372 98.4349C31.2181 98.4036 30.9318 98.4891 30.6976 98.6872C30.4572 98.8846 30.3238 99.1494 30.2918 99.4747C30.2598 99.7999 30.3392 100.086 30.5366 100.326C30.7271 100.572 30.9857 100.705 31.311 100.737Z" fill="white" fill-opacity="0.6"/>
<path d="M38.7017 97.383L39.2959 97.4414L38.854 101.939L38.2597 101.881L38.4589 99.8539L36.2757 99.6394L36.0766 101.666L35.476 101.607L35.918 97.1095L36.5185 97.1685L36.331 99.0764L38.5142 99.2909L38.7017 97.383Z" fill="white" fill-opacity="0.6"/>
<path d="M42.5095 101.888C42.146 102.181 41.7297 102.304 41.2605 102.258C40.7914 102.212 40.407 102.01 40.1074 101.652C39.8141 101.295 39.6845 100.878 39.7312 100.402C39.7779 99.9268 39.9799 99.5425 40.3434 99.2497C40.7007 98.9564 41.117 98.8331 41.5924 98.8798C42.0678 98.9265 42.446 99.1279 42.7455 99.4858C43.0451 99.8436 43.1684 100.26 43.1217 100.735C43.075 101.211 42.873 101.595 42.5095 101.888ZM41.314 101.714C41.633 101.745 41.9187 101.666 42.1529 101.468C42.3934 101.27 42.5261 101.012 42.5581 100.686C42.5901 100.361 42.5108 100.075 42.3127 99.8411C42.1153 99.6007 41.8568 99.4679 41.5377 99.4366C41.2187 99.4052 40.9455 99.4857 40.7051 99.6832C40.4646 99.8806 40.3312 100.145 40.2999 100.464C40.2679 100.79 40.3472 101.075 40.5452 101.31C40.7427 101.55 40.995 101.682 41.314 101.714Z" fill="white" fill-opacity="0.6"/>
<path d="M43.6271 102.408L44.088 97.7164L44.6448 97.7711L44.1838 102.463L43.6271 102.408Z" fill="white" fill-opacity="0.6"/>
<path d="M48.1411 98.3107L48.6979 98.3654L48.2559 102.863L47.6992 102.808L47.7533 102.258C47.43 102.656 47.0087 102.829 46.477 102.777C46.0266 102.732 45.661 102.532 45.3746 102.169C45.0875 101.813 44.9705 101.397 45.0172 100.922C45.0633 100.452 45.259 100.068 45.6106 99.7673C45.9616 99.4734 46.3598 99.342 46.8102 99.3862C47.3419 99.4385 47.7276 99.6911 47.961 100.144L48.1411 98.3107ZM46.5993 102.239C46.9246 102.271 47.2109 102.186 47.4451 101.988C47.6856 101.79 47.8189 101.525 47.8509 101.2C47.8829 100.875 47.8036 100.589 47.6061 100.349C47.4087 100.108 47.1508 99.9692 46.8255 99.9372C46.5065 99.9059 46.2202 99.9914 45.986 100.189C45.7455 100.387 45.6121 100.652 45.5802 100.977C45.5482 101.302 45.6275 101.588 45.8249 101.828C46.0217 102.075 46.2803 102.208 46.5993 102.239Z" fill="white" fill-opacity="0.6"/>
<path d="M49.6337 101.634C49.6617 101.927 49.771 102.165 49.962 102.342C50.1531 102.519 50.4016 102.625 50.7081 102.655C51.1335 102.697 51.4554 102.571 51.68 102.277L52.129 102.593C51.7689 103.044 51.2758 103.242 50.644 103.18C50.131 103.129 49.7335 102.932 49.4464 102.576C49.1588 102.225 49.0423 101.803 49.0903 101.315C49.1376 100.834 49.3339 100.442 49.6781 100.154C50.0222 99.8658 50.4448 99.7431 50.939 99.7917C51.4081 99.8378 51.7794 100.045 52.0408 100.405C52.3085 100.766 52.413 101.181 52.3669 101.65C52.3589 101.731 52.3447 101.812 52.3236 101.898L49.6337 101.634ZM50.8867 100.323C50.5864 100.294 50.3276 100.357 50.1171 100.507C49.9066 100.657 49.7594 100.869 49.6879 101.147L51.8335 101.357C51.8136 101.046 51.7175 100.803 51.5389 100.627C51.3541 100.451 51.1432 100.349 50.8867 100.323Z" fill="white" fill-opacity="0.6"/>
<path d="M53.6733 100.698C53.894 100.316 54.2515 100.149 54.7332 100.196L54.676 100.778C54.402 100.738 54.1632 100.791 53.9476 100.927C53.7383 101.065 53.613 101.311 53.5786 101.662L53.4114 103.363L52.8547 103.308L53.1706 100.093L53.7274 100.148L53.6733 100.698Z" fill="white" fill-opacity="0.6"/>
<path d="M58.4884 100.54C58.8638 100.577 59.1586 100.726 59.3604 100.986C59.5623 101.246 59.6429 101.582 59.603 101.989L59.4094 103.959L58.8526 103.904L59.0432 101.965C59.069 101.702 59.0198 101.495 58.8901 101.337C58.7604 101.179 58.5732 101.092 58.3292 101.068C58.0477 101.04 57.8139 101.105 57.6278 101.264C57.4417 101.422 57.3283 101.677 57.2927 102.039L57.1255 103.741L56.5687 103.686L56.8847 100.471L57.4414 100.526L57.3959 100.988C57.6574 100.642 58.0255 100.495 58.4884 100.54Z" fill="white" fill-opacity="0.6"/>
<path d="M63.1654 101.088L63.7221 101.143L63.4062 104.358L62.8494 104.303L62.9035 103.753C62.5802 104.15 62.159 104.324 61.6273 104.272C61.1769 104.227 60.8113 104.027 60.5248 103.664C60.2377 103.308 60.1207 102.892 60.1674 102.417C60.2135 101.947 60.4092 101.562 60.7608 101.262C61.1118 100.968 61.51 100.837 61.9604 100.881C62.4921 100.933 62.8778 101.186 63.1113 101.638L63.1654 101.088ZM61.7502 103.728C62.0754 103.76 62.3618 103.674 62.596 103.476C62.8364 103.279 62.9698 103.014 63.0018 102.689C63.0337 102.363 62.9544 102.078 62.757 101.837C62.5596 101.597 62.3016 101.458 61.9763 101.426C61.6573 101.395 61.371 101.48 61.1368 101.678C60.8964 101.876 60.763 102.14 60.731 102.466C60.699 102.791 60.7783 103.077 60.9758 103.317C61.1726 103.564 61.4311 103.697 61.7502 103.728Z" fill="white" fill-opacity="0.6"/>
<path d="M68.0532 101.48C68.4161 101.515 68.6921 101.662 68.8946 101.916C69.097 102.17 69.172 102.499 69.1327 102.899L68.9366 104.895L68.3799 104.84L68.5741 102.864C68.5987 102.613 68.5552 102.413 68.4368 102.269C68.3189 102.118 68.1568 102.033 67.9441 102.012C67.7064 101.989 67.5045 102.051 67.3452 102.193C67.186 102.336 67.0926 102.579 67.06 102.911L66.8842 104.7L66.3275 104.645L66.5217 102.668C66.5463 102.418 66.5028 102.218 66.3968 102.075C66.2853 101.925 66.1294 101.84 65.9167 101.819C65.679 101.796 65.4771 101.858 65.3047 102.005C65.1323 102.153 65.027 102.389 64.9951 102.714L64.8193 104.503L64.2625 104.448L64.5785 101.233L65.1352 101.288L65.0928 101.719C65.3455 101.397 65.6812 101.259 66.1003 101.3C66.5319 101.343 66.8269 101.555 66.9914 101.937C67.2472 101.584 67.6028 101.435 68.0532 101.48Z" fill="white" fill-opacity="0.6"/>
<path d="M70.2396 103.659C70.2676 103.952 70.3768 104.19 70.5679 104.367C70.7589 104.543 71.0074 104.65 71.3139 104.68C71.7393 104.722 72.0612 104.596 72.2859 104.302L72.7349 104.618C72.3747 105.068 71.8816 105.266 71.2498 105.204C70.7369 105.154 70.3394 104.957 70.0523 104.6C69.7646 104.25 69.6482 103.828 69.6961 103.34C69.7434 102.858 69.9398 102.467 70.2839 102.179C70.628 101.89 71.0506 101.768 71.5448 101.816C72.014 101.862 72.3852 102.069 72.6466 102.43C72.9143 102.791 73.0189 103.205 72.9728 103.675C72.9648 103.756 72.9505 103.837 72.9294 103.923L70.2396 103.659ZM71.4926 102.348C71.1923 102.319 70.9335 102.382 70.723 102.531C70.5124 102.681 70.3652 102.894 70.2938 103.171L72.4331 103.382C72.4132 103.07 72.3171 102.827 72.1385 102.652C71.9662 102.477 71.749 102.373 71.4926 102.348Z" fill="white" fill-opacity="0.6"/>
<path d="M157.808 113.059L159.897 113.264L159.842 113.827L157.158 113.563L157.6 109.066L160.252 109.326L160.197 109.889L158.139 109.687L158.003 111.07L159.899 111.256L159.844 111.813L157.948 111.626L157.808 113.059Z" fill="white" fill-opacity="0.6"/>
<path d="M163.289 114.166L162.632 114.101L161.85 112.799L160.83 113.924L160.173 113.86L161.568 112.329L160.564 110.658L161.227 110.723L161.943 111.918L162.884 110.886L163.541 110.951L162.231 112.394L163.289 114.166Z" fill="white" fill-opacity="0.6"/>
<path d="M165.908 111.095C166.359 111.139 166.724 111.339 167.011 111.702C167.298 112.059 167.415 112.474 167.368 112.95C167.322 113.419 167.126 113.804 166.775 114.104C166.424 114.398 166.026 114.529 165.575 114.485C165.044 114.433 164.658 114.18 164.424 113.728L164.244 115.567L163.687 115.512L164.129 111.015L164.686 111.069L164.632 111.62C164.949 111.215 165.377 111.042 165.908 111.095ZM165.561 113.928C165.88 113.959 166.16 113.873 166.4 113.676C166.641 113.478 166.774 113.213 166.806 112.888C166.838 112.563 166.759 112.277 166.561 112.037C166.364 111.796 166.106 111.657 165.787 111.626C165.461 111.594 165.175 111.68 164.941 111.878C164.701 112.075 164.567 112.34 164.535 112.665C164.503 112.99 164.583 113.276 164.78 113.517C164.971 113.763 165.235 113.896 165.561 113.928Z" fill="white" fill-opacity="0.6"/>
<path d="M168.535 110.848C168.428 110.837 168.338 110.79 168.276 110.715C168.214 110.639 168.186 110.542 168.195 110.442C168.205 110.342 168.252 110.251 168.328 110.183C168.404 110.115 168.502 110.086 168.608 110.097C168.708 110.107 168.792 110.153 168.86 110.235C168.928 110.318 168.95 110.408 168.94 110.515C168.929 110.621 168.883 110.705 168.808 110.767C168.732 110.829 168.635 110.857 168.535 110.848ZM167.88 114.617L168.196 111.402L168.753 111.456L168.437 114.672L167.88 114.617Z" fill="white" fill-opacity="0.6"/>
<path d="M170.113 112.139C170.334 111.757 170.691 111.59 171.173 111.637L171.116 112.219C170.842 112.18 170.603 112.232 170.387 112.369C170.178 112.506 170.053 112.753 170.018 113.103L169.851 114.804L169.294 114.75L169.61 111.534L170.167 111.589L170.113 112.139Z" fill="white" fill-opacity="0.6"/>
<path d="M174.026 111.981L174.626 112.04L172.978 115.32C172.804 115.669 172.583 115.932 172.32 116.095C172.058 116.259 171.761 116.318 171.444 116.268L171.495 115.749C171.886 115.819 172.196 115.628 172.423 115.177L172.497 115.064L171.411 111.724L172.011 111.783L172.839 114.353L174.026 111.981Z" fill="white" fill-opacity="0.6"/>
<path d="M178.637 111.133C179.25 111.193 179.736 111.462 180.1 111.933C180.464 112.405 180.611 112.962 180.55 113.588C180.488 114.22 180.235 114.732 179.786 115.124C179.337 115.521 178.809 115.684 178.196 115.624L176.445 115.452L176.886 110.954L178.638 111.126L178.637 111.133ZM178.251 115.067C178.707 115.112 179.099 114.987 179.424 114.696C179.749 114.406 179.933 114.02 179.98 113.538C180.027 113.057 179.923 112.642 179.66 112.294C179.397 111.946 179.044 111.747 178.581 111.702L177.424 111.588L177.094 114.954L178.251 115.067Z" fill="white" fill-opacity="0.6"/>
<path d="M183.972 112.958L184.528 113.013L184.213 116.228L183.656 116.173L183.71 115.623C183.387 116.02 182.965 116.194 182.434 116.142C181.983 116.097 181.618 115.897 181.331 115.534C181.044 115.178 180.927 114.762 180.974 114.287C181.02 113.817 181.216 113.432 181.567 113.132C181.918 112.838 182.316 112.707 182.767 112.751C183.298 112.803 183.684 113.056 183.918 113.508L183.972 112.958ZM182.563 115.598C182.888 115.63 183.174 115.545 183.409 115.347C183.649 115.149 183.782 114.885 183.814 114.559C183.846 114.234 183.767 113.948 183.57 113.708C183.372 113.467 183.114 113.328 182.789 113.296C182.47 113.265 182.184 113.351 181.949 113.549C181.709 113.746 181.576 114.011 181.544 114.336C181.512 114.662 181.591 114.947 181.788 115.188C181.979 115.434 182.237 115.567 182.563 115.598Z" fill="white" fill-opacity="0.6"/>
<path d="M187.078 113.806L186.221 113.722L186.05 115.461C186.035 115.617 186.055 115.733 186.111 115.808C186.167 115.883 186.257 115.924 186.389 115.936C186.52 115.949 186.677 115.965 186.865 115.977L186.816 116.477C186.322 116.492 185.969 116.419 185.758 116.253C185.547 116.087 185.46 115.807 185.5 115.407L185.671 113.668L185.033 113.605L185.085 113.067L185.724 113.13L185.795 112.398L186.369 112.284L186.28 113.185L187.137 113.269L187.084 113.807L187.078 113.806Z" fill="white" fill-opacity="0.6"/>
<path d="M187.843 115.214C187.871 115.507 187.98 115.746 188.171 115.922C188.362 116.099 188.611 116.205 188.917 116.236C189.343 116.277 189.665 116.151 189.889 115.857L190.338 116.173C189.978 116.624 189.485 116.822 188.853 116.76C188.34 116.709 187.943 116.512 187.656 116.156C187.368 115.805 187.252 115.383 187.3 114.896C187.347 114.414 187.543 114.023 187.887 113.734C188.231 113.446 188.654 113.323 189.148 113.372C189.617 113.418 189.989 113.625 190.25 113.985C190.518 114.346 190.622 114.761 190.576 115.23C190.568 115.311 190.554 115.392 190.533 115.478L187.843 115.214ZM189.09 113.903C188.789 113.873 188.531 113.936 188.32 114.086C188.11 114.236 187.962 114.449 187.891 114.726L190.037 114.937C190.017 114.626 189.921 114.383 189.742 114.207C189.563 114.032 189.346 113.928 189.09 113.903Z" fill="white" fill-opacity="0.6"/>
<path d="M160.496 126.511C159.969 127.116 159.28 127.377 158.442 127.294C157.604 127.212 156.985 126.823 156.58 126.126C156.181 125.43 156.028 124.543 156.134 123.461C156.241 122.379 156.557 121.538 157.09 120.934C157.617 120.329 158.306 120.068 159.144 120.15C159.982 120.233 160.601 120.622 161.006 121.319C161.405 122.015 161.558 122.901 161.451 123.984C161.345 125.066 161.029 125.906 160.496 126.511ZM157.316 125.573C157.571 126.065 157.979 126.346 158.536 126.4C159.093 126.455 159.547 126.266 159.9 125.827C160.252 125.394 160.467 124.746 160.551 123.895C160.634 123.044 160.549 122.366 160.289 121.867C160.028 121.368 159.619 121.094 159.063 121.039C158.506 120.985 158.052 121.174 157.705 121.613C157.36 122.047 157.144 122.695 157.06 123.552C156.976 124.403 157.061 125.081 157.316 125.573Z" fill="white"/>
<path d="M161.783 127.49L161.856 126.745L164.526 124.507C165.241 123.92 165.621 123.395 165.666 122.932C165.705 122.545 165.615 122.233 165.399 121.99C165.183 121.748 164.905 121.613 164.568 121.58C163.917 121.516 163.418 121.777 163.063 122.367L162.338 121.841C162.6 121.418 162.934 121.11 163.338 120.916C163.742 120.722 164.179 120.651 164.648 120.698C165.224 120.754 165.706 120.991 166.093 121.414C166.481 121.838 166.644 122.365 166.581 123.01C166.513 123.704 166.032 124.421 165.132 125.16L163.202 126.732L166.311 127.038L166.225 127.92L161.783 127.484L161.783 127.49Z" fill="white"/>
<path d="M167.399 129.02L166.885 128.983L171.687 120.536L172.201 120.574L167.399 129.02Z" fill="white"/>
<path d="M175.3 124.719C175.815 124.87 176.225 125.138 176.521 125.527C176.824 125.917 176.943 126.377 176.89 126.921C176.824 127.591 176.541 128.093 176.046 128.436C175.551 128.779 174.975 128.919 174.319 128.854C173.793 128.802 173.342 128.638 172.959 128.36C172.575 128.083 172.321 127.71 172.197 127.237L173.011 126.862C173.149 127.52 173.618 127.882 174.413 127.96C174.838 128.002 175.199 127.924 175.49 127.731C175.78 127.539 175.943 127.239 175.982 126.838C176.021 126.438 175.921 126.112 175.674 125.861C175.427 125.609 175.088 125.462 174.662 125.42L174.425 125.397L174.117 124.798L175.924 122.803L172.865 122.503L172.949 121.646L177.078 122.051L176.993 122.851L175.3 124.719Z" fill="white"/>
<path d="M182.19 128.642C181.663 129.247 180.974 129.508 180.136 129.426C179.298 129.343 178.679 128.954 178.274 128.258C177.875 127.561 177.722 126.675 177.829 125.593C177.935 124.51 178.251 123.67 178.784 123.065C179.311 122.46 180 122.2 180.838 122.282C181.676 122.364 182.295 122.754 182.7 123.45C183.099 124.146 183.252 125.033 183.146 126.115C183.039 127.197 182.723 128.038 182.19 128.642ZM179.011 127.705C179.265 128.197 179.674 128.477 180.23 128.532C180.787 128.587 181.241 128.397 181.594 127.958C181.946 127.526 182.161 126.877 182.245 126.027C182.329 125.176 182.244 124.498 181.983 123.999C181.723 123.499 181.314 123.226 180.757 123.171C180.2 123.116 179.746 123.305 179.4 123.745C179.054 124.178 178.839 124.827 178.754 125.684C178.665 126.534 178.75 127.212 179.011 127.705Z" fill="white"/>
<path d="M204.946 39.6137L202.857 39.4084C202.206 39.3445 201.707 39.4786 201.357 40.0883L196.446 48.8017L199.286 49.0808C199.286 49.0808 199.875 47.9008 200.001 47.6479L203.467 47.9884C203.514 48.3467 203.646 49.5092 203.646 49.5092L206.16 49.7563L204.946 39.6137ZM200.983 45.6917C201.264 45.1446 202.325 43.0194 202.325 43.0194C202.326 43.0131 202.614 42.4604 202.781 42.1104L202.878 42.9853C202.878 42.9853 203.165 45.4009 203.222 45.918L200.982 45.698L200.983 45.6917Z" fill="white"/>
<path d="M193.541 41.2719C193.489 41.7404 194.041 42.1041 194.947 42.6542C196.434 43.5203 197.076 44.4424 196.952 45.5797C196.731 47.6359 194.755 48.787 191.902 48.5067C190.69 48.3749 189.544 48.016 188.939 47.6787L189.54 45.4893L189.874 45.6863C190.72 46.1421 191.287 46.3494 192.369 46.4557C193.145 46.5319 194.007 46.3071 194.078 45.6447C194.127 45.2074 193.802 44.8596 192.799 44.2684C191.813 43.6916 190.534 42.7637 190.686 41.3387C190.888 39.4132 192.91 38.2477 195.581 38.5101C196.632 38.6134 197.455 38.9153 197.967 39.1677L197.387 41.2834L197.154 41.1468C196.673 40.8974 196.048 40.6402 195.164 40.5661C194.12 40.4634 193.582 40.859 193.541 41.2719Z" fill="white"/>
<path d="M189.878 38.1266L187.207 47.8875L184.505 47.6219L187.169 37.8604L189.878 38.1266Z" fill="white"/>
<path d="M179.655 42.2823C178.98 39.898 177.009 37.778 173.815 36.6621L173.873 36.4656L178.07 36.878C178.637 36.9527 179.076 37.179 179.173 37.8012L179.655 42.2823Z" fill="white"/>
<path d="M186.08 37.7599L180.839 47.2556L177.98 46.9747L176.373 38.4608C178.002 39.7452 179.311 41.6612 179.715 42.9451L179.902 43.9993L183.22 37.4852L186.079 37.7661L186.08 37.7599Z" fill="white"/>
<path d="M40.0542 89.4571L23.1643 87.7975C22.0821 87.6912 21.2811 86.7156 21.3874 85.6334L22.6161 73.1287C22.7225 72.0465 23.698 71.2455 24.7802 71.3518L41.6701 73.0114C42.7523 73.1177 43.5533 74.0933 43.4469 75.1755L42.2183 87.6802C42.1119 88.7624 41.1364 89.5634 40.0542 89.4571Z" fill="#F6C859"/>
<path d="M29.4229 86.1953C29.3353 86.1867 29.2526 86.1281 29.2231 86.0431C29.1722 85.9181 29.2364 85.7791 29.3614 85.7282C29.7295 85.5812 30.2375 85.2964 30.5699 84.7417C30.9928 84.038 30.9776 83.228 30.8405 83.1451C30.8048 83.1226 30.6536 83.1836 30.5617 83.2187C30.3248 83.3155 29.9904 83.4405 29.6399 83.2798C29.2956 83.1196 29.1518 82.7834 29.0852 82.6252C28.6393 81.5709 28.7261 78.952 29.4289 77.7137C29.6652 77.3011 29.9463 77.0761 30.2789 77.033C30.6179 76.9905 30.8733 77.1545 31.0749 77.288C31.2409 77.3991 31.331 77.4458 31.3841 77.4195C31.6229 77.304 31.6977 76.4776 31.4495 75.7901C31.2314 75.1813 30.7886 74.803 30.4561 74.5872C30.3434 74.5129 30.3137 74.3648 30.3817 74.2514C30.4559 74.1387 30.6041 74.1091 30.7174 74.1771C31.1094 74.4303 31.6393 74.8866 31.9014 75.626C32.1647 76.353 32.2037 77.5632 31.5875 77.8563C31.2763 78.0026 31.0152 77.8316 30.8011 77.6969C30.6408 77.5927 30.4924 77.496 30.3323 77.5182C30.1147 77.5474 29.9469 77.7772 29.8402 77.9625C29.2229 79.0387 29.1246 81.5175 29.5196 82.4469C29.5862 82.605 29.6703 82.7775 29.8337 82.8504C29.9908 82.9226 30.1477 82.8686 30.3777 82.7775C30.6008 82.6921 30.8508 82.5903 31.0887 82.74C31.6009 83.0556 31.4553 84.216 30.9801 85.003C30.5797 85.6711 29.9705 86.0218 29.5367 86.1939C29.4986 86.1964 29.4604 86.199 29.4229 86.1953Z" fill="#7D662D"/>
<path d="M29.4861 78.1615L25.1448 77.7349C25.0134 77.722 24.9113 77.6046 24.9248 77.467C24.9383 77.3294 25.0551 77.2335 25.1928 77.247L29.5341 77.6736C29.6654 77.6865 29.7676 77.8039 29.7541 77.9415C29.7405 78.0791 29.6175 78.1744 29.4861 78.1615Z" fill="#7D662D"/>
<path d="M29.0582 82.5093L24.7168 82.0827C24.5855 82.0698 24.4833 81.9524 24.4969 81.8148C24.5104 81.6771 24.6272 81.5812 24.7648 81.5948L29.1061 82.0213C29.2375 82.0342 29.3396 82.1517 29.3261 82.2893C29.3126 82.4269 29.1895 82.5222 29.0582 82.5093Z" fill="#7D662D"/>
<path d="M34.4898 86.6934C34.4522 86.6898 34.4153 86.6798 34.3796 86.6574C33.9877 86.4041 33.4577 85.9478 33.1957 85.2084C32.8827 84.3439 32.9657 83.1773 33.5295 82.9675C33.7914 82.8732 34.0175 83.0154 34.2197 83.1426C34.4276 83.2768 34.5709 83.3603 34.7391 83.32C34.9267 83.2753 35.0521 83.0918 35.1257 82.9853C35.694 82.1506 36.0795 79.7064 35.684 78.5243C35.6155 78.3218 35.4893 78.0631 35.2878 77.9928C35.1595 77.9486 35.0911 77.8092 35.1347 77.6872C35.1789 77.5589 35.3176 77.4967 35.4403 77.5341C35.7582 77.6411 35.9895 77.9228 36.141 78.3735C36.5892 79.7249 36.1709 82.3112 35.5221 83.258C35.426 83.4001 35.2195 83.7019 34.8506 83.792C34.4755 83.8815 34.1719 83.6937 33.9583 83.5528C33.8751 83.5004 33.7323 83.4105 33.6992 83.4262C33.5486 83.4809 33.376 84.2724 33.6538 85.045C33.8719 85.6538 34.3147 86.032 34.6472 86.2479C34.7599 86.3221 34.7896 86.4703 34.7216 86.5836C34.6698 86.6606 34.5773 86.7021 34.4898 86.6934Z" fill="#7D662D"/>
<path d="M34.4032 77.672C34.3031 77.6622 34.2154 77.5904 34.1877 77.4867C33.8209 75.8843 35.1519 74.8087 35.5594 74.6466C35.6844 74.5958 35.8234 74.66 35.8743 74.785C35.9251 74.91 35.861 75.0489 35.736 75.0998C35.5522 75.1702 34.3447 76.0178 34.6591 77.3814C34.6906 77.5108 34.6083 77.6417 34.4789 77.6732C34.4539 77.6707 34.4282 77.6745 34.4032 77.672Z" fill="#7D662D"/>
<path d="M40.3382 79.2281L35.9968 78.8016C35.8655 78.7887 35.7633 78.6713 35.7768 78.5336C35.7904 78.396 35.9072 78.3001 36.0448 78.3136L40.3861 78.7402C40.5175 78.7531 40.6196 78.8705 40.6061 79.0081C40.5926 79.1458 40.4758 79.2417 40.3382 79.2281Z" fill="#7D662D"/>
<path d="M39.9112 83.5758L35.5699 83.1492C35.4385 83.1363 35.3364 83.0189 35.3499 82.8813C35.3634 82.7437 35.4802 82.6478 35.6178 82.6613L39.9592 83.0879C40.0905 83.1008 40.1927 83.2182 40.1791 83.3558C40.1656 83.4934 40.0488 83.5893 39.9112 83.5758Z" fill="#7D662D"/>
</g>
<defs>
<filter id="filter0_d_96_319641" x="0.179932" y="0.180054" width="231.942" height="162.063" filterUnits="userSpaceOnUse" color-interpolation-filters="sRGB">
<feFlood flood-opacity="0" result="BackgroundImageFix"/>
<feColorMatrix in="SourceAlpha" type="matrix" values="0 0 0 0 0 0 0 0 0 0 0 0 0 0 0 0 0 0 127 0" result="hardAlpha"/>
<feOffset dx="4" dy="4"/>
<feGaussianBlur stdDeviation="2.5"/>
<feComposite in2="hardAlpha" operator="out"/>
<feColorMatrix type="matrix" values="0 0 0 0 0 0 0 0 0 0 0 0 0 0 0 0 0 0 0.15 0"/>
<feBlend mode="normal" in2="BackgroundImageFix" result="effect1_dropShadow_96_319641"/>
<feBlend mode="normal" in="SourceGraphic" in2="effect1_dropShadow_96_319641" result="shape"/>
</filter>
<linearGradient id="paint0_linear_96_319641" x1="21.5384" y1="151.61" x2="202.765" y2="2.81115" gradientUnits="userSpaceOnUse">
<stop stop-color="#1B1464"/>
<stop offset="1" stop-color="#83EFFF"/>
</linearGradient>
<linearGradient id="paint1_linear_96_319641" x1="146.911" y1="81.6812" x2="218.954" y2="22.5285" gradientUnits="userSpaceOnUse">
<stop stop-color="#83EFFF"/>
<stop offset="1" stop-color="#1B1464"/>
</linearGradient>
<linearGradient id="paint2_linear_96_319641" x1="33.3315" y1="165.971" x2="196.017" y2="32.3954" gradientUnits="userSpaceOnUse">
<stop stop-color="#1B1464"/>
<stop offset="1" stop-color="#83EFFF"/>
</linearGradient>
<linearGradient id="paint3_linear_96_319641" x1="0.471016" y1="53.7329" x2="70.1082" y2="-3.44381" gradientUnits="userSpaceOnUse">
<stop stop-color="#1B1464"/>
<stop offset="1" stop-color="#83EFFF"/>
</linearGradient>
<linearGradient id="paint4_linear_96_319641" x1="87.9535" y1="164.731" x2="136.726" y2="124.685" gradientUnits="userSpaceOnUse">
<stop stop-color="#02B6FD"/>
<stop offset="1" stop-color="#83EFFF"/>
</linearGradient>
<linearGradient id="paint5_linear_96_319641" x1="35.9492" y1="169.162" x2="155.592" y2="70.9273" gradientUnits="userSpaceOnUse">
<stop stop-color="#1B1464"/>
<stop offset="1" stop-color="#83EFFF"/>
</linearGradient>
<linearGradient id="paint6_linear_96_319641" x1="21.5384" y1="151.61" x2="202.765" y2="2.81115" gradientUnits="userSpaceOnUse">
<stop stop-color="#2C5BFF"/>
<stop offset="1" stop-color="#000D3A"/>
</linearGradient>
</defs>
</svg>
