<svg width="151" height="149" viewBox="0 0 151 149" fill="none" xmlns="http://www.w3.org/2000/svg">
<g clip-path="url(#clip0_88_150)">
<path d="M53.5647 9.05997L48.81 1.86933C48.038 0.701854 46.7317 -0.000732422 45.3321 -0.000732422H8.58378C3.89285 -3.12378e-05 0.090332 3.80249 0.090332 8.49341V109.021C0.090332 113.712 3.89285 117.515 8.58378 117.515H142.506C147.197 117.515 151 113.712 151 109.021V17.9257C151 13.2348 147.197 9.4323 142.506 9.4323H54.2561C53.9777 9.4323 53.7176 9.29276 53.564 9.06067L53.5647 9.05997Z" fill="url(#paint0_linear_88_150)"/>
<path d="M142.582 16.5858H8.50805C3.85907 16.5858 0.090332 20.3546 0.090332 25.0035V109.098C0.090332 113.747 3.85907 117.516 8.50805 117.516H142.582C147.231 117.516 151 113.747 151 109.098V25.0035C151 20.3546 147.231 16.5858 142.582 16.5858Z" fill="url(#paint1_linear_88_150)"/>
<path opacity="0.8" d="M151.091 103.956H0V109.121H151.091V103.956Z" fill="url(#paint2_linear_88_150)"/>
<path opacity="0.8" d="M151.091 99.4357H0V104.601H151.091V99.4357Z" fill="url(#paint3_linear_88_150)"/>
<g opacity="0.2" filter="url(#filter0_i_88_150)">
<path d="M150.999 97.3979H0V99.5022H150.999V97.3979Z" fill="white"/>
</g>
<g opacity="0.2" filter="url(#filter1_i_88_150)">
<path d="M150.999 102.018H0V104.123H150.999V102.018Z" fill="white"/>
</g>
</g>
<path d="M14.8632 131.909V145H13.278V133.315H6.68137V145H5.09615V131.909H14.8632ZM20.7455 145.23C20.1233 145.23 19.5587 145.113 19.0516 144.879C18.5445 144.64 18.1418 144.297 17.8435 143.849C17.5452 143.398 17.396 142.852 17.396 142.213C17.396 141.651 17.5068 141.195 17.7284 140.845C17.95 140.491 18.2462 140.214 18.6169 140.014C18.9877 139.814 19.3968 139.665 19.8442 139.567C20.2959 139.464 20.7497 139.384 21.2057 139.324C21.8023 139.247 22.286 139.19 22.6567 139.151C23.0317 139.109 23.3044 139.038 23.4749 138.94C23.6496 138.842 23.7369 138.672 23.7369 138.429V138.378C23.7369 137.747 23.5644 137.257 23.2192 136.908C22.8783 136.558 22.3605 136.384 21.6659 136.384C20.9458 136.384 20.3811 136.541 19.972 136.857C19.5629 137.172 19.2753 137.509 19.1091 137.866L17.6773 137.355C17.933 136.759 18.2739 136.294 18.7 135.962C19.1304 135.625 19.5992 135.391 20.1063 135.259C20.6176 135.122 21.1205 135.054 21.6148 135.054C21.9301 135.054 22.2923 135.092 22.7014 135.169C23.1148 135.241 23.5132 135.393 23.8968 135.623C24.2845 135.853 24.6063 136.2 24.8619 136.665C25.1176 137.129 25.2455 137.751 25.2455 138.531V145H23.7369V143.67H23.6602C23.558 143.884 23.3875 144.112 23.1489 144.354C22.9102 144.597 22.5928 144.804 22.1965 144.974C21.8002 145.145 21.3165 145.23 20.7455 145.23ZM20.9756 143.875C21.5722 143.875 22.075 143.758 22.4841 143.523C22.8975 143.289 23.2085 142.987 23.4173 142.616C23.6304 142.245 23.7369 141.855 23.7369 141.446V140.065C23.673 140.142 23.5324 140.212 23.3151 140.276C23.102 140.336 22.8548 140.389 22.5736 140.436C22.2966 140.479 22.026 140.517 21.7618 140.551C21.5019 140.581 21.2909 140.607 21.129 140.628C20.7369 140.679 20.3705 140.762 20.0296 140.877C19.6929 140.988 19.4202 141.156 19.2114 141.382C19.0068 141.604 18.9046 141.906 18.9046 142.29C18.9046 142.814 19.0985 143.21 19.4862 143.479C19.8783 143.743 20.3747 143.875 20.9756 143.875ZM27.9988 145V135.182H35.7204V145H34.2119V136.588H29.5074V145H27.9988ZM38.4754 145V135.182H39.9839V139.452H40.9811L44.5095 135.182H46.4527L42.4896 139.912L46.5038 145H44.5606L41.339 140.858H39.9839V145H38.4754ZM51.0326 145.23C50.4104 145.23 49.8458 145.113 49.3387 144.879C48.8316 144.64 48.4289 144.297 48.1306 143.849C47.8323 143.398 47.6831 142.852 47.6831 142.213C47.6831 141.651 47.7939 141.195 48.0155 140.845C48.2371 140.491 48.5333 140.214 48.904 140.014C49.2748 139.814 49.6839 139.665 50.1313 139.567C50.583 139.464 51.0368 139.384 51.4928 139.324C52.0894 139.247 52.5731 139.19 52.9438 139.151C53.3188 139.109 53.5915 139.038 53.762 138.94C53.9367 138.842 54.0241 138.672 54.0241 138.429V138.378C54.0241 137.747 53.8515 137.257 53.5063 136.908C53.1654 136.558 52.6476 136.384 51.953 136.384C51.2329 136.384 50.6682 136.541 50.2591 136.857C49.8501 137.172 49.5624 137.509 49.3962 137.866L47.9644 137.355C48.2201 136.759 48.561 136.294 48.9871 135.962C49.4175 135.625 49.8863 135.391 50.3934 135.259C50.9047 135.122 51.4076 135.054 51.9019 135.054C52.2172 135.054 52.5795 135.092 52.9885 135.169C53.4019 135.241 53.8003 135.393 54.1839 135.623C54.5716 135.853 54.8934 136.2 55.1491 136.665C55.4047 137.129 55.5326 137.751 55.5326 138.531V145H54.0241V143.67H53.9474C53.8451 143.884 53.6746 144.112 53.436 144.354C53.1974 144.597 52.8799 144.804 52.4836 144.974C52.0873 145.145 51.6036 145.23 51.0326 145.23ZM51.2627 143.875C51.8593 143.875 52.3621 143.758 52.7712 143.523C53.1846 143.289 53.4956 142.987 53.7045 142.616C53.9175 142.245 54.0241 141.855 54.0241 141.446V140.065C53.9601 140.142 53.8195 140.212 53.6022 140.276C53.3891 140.336 53.142 140.389 52.8607 140.436C52.5837 140.479 52.3131 140.517 52.0489 140.551C51.789 140.581 51.578 140.607 51.4161 140.628C51.0241 140.679 50.6576 140.762 50.3167 140.877C49.98 140.988 49.7073 141.156 49.4985 141.382C49.2939 141.604 49.1917 141.906 49.1917 142.29C49.1917 142.814 49.3856 143.21 49.7733 143.479C50.1654 143.743 50.6618 143.875 51.2627 143.875ZM63.3485 145V135.182H71.07V145H69.5615V136.588H64.857V145H63.3485ZM76.7142 145.23C76.0921 145.23 75.5274 145.113 75.0203 144.879C74.5132 144.64 74.1105 144.297 73.8122 143.849C73.5139 143.398 73.3648 142.852 73.3648 142.213C73.3648 141.651 73.4756 141.195 73.6972 140.845C73.9188 140.491 74.2149 140.214 74.5857 140.014C74.9564 139.814 75.3655 139.665 75.8129 139.567C76.2646 139.464 76.7185 139.384 77.1744 139.324C77.771 139.247 78.2547 139.19 78.6254 139.151C79.0004 139.109 79.2732 139.038 79.4436 138.94C79.6183 138.842 79.7057 138.672 79.7057 138.429V138.378C79.7057 137.747 79.5331 137.257 79.1879 136.908C78.847 136.558 78.3293 136.384 77.6347 136.384C76.9145 136.384 76.3499 136.541 75.9408 136.857C75.5317 137.172 75.2441 137.509 75.0779 137.866L73.646 137.355C73.9017 136.759 74.2426 136.294 74.6688 135.962C75.0992 135.625 75.5679 135.391 76.075 135.259C76.5864 135.122 77.0892 135.054 77.5835 135.054C77.8989 135.054 78.2611 135.092 78.6702 135.169C79.0835 135.241 79.482 135.393 79.8655 135.623C80.2533 135.853 80.575 136.2 80.8307 136.665C81.0864 137.129 81.2142 137.751 81.2142 138.531V145H79.7057V143.67H79.629C79.5267 143.884 79.3563 144.112 79.1176 144.354C78.879 144.597 78.5615 144.804 78.1652 144.974C77.7689 145.145 77.2852 145.23 76.7142 145.23ZM76.9443 143.875C77.5409 143.875 78.0438 143.758 78.4529 143.523C78.8662 143.289 79.1773 142.987 79.3861 142.616C79.5992 142.245 79.7057 141.855 79.7057 141.446V140.065C79.6418 140.142 79.5012 140.212 79.2838 140.276C79.0708 140.336 78.8236 140.389 78.5423 140.436C78.2654 140.479 77.9948 140.517 77.7306 140.551C77.4706 140.581 77.2597 140.607 77.0977 140.628C76.7057 140.679 76.3392 140.762 75.9983 140.877C75.6617 140.988 75.3889 141.156 75.1801 141.382C74.9756 141.604 74.8733 141.906 74.8733 142.29C74.8733 142.814 75.0672 143.21 75.455 143.479C75.847 143.743 76.3435 143.875 76.9443 143.875ZM83.9676 148.682V135.182H85.425V136.741H85.604C85.7148 136.571 85.8682 136.354 86.0642 136.089C86.2645 135.821 86.55 135.582 86.9207 135.374C87.2957 135.161 87.8028 135.054 88.442 135.054C89.2687 135.054 89.9974 135.261 90.6281 135.674C91.2588 136.087 91.751 136.673 92.1047 137.432C92.4584 138.19 92.6352 139.085 92.6352 140.116C92.6352 141.156 92.4584 142.058 92.1047 142.82C91.751 143.579 91.2609 144.167 90.6345 144.585C90.0081 144.998 89.2858 145.205 88.4676 145.205C87.8369 145.205 87.3319 145.1 86.9527 144.891C86.5734 144.678 86.2815 144.437 86.077 144.169C85.8724 143.896 85.7148 143.67 85.604 143.491H85.4761V148.682H83.9676ZM85.4506 140.091C85.4506 140.832 85.5592 141.487 85.7765 142.053C85.9939 142.616 86.3113 143.057 86.729 143.376C87.1466 143.692 87.6579 143.849 88.2631 143.849C88.8937 143.849 89.42 143.683 89.8419 143.351C90.268 143.014 90.5876 142.562 90.8007 141.996C91.018 141.425 91.1267 140.79 91.1267 140.091C91.1267 139.401 91.0202 138.778 90.8071 138.224C90.5983 137.666 90.2808 137.225 89.8547 136.901C89.4328 136.573 88.9023 136.409 88.2631 136.409C87.6494 136.409 87.1338 136.565 86.7162 136.876C86.2986 137.183 85.9832 137.613 85.7702 138.167C85.5571 138.717 85.4506 139.358 85.4506 140.091ZM93.6531 136.588V135.182H101.63V136.588H98.4088V145H96.9003V136.588H93.6531ZM110.402 139.401V140.807H104.981V139.401H110.402ZM105.339 135.182V145H103.831V135.182H105.339ZM111.552 135.182V145H110.044V135.182H111.552ZM118.424 145.205C117.478 145.205 116.662 144.996 115.976 144.578C115.294 144.156 114.768 143.568 114.397 142.814C114.03 142.055 113.847 141.173 113.847 140.168C113.847 139.162 114.03 138.276 114.397 137.509C114.768 136.737 115.283 136.136 115.944 135.706C116.609 135.271 117.384 135.054 118.271 135.054C118.782 135.054 119.287 135.139 119.785 135.31C120.284 135.48 120.738 135.757 121.147 136.141C121.556 136.52 121.882 137.023 122.125 137.649C122.368 138.276 122.489 139.047 122.489 139.963V140.602H114.921V139.298H120.955C120.955 138.744 120.844 138.25 120.623 137.815C120.405 137.381 120.094 137.038 119.69 136.786C119.289 136.535 118.816 136.409 118.271 136.409C117.67 136.409 117.15 136.558 116.711 136.857C116.276 137.151 115.942 137.534 115.707 138.007C115.473 138.48 115.356 138.987 115.356 139.528V140.398C115.356 141.139 115.484 141.768 115.739 142.283C115.999 142.795 116.359 143.185 116.82 143.453C117.28 143.717 117.815 143.849 118.424 143.849C118.82 143.849 119.178 143.794 119.498 143.683C119.822 143.568 120.101 143.398 120.335 143.172C120.57 142.942 120.751 142.656 120.878 142.315L122.336 142.724C122.182 143.219 121.925 143.653 121.562 144.028C121.2 144.399 120.753 144.689 120.22 144.898C119.687 145.102 119.089 145.205 118.424 145.205ZM116.353 133.545C116.084 133.545 115.846 133.443 115.637 133.239C115.432 133.03 115.33 132.791 115.33 132.523C115.33 132.229 115.432 131.986 115.637 131.794C115.846 131.598 116.084 131.5 116.353 131.5C116.647 131.5 116.89 131.598 117.082 131.794C117.278 131.986 117.376 132.229 117.376 132.523C117.376 132.791 117.278 133.03 117.082 133.239C116.89 133.443 116.647 133.545 116.353 133.545ZM120.035 133.545C119.766 133.545 119.528 133.443 119.319 133.239C119.114 133.03 119.012 132.791 119.012 132.523C119.012 132.229 119.114 131.986 119.319 131.794C119.528 131.598 119.766 131.5 120.035 131.5C120.329 131.5 120.572 131.598 120.763 131.794C120.959 131.986 121.057 132.229 121.057 132.523C121.057 132.791 120.959 133.03 120.763 133.239C120.572 133.443 120.329 133.545 120.035 133.545ZM124.784 148.682V135.182H126.241V136.741H126.42C126.531 136.571 126.685 136.354 126.881 136.089C127.081 135.821 127.366 135.582 127.737 135.374C128.112 135.161 128.619 135.054 129.258 135.054C130.085 135.054 130.814 135.261 131.445 135.674C132.075 136.087 132.567 136.673 132.921 137.432C133.275 138.19 133.452 139.085 133.452 140.116C133.452 141.156 133.275 142.058 132.921 142.82C132.567 143.579 132.077 144.167 131.451 144.585C130.824 144.998 130.102 145.205 129.284 145.205C128.653 145.205 128.148 145.1 127.769 144.891C127.39 144.678 127.098 144.437 126.893 144.169C126.689 143.896 126.531 143.67 126.42 143.491H126.293V148.682H124.784ZM126.267 140.091C126.267 140.832 126.376 141.487 126.593 142.053C126.81 142.616 127.128 143.057 127.545 143.376C127.963 143.692 128.474 143.849 129.079 143.849C129.71 143.849 130.236 143.683 130.658 143.351C131.084 143.014 131.404 142.562 131.617 141.996C131.834 141.425 131.943 140.79 131.943 140.091C131.943 139.401 131.837 138.778 131.623 138.224C131.415 137.666 131.097 137.225 130.671 136.901C130.249 136.573 129.719 136.409 129.079 136.409C128.466 136.409 127.95 136.565 127.533 136.876C127.115 137.183 126.8 137.613 126.587 138.167C126.373 138.717 126.267 139.358 126.267 140.091ZM138.642 145.23C138.02 145.23 137.455 145.113 136.948 144.879C136.441 144.64 136.038 144.297 135.74 143.849C135.442 143.398 135.293 142.852 135.293 142.213C135.293 141.651 135.403 141.195 135.625 140.845C135.847 140.491 136.143 140.214 136.513 140.014C136.884 139.814 137.293 139.665 137.741 139.567C138.192 139.464 138.646 139.384 139.102 139.324C139.699 139.247 140.182 139.19 140.553 139.151C140.928 139.109 141.201 139.038 141.371 138.94C141.546 138.842 141.633 138.672 141.633 138.429V138.378C141.633 137.747 141.461 137.257 141.116 136.908C140.775 136.558 140.257 136.384 139.562 136.384C138.842 136.384 138.278 136.541 137.869 136.857C137.459 137.172 137.172 137.509 137.006 137.866L135.574 137.355C135.829 136.759 136.17 136.294 136.597 135.962C137.027 135.625 137.496 135.391 138.003 135.259C138.514 135.122 139.017 135.054 139.511 135.054C139.827 135.054 140.189 135.092 140.598 135.169C141.011 135.241 141.41 135.393 141.793 135.623C142.181 135.853 142.503 136.2 142.758 136.665C143.014 137.129 143.142 137.751 143.142 138.531V145H141.633V143.67H141.557C141.454 143.884 141.284 144.112 141.045 144.354C140.807 144.597 140.489 144.804 140.093 144.974C139.697 145.145 139.213 145.23 138.642 145.23ZM138.872 143.875C139.469 143.875 139.972 143.758 140.381 143.523C140.794 143.289 141.105 142.987 141.314 142.616C141.527 142.245 141.633 141.855 141.633 141.446V140.065C141.57 140.142 141.429 140.212 141.212 140.276C140.998 140.336 140.751 140.389 140.47 140.436C140.193 140.479 139.922 140.517 139.658 140.551C139.398 140.581 139.187 140.607 139.025 140.628C138.633 140.679 138.267 140.762 137.926 140.877C137.589 140.988 137.317 141.156 137.108 141.382C136.903 141.604 136.801 141.906 136.801 142.29C136.801 142.814 136.995 143.21 137.383 143.479C137.775 143.743 138.271 143.875 138.872 143.875Z" fill="black"/>
<defs>
<filter id="filter0_i_88_150" x="0" y="96.7523" width="150.999" height="2.74993" filterUnits="userSpaceOnUse" color-interpolation-filters="sRGB">
<feFlood flood-opacity="0" result="BackgroundImageFix"/>
<feBlend mode="normal" in="SourceGraphic" in2="BackgroundImageFix" result="shape"/>
<feColorMatrix in="SourceAlpha" type="matrix" values="0 0 0 0 0 0 0 0 0 0 0 0 0 0 0 0 0 0 127 0" result="hardAlpha"/>
<feOffset dy="-0.645687"/>
<feGaussianBlur stdDeviation="0.322843"/>
<feComposite in2="hardAlpha" operator="arithmetic" k2="-1" k3="1"/>
<feColorMatrix type="matrix" values="0 0 0 0 0.246783 0 0 0 0 0.711992 0 0 0 0 0.937951 0 0 0 1 0"/>
<feBlend mode="normal" in2="shape" result="effect1_innerShadow_88_150"/>
</filter>
<filter id="filter1_i_88_150" x="0" y="101.373" width="150.999" height="2.74993" filterUnits="userSpaceOnUse" color-interpolation-filters="sRGB">
<feFlood flood-opacity="0" result="BackgroundImageFix"/>
<feBlend mode="normal" in="SourceGraphic" in2="BackgroundImageFix" result="shape"/>
<feColorMatrix in="SourceAlpha" type="matrix" values="0 0 0 0 0 0 0 0 0 0 0 0 0 0 0 0 0 0 127 0" result="hardAlpha"/>
<feOffset dy="-0.645687"/>
<feGaussianBlur stdDeviation="0.322843"/>
<feComposite in2="hardAlpha" operator="arithmetic" k2="-1" k3="1"/>
<feColorMatrix type="matrix" values="0 0 0 0 0.246783 0 0 0 0 0.711992 0 0 0 0 0.937951 0 0 0 1 0"/>
<feBlend mode="normal" in2="shape" result="effect1_innerShadow_88_150"/>
</filter>
<linearGradient id="paint0_linear_88_150" x1="75.5448" y1="-10.1707" x2="75.5448" y2="140.739" gradientUnits="userSpaceOnUse">
<stop stop-color="#3C9BD3"/>
<stop offset="0.05" stop-color="#3FA3D5"/>
<stop offset="0.11" stop-color="#3FA2D5"/>
<stop offset="0.147864" stop-color="#309BD3"/>
<stop offset="0.180079" stop-color="#018ACC"/>
<stop offset="0.203376" stop-color="#018ACC"/>
<stop offset="0.231523" stop-color="#018ACC"/>
</linearGradient>
<linearGradient id="paint1_linear_88_150" x1="75.5448" y1="16.5858" x2="75.5448" y2="120.379" gradientUnits="userSpaceOnUse">
<stop stop-color="#6ECCF6"/>
<stop offset="0.2" stop-color="#72CFFB"/>
<stop offset="0.43" stop-color="#71CEFB"/>
<stop offset="0.54" stop-color="#75CFFB"/>
<stop offset="1" stop-color="#56BBEB"/>
</linearGradient>
<linearGradient id="paint2_linear_88_150" x1="81.0337" y1="103.956" x2="81.0337" y2="109.121" gradientUnits="userSpaceOnUse">
<stop stop-color="#4FBAEF"/>
<stop offset="0.431776" stop-color="#5DBFEF"/>
</linearGradient>
<linearGradient id="paint3_linear_88_150" x1="81.0337" y1="99.4357" x2="81.0337" y2="104.601" gradientUnits="userSpaceOnUse">
<stop stop-color="#4FBAEF"/>
<stop offset="0.431776" stop-color="#5DBFEF"/>
</linearGradient>
<clipPath id="clip0_88_150">
<rect width="151" height="117.515" fill="white"/>
</clipPath>
</defs>
</svg>
