<svg width="270" height="185" viewBox="0 0 270 185" fill="none" xmlns="http://www.w3.org/2000/svg">
<g clip-path="url(#clip0_96_311578)">
<path d="M42.4578 36.5586C42.903 35.7974 42.9964 34.9016 42.7806 34.045C42.5435 33.1029 42.0605 32.4569 41.26 31.9887C40.5126 31.5516 39.659 31.4175 38.7225 31.6716C37.8701 31.9035 37.1902 32.4546 36.7443 33.2171C36.2675 34.0324 36.1199 34.8962 36.337 35.7505C36.5724 36.695 37.1093 37.3708 37.8567 37.8079C38.6572 38.2761 39.4571 38.3801 40.3951 38.1239C41.2472 37.8952 41.981 37.3739 42.4578 36.5586Z" fill="#E91E23"/>
<path d="M85.8944 59.8348C85.6258 58.9471 85.1427 58.3008 84.3424 57.8327C83.5421 57.3647 82.7413 57.2615 81.8365 57.4616C80.9524 57.7477 80.3043 58.2446 79.8274 59.0599C79.35 59.8762 79.2346 60.6849 79.4187 61.5957C79.6874 62.4833 80.2228 63.1616 80.9702 63.5987C81.772 64.0676 82.572 64.1686 83.4765 63.969C84.3608 63.6827 85.0611 63.218 85.5393 62.4004C86.0184 61.5865 86.0785 60.7457 85.8944 59.8348Z" fill="#02B2E7"/>
<path d="M111.082 74.8586C110.845 73.9166 110.364 73.2701 109.563 72.8012C108.815 72.3639 107.962 72.23 107.024 72.4853C106.172 72.7172 105.493 73.2671 105.047 74.0295C104.57 74.8448 104.423 75.7076 104.637 76.5667C104.874 77.5087 105.411 78.1843 106.159 78.6214C106.96 79.0903 107.759 79.1936 108.695 78.9399C109.549 78.7054 110.283 78.1873 110.76 77.371C111.206 76.6085 111.298 75.7151 111.082 74.8586Z" fill="#FABC16"/>
<path d="M147.296 99.7197C147.773 98.9044 147.889 98.0946 147.704 97.1831C147.434 96.2968 146.932 95.565 146.185 95.1278C145.384 94.6598 144.552 94.6109 143.649 94.8113C142.764 95.0976 142.115 95.5937 141.638 96.41C141.192 97.1713 141.046 98.036 141.23 98.9469C141.499 99.8345 141.982 100.479 142.781 100.947C143.53 101.385 144.382 101.519 145.285 101.319C146.171 101.033 146.851 100.481 147.296 99.7197Z" fill="#E91E23"/>
<path d="M187.948 120.729C187.678 119.84 187.173 119.109 186.427 118.673C185.625 118.204 184.795 118.154 183.89 118.355C183.006 118.642 182.357 119.138 181.88 119.955C181.434 120.717 181.287 121.58 181.471 122.491C181.741 123.379 182.223 124.023 183.024 124.492C183.772 124.929 184.624 125.064 185.529 124.864C186.413 124.578 187.092 124.028 187.539 123.265C188.016 122.448 188.132 121.64 187.948 120.729Z" fill="#FABC16"/>
<path d="M233.596 147.071C233.413 146.161 232.876 145.482 232.13 145.045C231.329 144.577 230.476 144.443 229.593 144.73C228.687 144.931 228.007 145.48 227.561 146.243C227.084 147.058 226.939 147.921 227.206 148.812C227.39 149.722 227.927 150.398 228.726 150.866C229.473 151.303 230.328 151.439 231.208 151.153C232.117 150.95 232.796 150.4 233.273 149.583C233.717 148.82 233.864 147.959 233.596 147.071Z" fill="#02B2E7"/>
<path fill-rule="evenodd" clip-rule="evenodd" d="M139.331 86.551L137.443 85.4466C137.285 85.2264 137.067 85.0549 136.817 84.95L136.044 84.6287L125.736 78.5997L125.751 78.5781C126.145 78.1192 126.45 78.0782 126.836 78.1652C126.883 78.1758 126.931 78.1844 126.978 78.1896C129.332 78.4827 132.414 79.3706 136.391 80.902C136.564 80.9781 136.745 81.017 136.925 81.0225C137.482 81.0423 138.016 80.7379 138.277 80.226L139.17 78.6977C139.495 78.1707 139.458 77.4734 139.034 76.9784C136.25 73.7353 132.62 72.143 128.242 72.2479C126.807 72.1536 125.187 72.7009 123.289 73.9172L123.239 73.9494L123.192 73.9829L118.979 77.0718C118.023 77.6827 117.156 78.6846 116.258 80.2211C115.687 81.1965 115.047 81.9529 114.358 82.4699L114.283 82.5316C113.172 83.4882 111.79 85.407 109.94 88.571C109.731 88.9293 109.684 89.3607 109.813 89.7552C109.923 90.1005 110.158 90.3883 110.467 90.5691C110.513 90.5958 110.56 90.6204 110.608 90.643C114.46 92.3653 117.639 93.5381 120.327 94.232C124.318 95.26 127.831 95.4051 130.768 94.655C131.34 94.5091 131.768 94.0307 131.852 93.4436C131.933 92.8576 131.653 92.2794 131.141 91.9797C129.505 91.0234 127.396 90.2313 124.869 89.6235L124.837 89.616L124.813 89.6098L118.689 88.3382C118.274 88.043 118.216 87.7615 118.265 87.3732L118.273 87.2973C118.309 86.7791 118.57 86.3038 119.048 85.8775C121.065 84.8337 121.587 84.6972 121.67 84.6793L121.757 84.6636C122.606 84.4595 123.279 84.6475 123.936 85.2676C124.017 85.343 124.105 85.4112 124.2 85.467C125.006 85.9379 125.815 85.5916 126.339 85.3338L127.13 85.9189C127.488 86.2255 128.41 86.9731 129.547 86.7485C130.062 86.7193 131.365 87.0587 131.85 87.1866C132.942 87.5281 134.04 87.6226 135.12 87.4707L135.498 87.6915L135.778 87.978C136.88 89.4002 138.192 89.3842 138.886 89.2453C139.316 89.1576 139.665 88.8894 139.865 88.5369C140.261 87.8423 140.024 86.9563 139.331 86.551ZM187.712 97.1272C187.179 96.8627 186.54 96.9471 186.094 97.3423C184.529 98.7282 182.069 100.644 178.977 102.879C175.835 105.146 173.306 107.113 171.661 108.569L169.008 110.769C168.45 111.041 168.207 110.962 167.8 110.424C165.654 107.607 164.492 104.715 164.344 101.825L164.611 97.7593C164.615 97.7197 164.616 97.6789 164.614 97.639C164.633 96.4797 164.52 95.2105 163.619 94.5084C163.114 94.1156 162.481 93.9982 161.832 94.1745L161.809 94.1805C158.907 95.0235 156.198 97.0464 153.757 100.196C153.723 100.24 153.692 100.283 153.665 100.329L148.075 108.312C148.052 108.34 148.032 108.37 148.014 108.401C147.693 108.917 147.733 109.563 148.076 110.033L147.985 110.385C147.968 110.437 147.956 110.49 147.948 110.547C147.936 110.62 147.929 110.694 147.929 110.766C147.918 111.322 148.18 111.827 148.635 112.13L148.715 112.179C149.2 112.463 149.79 112.469 150.345 112.191L150.389 112.169C151.495 111.568 152.568 110.642 153.582 109.418C153.606 109.39 153.627 109.36 153.649 109.332L156.011 106.369L156.043 106.329L156.077 106.28C157.041 104.918 157.597 104.52 157.759 104.424C158.034 104.254 158.054 104.271 158.243 104.42C158.298 104.464 158.355 104.505 158.417 104.541C159.129 104.958 159.765 105.669 160.254 106.6L160.299 106.676C160.73 107.39 161.133 108.439 161.565 109.976L162.637 114.233L162.645 114.262L162.649 114.284C163.203 116.251 163.718 117.613 164.314 118.699C164.441 118.929 164.629 119.122 164.858 119.255C166.758 120.367 168.078 120.324 168.778 119.127C169.989 117.057 171.685 114.872 173.819 112.627C175.172 111.275 177.347 109.271 180.281 106.668C180.394 106.565 180.491 106.452 180.569 106.319C180.631 106.217 180.977 105.821 181.79 105.188L181.825 105.161C182.423 104.719 183.194 104.081 183.676 103.42C183.838 103.31 184.09 103.159 184.372 103.058C184.445 103.034 184.514 103.002 184.582 102.966L185.949 102.285C185.982 102.268 186.014 102.25 186.044 102.232C187.548 101.433 188.404 100.158 188.524 98.5437C188.567 97.952 188.241 97.3893 187.712 97.1272ZM211.137 137.254L207.403 136.163C205.822 135.68 204.566 135.381 203.629 135.269C203.095 134.957 202.815 134.209 202.715 132.909C202.648 132.289 202.486 131.828 202.202 131.586C201.934 131.43 201.548 131.351 200.992 131.321L199.424 131.059L197.695 129.973L202.607 125.984C204.509 124.323 206.007 122.865 207.038 121.717C207.755 122.572 209.049 123.549 210.757 124.548L214.987 127.238C216.495 128.34 217.436 129.549 217.877 130.754C218.458 132.336 218.355 134.102 217.562 136.192C216.18 137.574 214.039 137.928 211.137 137.254ZM221.932 128.646C220.399 124.907 218.09 122.45 215.066 121.346L211.057 118.373C209.434 117.124 207.916 116.216 206.666 115.743C206.296 115.605 205.889 115.62 205.534 115.785C205.178 115.949 204.901 116.251 204.772 116.62C203.958 118.921 202.295 121.116 199.826 123.149L192.983 128.412C191.295 129.474 190.117 131.002 189.57 132.839L189.558 132.876L189.548 132.923L188.486 137.182C188.33 137.81 188.607 138.47 189.167 138.798L190.236 139.423C190.933 139.83 191.828 139.595 192.235 138.899L193.733 136.338C193.868 136.388 194.002 136.42 194.137 136.432C195.882 136.672 198.77 137.519 202.946 139.017C206.949 140.505 210.156 141.302 212.747 141.452C212.816 141.457 212.883 141.457 212.951 141.45C214.375 141.335 215.608 141.031 216.523 140.776L216.624 140.747C218.05 140.241 218.95 139.664 219.439 138.938C222.01 135.956 222.899 132.488 222.009 128.897C221.992 128.812 221.966 128.727 221.932 128.646ZM258.023 162.496C256.879 160.524 254.858 158.736 252.182 157.327L252.148 157.309L246.478 154.057L246.494 154.025L247.014 153.279C251.451 152.664 255.353 152.747 258.626 153.528C258.686 153.54 258.748 153.552 258.811 153.558C259.946 153.68 260.91 153.199 261.53 152.205C261.58 152.134 261.623 152.06 261.658 151.98L262.42 150.308C262.736 149.614 262.465 148.811 261.812 148.432L260.231 147.507C260.099 147.433 259.955 147.371 259.8 147.336C259.625 147.297 259.444 147.292 259.27 147.318C256.532 147.695 253.625 147.893 250.63 147.906C248.101 147.55 240.898 146.597 239.254 151.102C239.216 151.205 239.19 151.312 239.175 151.423C238.985 152.966 239.486 154.395 240.627 155.562C240.672 155.611 240.722 155.657 240.775 155.699C240.829 155.742 240.885 155.78 240.939 155.814L244.16 157.84C244.215 157.875 244.272 157.906 244.329 157.933L248.3 159.756L251.454 161.8L251.457 162.358C251.45 162.37 251.411 162.417 251.318 162.482L250.596 162.911C248.917 163.176 247.062 163.189 245.074 162.944L245.018 162.939C243.094 162.777 241.282 162.362 239.478 161.671C239.17 161.555 238.831 161.543 238.518 161.641C236.975 162.122 235.941 162.843 235.352 163.85C235.066 164.338 235.09 164.95 235.413 165.417C235.537 165.595 235.697 165.741 235.877 165.846C236.17 166.017 236.517 166.085 236.863 166.028C238.145 165.808 239.727 165.825 241.568 166.076L247.037 167.096L247.081 167.102L247.127 167.11C249.421 167.423 251.252 167.455 252.73 167.204L252.758 167.199C254.89 166.792 256.624 165.761 257.909 164.134C258.279 163.663 258.324 163.014 258.023 162.496ZM103.97 53.8782C103.906 53.8299 103.84 53.7857 103.77 53.7444L102.753 53.1498C102.18 52.8008 101.422 52.8774 100.938 53.3776C97.4443 56.9844 92.4517 62.7021 85.674 70.8579C85.6237 70.9202 85.5775 70.9849 85.5375 71.0532C84.8376 72.2499 85.4468 73.4177 87.3495 74.5305C87.9617 74.8885 88.7421 74.7588 89.2004 74.2179C89.4698 73.9002 90.4439 72.6774 91.7314 70.176C92.102 69.5423 93.1365 67.7879 93.9021 67.174L93.9834 67.1159L99.8492 62.4621L99.914 62.4083L99.9768 62.3533C102.227 60.2096 103.73 57.9065 104.442 55.4992C104.646 54.9181 104.456 54.2655 103.97 53.8782ZM62.9401 41.4736C61.024 41.812 59.3712 41.9431 57.8131 41.9073C56.2053 41.8424 55.0532 41.6077 54.5596 41.0995C55.4498 39.5774 56.2241 38.4962 56.9375 37.8907C57.9153 37.0758 59.1189 36.6125 60.5896 36.6695C62.1456 36.7041 63.6925 36.8779 65.2067 37.1076C67.5424 37.5231 68.8877 38.1654 69.187 38.9964C69.3523 39.4571 68.8198 39.8766 67.5306 40.3621C66.3277 40.8286 64.8268 41.1903 62.9401 41.4736ZM68.4462 55.3379C67.0912 54.5454 65.6354 53.316 64.0024 51.58L60.044 47.0445L59.9768 46.1214C59.987 46.0134 60.0016 45.9219 60.0151 45.8464C60.7922 45.4699 61.8152 45.254 63.119 45.1911L67.7843 45.1849L67.8177 45.185L67.8523 45.183C69.8449 45.1089 71.3171 44.7582 72.3526 44.116C72.3829 44.0976 72.4144 44.0771 72.4438 44.0554C73.8534 43.0261 74.4921 41.3626 74.34 39.1087C74.2846 37.7034 73.5208 36.2812 72.0739 34.8792L72.0414 34.8491C70.754 33.6792 69.3439 32.8573 67.8525 32.4075L67.8091 32.396C67.5987 32.3369 67.3827 32.33 67.1791 32.3638C65.4853 32.5793 64.0862 32.5337 62.9002 32.2236C61.7039 31.8741 60.9936 31.203 60.7334 30.1671C60.6472 29.8193 60.4439 29.5336 60.1733 29.3392C59.5954 28.9179 58.7778 28.9733 58.2642 29.5039L56.4619 31.3623C54.0394 33.814 50.6809 37.4276 46.747 41.8161C42.005 47.1245 39.228 50.1162 37.1721 52.1268C35.7873 53.3709 34.8089 55.4389 34.0985 58.6249C33.955 59.2607 34.2531 59.8936 34.7864 60.2055C34.8238 60.2274 34.8623 60.2471 34.8999 60.2638C35.5465 60.5725 36.3372 60.368 36.7453 59.7559L39.7044 55.3058L40.2278 54.5589C41.2506 53.1006 42.0575 51.9495 42.7941 51.0852L42.8174 51.0596C45.1162 48.2385 47.4927 46.5463 49.8801 46.0305C50.7932 45.9643 51.9706 46.5414 53.2895 47.705C54.2564 48.6039 55.4547 49.969 56.9413 51.8697C60.1697 56.0534 63.3697 58.4193 66.7248 59.1059C66.9186 59.1554 67.1206 59.1624 67.3155 59.1291C67.7662 59.0536 68.1625 58.7712 68.3731 58.3636L68.9725 57.3387C69.3791 56.6425 69.1455 55.7469 68.4462 55.3379ZM37.2217 23.7726L34.6884 22.6523L34.678 22.6462L23.9312 17.4476C23.8319 17.384 23.6834 17.247 23.5706 16.7976C23.4953 16.4978 23.523 16.3028 23.5761 16.1644C25.6362 14.037 27.6245 12.6848 29.4916 12.1398L33.8872 12.7375C35.6011 13.0311 37.1338 13.519 38.4166 13.9636C38.9317 14.2065 39.8625 14.4006 41.1552 13.6949C42.1883 13.1902 42.4327 12.4772 42.4541 11.9644C42.4864 11.2469 42.1194 10.6321 41.3624 10.1309C39.7534 8.43957 37.6857 7.29974 35.0454 6.64764C32.7194 6.08215 30.5284 6.07637 28.531 6.62568C26.7862 6.68074 24.9969 7.68802 23.0726 9.69744L23.0518 9.71865L23.0494 9.7228L20.921 12.0241C20.0673 12.8838 19.4257 13.4619 18.8661 13.8711L16.8048 14.7721L16.7704 14.7881L16.7449 14.7982C15.0267 15.622 14.4818 16.8679 14.3275 17.7698C14.2941 17.9698 14.3023 18.1747 14.3523 18.3707C14.3779 18.4746 14.3522 18.7708 14.0882 19.2223C14.0518 19.2844 14.0209 19.3469 13.994 19.4118C13.3891 20.9033 12.5257 22.4938 11.4176 24.1552C10.747 25.197 9.68847 26.5736 8.35015 28.3144L8.05739 28.6959L4.49847 33.3289C4.47045 33.3625 4.44559 33.3955 4.42183 33.4313C3.02345 35.4176 1.95544 37.158 1.15848 38.754C1.12872 38.8144 1.10212 38.8742 1.081 38.9341C0.844723 39.5905 1.10988 40.3322 1.71993 40.689L1.80634 40.7365C2.44671 41.0557 3.20545 40.863 3.62129 40.3139L10.7238 31.4504L10.7788 31.3853C13.3274 28.1319 15.8308 25.2328 18.2194 22.7723C18.2829 22.7066 18.3381 22.6361 18.387 22.5619C18.4602 22.5268 18.6885 22.4464 19.2007 22.4319C19.9905 22.4575 20.6013 22.5702 21.017 22.7688C21.0492 22.7848 21.0829 22.799 21.1165 22.8131C22.3266 23.2818 23.6727 23.68 25.1208 23.9989C25.177 24.0123 25.2336 24.0204 25.2892 24.0252L29.1044 24.5251L29.1717 24.5338C30.4063 24.675 31.5853 24.8588 32.677 25.0777L33.5588 25.346L36.0408 26.4447C36.7798 26.7713 37.6424 26.4392 37.968 25.7015C38.2956 24.9648 37.9608 24.0992 37.2217 23.7726Z" fill="black"/>
</g>
<defs>
<clipPath id="clip0_96_311578">
<rect width="285" height="47" fill="white" transform="translate(23.7278) rotate(30.3212)"/>
</clipPath>
</defs>
</svg>
