<svg width="78" height="21" viewBox="0 0 78 21" fill="none" xmlns="http://www.w3.org/2000/svg">
<path d="M21.0617 18.0022V11.7453H23.627V18.0022H21.0617Z" fill="black"/>
<path d="M28.3407 18.1988C25.9631 18.1988 24.1217 17.0279 24.1217 15.4726C24.1217 13.9173 26.0167 12.7374 28.3675 12.7374C30.6736 12.7374 32.6312 13.9084 32.6312 15.6961V15.7765H26.6156C26.7854 16.3575 27.4647 16.7597 28.3943 16.7597C29.1452 16.7597 29.753 16.5273 30.0658 16.1609H32.5418C32.0412 17.3139 30.4144 18.1988 28.3407 18.1988ZM28.3675 14.1318C27.5809 14.1318 26.991 14.4447 26.7228 14.9005H30.0658C29.7887 14.4447 29.1541 14.1318 28.3675 14.1318Z" fill="black"/>
<path d="M33.1161 18.0022V11.7453H35.6993V13.8279C36.3072 13.1844 37.2815 12.8 38.4166 12.8C40.4814 12.8 41.9384 13.9441 41.9384 15.4637C41.9384 16.9832 40.4725 18.1363 38.4166 18.1363C37.2815 18.1363 36.3072 17.7519 35.6993 17.1083V18.0022H33.1161ZM37.5764 16.6704C38.6759 16.6704 39.4356 16.1519 39.4356 15.4726C39.4356 14.7843 38.6759 14.2659 37.5764 14.2659C36.4591 14.2659 35.6725 14.7843 35.6725 15.4637C35.6725 16.1519 36.4591 16.6704 37.5764 16.6704Z" fill="black"/>
<path d="M46.5318 18.1988C44.1542 18.1988 42.3129 17.0279 42.3129 15.4726C42.3129 13.9173 44.2078 12.7374 46.5587 12.7374C48.8648 12.7374 50.8223 13.9084 50.8223 15.6961V15.7765H44.8067C44.9766 16.3575 45.6559 16.7597 46.5855 16.7597C47.3363 16.7597 47.9441 16.5273 48.257 16.1609H50.7329C50.2324 17.3139 48.6056 18.1988 46.5318 18.1988ZM46.5587 14.1318C45.7721 14.1318 45.1821 14.4447 44.914 14.9005H48.257C47.9799 14.4447 47.3452 14.1318 46.5587 14.1318Z" fill="black"/>
<path d="M54.7118 18.1363C52.647 18.1363 51.199 16.9921 51.199 15.4637C51.199 13.9531 52.6559 12.8 54.7118 12.8C55.847 12.8 56.8213 13.1844 57.4291 13.8279V11.7453H60.0123V18.0022H57.4291V17.0994C56.8213 17.7519 55.847 18.1363 54.7118 18.1363ZM55.552 16.6704C56.6693 16.6704 57.4559 16.1519 57.4559 15.4726C57.4559 14.7843 56.6693 14.2659 55.552 14.2659C54.4526 14.2659 53.7017 14.7843 53.7017 15.4637C53.7017 16.1519 54.4526 16.6704 55.552 16.6704Z" fill="black"/>
<path d="M64.723 18.1988C62.3454 18.1988 60.504 17.0279 60.504 15.4726C60.504 13.9173 62.399 12.7374 64.7498 12.7374C67.0559 12.7374 69.0134 13.9084 69.0134 15.6961V15.7765H62.9979C63.1677 16.3575 63.847 16.7597 64.7766 16.7597C65.5275 16.7597 66.1353 16.5273 66.4481 16.1609H68.9241C68.4235 17.3139 66.7967 18.1988 64.723 18.1988ZM64.7498 14.1318C63.9632 14.1318 63.3733 14.4447 63.1051 14.9005H66.4481C66.171 14.4447 65.5364 14.1318 64.7498 14.1318Z" fill="black"/>
<path d="M71.8843 18.0022L68.3894 12.9341H71.1871L72.224 14.4804L73.2519 16.0178L74.2887 14.4804L75.3167 12.9341H77.9356L74.4407 18.0022H71.8843Z" fill="black"/>
<path d="M25.9592 9.38983C22.9738 9.38983 21.0967 8.53174 20.6409 7.10159H23.385C23.6353 7.64683 24.4665 7.96862 25.8699 7.96862C27.4162 7.96862 28.0151 7.69153 28.0151 7.3608C28.0151 6.17199 20.7034 8.04013 20.7034 5.05468C20.7034 3.67816 22.3928 2.7575 25.3693 2.7575C28.3548 2.7575 30.2497 3.66922 30.6609 5.09044H28.033C27.8006 4.55413 26.8442 4.19659 25.4587 4.19659C24.0017 4.19659 23.4833 4.48262 23.4833 4.77759C23.4833 5.95747 30.786 4.20553 30.786 7.09265C30.786 8.47811 29.0251 9.38983 25.9592 9.38983Z" fill="black"/>
<path d="M31.3623 9.20213V2.94521H40.0952V4.52732H34.0171V5.34071H38.5846V6.81556H34.0171V7.67365H40.0952V9.20213H31.3623Z" fill="black"/>
<path d="M45.6283 9.40771C42.4641 9.40771 40.1312 7.99543 40.1312 6.07367C40.1312 4.1519 42.4641 2.73962 45.6283 2.73962C48.7836 2.73962 51.1165 4.1519 51.1165 6.07367C51.1165 7.99543 48.7836 9.40771 45.6283 9.40771ZM45.6283 7.70047C47.1747 7.70047 48.3277 7.0122 48.3277 6.07367C48.3277 5.14407 47.1747 4.45581 45.6283 4.45581C44.073 4.45581 42.92 5.14407 42.92 6.07367C42.92 7.0122 44.073 7.70047 45.6283 7.70047Z" fill="black"/>
<path d="M0.00012207 12.2432C1.75149 10.4809 4.61451 10.4728 6.37599 12.2251L13.2002 19.0139C11.4293 20.7557 8.57273 20.7495 6.80954 18.9999L0.00012207 12.2432Z" fill="black"/>
<path d="M3 1.6432C4.75136 -0.11909 7.61439 -0.127206 9.37587 1.62513L16.2001 8.4139C14.4292 10.1557 11.5726 10.1495 9.80942 8.39997L3 1.6432Z" fill="black"/>
<path d="M14.05 13.8447L2.39856 2.51928L2.39545 2.51611C1.19603 4.32027 1.90655 6.46996 3.65288 8.16857L14.0381 18.3162C15.3161 17.0868 15.3215 15.0805 14.05 13.8447Z" fill="black"/>
</svg>
