<svg width="142" height="71" viewBox="0 0 142 71" fill="none" xmlns="http://www.w3.org/2000/svg">
<g filter="url(#filter0_d_96_319632)">
<rect x="22" y="8.9624" width="108" height="36" rx="18" fill="url(#paint0_linear_96_319632)" shape-rendering="crispEdges"/>
<rect x="22.5" y="9.4624" width="107" height="35" rx="17.5" stroke="url(#paint1_linear_96_319632)" shape-rendering="crispEdges"/>
<path d="M54.5129 22.079V25.3345H52.8849V23.707H51.2568V22.0794H52.8849V20.4519H49.6293V22.0794H46.3738V20.4519H43.1182V22.0794H44.7457V23.707H43.1182V25.3345H41.4902V22.079H39.8622V26.9621H41.4902V28.5896H43.1182V31.8452H41.4902V33.4727H44.7457V30.2176H51.2568V33.4727H54.5124V31.8452H52.8844V28.5896H54.5124V26.9621H56.1399V22.079H54.5124H54.5129ZM51.2573 26.9621H49.6298V25.3345H51.2573V26.9621ZM46.3742 25.3345V26.9621H44.7462V25.3345H46.3742Z" fill="white"/>
<path d="M80.9331 22.0374H79.7018V21.4218H81.2409C81.4132 21.4218 81.5487 21.5572 81.5487 21.7296V22.9609C81.5487 23.1333 81.4132 23.2687 81.2409 23.2687H80.9331V23.8843H80.3174V22.6531H80.9331V22.0374ZM80.3174 25.1156H80.9331V24.5H80.3174V25.1156ZM79.0861 21.4218H78.4705V23.8843H79.0861V21.4218ZM82.78 28.8094V30.6563C82.78 30.9949 82.5029 31.272 82.1643 31.272H81.5487V31.8876C81.5487 32.5709 81.0008 33.1189 80.3174 33.1189H71.6985C71.372 33.1189 71.0588 32.9891 70.8279 32.7582C70.597 32.5273 70.4672 32.2141 70.4672 31.8876V31.272H69.8516C69.513 31.272 69.236 30.9949 69.236 30.6563V28.8094C69.236 28.4708 69.513 28.1938 69.8516 28.1938H70.4672C70.4672 25.8113 72.3942 23.8843 74.7767 23.8843H75.3923V23.1025C75.0229 22.8932 74.7767 22.493 74.7767 22.0374C74.7767 21.3602 75.3308 20.8062 76.008 20.8062C76.6852 20.8062 77.2392 21.3602 77.2392 22.0374C77.2392 22.493 76.993 22.8932 76.6236 23.1025V23.8843H77.2392C77.4486 23.8843 77.6517 23.9028 77.8549 23.9336V25.7312H80.773C81.2793 26.4525 81.5503 27.3126 81.5487 28.1938H82.1643C82.5029 28.1938 82.78 28.4708 82.78 28.8094ZM74.7767 29.1172C74.7767 28.7091 74.6145 28.3176 74.3259 28.0289C74.0373 27.7403 73.6458 27.5782 73.2376 27.5782C72.8294 27.5782 72.4379 27.7403 72.1493 28.0289C71.8607 28.3176 71.6985 28.7091 71.6985 29.1172C71.6985 29.5254 71.8607 29.9169 72.1493 30.2055C72.4379 30.4942 72.8294 30.6563 73.2376 30.6563C73.6458 30.6563 74.0373 30.4942 74.3259 30.2055C74.6145 29.9169 74.7767 29.5254 74.7767 29.1172ZM80.3174 29.1172C80.3174 28.7091 80.1553 28.3176 79.8666 28.0289C79.578 27.7403 79.1865 27.5782 78.7783 27.5782C78.3701 27.5782 77.9787 27.7403 77.69 28.0289C77.4014 28.3176 77.2392 28.7091 77.2392 29.1172C77.2392 29.5254 77.4014 29.9169 77.69 30.2055C77.9787 30.4942 78.3701 30.6563 78.7783 30.6563C79.1865 30.6563 79.578 30.4942 79.8666 30.2055C80.1553 29.9169 80.3174 29.5254 80.3174 29.1172ZM79.0861 24.5H78.4705V25.1156H79.0861V24.5Z" fill="white"/>
<path fill-rule="evenodd" clip-rule="evenodd" d="M98.0954 19.0264C98.0954 19.4574 98.1135 19.9175 98.197 20.3167L98.2592 20.6746C98.3574 21.3691 98.7807 22.7147 99.1094 23.3692C99.1732 23.4959 99.6689 24.3816 99.6689 24.4899C99.6689 24.6852 99.5889 24.4997 99.526 24.951C99.5054 25.0999 99.5708 25.3677 99.3895 25.4185C99.0973 25.5007 98.7505 25.2924 98.7505 26.1184C98.7505 26.2696 98.7712 26.3296 98.7772 26.4369C98.7873 26.6176 98.6978 26.5922 98.6978 26.7751C98.6978 26.8764 98.8162 26.8361 98.8524 27.0667L98.9963 27.8158C99.0208 27.913 99.0913 28.0949 99.0913 28.1673C99.0913 28.6488 98.9242 28.7536 99.2389 29.1753C99.3447 29.3173 99.3278 29.5812 99.3275 29.7695C99.3263 30.2814 99.3641 30.4494 99.581 30.8813L100.561 32.6581C100.717 32.9598 100.873 33.2428 101.041 33.5435L101.29 33.976C101.382 34.1072 101.491 34.2622 101.603 34.3727C101.634 34.4038 101.652 34.4181 101.68 34.4527C102.265 35.1587 103.938 35.2997 104.765 34.9519C105.404 34.6836 105.714 34.0453 106.051 33.4813L106.88 32.0795C107.227 31.5041 107.83 30.5815 107.709 29.8324C107.639 29.3938 108.062 29.6514 108.062 29.1918C108.062 28.8311 108.01 28.6021 108.01 28.3776L108.133 27.6602C108.154 27.5166 108.165 27.4309 108.198 27.3051C108.211 27.2572 108.225 27.2029 108.257 27.154C108.3 27.0902 108.351 27.0841 108.351 27.0117C108.351 26.8564 108.284 26.9247 108.32 26.5871C108.344 26.3702 108.455 25.4096 108.063 25.4096C107.724 25.4096 107.637 25.5293 107.642 25.2003C107.649 24.7674 107.556 24.9624 107.916 24.5013C107.968 24.4356 107.984 24.4245 108.032 24.3543C108.31 23.9411 108.71 23.3165 108.891 22.8773C108.948 22.7379 108.991 22.6667 109.051 22.5384C109.109 22.4142 109.141 22.2761 109.19 22.1526L109.404 21.6051C109.462 21.4536 110.222 19.4739 109.741 19.4739C109.515 19.4739 109.36 20.0636 109.285 20.251C109.26 20.3129 109.24 20.344 109.22 20.3967C108.943 21.1246 108.645 21.8312 108.193 22.4682L107.385 23.3393C107.134 23.5407 107.107 23.5108 107.039 23.4406C107.037 23.4384 106.996 23.3851 106.98 23.3679C106.934 23.3165 106.895 23.2879 106.85 23.2364C106.801 23.1812 106.785 23.1412 106.729 23.0942L106.244 22.7661C105.528 22.3758 105.2 22.3006 104.392 22.2043C104.283 22.1913 104.242 22.1532 104.154 22.1532L103.798 22.164C103.566 22.1986 103.524 22.1126 103.064 22.1916C102.816 22.2345 102.684 22.1494 102.414 22.2228C102.318 22.2488 102.249 22.2631 102.158 22.2812C102.027 22.3072 102.032 22.3237 101.947 22.359C101.699 22.4613 101.671 22.3631 101.058 22.6775C100.957 22.7299 100.951 22.7658 100.874 22.8084C100.793 22.8538 100.757 22.8325 100.684 22.9068C100.547 23.0462 100.542 23.2682 100.261 23.0573C99.352 22.3761 99.0624 21.1973 98.7594 20.1478C98.6908 19.9099 98.4615 18.7908 98.2783 18.7908C98.1312 18.7908 98.0947 18.8816 98.0947 19.027L98.0954 19.0264ZM101.863 32.8591C101.6 32.3342 101.363 31.7711 101.154 31.17C100.97 30.7409 100.959 30.4024 101.119 30.1547C101.314 30.1303 101.528 30.4294 101.758 31.0525C102.025 31.3018 102.626 31.4799 103.56 31.5866C104.494 31.4799 105.095 31.3021 105.361 31.0525C105.592 30.4294 105.805 30.1303 106.001 30.1547C106.161 30.4024 106.15 30.7409 105.966 31.17C105.756 31.7711 105.52 32.3345 105.257 32.8591C105.08 33.2116 104.666 33.1386 104.331 33.0071C104.084 32.9103 103.772 32.8601 103.559 32.8601C103.347 32.8601 103.035 32.9103 102.788 33.0071C102.453 33.1386 102.039 33.2116 101.862 32.8591H101.863ZM104.945 30.0137C105.01 29.7292 104.918 29.4319 104.704 29.2331C105.005 29.2627 105.23 29.5227 105.216 29.8244C105.202 30.1261 104.954 30.364 104.651 30.3656C104.733 30.3519 104.797 30.2913 104.845 30.1836C104.777 30.0515 104.625 30.0651 104.387 30.2246C104.168 30.3465 103.928 30.5063 103.578 30.5063V30.2128C103.906 30.2128 104.128 30.1356 104.376 29.9781C104.64 29.8359 104.829 29.8476 104.945 30.0134L104.945 30.0137ZM106.682 27.8834C106.727 27.3086 106.562 27.0816 106.189 27.2026C105.178 27.309 104.505 27.1838 104.17 26.8269C103.883 27.7107 104.071 28.2782 104.734 28.5287C105.218 28.336 105.657 28.2579 106.048 28.2941C106.462 28.3093 106.674 28.1724 106.682 27.8831V27.8834ZM102.175 30.0137C102.11 29.7292 102.202 29.4319 102.416 29.2331C102.115 29.2627 101.89 29.5227 101.905 29.8244C101.919 30.1261 102.167 30.364 102.469 30.3656C102.387 30.3519 102.323 30.2913 102.275 30.1836C102.343 30.0515 102.496 30.0651 102.733 30.2246C102.952 30.3465 103.193 30.5063 103.542 30.5063V30.2128C103.215 30.2128 102.992 30.1356 102.745 29.9781C102.48 29.8359 102.291 29.8476 102.176 30.0134L102.175 30.0137ZM100.438 27.8834C100.394 27.3086 100.558 27.0816 100.931 27.2026C101.942 27.309 102.615 27.1838 102.95 26.8269C103.237 27.7107 103.049 28.2782 102.386 28.5287C101.902 28.336 101.464 28.2579 101.072 28.2941C100.658 28.3093 100.447 28.1724 100.438 27.8831V27.8834Z" fill="white"/>
</g>
<defs>
<filter id="filter0_d_96_319632" x="0" y="0.962402" width="142" height="70" filterUnits="userSpaceOnUse" color-interpolation-filters="sRGB">
<feFlood flood-opacity="0" result="BackgroundImageFix"/>
<feColorMatrix in="SourceAlpha" type="matrix" values="0 0 0 0 0 0 0 0 0 0 0 0 0 0 0 0 0 0 127 0" result="hardAlpha"/>
<feOffset dx="-5" dy="9"/>
<feGaussianBlur stdDeviation="8.5"/>
<feComposite in2="hardAlpha" operator="out"/>
<feColorMatrix type="matrix" values="0 0 0 0 0 0 0 0 0 0 0 0 0 0 0 0 0 0 0.25 0"/>
<feBlend mode="normal" in2="BackgroundImageFix" result="effect1_dropShadow_96_319632"/>
<feBlend mode="normal" in="SourceGraphic" in2="effect1_dropShadow_96_319632" result="shape"/>
</filter>
<linearGradient id="paint0_linear_96_319632" x1="81.8457" y1="44.9624" x2="82.5859" y2="-6.548" gradientUnits="userSpaceOnUse">
<stop stop-color="#131313"/>
<stop offset="1" stop-color="#575757"/>
</linearGradient>
<linearGradient id="paint1_linear_96_319632" x1="76.5294" y1="9.5624" x2="75.8495" y2="44.9595" gradientUnits="userSpaceOnUse">
<stop stop-color="#797979"/>
<stop offset="1" stop-color="#797979" stop-opacity="0"/>
</linearGradient>
</defs>
</svg>
