<svg width="220" height="220" viewBox="0 0 220 220" fill="none" xmlns="http://www.w3.org/2000/svg">
<g filter="url(#filter0_d_2008_4497)">
<rect x="6" y="-0.000244141" width="212" height="212" fill="#FFD3A8"/>
</g>
<path d="M25.6856 46.888C25.3777 46.9287 25.0379 46.9737 24.6661 47.0228C24.2944 47.072 23.9066 47.1114 23.5027 47.1412C23.098 47.1652 22.6886 47.175 22.2743 47.1706C21.8658 47.1656 21.4712 47.132 21.0907 47.07C20.7101 47.0081 20.3515 46.9107 20.0148 46.7779C19.6831 46.6385 19.3925 46.4523 19.143 46.2194C18.8936 45.9864 18.6989 45.6989 18.5591 45.3568C18.4193 45.0148 18.3532 44.6039 18.3607 44.1242C18.3683 43.5558 18.4902 43.0254 18.7266 42.5332C18.9629 42.0409 19.2749 41.6066 19.6625 41.2303C20.0551 40.8474 20.5064 40.5277 21.0162 40.2711C21.526 40.0146 22.055 39.8353 22.603 39.7333C23.1502 39.6255 23.7002 39.6059 24.2531 39.6747C24.8051 39.7376 25.3198 39.8971 25.7969 40.1532C25.899 40.2106 25.9596 40.2883 25.9784 40.3863C26.0031 40.4835 25.9976 40.5759 25.9619 40.6633C25.9312 40.7442 25.8742 40.805 25.7909 40.8455C25.7076 40.8861 25.6149 40.8777 25.5127 40.8202C25.1246 40.6115 24.6851 40.4834 24.1942 40.4361C23.7025 40.3829 23.2055 40.4013 22.7032 40.4914C22.2009 40.5814 21.7165 40.74 21.2501 40.9672C20.7829 41.1885 20.3764 41.4669 20.0307 41.8022C19.6849 42.1375 19.4231 42.5268 19.2453 42.9699C19.0667 43.4073 19.0178 43.8866 19.0986 44.4078C19.1747 44.8942 19.3384 45.2833 19.5898 45.5752C19.8462 45.8604 20.1584 46.0762 20.5265 46.2226C20.8938 46.3632 21.3014 46.4511 21.7494 46.4865C22.1966 46.516 22.6486 46.5153 23.1055 46.4845C23.5617 46.4478 24.0043 46.3981 24.4334 46.3355C24.8675 46.2663 25.2531 46.2094 25.59 46.1648C25.7061 46.1495 25.7983 46.1757 25.8663 46.2435C25.9344 46.3114 25.9746 46.3918 25.9869 46.4847C25.9984 46.5718 25.9801 46.657 25.932 46.7402C25.8839 46.8234 25.8018 46.8727 25.6856 46.888ZM35.7804 38.9129C35.972 39.3782 36.1552 39.8475 36.3301 40.3208C36.5049 40.7942 36.6769 41.2679 36.846 41.742C37.0209 42.2154 37.1987 42.6883 37.3794 43.1609C37.5651 43.6269 37.7592 44.0888 37.9616 44.5467C38.011 44.6525 38.0117 44.747 37.9636 44.8302C37.9213 44.9126 37.8581 44.9712 37.774 45.0059C37.69 45.0407 37.5992 45.0468 37.5016 45.0242C37.4099 45.0009 37.3393 44.9364 37.2898 44.8306C37.1052 44.4176 36.9293 44.0035 36.7621 43.5883C36.5999 43.1664 36.4407 42.7442 36.2843 42.3216C36.128 41.899 35.9716 41.4764 35.8153 41.0538C35.6647 40.6304 35.5084 40.2078 35.3462 39.786C34.6254 40.7265 33.9071 41.6637 33.1913 42.5976C32.4813 43.5308 31.7659 44.4676 31.0451 45.4081C30.9594 45.5199 30.8474 45.5672 30.7092 45.55C30.576 45.5262 30.4807 45.4531 30.4231 45.3307C30.2149 44.8736 30.0208 44.4117 29.8409 43.9449C29.6602 43.4723 29.4824 42.9993 29.3076 42.526C29.1385 42.0519 28.9665 41.5782 28.7916 41.1048C28.6167 40.6315 28.4335 40.1622 28.242 39.6969C28.1983 39.5904 28.1977 39.4959 28.24 39.4135C28.2873 39.3245 28.353 39.2626 28.437 39.2279C28.5211 39.1931 28.6094 39.1903 28.7019 39.2194C28.7994 39.242 28.87 39.3065 28.9137 39.4131C29.0875 39.8334 29.2525 40.2548 29.4089 40.6774C29.5652 41.1 29.7187 41.523 29.8692 41.9464C30.0256 42.369 30.1819 42.7916 30.3383 43.2142C30.5005 43.636 30.671 44.0538 30.8498 44.4675C31.5706 43.5271 32.2889 42.5898 33.0047 41.6559C33.7197 40.7162 34.4376 39.7761 35.1585 38.8356C35.1988 38.783 35.2501 38.7466 35.3125 38.7266C35.3741 38.7007 35.4351 38.6926 35.4955 38.7024C35.5551 38.7063 35.6112 38.7284 35.6638 38.7688C35.7157 38.8033 35.7545 38.8513 35.7804 38.9129ZM41.6917 44.355C41.3589 44.1625 41.0711 43.908 40.8283 43.5914C40.5847 43.269 40.3849 42.9201 40.2289 42.5448C40.0779 42.1628 39.9697 41.7693 39.9043 41.3642C39.8382 40.9533 39.819 40.5628 39.8469 40.1927C39.8874 39.6495 40.0308 39.1695 40.2771 38.7528C40.5285 38.3295 40.8443 37.9685 41.2244 37.67C41.6104 37.3708 42.0459 37.1329 42.5308 36.9565C43.0216 36.7793 43.5237 36.6656 44.0372 36.6155C44.5499 36.5595 45.0591 36.5661 45.5647 36.6351C46.0703 36.7042 46.5367 36.8346 46.964 37.0264C47.0712 37.0772 47.1367 37.1483 47.1607 37.2397C47.1846 37.3312 47.1787 37.4206 47.1429 37.5081C47.1123 37.5889 47.0557 37.6526 46.9731 37.699C46.8906 37.7453 46.7957 37.7431 46.6886 37.6923C46.3116 37.5234 45.8889 37.4109 45.4205 37.3546C44.9578 37.2976 44.4883 37.3005 44.012 37.3635C43.5407 37.4199 43.0829 37.5336 42.6386 37.7047C42.2001 37.875 41.8166 38.103 41.4879 38.3888C41.1651 38.6738 40.9182 39.0197 40.7474 39.4264C40.5758 39.8274 40.5246 40.2893 40.5937 40.812C40.6467 41.2129 40.7309 41.6036 40.8463 41.9844C40.9609 42.3593 41.1235 42.6954 41.3342 42.9926C41.5441 43.284 41.8089 43.5209 42.1285 43.7032C42.4474 43.8797 42.8372 43.9671 43.298 43.9652C43.6236 43.9695 43.9466 43.9534 44.2668 43.9169C44.5921 43.8739 44.9133 43.8226 45.2305 43.7629C45.5477 43.7032 45.8637 43.6349 46.1786 43.5578C46.4935 43.4807 46.8084 43.4036 47.1232 43.3265C47.2379 43.2995 47.3289 43.317 47.3962 43.379C47.4627 43.4353 47.5021 43.5098 47.5144 43.6028C47.5267 43.6957 47.5092 43.7867 47.4618 43.8757C47.4145 43.9647 47.3335 44.0227 47.2189 44.0497C46.9555 44.114 46.6697 44.1873 46.3614 44.2694C46.0589 44.3508 45.7469 44.4275 45.4254 44.4996C45.104 44.5716 44.7781 44.6325 44.4478 44.682C44.1174 44.7316 43.7898 44.7572 43.465 44.7588C43.1459 44.7596 42.8346 44.7298 42.5311 44.6695C42.2335 44.6084 41.9536 44.5035 41.6917 44.355ZM57.7517 35.4315C57.8679 35.4162 57.96 35.4424 58.0281 35.5102C58.0962 35.5781 58.1364 35.6585 58.1486 35.7514C58.1602 35.8385 58.1419 35.9237 58.0938 36.0069C58.0457 36.0901 57.9635 36.1394 57.8474 36.1547L53.7957 36.6905C54.2208 37.8045 54.6347 38.923 55.0373 40.0459C55.4449 41.1623 55.8921 42.2645 56.3788 43.3527C56.429 43.4643 56.4301 43.5617 56.382 43.6448C56.3339 43.728 56.2678 43.787 56.1837 43.8218C56.0997 43.8565 56.0118 43.8622 55.92 43.8389C55.8283 43.8156 55.7577 43.751 55.7082 43.6453C55.4572 43.0874 55.2173 42.5252 54.9887 41.9584C54.7652 41.3851 54.5474 40.8111 54.3355 40.2362C54.1235 39.6614 53.9116 39.0866 53.6996 38.5117C53.4877 37.9369 53.2728 37.3625 53.0551 36.7884L48.0973 37.4439C47.9811 37.4593 47.889 37.4331 47.8209 37.3652C47.7528 37.2974 47.713 37.2199 47.7015 37.1328C47.6892 37.0398 47.7071 36.9518 47.7552 36.8686C47.8033 36.7854 47.8855 36.7361 48.0016 36.7207L52.7852 36.0882C52.7311 35.9476 52.6775 35.8099 52.6242 35.6751C52.5701 35.5345 52.5132 35.3943 52.4533 35.2544C52.4097 35.1479 52.409 35.0534 52.4513 34.971C52.4986 34.882 52.5643 34.8201 52.6484 34.7854C52.7324 34.7506 52.8203 34.7449 52.9121 34.7682C53.0096 34.7908 53.0802 34.8553 53.1239 34.9619C53.1941 35.1358 53.2615 35.3101 53.326 35.4848C53.3955 35.6529 53.465 35.821 53.5345 35.9891L57.7517 35.4315ZM69.064 39.0778C69.1551 39.0067 69.2465 38.9827 69.3382 39.0061C69.4358 39.0286 69.5103 39.0779 69.5617 39.1538C69.6181 39.2232 69.6467 39.3051 69.6474 39.3996C69.648 39.4941 69.6029 39.5769 69.5118 39.648C69.1576 39.9195 68.8096 40.1487 68.4679 40.3357C68.1254 40.517 67.777 40.6753 67.4225 40.8109C67.0673 40.9406 66.6982 41.0544 66.3152 41.1523C65.9372 41.2437 65.5319 41.3298 65.0993 41.4106C64.817 41.4657 64.523 41.5223 64.2174 41.5804C63.9177 41.6378 63.6174 41.6686 63.3165 41.6729C63.0215 41.6765 62.7334 41.6436 62.4524 41.5744C62.1764 41.4986 61.9181 41.3554 61.6775 41.1449C61.4837 40.9755 61.3345 40.7854 61.2298 40.5747C61.1243 40.3581 61.0558 40.1308 61.0243 39.8926C60.9921 39.6486 60.9914 39.3975 61.0222 39.1393C61.0581 38.8745 61.1177 38.6095 61.2008 38.3444C61.0897 38.3532 61.003 38.3233 60.9407 38.2547C60.8777 38.1803 60.8404 38.0995 60.8289 38.0124C60.8232 37.9245 60.8419 37.8422 60.8849 37.7656C60.9338 37.6882 61.0163 37.6418 61.1325 37.6265C61.1964 37.618 61.2574 37.6099 61.3155 37.6023C61.3736 37.5946 61.4349 37.5894 61.4996 37.5868C61.6385 37.2965 61.796 37.0127 61.9721 36.7353C62.1482 36.4578 62.3332 36.2029 62.527 35.9704C62.7209 35.7379 62.9178 35.5286 63.1178 35.3426C63.3178 35.1566 63.5108 35.0069 63.6968 34.8937C63.9653 34.7341 64.2547 34.5983 64.5649 34.4863C64.8752 34.3744 65.193 34.2969 65.5183 34.2539C65.8494 34.2101 66.1768 34.2052 66.5004 34.2393C66.8299 34.2725 67.1419 34.3525 67.4364 34.479C67.6493 34.5691 67.8003 34.7057 67.8896 34.889C67.9788 35.0722 68.0224 35.2674 68.0202 35.4745C68.018 35.6817 67.9777 35.8909 67.8993 36.1023C67.8201 36.3078 67.7188 36.4807 67.5955 36.6212C67.2676 37.0014 66.8837 37.2945 66.444 37.5004C66.0101 37.7055 65.549 37.8611 65.0606 37.967C64.5715 38.0672 64.0694 38.1365 63.5544 38.175C63.0386 38.2078 62.5377 38.2415 62.0518 38.2762C62.0432 38.301 62.0347 38.3257 62.0261 38.3505C62.0226 38.3687 62.017 38.3931 62.0092 38.4237C61.9148 38.7376 61.8618 39.0519 61.8502 39.3667C61.8386 39.6815 61.8846 39.9621 61.9881 40.2084C62.0908 40.449 62.2608 40.6393 62.498 40.7793C62.7344 40.9136 63.0596 40.9592 63.4736 40.9163C63.9813 40.8669 64.4812 40.8038 64.9734 40.7269C65.4649 40.6442 65.9437 40.5336 66.4101 40.3951C66.8757 40.2508 67.3312 40.0753 67.7767 39.8686C68.2214 39.6561 68.6505 39.3925 69.064 39.0778ZM63.6243 35.8874C63.3847 36.1318 63.1587 36.3892 62.9462 36.6597C62.7337 36.9301 62.5443 37.2181 62.3778 37.5238C62.6473 37.5059 62.9198 37.4877 63.1951 37.469C63.4704 37.4503 63.742 37.4262 64.01 37.3967C64.283 37.3606 64.552 37.3162 64.8169 37.2634C65.081 37.2048 65.3399 37.1292 65.5937 37.0366C65.8024 36.9617 66.0105 36.881 66.2177 36.7945C66.43 36.7014 66.6177 36.5791 66.7809 36.4274C66.8914 36.3242 66.9806 36.1942 67.0485 36.0374C67.1222 35.8799 67.1582 35.7274 67.1564 35.5799C67.1605 35.4316 67.1167 35.3015 67.025 35.1895C66.9334 35.0775 66.777 35.0124 66.5559 34.9944C66.2876 34.9767 66.0216 34.9764 65.7579 34.9935C65.4942 35.0106 65.2369 35.0535 64.9859 35.1222C64.74 35.1843 64.5012 35.2779 64.2695 35.4031C64.0378 35.5283 63.8227 35.6897 63.6243 35.8874ZM77.954 31.8471C78.241 32.5421 78.5138 33.2419 78.7724 33.9465C79.0369 34.6503 79.2985 35.3545 79.5571 36.0591C79.8158 36.7637 80.0798 37.4646 80.3493 38.1619C80.6189 38.8591 80.9054 39.5512 81.209 40.238C81.2584 40.3437 81.2591 40.4382 81.211 40.5214C81.1629 40.6046 81.0968 40.6636 81.0128 40.6983C80.9287 40.7331 80.8408 40.7388 80.7491 40.7155C80.6573 40.6922 80.5867 40.6276 80.5373 40.5218C80.27 39.9307 80.0168 39.3347 79.7778 38.7339C79.5438 38.1265 79.3127 37.5188 79.0846 36.9106C78.8614 36.2959 78.6387 35.6841 78.4163 35.0751C78.194 34.4662 77.9658 33.8581 77.7318 33.2507C77.6264 33.6606 77.5029 34.067 77.3611 34.47C77.2251 34.8721 77.0834 35.275 76.9358 35.6787C76.7875 36.0766 76.6391 36.4745 76.4908 36.8724C76.3424 37.2702 76.2086 37.6662 76.0893 38.0602C76.0672 38.1163 76.0348 38.162 75.9922 38.1972C75.9495 38.2324 75.8996 38.2567 75.8422 38.2702C75.7907 38.2829 75.7348 38.2844 75.6744 38.2747C75.6198 38.2642 75.5728 38.2438 75.5333 38.2135C75.2002 37.9739 74.8847 37.7112 74.5869 37.4255C74.2941 37.1333 74.0085 36.8282 73.73 36.5104C73.4574 36.1918 73.1924 35.8634 72.9348 35.5251C72.6773 35.1868 72.4198 34.8485 72.1623 34.5102C72.5565 35.5692 72.9441 36.6232 73.3251 37.6721C73.7112 38.7145 74.1321 39.7523 74.5879 40.7854C74.6373 40.8912 74.638 40.9857 74.5899 41.0689C74.5476 41.1513 74.4844 41.2099 74.4004 41.2446C74.3163 41.2794 74.2255 41.2855 74.1279 41.2629C74.0362 41.2396 73.9656 41.1751 73.9162 41.0693C73.6126 40.3825 73.326 39.6904 73.0565 38.9932C72.7862 38.2901 72.5218 37.5863 72.2631 36.8817C72.0045 36.1771 71.7462 35.4754 71.4883 34.7766C71.2297 34.072 70.9569 33.3722 70.6699 32.6773C70.6271 32.5766 70.6268 32.485 70.6691 32.4026C70.7114 32.3201 70.7684 32.2594 70.84 32.2204C70.9175 32.1806 71.0017 32.1695 71.0927 32.187C71.1829 32.1987 71.2545 32.2483 71.3074 32.3359C71.3148 32.3467 71.3217 32.3547 71.3283 32.3597C71.3341 32.359 71.3436 32.3636 71.3568 32.3737C71.7149 32.7578 72.0587 33.1675 72.3881 33.6026C72.7175 34.0378 73.0502 34.4755 73.3862 34.9157C73.7214 35.3502 74.0642 35.7747 74.4146 36.1894C74.7707 36.6033 75.1542 36.9781 75.5651 37.3139C75.7096 36.887 75.8653 36.4556 76.0323 36.0198C76.1993 35.584 76.36 35.1461 76.5146 34.706C76.675 34.2652 76.8176 33.8237 76.9424 33.3817C77.0729 32.9389 77.1683 32.4977 77.2284 32.0583C77.2296 32.0227 77.2395 31.9859 77.2581 31.948C77.2714 31.8694 77.3069 31.8027 77.3646 31.7478C77.4224 31.6928 77.4886 31.6575 77.5634 31.6417C77.6381 31.6259 77.7102 31.6341 77.7794 31.6663C77.8545 31.6978 77.9127 31.758 77.954 31.8471ZM84.0309 31.9036C84.4544 32.2909 84.8592 32.6924 85.2452 33.1083C85.637 33.5234 86.0208 33.9455 86.3967 34.3746C86.7784 34.8028 87.1547 35.2348 87.5255 35.6704C87.9014 36.0994 88.2852 36.5215 88.677 36.9366C88.7598 37.0262 88.7895 37.1168 88.7662 37.2085C88.7479 37.2937 88.7011 37.3649 88.6259 37.4221C88.5558 37.4728 88.471 37.5017 88.3715 37.509C88.2712 37.5104 88.1829 37.4689 88.1068 37.3844C87.8878 37.1592 87.6747 36.9332 87.4675 36.7065C87.2594 36.4739 87.0539 36.2381 86.8508 35.999L83.4353 36.4506C83.3256 36.8729 83.2131 37.2956 83.0976 37.7187C82.9872 38.1352 82.8651 38.5532 82.7315 38.9728C82.693 39.0843 82.6314 39.1545 82.5466 39.1834C82.461 39.2066 82.3744 39.2003 82.287 39.1646C82.2053 39.1281 82.1384 39.069 82.0862 38.9872C82.0333 38.8996 82.0231 38.8005 82.0557 38.6898C82.1688 38.338 82.2728 37.9844 82.3676 37.629C82.4683 37.2729 82.5657 36.9143 82.6598 36.5531L82.2154 36.6119C82.0992 36.6272 82.0042 36.6014 81.9303 36.5343C81.8622 36.4665 81.8224 36.389 81.8109 36.3019C81.7986 36.2089 81.8165 36.1209 81.8646 36.0377C81.9186 35.9537 82.0036 35.904 82.1198 35.8887L82.8517 35.7919C82.9866 35.248 83.1191 34.7075 83.249 34.1702C83.3781 33.6271 83.5098 33.0807 83.644 32.531C83.6308 32.5209 83.6209 32.5134 83.6144 32.5083C83.6136 32.5025 83.6066 32.4946 83.5935 32.4845C83.5065 32.4073 83.4651 32.3182 83.4695 32.2172C83.4739 32.1161 83.5009 32.0298 83.5505 31.9582C83.606 31.8859 83.6769 31.8411 83.7632 31.8237C83.8546 31.7998 83.9438 31.8264 84.0309 31.9036ZM86.276 35.3391C85.9419 34.9578 85.6085 34.5822 85.2759 34.2125C84.9491 33.8419 84.6053 33.4766 84.2445 33.1165C84.1414 33.5439 84.0383 33.9712 83.9352 34.3986C83.8322 34.826 83.7295 35.2562 83.6272 35.6894L86.276 35.3391ZM25.9883 61.7155C26.2418 61.8002 26.5062 61.8776 26.7814 61.9476C27.0617 62.011 27.3398 62.0806 27.6158 62.1564C27.8918 62.2322 28.1606 62.3208 28.4222 62.4221C28.6831 62.5177 28.9242 62.6424 29.1455 62.7964C29.2105 62.841 29.2538 62.9003 29.2754 62.9742C29.2962 63.0424 29.2963 63.1104 29.2758 63.1781C29.2544 63.24 29.2177 63.2981 29.1658 63.3522C29.1138 63.4064 29.0501 63.4384 28.9746 63.4484C28.5753 63.513 28.1809 63.5918 27.7913 63.6847C27.4074 63.7768 27.0321 63.8885 26.6653 64.0197C26.2985 64.151 25.9406 64.3047 25.5915 64.4809C25.2424 64.6571 24.9034 64.8644 24.5744 65.103C24.6165 65.1979 24.6561 65.2961 24.6932 65.3976C24.7353 65.4925 24.7774 65.5874 24.8195 65.6823C24.8697 65.7939 24.8707 65.8912 24.8226 65.9744C24.7745 66.0576 24.7084 66.1166 24.6244 66.1514C24.5403 66.1861 24.4524 66.1918 24.3607 66.1685C24.2689 66.1452 24.198 66.0777 24.1478 65.9661C23.8287 65.2518 23.5296 64.5319 23.2505 63.8063C22.9705 63.075 22.696 62.34 22.427 61.6013C22.3971 61.5993 22.3673 61.5974 22.3375 61.5954C22.3135 61.5927 22.2866 61.5903 22.2568 61.5884L22.2556 61.5796C22.1604 61.5745 22.0853 61.5431 22.0304 61.4853C21.9747 61.4217 21.9419 61.3522 21.9319 61.2767C21.9211 61.1954 21.9344 61.1168 21.9716 61.0409C22.0081 60.9593 22.0717 60.9036 22.1623 60.8739C22.0083 60.4687 21.8542 60.0635 21.7002 59.6583C21.5512 59.2466 21.3967 58.8385 21.2369 58.4341C21.125 58.4371 21.0131 58.44 20.9012 58.443C20.7885 58.4402 20.6791 58.4399 20.573 58.4421C20.4553 58.4458 20.362 58.4109 20.2932 58.3372C20.2243 58.2636 20.1838 58.1803 20.1715 58.0874C20.1592 57.9944 20.1779 57.9122 20.2275 57.8406C20.2764 57.7632 20.3597 57.7226 20.4774 57.7189C20.5602 57.7197 20.6373 57.7214 20.7085 57.7238C20.7848 57.7196 20.8644 57.7179 20.9473 57.7188C20.928 57.6623 20.9102 57.6173 20.894 57.584C20.8503 57.4775 20.8526 57.3826 20.9007 57.2994C20.948 57.2104 21.0137 57.1485 21.0978 57.1138C21.1818 57.079 21.2697 57.0733 21.3615 57.0966C21.4532 57.12 21.5209 57.1849 21.5645 57.2914C21.5977 57.3639 21.6277 57.4338 21.6543 57.5012C21.681 57.5686 21.708 57.6389 21.7354 57.7121C22.1133 57.7094 22.4895 57.7158 22.8639 57.7314C23.2383 57.7469 23.615 57.7798 23.994 57.8302C24.1918 57.8513 24.4261 57.8794 24.6967 57.9146C24.9731 57.9489 25.2439 58.0077 25.509 58.0908C25.7734 58.1682 26.0151 58.2751 26.2341 58.4117C26.4523 58.5424 26.6087 58.7197 26.7034 58.9436C26.8231 59.2233 26.8275 59.4798 26.7165 59.7132C26.6047 59.9407 26.4223 60.1481 26.1693 60.3352C25.9154 60.5165 25.6146 60.6774 25.2668 60.818C24.9189 60.9586 24.5654 61.0792 24.2064 61.1799C24.5064 61.2584 24.8043 61.3431 25.1 61.4341C25.3957 61.525 25.6918 61.6188 25.9883 61.7155ZM25.5169 58.8877C24.9645 58.6889 24.3924 58.5636 23.8004 58.5118C23.2135 58.4535 22.6184 58.4228 22.0152 58.4198C22.1669 58.8076 22.3125 59.1932 22.4518 59.5767C22.597 59.9594 22.7396 60.3454 22.8798 60.7347C23.4146 60.6226 23.9466 60.4665 24.4757 60.2666C24.5664 60.2368 24.6849 60.1946 24.8313 60.1397C24.9828 60.0783 25.1335 60.0111 25.2834 59.9381C25.4384 59.8585 25.578 59.775 25.7024 59.6877C25.8326 59.5995 25.9214 59.511 25.9687 59.422C26.0161 59.333 26.0071 59.2425 25.9417 59.1507C25.8822 59.0581 25.7406 58.9704 25.5169 58.8877ZM23.2411 61.7242C23.4071 62.1751 23.576 62.6255 23.7478 63.0757C23.9189 63.52 24.0961 63.9664 24.2795 64.415C24.8154 64.0427 25.3726 63.7415 25.9509 63.5113C26.535 63.2804 27.1395 63.0912 27.7642 62.9435C27.4131 62.8363 27.0549 62.7418 26.6894 62.6601C26.324 62.5784 25.996 62.4888 25.7053 62.3913C25.2973 62.2561 24.8876 62.13 24.4761 62.013C24.0705 61.8952 23.6588 61.799 23.2411 61.7242ZM35.7975 60.0284C35.8099 60.346 35.7685 60.6588 35.6733 60.9669C35.5781 61.275 35.4377 61.5536 35.2519 61.8028C35.0662 62.0519 34.8365 62.2596 34.563 62.4258C34.2953 62.5912 33.9918 62.6875 33.6526 62.7146C33.325 62.7402 33.0017 62.7091 32.6827 62.6212C32.3638 62.5334 32.071 62.3977 31.8044 62.2143C31.5429 62.0243 31.3261 61.7929 31.1541 61.5201C30.9813 61.2415 30.8806 60.9268 30.852 60.576C30.8272 60.2542 30.8587 59.9338 30.9465 59.6149C31.0336 59.2901 31.1693 58.9973 31.3535 58.7366C31.5435 58.475 31.7778 58.2579 32.0564 58.0851C32.3349 57.9123 32.6496 57.8116 33.0005 57.7829C33.3397 57.7558 33.6597 57.7844 33.9604 57.8688C34.267 57.9524 34.5416 58.0845 34.7842 58.2652C35.026 58.4401 35.2325 58.661 35.4037 58.928C35.5742 59.1891 35.6962 59.4863 35.7698 59.8193C35.7714 59.8309 35.7733 59.8455 35.7756 59.8629C35.7837 59.8796 35.7893 59.8995 35.7924 59.9227C35.7947 59.9402 35.7941 59.958 35.7906 59.9762C35.7929 59.9936 35.7952 60.011 35.7975 60.0284ZM31.5752 60.4804C31.6418 60.8498 31.7791 61.1508 31.9871 61.3834C32.2002 61.6093 32.4401 61.7697 32.7068 61.8645C32.9727 61.9534 33.2509 61.9787 33.5413 61.9403C33.8376 61.9011 34.1021 61.8011 34.335 61.6403C34.5679 61.4795 34.7553 61.2656 34.8973 60.9986C35.0386 60.7257 35.0959 60.399 35.0692 60.0184C35.0149 59.7418 34.9187 59.5063 34.7807 59.3118C34.6419 59.1115 34.4762 58.9531 34.2835 58.8367C34.0966 58.7196 33.8911 58.6404 33.6669 58.5991C33.4486 58.5571 33.2291 58.5506 33.0083 58.5798C32.7876 58.609 32.5802 58.6719 32.3861 58.7685C32.192 58.8651 32.0257 58.9934 31.8873 59.1536C31.7489 59.3137 31.6475 59.5074 31.583 59.7346C31.5235 59.9553 31.5209 60.2038 31.5752 60.4804ZM42.1052 59.7529C42.3588 59.8376 42.6231 59.915 42.8984 59.985C43.1786 60.0484 43.4568 60.118 43.7327 60.1938C44.0087 60.2696 44.2775 60.3582 44.5392 60.4595C44.8001 60.5551 45.0411 60.6798 45.2624 60.8338C45.3275 60.8784 45.3704 60.9347 45.3912 61.0029C45.412 61.0711 45.4122 61.139 45.3916 61.2068C45.371 61.2745 45.3347 61.3355 45.2828 61.3896C45.23 61.4379 45.1663 61.47 45.0916 61.4858C44.6632 61.5543 44.246 61.639 43.8397 61.74C43.4326 61.8352 43.0348 61.9558 42.6463 62.1017C42.2636 62.2469 41.8873 62.4178 41.5173 62.6145C41.1531 62.8104 40.7997 63.0433 40.4571 63.3132C40.3603 63.3851 40.2659 63.4094 40.1742 63.386C40.0825 63.3627 40.0084 63.3164 39.9519 63.247C39.8947 63.1718 39.8657 63.087 39.8651 62.9925C39.8694 62.8915 39.9172 62.8054 40.0082 62.7342C40.5922 62.2787 41.2059 61.9139 41.8494 61.6397C42.4986 61.3647 43.1759 61.1451 43.8812 60.9809C43.5293 60.8679 43.1711 60.7734 42.8064 60.6975C42.441 60.6158 42.1129 60.5262 41.8222 60.4287C41.2533 60.2379 40.6845 60.0708 40.1158 59.9273C39.5522 59.7773 38.9715 59.6767 38.3738 59.6257C38.2727 59.6214 38.194 59.5845 38.1375 59.5151C38.081 59.4458 38.05 59.3671 38.0442 59.2792C38.0385 59.1913 38.0601 59.1087 38.109 59.0313C38.1579 58.9539 38.2375 58.9079 38.3478 58.8933C38.7305 58.8368 39.11 58.7571 39.4865 58.6541C39.8629 58.5511 40.2317 58.4344 40.5927 58.3039C40.6833 58.2742 40.8019 58.232 40.9483 58.1771C41.0997 58.1157 41.2504 58.0485 41.4004 57.9755C41.5553 57.8959 41.695 57.8124 41.8194 57.7251C41.9496 57.6369 42.0383 57.5483 42.0857 57.4593C42.133 57.3703 42.124 57.2799 42.0587 57.1881C41.9991 57.0955 41.8575 57.0078 41.6338 56.9251C41.2491 56.7868 40.8486 56.6861 40.4325 56.6229C40.0213 56.5532 39.6046 56.5078 39.1822 56.4868C38.7648 56.4593 38.3439 56.4499 37.9195 56.4587C37.501 56.4668 37.0911 56.4737 36.69 56.4795C36.5723 56.4832 36.479 56.4483 36.4101 56.3746C36.3413 56.301 36.3007 56.2177 36.2884 56.1247C36.2762 56.0318 36.2948 55.9495 36.3445 55.878C36.3933 55.8006 36.4766 55.76 36.5943 55.7563C37.1844 55.7492 37.7724 55.7483 38.3582 55.7535C38.9433 55.753 39.5275 55.791 40.111 55.8675C40.3088 55.8887 40.543 55.9168 40.8136 55.952C41.0901 55.9863 41.3608 56.0451 41.626 56.1282C41.8903 56.2056 42.132 56.3125 42.351 56.449C42.5693 56.5798 42.7257 56.7571 42.8203 56.981C42.9401 57.2607 42.9444 57.5172 42.8334 57.7506C42.7217 57.9781 42.5393 58.1854 42.2862 58.3726C42.0324 58.5539 41.7316 58.7148 41.3837 58.8554C41.0359 58.996 40.6824 59.1166 40.3234 59.2172C40.6234 59.2958 40.9212 59.3805 41.2169 59.4714C41.5127 59.5624 41.8088 59.6562 42.1052 59.7529ZM51.7105 53.3054C51.9975 54.0003 52.2703 54.7001 52.5289 55.4047C52.7934 56.1085 53.0549 56.8128 53.3136 57.5173C53.5723 58.2219 53.8363 58.9229 54.1058 59.6201C54.3753 60.3174 54.6619 61.0094 54.9655 61.6962C55.0157 61.8078 55.0168 61.9052 54.9686 61.9884C54.9205 62.0716 54.8545 62.1306 54.7704 62.1653C54.6863 62.2001 54.5984 62.2058 54.5067 62.1825C54.415 62.1591 54.3444 62.0946 54.2949 61.9888C53.9743 61.2629 53.6712 60.5346 53.3855 59.804C53.1055 59.0727 52.831 58.3377 52.562 57.599L48.6497 58.1163C48.915 58.8259 49.1794 59.5298 49.4431 60.2278C49.7126 60.925 50.0025 61.6196 50.3126 62.3115C50.3628 62.423 50.3639 62.5204 50.3158 62.6036C50.2735 62.686 50.2103 62.7446 50.1263 62.7794C50.0422 62.8141 49.9514 62.8202 49.8538 62.7977C49.7621 62.7743 49.6915 62.7098 49.6421 62.604C49.3385 61.9172 49.0519 61.2252 48.7824 60.5279C48.5121 59.8249 48.2477 59.121 47.989 58.4164C47.7304 57.7118 47.4721 57.0101 47.2142 56.3114C46.9556 55.6068 46.6828 54.907 46.3958 54.212C46.3522 54.1055 46.3515 54.011 46.3938 53.9286C46.4412 53.8396 46.5069 53.7777 46.5909 53.743C46.675 53.7082 46.7629 53.7025 46.8546 53.7258C46.9522 53.7484 47.0228 53.8129 47.0664 53.9195C47.3023 54.497 47.53 55.0787 47.7493 55.6643C47.9678 56.2442 48.1838 56.8274 48.3973 57.4138L52.3095 56.8965C52.1057 56.3384 51.8997 55.7864 51.6916 55.2406C51.4885 54.6882 51.2742 54.1403 51.0487 53.5968C51.0051 53.4903 51.0044 53.3958 51.0467 53.3134C51.094 53.2244 51.1597 53.1625 51.2438 53.1277C51.3278 53.093 51.4157 53.0873 51.5075 53.1106C51.5992 53.1339 51.6669 53.1989 51.7105 53.3054ZM57.818 53.5262C58.2415 53.9135 58.6463 54.3151 59.0323 54.731C59.4241 55.1461 59.8079 55.5682 60.1838 55.9972C60.5655 56.4255 60.9417 56.8574 61.3126 57.293C61.6885 57.7221 62.0723 58.1442 62.4641 58.5593C62.5469 58.6488 62.5766 58.7394 62.5532 58.8312C62.535 58.9164 62.4882 58.9875 62.413 59.0448C62.3429 59.0954 62.2581 59.1244 62.1586 59.1316C62.0583 59.1331 61.97 59.0915 61.8938 59.007C61.6749 58.7818 61.4618 58.5559 61.2545 58.3291C61.0465 58.0966 60.8409 57.8607 60.6379 57.6216L57.2223 58.0732C57.1127 58.4956 57.0001 58.9183 56.8847 59.3413C56.7743 59.7578 56.6522 60.1759 56.5186 60.5955C56.4801 60.7069 56.4185 60.7771 56.3337 60.8061C56.2481 60.8292 56.1615 60.8229 56.0741 60.7872C55.9924 60.7507 55.9255 60.6916 55.8733 60.6099C55.8203 60.5223 55.8102 60.4232 55.8428 60.3125C55.9559 59.9606 56.0599 59.607 56.1547 59.2517C56.2554 58.8956 56.3528 58.5369 56.4469 58.1758L56.0025 58.2345C55.8863 58.2499 55.7913 58.2241 55.7174 58.157C55.6493 58.0892 55.6095 58.0117 55.598 57.9245C55.5857 57.8316 55.6036 57.7435 55.6517 57.6603C55.7057 57.5764 55.7907 57.5267 55.9069 57.5113L56.6388 57.4146C56.7737 56.8707 56.9062 56.3301 57.0361 55.7928C57.1652 55.2497 57.2969 54.7033 57.4311 54.1537C57.4179 54.1436 57.408 54.136 57.4015 54.131C57.4007 54.1252 57.3937 54.1172 57.3806 54.1072C57.2935 54.03 57.2522 53.9409 57.2566 53.8398C57.2609 53.7388 57.288 53.6525 57.3376 53.5809C57.393 53.5086 57.4639 53.4637 57.5503 53.4464C57.6417 53.4225 57.7309 53.4491 57.818 53.5262ZM60.0631 56.9618C59.729 56.5804 59.3956 56.2049 59.063 55.8351C58.7362 55.4646 58.3924 55.0993 58.0315 54.7392C57.9285 55.1665 57.8254 55.5939 57.7223 56.0213C57.6193 56.4486 57.5166 56.8789 57.4143 57.312L60.0631 56.9618ZM67.7373 50.9292C67.8535 50.9138 67.9456 50.94 68.0137 51.0079C68.0818 51.0757 68.122 51.1561 68.1343 51.249C68.1458 51.3362 68.1275 51.4213 68.0794 51.5045C68.0313 51.5877 67.9491 51.637 67.833 51.6524L63.5374 52.2203C63.8015 52.8769 64.0548 53.5409 64.2972 54.2121C64.5447 54.8768 64.7892 55.5419 65.0309 56.2074C65.2784 56.8721 65.5287 57.5364 65.782 58.2004C66.0411 58.8635 66.3168 59.5186 66.6092 60.1655C66.6587 60.2713 66.6594 60.3658 66.6113 60.449C66.5632 60.5321 66.4971 60.5911 66.413 60.6259C66.329 60.6606 66.2411 60.6663 66.1493 60.643C66.0576 60.6197 65.987 60.5551 65.9375 60.4494C65.6339 59.7625 65.3474 59.0705 65.0779 58.3733C64.8076 57.6702 64.5432 56.9664 64.2845 56.2618C64.0258 55.5572 63.7647 54.8559 63.501 54.1578C63.2423 53.4532 62.9695 52.7535 62.6826 52.0585C62.6382 51.9462 62.6447 51.8389 62.7021 51.7368C62.7653 51.6339 62.855 51.5747 62.9712 51.5594L67.7373 50.9292ZM74.3181 51.1761C74.5159 51.1972 74.7502 51.2253 75.0208 51.2605C75.2972 51.2949 75.568 51.3536 75.8331 51.4368C76.0975 51.5141 76.3392 51.621 76.5582 51.7576C76.7764 51.8883 76.9329 52.0656 77.0275 52.2895C77.1244 52.5309 77.1391 52.7535 77.0715 52.9575C77.0089 53.1549 76.8881 53.3364 76.709 53.5019C76.5358 53.6666 76.3163 53.8168 76.0505 53.9524C75.7847 54.0881 75.5021 54.2082 75.2027 54.3128C74.9091 54.4166 74.6111 54.5092 74.3086 54.5906C74.0053 54.6661 73.7241 54.7299 73.465 54.7819C73.7318 55.5032 74.0007 56.2182 74.2718 56.9271C74.542 57.6302 74.8326 58.3305 75.1436 59.0282C75.1938 59.1398 75.1948 59.2372 75.1467 59.3204C75.0986 59.4035 75.0326 59.4625 74.9485 59.4973C74.8644 59.532 74.7765 59.5378 74.6848 59.5144C74.5931 59.4911 74.5225 59.4265 74.473 59.3208C74.1517 58.589 73.8481 57.8578 73.5624 57.1273C73.2825 56.3959 73.0076 55.658 72.7377 54.9135L72.6506 54.9251C72.5402 54.9397 72.4518 54.9188 72.3853 54.8626C72.3187 54.8064 72.2772 54.738 72.2606 54.6575C72.2433 54.5711 72.2529 54.4871 72.2893 54.4054C72.3251 54.318 72.3908 54.2561 72.4864 54.2198C72.3316 53.8088 72.1772 53.4007 72.0231 52.9955C71.8749 52.5896 71.7208 52.1844 71.561 51.78C71.4491 51.783 71.3372 51.786 71.2253 51.7889C71.1126 51.7861 71.0032 51.7858 70.8971 51.788C70.7794 51.7917 70.6861 51.7568 70.6173 51.6832C70.5484 51.6095 70.5079 51.5262 70.4956 51.4333C70.4833 51.3403 70.502 51.2581 70.5516 51.1865C70.6005 51.1091 70.6838 51.0685 70.8015 51.0648C70.8844 51.0657 70.9643 51.0669 71.0414 51.0685C71.1176 51.0644 71.1943 51.0631 71.2714 51.0647C71.2521 51.0082 71.2343 50.9632 71.2181 50.9299C71.1744 50.8234 71.1767 50.7285 71.2248 50.6453C71.2721 50.5563 71.3378 50.4945 71.4219 50.4597C71.5059 50.425 71.5938 50.4192 71.6856 50.4426C71.7773 50.4659 71.845 50.5308 71.8886 50.6374C71.9218 50.7098 71.9518 50.7797 71.9784 50.8471C72.0051 50.9145 72.0321 50.9848 72.0595 51.058C72.4374 51.0554 72.8136 51.0618 73.188 51.0773C73.5624 51.0928 73.9391 51.1257 74.3181 51.1761ZM74.7998 53.6125C74.8905 53.5828 75.009 53.5405 75.1554 53.4857C75.3069 53.4243 75.4576 53.3571 75.6075 53.284C75.7625 53.2044 75.9021 53.121 76.0265 53.0336C76.1567 52.9455 76.2455 52.8569 76.2928 52.7679C76.3402 52.6789 76.3312 52.5885 76.2658 52.4966C76.2063 52.404 76.0647 52.3164 75.841 52.2336C75.2886 52.0348 74.7165 51.9095 74.1245 51.8577C73.5376 51.7994 72.9425 51.7687 72.3393 51.7658C72.491 52.1535 72.6366 52.5391 72.7759 52.9226C72.9211 53.3053 73.0637 53.6913 73.2039 54.0806C73.7387 53.9685 74.2707 53.8125 74.7998 53.6125ZM80.7407 50.4953C81.1643 50.8826 81.5691 51.2842 81.955 51.7C82.3468 52.1152 82.7306 52.5372 83.1065 52.9663C83.4882 53.3945 83.8645 53.8265 84.2354 54.2621C84.6112 54.6911 84.9951 55.1132 85.3869 55.5283C85.4696 55.6179 85.4993 55.7085 85.476 55.8002C85.4577 55.8854 85.411 55.9566 85.3358 56.0138C85.2657 56.0645 85.1808 56.0934 85.0813 56.1007C84.981 56.1021 84.8928 56.0606 84.8166 55.9761C84.5977 55.7509 84.3846 55.5249 84.1773 55.2982C83.9692 55.0656 83.7637 54.8298 83.5607 54.5907L80.1451 55.0423C80.0355 55.4646 79.9229 55.8873 79.8074 56.3104C79.697 56.7269 79.575 57.1449 79.4413 57.5645C79.4029 57.676 79.3412 57.7462 79.2564 57.7751C79.1708 57.7983 79.0843 57.792 78.9968 57.7563C78.9152 57.7198 78.8482 57.6607 78.796 57.5789C78.7431 57.4914 78.7329 57.3922 78.7656 57.2815C78.8786 56.9297 78.9826 56.5761 79.0775 56.2207C79.1781 55.8646 79.2755 55.506 79.3696 55.1448L78.9253 55.2036C78.8091 55.219 78.714 55.1931 78.6402 55.126C78.5721 55.0582 78.5323 54.9807 78.5208 54.8936C78.5085 54.8006 78.5264 54.7126 78.5745 54.6294C78.6284 54.5454 78.7134 54.4958 78.8296 54.4804L79.5615 54.3836C79.6965 53.8398 79.8289 53.2992 79.9588 52.7619C80.088 52.2188 80.2196 51.6724 80.3538 51.1227C80.3407 51.1126 80.3308 51.1051 80.3242 51.1C80.3235 51.0942 80.3165 51.0863 80.3033 51.0762C80.2163 50.9991 80.175 50.91 80.1793 50.8089C80.1837 50.7078 80.2107 50.6215 80.2603 50.55C80.3158 50.4776 80.3867 50.4328 80.4731 50.4154C80.5645 50.3915 80.6537 50.4182 80.7407 50.4953ZM82.9858 53.9308C82.6517 53.5495 82.3184 53.1739 81.9858 52.8042C81.659 52.4336 81.3152 52.0683 80.9543 51.7082C80.8512 52.1356 80.7482 52.5629 80.6451 52.9903C80.542 53.4177 80.4393 53.8479 80.337 54.2811L82.9858 53.9308ZM93.8444 49.7202C93.9413 49.6482 94.0359 49.6269 94.1285 49.656C94.2202 49.6793 94.2947 49.7286 94.3519 49.8038C94.4084 49.8731 94.434 49.9554 94.4289 50.0507C94.4295 50.1452 94.3844 50.228 94.2933 50.2991C93.7446 50.7086 93.2152 51.1302 92.7052 51.5641C92.1951 51.998 91.6834 52.441 91.1698 52.893C91.2573 52.9288 91.3386 52.9623 91.4137 52.9938C91.4945 53.0245 91.5787 53.0577 91.6662 53.0934C91.9278 53.1947 92.1941 53.2866 92.4651 53.369C92.7411 53.4448 93.012 53.5272 93.2779 53.6161C93.5496 53.7043 93.8138 53.8024 94.0704 53.9103C94.327 54.0182 94.575 54.1509 94.8145 54.3084C94.9117 54.3724 94.9605 54.4516 94.9612 54.5461C94.9669 54.634 94.9392 54.7145 94.8779 54.7876C94.8225 54.8599 94.7465 54.9113 94.6501 54.9418C94.5587 54.9657 94.4644 54.9457 94.3673 54.8817C94.1015 54.7041 93.8159 54.5557 93.5105 54.4365C93.2044 54.3114 92.8911 54.1992 92.5706 54.0997C92.2493 53.9944 91.9288 53.895 91.6091 53.8013C91.2886 53.7018 90.9786 53.5921 90.679 53.4721C90.775 54.1983 90.8677 54.9218 90.9572 55.6429C91.0524 56.3632 91.148 57.0864 91.244 57.8125C91.2594 57.9287 91.2332 58.0208 91.1653 58.0889C91.0983 58.1627 91.0183 58.2058 90.9253 58.2181C90.8382 58.2296 90.7526 58.2084 90.6687 58.1545C90.5855 58.1064 90.5362 58.0243 90.5208 57.9081C90.4325 57.2401 90.3475 56.5746 90.2657 55.9116C90.184 55.2487 90.096 54.5835 90.0019 53.9163C89.4717 54.3765 88.9345 54.8287 88.3904 55.273C87.8514 55.7108 87.2889 56.1279 86.703 56.5246C86.6054 56.5907 86.5078 56.6124 86.4102 56.5899C86.3177 56.5607 86.2432 56.5115 86.1868 56.4421C86.1296 56.3669 86.101 56.285 86.1011 56.1963C86.1062 56.1011 86.1576 56.0204 86.2553 55.9543C86.8954 55.521 87.5059 55.0649 88.0868 54.5862C88.667 54.1017 89.246 53.6084 89.8239 53.1065C89.3339 52.8876 88.8498 52.6679 88.3714 52.4474C87.8923 52.2212 87.4099 51.9924 86.9243 51.7611C86.8171 51.7103 86.7515 51.6391 86.7276 51.5477C86.7087 51.4497 86.7146 51.3603 86.7453 51.2794C86.781 51.1919 86.8402 51.125 86.9227 51.0787C87.0052 51.0323 87.1001 51.0345 87.2073 51.0854C87.6368 51.2945 88.0631 51.5012 88.4861 51.7053C88.9141 51.9028 89.345 52.1 89.7789 52.2968C89.6636 51.5141 89.5432 50.7381 89.4178 49.9686C89.2983 49.1983 89.1609 48.4274 89.0057 47.656C88.9787 47.5413 88.9962 47.4503 89.0582 47.383C89.1261 47.315 89.2036 47.2752 89.2907 47.2636C89.3836 47.2514 89.4717 47.2693 89.5549 47.3174C89.6439 47.3647 89.7019 47.4457 89.7289 47.5603C89.891 48.3841 90.0374 49.201 90.1682 50.0112C90.299 50.8214 90.4222 51.6414 90.5378 52.4713C91.0831 51.9914 91.6238 51.5209 92.1598 51.06C92.7016 50.5982 93.2631 50.1516 93.8444 49.7202ZM98.7439 54.5512C98.7191 54.6314 98.6942 54.7115 98.6693 54.7916C98.6445 54.8717 98.6196 54.9518 98.5947 55.032C98.5621 55.1427 98.5005 55.2129 98.4098 55.2426C98.3242 55.2657 98.2377 55.2594 98.1502 55.2237C98.0686 55.1872 98.0016 55.1281 97.9495 55.0464C97.8965 54.9588 97.8893 54.8593 97.9277 54.7478C97.932 54.7354 97.9359 54.7201 97.9394 54.7019C97.9429 54.6837 97.9468 54.6685 97.951 54.6561L95.9906 54.9153C95.8744 54.9307 95.7823 54.9044 95.7142 54.8366C95.6461 54.7688 95.6063 54.6913 95.5948 54.6041C95.5825 54.5112 95.6004 54.4231 95.6485 54.3399C95.6966 54.2567 95.7788 54.2075 95.8949 54.1921L98.1778 53.8902C98.4339 53.0112 98.6664 52.1323 98.8753 51.2536C99.0834 50.3691 99.297 49.4809 99.5159 48.589L99.4567 48.5437C99.3697 48.4665 99.3284 48.3774 99.3327 48.2764C99.3371 48.1753 99.367 48.0886 99.4225 48.0163C99.4779 47.9439 99.5488 47.8991 99.6352 47.8817C99.7266 47.8578 99.8158 47.8845 99.9029 47.9616C100.326 48.3489 100.731 48.7505 101.117 49.1663C101.509 49.5815 101.893 50.0035 102.269 50.4326C102.645 50.8616 103.018 51.2939 103.389 51.7295C103.765 52.1586 104.148 52.5807 104.54 52.9958C104.553 53.0059 104.567 53.0218 104.582 53.0435L106.473 52.7934C106.589 52.7781 106.681 52.8043 106.749 52.8722C106.817 52.94 106.857 53.0204 106.87 53.1133C106.881 53.2005 106.863 53.2856 106.815 53.3688C106.767 53.452 106.685 53.5013 106.568 53.5166L98.7439 54.5512ZM100.116 49.1745C99.9293 49.9499 99.7419 50.7223 99.554 51.4919C99.3712 52.2549 99.1739 53.0197 98.962 53.7866L103.711 53.1587C103.407 52.8323 103.107 52.5027 102.809 52.1697C102.516 51.8302 102.222 51.4907 101.929 51.1512C101.636 50.8117 101.338 50.4788 101.035 50.1524C100.737 49.8195 100.43 49.4935 100.116 49.1745ZM115.736 51.0634C115.827 50.9922 115.918 50.9683 116.01 50.9916C116.107 51.0142 116.182 51.0635 116.233 51.1394C116.29 51.2088 116.318 51.2907 116.319 51.3852C116.32 51.4796 116.274 51.5625 116.183 51.6336C115.829 51.905 115.481 52.1343 115.139 52.3213C114.797 52.5025 114.448 52.6609 114.094 52.7964C113.739 52.9261 113.37 53.0399 112.987 53.1379C112.609 53.2292 112.203 53.3153 111.771 53.3962C111.488 53.4512 111.194 53.5078 110.889 53.566C110.589 53.6233 110.289 53.6542 109.988 53.6585C109.693 53.662 109.405 53.6292 109.124 53.56C108.848 53.4842 108.59 53.341 108.349 53.1305C108.155 52.9611 108.006 52.771 107.901 52.5602C107.796 52.3437 107.727 52.1163 107.696 51.8782C107.664 51.6342 107.663 51.3831 107.694 51.1249C107.73 50.8601 107.789 50.5951 107.872 50.3299C107.761 50.3387 107.674 50.3088 107.612 50.2402C107.549 50.1658 107.512 50.085 107.5 49.9979C107.495 49.91 107.513 49.8277 107.556 49.7511C107.605 49.6737 107.688 49.6274 107.804 49.612C107.868 49.6036 107.929 49.5955 107.987 49.5878C108.045 49.5801 108.106 49.575 108.171 49.5723C108.31 49.2821 108.468 48.9982 108.644 48.7208C108.82 48.4434 109.005 48.1884 109.199 47.9559C109.392 47.7234 109.589 47.5142 109.789 47.3282C109.989 47.1421 110.182 46.9925 110.368 46.8792C110.637 46.7196 110.926 46.5838 111.236 46.4719C111.547 46.3599 111.864 46.2825 112.19 46.2394C112.521 46.1957 112.848 46.1908 113.172 46.2248C113.501 46.2581 113.813 46.338 114.108 46.4646C114.321 46.5546 114.472 46.6913 114.561 46.8745C114.65 47.0578 114.694 47.253 114.692 47.4601C114.69 47.6673 114.649 47.8765 114.571 48.0878C114.492 48.2933 114.39 48.4663 114.267 48.6067C113.939 48.987 113.555 49.2801 113.116 49.486C112.682 49.6911 112.22 49.8466 111.732 49.9526C111.243 50.0527 110.741 50.1221 110.226 50.1606C109.71 50.1933 109.209 50.2271 108.723 50.2618C108.715 50.2865 108.706 50.3113 108.698 50.3361C108.694 50.3543 108.688 50.3787 108.681 50.4092C108.586 50.7232 108.533 51.0375 108.522 51.3523C108.51 51.6671 108.556 51.9476 108.66 52.194C108.762 52.4346 108.932 52.6249 109.169 52.7649C109.406 52.8991 109.731 52.9448 110.145 52.9019C110.653 52.8525 111.153 52.7893 111.645 52.7124C112.136 52.6297 112.615 52.5191 113.082 52.3806C113.547 52.2363 114.003 52.0608 114.448 51.8542C114.893 51.6417 115.322 51.3781 115.736 51.0634ZM110.296 47.8729C110.056 48.1174 109.83 48.3748 109.618 48.6452C109.405 48.9156 109.216 49.2037 109.049 49.5094C109.319 49.4915 109.591 49.4732 109.867 49.4545C110.142 49.4359 110.414 49.4118 110.681 49.3822C110.955 49.3461 111.223 49.3017 111.488 49.249C111.752 49.1904 112.011 49.1148 112.265 49.0221C112.474 48.9472 112.682 48.8665 112.889 48.78C113.101 48.687 113.289 48.5646 113.452 48.413C113.563 48.3097 113.652 48.1797 113.72 48.023C113.794 47.8655 113.83 47.713 113.828 47.5655C113.832 47.4172 113.788 47.287 113.696 47.175C113.605 47.063 113.448 46.998 113.227 46.9799C112.959 46.9622 112.693 46.9619 112.429 46.9791C112.166 46.9962 111.908 47.0391 111.657 47.1077C111.411 47.1698 111.173 47.2634 110.941 47.3886C110.709 47.5138 110.494 47.6753 110.296 47.8729ZM122.678 43.9218C122.965 44.6167 123.238 45.3165 123.496 46.0211C123.761 46.7249 124.022 47.4291 124.281 48.1337C124.54 48.8383 124.804 49.5392 125.073 50.2365C125.343 50.9337 125.629 51.6258 125.933 52.3126C125.983 52.4242 125.984 52.5216 125.936 52.6048C125.888 52.688 125.822 52.7469 125.738 52.7817C125.654 52.8164 125.566 52.8222 125.474 52.7988C125.382 52.7755 125.312 52.7109 125.262 52.6052C124.942 51.8792 124.639 51.151 124.353 50.4204C124.073 49.6891 123.799 48.954 123.529 48.2154L119.617 48.7327C119.882 49.4423 120.147 50.1461 120.411 50.8441C120.68 51.5414 120.97 52.236 121.28 52.9278C121.33 53.0394 121.331 53.1368 121.283 53.22C121.241 53.3024 121.178 53.361 121.094 53.3958C121.01 53.4305 120.919 53.4366 120.821 53.414C120.73 53.3907 120.659 53.3262 120.61 53.2204C120.306 52.5336 120.019 51.8415 119.75 51.1443C119.48 50.4412 119.215 49.7374 118.957 49.0328C118.698 48.3282 118.44 47.6265 118.182 46.9277C117.923 46.2231 117.65 45.5233 117.363 44.8284C117.32 44.7219 117.319 44.6274 117.361 44.545C117.409 44.456 117.474 44.3941 117.558 44.3593C117.642 44.3246 117.73 44.3189 117.822 44.3422C117.92 44.3648 117.99 44.4293 118.034 44.5358C118.27 45.1134 118.497 45.695 118.717 46.2807C118.935 46.8606 119.151 47.4437 119.365 48.0302L123.277 47.5129C123.073 46.9547 122.867 46.4027 122.659 45.857C122.456 45.3046 122.242 44.7567 122.016 44.2132C121.973 44.1067 121.972 44.0122 122.014 43.9297C122.061 43.8407 122.127 43.7789 122.211 43.7441C122.295 43.7094 122.383 43.7036 122.475 43.727C122.567 43.7503 122.634 43.8152 122.678 43.9218ZM134.836 43.9721C135.027 44.4373 135.211 44.9066 135.385 45.3799C135.56 45.8533 135.732 46.327 135.901 46.8011C136.076 47.2745 136.254 47.7474 136.435 48.22C136.62 48.686 136.815 49.148 137.017 49.6059C137.066 49.7116 137.067 49.8061 137.019 49.8893C136.977 49.9717 136.913 50.0303 136.829 50.0651C136.745 50.0998 136.655 50.1059 136.557 50.0834C136.465 50.06 136.395 49.9955 136.345 49.8897C136.161 49.4768 135.985 49.0627 135.817 48.6474C135.655 48.2256 135.496 47.8033 135.34 47.3807C135.183 46.9581 135.027 46.5355 134.871 46.1129C134.72 45.6896 134.564 45.2669 134.402 44.8451C133.681 45.7856 132.962 46.7228 132.247 47.6567C131.537 48.5899 130.821 49.5267 130.1 50.4672C130.015 50.579 129.903 50.6263 129.765 50.6091C129.631 50.5854 129.536 50.5123 129.479 50.3899C129.27 49.9327 129.076 49.4708 128.896 49.004C128.716 48.5314 128.538 48.0585 128.363 47.5851C128.194 47.111 128.022 46.6373 127.847 46.1639C127.672 45.6906 127.489 45.2213 127.297 44.7561C127.254 44.6495 127.253 44.5551 127.295 44.4726C127.343 44.3836 127.408 44.3217 127.492 44.287C127.576 44.2522 127.665 44.2494 127.757 44.2786C127.855 44.3011 127.925 44.3657 127.969 44.4722C128.143 44.8925 128.308 45.3139 128.464 45.7366C128.621 46.1592 128.774 46.5821 128.925 47.0055C129.081 47.4281 129.237 47.8507 129.394 48.2733C129.556 48.6952 129.726 49.1129 129.905 49.5267C130.626 48.5862 131.344 47.649 132.06 46.7151C132.775 45.7753 133.493 44.8352 134.214 43.8947C134.254 43.8421 134.306 43.8058 134.368 43.7857C134.429 43.7598 134.49 43.7518 134.551 43.7615C134.61 43.7654 134.667 43.7876 134.719 43.8279C134.771 43.8624 134.81 43.9105 134.836 43.9721ZM140.852 37.405C140.736 37.4204 140.641 37.3945 140.567 37.3275C140.499 37.2596 140.46 37.1822 140.448 37.095C140.436 37.0021 140.454 36.914 140.502 36.8308C140.556 36.7469 140.641 36.6972 140.757 36.6818L143.963 36.2579C144.08 36.2425 144.172 36.2687 144.24 36.3366C144.308 36.4044 144.348 36.4848 144.36 36.5777C144.372 36.6649 144.353 36.75 144.305 36.8332C144.257 36.9164 144.175 36.9657 144.059 36.9811L140.852 37.405ZM146.961 42.3688C147.153 42.834 147.336 43.3033 147.511 43.7767C147.686 44.25 147.858 44.7238 148.027 45.1979C148.202 45.6712 148.379 46.1442 148.56 46.6168C148.746 47.0828 148.94 47.5447 149.142 48.0026C149.192 48.1084 149.192 48.2028 149.144 48.286C149.102 48.3685 149.039 48.427 148.955 48.4618C148.871 48.4966 148.78 48.5027 148.682 48.4801C148.591 48.4568 148.52 48.3922 148.471 48.2865C148.286 47.8735 148.11 47.4594 147.943 47.0441C147.781 46.6223 147.621 46.2001 147.465 45.7775C147.309 45.3549 147.152 44.9323 146.996 44.5097C146.845 44.0863 146.689 43.6637 146.527 43.2418C145.806 44.1823 145.088 45.1195 144.372 46.0535C143.662 46.9866 142.947 47.9234 142.226 48.8639C142.14 48.9757 142.028 49.023 141.89 49.0059C141.757 48.9821 141.661 48.909 141.604 48.7866C141.396 48.3295 141.202 47.8675 141.022 47.4007C140.841 46.9282 140.663 46.4552 140.488 45.9819C140.319 45.5077 140.147 45.034 139.972 44.5607C139.797 44.0873 139.614 43.618 139.423 43.1528C139.379 43.0463 139.378 42.9518 139.421 42.8694C139.468 42.7804 139.534 42.7185 139.618 42.6837C139.702 42.649 139.79 42.6462 139.883 42.6753C139.98 42.6979 140.051 42.7624 140.094 42.8689C140.268 43.2892 140.433 43.7107 140.59 44.1333C140.746 44.5559 140.899 44.9789 141.05 45.4023C141.206 45.8249 141.363 46.2475 141.519 46.6701C141.681 47.0919 141.852 47.5097 142.03 47.9234C142.751 46.9829 143.47 46.0457 144.185 45.1118C144.9 44.1721 145.618 43.232 146.339 42.2915C146.38 42.2388 146.431 42.2025 146.493 42.1824C146.555 42.1566 146.616 42.1485 146.676 42.1582C146.736 42.1622 146.792 42.1843 146.845 42.2246C146.896 42.2592 146.935 42.3072 146.961 42.3688ZM159.113 44.2816C159.367 44.3663 159.631 44.4436 159.907 44.5136C160.187 44.577 160.465 44.6467 160.741 44.7225C161.017 44.7983 161.286 44.8868 161.547 44.9882C161.808 45.0837 162.049 45.2085 162.271 45.3624C162.336 45.407 162.379 45.4634 162.399 45.5316C162.42 45.5997 162.42 45.6677 162.4 45.7354C162.379 45.8032 162.343 45.8641 162.291 45.9183C162.238 45.9666 162.174 45.9987 162.1 46.0145C161.671 46.0829 161.254 46.1677 160.848 46.2687C160.441 46.3639 160.043 46.4844 159.654 46.6304C159.272 46.7755 158.895 46.9465 158.525 47.1431C158.161 47.339 157.808 47.5719 157.465 47.8418C157.368 47.9138 157.274 47.938 157.182 47.9147C157.091 47.8914 157.017 47.845 156.96 47.7757C156.903 47.7005 156.874 47.6156 156.873 47.5212C156.878 47.4201 156.925 47.334 157.016 47.2629C157.6 46.8074 158.214 46.4425 158.858 46.1683C159.507 45.8934 160.184 45.6738 160.889 45.5096C160.537 45.3965 160.179 45.3021 159.815 45.2262C159.449 45.1445 159.121 45.0548 158.83 44.9573C158.261 44.7666 157.693 44.5995 157.124 44.456C156.56 44.3059 155.98 44.2054 155.382 44.1544C155.281 44.15 155.202 44.1132 155.146 44.0438C155.089 43.9744 155.058 43.8958 155.052 43.8079C155.047 43.72 155.068 43.6373 155.117 43.56C155.166 43.4826 155.246 43.4366 155.356 43.422C155.739 43.3655 156.118 43.2858 156.495 43.1828C156.871 43.0798 157.24 42.9631 157.601 42.8326C157.691 42.8029 157.81 42.7606 157.956 42.7058C158.108 42.6444 158.259 42.5772 158.409 42.5042C158.563 42.4246 158.703 42.3411 158.828 42.2537C158.958 42.1656 159.046 42.077 159.094 41.988C159.141 41.899 159.132 41.8086 159.067 41.7167C159.007 41.6241 158.866 41.5365 158.642 41.4538C158.257 41.3155 157.857 41.2148 157.441 41.1516C157.03 41.0818 156.613 41.0365 156.19 41.0155C155.773 40.9879 155.352 40.9786 154.928 40.9874C154.509 40.9955 154.099 41.0024 153.698 41.0081C153.58 41.0119 153.487 40.9769 153.418 40.9033C153.349 40.8296 153.309 40.7463 153.297 40.6534C153.284 40.5605 153.303 40.4782 153.353 40.4066C153.401 40.3292 153.485 40.2887 153.603 40.2849C154.193 40.2778 154.781 40.2769 155.366 40.2822C155.951 40.2817 156.536 40.3197 157.119 40.3962C157.317 40.4173 157.551 40.4455 157.822 40.4806C158.098 40.515 158.369 40.5737 158.634 40.6569C158.899 40.7342 159.14 40.8412 159.359 40.9777C159.577 41.1084 159.734 41.2857 159.828 41.5096C159.948 41.7893 159.953 42.0459 159.842 42.2792C159.73 42.5068 159.547 42.7141 159.294 42.9012C159.041 43.0826 158.74 43.2435 158.392 43.3841C158.044 43.5246 157.691 43.6452 157.332 43.7459C157.632 43.8244 157.929 43.9092 158.225 44.0001C158.521 44.091 158.817 44.1849 159.113 44.2816ZM165.489 39.2895C165.913 39.6768 166.317 40.0784 166.703 40.4942C167.095 40.9094 167.479 41.3314 167.855 41.7605C168.237 42.1887 168.613 42.6207 168.984 43.0563C169.36 43.4853 169.743 43.9074 170.135 44.3225C170.218 44.4121 170.248 44.5027 170.224 44.5944C170.206 44.6796 170.159 44.7508 170.084 44.808C170.014 44.8587 169.929 44.8876 169.83 44.8949C169.729 44.8963 169.641 44.8548 169.565 44.7703C169.346 44.5451 169.133 44.3191 168.926 44.0924C168.718 43.8598 168.512 43.624 168.309 43.3849L164.893 43.8365C164.784 44.2588 164.671 44.6815 164.556 45.1046C164.445 45.5211 164.323 45.9391 164.19 46.3587C164.151 46.4702 164.09 46.5404 164.005 46.5693C163.919 46.5925 163.833 46.5862 163.745 46.5505C163.663 46.514 163.597 46.4549 163.544 46.3731C163.491 46.2856 163.481 46.1864 163.514 46.0757C163.627 45.7239 163.731 45.3703 163.826 45.0149C163.926 44.6588 164.024 44.3002 164.118 43.939L163.674 43.9978C163.557 44.0132 163.462 43.9873 163.388 43.9202C163.32 43.8524 163.281 43.7749 163.269 43.6878C163.257 43.5948 163.275 43.5068 163.323 43.4236C163.377 43.3396 163.462 43.29 163.578 43.2746L164.31 43.1778C164.445 42.634 164.577 42.0934 164.707 41.5561C164.836 41.013 164.968 40.4666 165.102 39.9169C165.089 39.9068 165.079 39.8993 165.073 39.8942C165.072 39.8884 165.065 39.8805 165.052 39.8704C164.965 39.7933 164.923 39.7042 164.928 39.6031C164.932 39.502 164.959 39.4157 165.009 39.3442C165.064 39.2718 165.135 39.227 165.221 39.2096C165.313 39.1857 165.402 39.2124 165.489 39.2895ZM167.734 42.725C167.4 42.3437 167.067 41.9681 166.734 41.5984C166.407 41.2279 166.063 40.8625 165.703 40.5024C165.6 40.9298 165.496 41.3572 165.393 41.7845C165.29 42.2119 165.188 42.6421 165.085 43.0753L167.734 42.725ZM29.7691 75.2232C29.8678 75.2102 29.9472 75.2292 30.0071 75.2804C30.0721 75.325 30.1155 75.3843 30.1371 75.4583C30.1645 75.5315 30.1686 75.6078 30.1496 75.6871C30.1305 75.7665 30.0888 75.8311 30.0245 75.881C30.2642 76.8895 30.4517 77.9049 30.5869 78.9273C30.7213 79.9438 30.8532 80.9637 30.9826 81.9868C30.9979 82.103 30.9717 82.1951 30.9038 82.2631C30.836 82.3312 30.7585 82.371 30.6714 82.3825C30.5843 82.3941 30.4991 82.3758 30.4159 82.3277C30.3327 82.2796 30.2834 82.1974 30.2681 82.0812C30.1329 81.0589 29.9989 80.0453 29.866 79.0403C29.7323 78.0296 29.5489 77.0225 29.3158 76.019L24.1227 76.7057C24.3868 77.3622 24.6401 78.0262 24.8825 78.6975C25.13 79.3622 25.3746 80.0272 25.6162 80.6927C25.8637 81.3574 26.1141 82.0217 26.3673 82.6857C26.6264 83.3488 26.9022 84.0039 27.1946 84.6508C27.2448 84.7624 27.2459 84.8598 27.1978 84.943C27.1497 85.0262 27.0836 85.0851 26.9995 85.1199C26.9154 85.1547 26.8272 85.1575 26.7347 85.1283C26.6429 85.105 26.5723 85.0405 26.5229 84.9347C26.2282 84.2703 25.9476 83.6011 25.6812 82.9271C25.4198 82.2465 25.1642 81.5652 24.9144 80.883C24.6646 80.2009 24.412 79.5192 24.1564 78.8378C23.9058 78.1499 23.6444 77.4693 23.3722 76.796C23.2711 76.7917 23.1895 76.7552 23.1272 76.6866C23.0708 76.6172 23.0401 76.5415 23.0351 76.4594C23.0294 76.3715 23.051 76.2888 23.0999 76.2114C23.1487 76.1341 23.2284 76.0881 23.3387 76.0735L29.7691 75.2232ZM37.5029 74.2006C37.7008 74.2217 37.935 74.2499 38.2056 74.285C38.482 74.3194 38.7528 74.3782 39.018 74.4613C39.2823 74.5386 39.524 74.6456 39.743 74.7821C39.9613 74.9128 40.1177 75.0902 40.2123 75.3141C40.3092 75.5554 40.3239 75.778 40.2563 75.982C40.1938 76.1794 40.0729 76.3609 39.8939 76.5264C39.7206 76.6912 39.5011 76.8414 39.2353 76.977C38.9696 77.1126 38.687 77.2327 38.3876 77.3373C38.094 77.4411 37.7959 77.5337 37.4934 77.6151C37.1902 77.6907 36.909 77.7545 36.6499 77.8064C36.9167 78.5277 37.1856 79.2428 37.4566 79.9516C37.7269 80.6547 38.0175 81.3551 38.3284 82.0527C38.3786 82.1643 38.3797 82.2617 38.3316 82.3449C38.2835 82.4281 38.2174 82.4871 38.1333 82.5218C38.0493 82.5566 37.9614 82.5623 37.8696 82.539C37.7779 82.5156 37.7073 82.4511 37.6579 82.3453C37.3365 81.6135 37.033 80.8824 36.7472 80.1518C36.4673 79.4205 36.1924 78.6826 35.9226 77.9381L35.8355 77.9496C35.7251 77.9642 35.6366 77.9434 35.5701 77.8872C35.5036 77.8309 35.462 77.7626 35.4454 77.682C35.4281 77.5956 35.4377 77.5116 35.4742 77.43C35.5099 77.3425 35.5756 77.2806 35.6713 77.2443C35.5165 76.8333 35.362 76.4253 35.208 76.0201C35.0597 75.6141 34.9057 75.209 34.7458 74.8045C34.6339 74.8075 34.522 74.8105 34.4101 74.8135C34.2974 74.8106 34.1881 74.8103 34.082 74.8125C33.9642 74.8163 33.871 74.7813 33.8021 74.7077C33.7333 74.634 33.6927 74.5508 33.6804 74.4578C33.6681 74.3649 33.6868 74.2826 33.7365 74.211C33.7853 74.1336 33.8686 74.0931 33.9863 74.0893C34.0692 74.0902 34.1491 74.0914 34.2262 74.0931C34.3025 74.0889 34.3791 74.0876 34.4562 74.0893C34.4369 74.0327 34.4191 73.9878 34.4029 73.9545C34.3593 73.8479 34.3615 73.7531 34.4096 73.6699C34.4569 73.5809 34.5226 73.519 34.6067 73.4842C34.6908 73.4495 34.7787 73.4438 34.8704 73.4671C34.9621 73.4904 35.0298 73.5554 35.0735 73.6619C35.1067 73.7343 35.1366 73.8043 35.1633 73.8717C35.1899 73.9391 35.2169 74.0094 35.2443 74.0826C35.6223 74.0799 35.9984 74.0863 36.3728 74.1018C36.7472 74.1173 37.1239 74.1503 37.5029 74.2006ZM37.9847 76.637C38.0753 76.6073 38.1938 76.565 38.3403 76.5102C38.4917 76.4488 38.6424 76.3816 38.7923 76.3086C38.9473 76.229 39.087 76.1455 39.2114 76.0581C39.3416 75.97 39.4303 75.8814 39.4777 75.7924C39.525 75.7034 39.516 75.613 39.4507 75.5211C39.3911 75.4285 39.2495 75.3409 39.0258 75.2582C38.4735 75.0593 37.9013 74.934 37.3094 74.8823C36.7224 74.8239 36.1274 74.7933 35.5241 74.7903C35.6758 75.178 35.8214 75.5637 35.9608 75.9471C36.1059 76.3298 36.2486 76.7158 36.3887 77.1051C36.9236 76.993 37.4555 76.837 37.9847 76.637ZM49.9759 73.3493C50.1675 73.8145 50.3507 74.2838 50.5256 74.7572C50.7005 75.2305 50.8724 75.7042 51.0415 76.1783C51.2164 76.6517 51.3942 77.1247 51.5749 77.5972C51.7606 78.0632 51.9547 78.5252 52.1571 78.9831C52.2065 79.0888 52.2072 79.1833 52.1591 79.2665C52.1168 79.3489 52.0536 79.4075 51.9696 79.4423C51.8855 79.477 51.7947 79.4831 51.6971 79.4606C51.6054 79.4372 51.5348 79.3727 51.4854 79.2669C51.3007 78.854 51.1248 78.4399 50.9576 78.0246C50.7954 77.6028 50.6362 77.1806 50.4798 76.758C50.3235 76.3354 50.1671 75.9127 50.0108 75.4901C49.8602 75.0668 49.7039 74.6442 49.5417 74.2223C48.8209 75.1628 48.1026 76.1 47.3868 77.0339C46.6768 77.9671 45.9614 78.9039 45.2406 79.8444C45.1549 79.9562 45.0429 80.0035 44.9047 79.9863C44.7715 79.9626 44.6762 79.8895 44.6186 79.7671C44.4104 79.3099 44.2164 78.848 44.0364 78.3812C43.8557 77.9087 43.6779 77.4357 43.5031 76.9623C43.334 76.4882 43.162 76.0145 42.9871 75.5411C42.8122 75.0678 42.629 74.5985 42.4375 74.1333C42.3938 74.0268 42.3932 73.9323 42.4355 73.8498C42.4828 73.7608 42.5485 73.699 42.6326 73.6642C42.7166 73.6294 42.8049 73.6266 42.8974 73.6558C42.995 73.6783 43.0656 73.7429 43.1092 73.8494C43.283 74.2697 43.448 74.6912 43.6044 75.1138C43.7607 75.5364 43.9142 75.9594 44.0647 76.3827C44.2211 76.8053 44.3775 77.2279 44.5338 77.6506C44.696 78.0724 44.8665 78.4902 45.0453 78.9039C45.7661 77.9634 46.4844 77.0262 47.2002 76.0923C47.9152 75.1525 48.6331 74.2124 49.354 73.2719C49.3943 73.2193 49.4456 73.183 49.508 73.1629C49.5696 73.137 49.6306 73.129 49.691 73.1387C49.7506 73.1427 49.8067 73.1648 49.8593 73.2051C49.9112 73.2396 49.9501 73.2877 49.9759 73.3493ZM59.3913 75.4555C59.6448 75.5402 59.9092 75.6176 60.1844 75.6875C60.4647 75.751 60.7428 75.8206 61.0188 75.8964C61.2948 75.9722 61.5636 76.0608 61.8252 76.1621C62.0861 76.2576 62.3272 76.3824 62.5485 76.5363C62.6135 76.5809 62.6568 76.6402 62.6784 76.7142C62.6992 76.7824 62.6993 76.8503 62.6787 76.9181C62.6574 76.98 62.6207 77.038 62.5688 77.0922C62.5168 77.1463 62.4531 77.1784 62.3776 77.1884C61.9783 77.253 61.5839 77.3318 61.1942 77.4247C60.8104 77.5168 60.4351 77.6285 60.0683 77.7597C59.7015 77.891 59.3435 78.0447 58.9945 78.2209C58.6454 78.397 58.3064 78.6044 57.9774 78.8429C58.0195 78.9379 58.0591 79.036 58.0961 79.1375C58.1382 79.2324 58.1803 79.3274 58.2224 79.4223C58.2727 79.5338 58.2737 79.6312 58.2256 79.7144C58.1775 79.7976 58.1114 79.8566 58.0274 79.8913C57.9433 79.9261 57.8554 79.9318 57.7637 79.9085C57.6719 79.8851 57.601 79.8177 57.5507 79.7061C57.2317 78.9918 56.9326 78.2718 56.6534 77.5463C56.3735 76.815 56.099 76.08 55.8299 75.3413C55.8001 75.3393 55.7703 75.3374 55.7405 75.3354C55.7165 75.3327 55.6896 75.3303 55.6598 75.3283L55.6586 75.3196C55.5634 75.3145 55.4883 75.283 55.4334 75.2253C55.3777 75.1617 55.3449 75.0922 55.3349 75.0167C55.3241 74.9353 55.3374 74.8568 55.3746 74.7809C55.4111 74.6992 55.4747 74.6436 55.5653 74.6138C55.4113 74.2087 55.2572 73.8035 55.1032 73.3983C54.9541 72.9866 54.7997 72.5785 54.6399 72.1741C54.528 72.177 54.416 72.18 54.3041 72.183C54.1915 72.1802 54.0821 72.1798 53.976 72.1821C53.8583 72.1858 53.765 72.1509 53.6962 72.0772C53.6273 72.0036 53.5868 71.9203 53.5745 71.8273C53.5622 71.7344 53.5809 71.6521 53.6305 71.5806C53.6794 71.5032 53.7627 71.4626 53.8804 71.4589C53.9632 71.4597 54.0403 71.4614 54.1115 71.4638C54.1878 71.4596 54.2674 71.4579 54.3502 71.4588C54.3309 71.4022 54.3132 71.3573 54.2969 71.324C54.2533 71.2175 54.2555 71.1226 54.3036 71.0394C54.351 70.9504 54.4167 70.8885 54.5007 70.8538C54.5848 70.819 54.6727 70.8133 54.7644 70.8366C54.8562 70.86 54.9239 70.9249 54.9675 71.0314C55.0007 71.1039 55.0307 71.1738 55.0573 71.2412C55.0839 71.3086 55.111 71.3789 55.1384 71.4521C55.5163 71.4494 55.8924 71.4558 56.2669 71.4713C56.6413 71.4868 57.018 71.5198 57.397 71.5701C57.5948 71.5913 57.829 71.6194 58.0997 71.6545C58.3761 71.6889 58.6469 71.7477 58.912 71.8308C59.1764 71.9082 59.4181 72.0151 59.6371 72.1516C59.8553 72.2824 60.0117 72.4597 60.1063 72.6836C60.2261 72.9633 60.2304 73.2198 60.1195 73.4531C60.0077 73.6807 59.8253 73.888 59.5722 74.0752C59.3184 74.2565 59.0176 74.4174 58.6697 74.558C58.3219 74.6985 57.9684 74.8192 57.6094 74.9198C57.9094 74.9984 58.2072 75.0831 58.503 75.174C58.7987 75.265 59.0948 75.3588 59.3913 75.4555ZM58.9198 72.6277C58.3675 72.4288 57.7954 72.3035 57.2034 72.2518C56.6165 72.1935 56.0214 72.1628 55.4181 72.1598C55.5699 72.5476 55.7154 72.9332 55.8548 73.3167C56 73.6994 56.1426 74.0854 56.2827 74.4747C56.8176 74.3626 57.3496 74.2065 57.8787 74.0065C57.9693 73.9768 58.0879 73.9345 58.2343 73.8797C58.3858 73.8183 58.5365 73.7511 58.6864 73.6781C58.8413 73.5985 58.981 73.515 59.1054 73.4276C59.2356 73.3395 59.3244 73.2509 59.3717 73.1619C59.419 73.0729 59.41 72.9825 59.3447 72.8907C59.2852 72.7981 59.1436 72.7104 58.9198 72.6277ZM56.6441 75.4641C56.8101 75.915 56.979 76.3655 57.1508 76.8156C57.3219 77.2599 57.4991 77.7064 57.6825 78.155C58.2184 77.7827 58.7755 77.4815 59.3539 77.2513C59.938 77.0204 60.5425 76.8311 61.1672 76.6835C60.8161 76.5763 60.4579 76.4818 60.0924 76.4001C59.727 76.3184 59.3989 76.2288 59.1083 76.1313C58.7003 75.9961 58.2906 75.87 57.8791 75.753C57.4735 75.6352 57.0618 75.5389 56.6441 75.4641ZM66.6601 70.5138C67.0837 70.901 67.4884 71.3026 67.8744 71.7185C68.2662 72.1336 68.65 72.5557 69.0259 72.9847C69.4076 73.413 69.7839 73.845 70.1547 74.2806C70.5306 74.7096 70.9145 75.1317 71.3062 75.5468C71.389 75.6363 71.4187 75.727 71.3954 75.8187C71.3771 75.9039 71.3304 75.9751 71.2552 76.0323C71.185 76.0829 71.1002 76.1119 71.0007 76.1191C70.9004 76.1206 70.8122 76.079 70.736 75.9946C70.4065 75.648 70.082 75.295 69.7626 74.9353C69.4482 74.569 69.1342 74.2057 68.8205 73.8453C68.5069 73.4848 68.1879 73.1281 67.8634 72.775C67.544 72.4153 67.2141 72.0659 66.8737 71.7267C66.6314 72.7103 66.3916 73.6906 66.1544 74.6677C65.9221 75.6381 65.6576 76.6099 65.3607 77.583C65.3223 77.6945 65.2606 77.7647 65.1758 77.7936C65.0902 77.8168 65.0037 77.8105 64.9162 77.7747C64.8345 77.7383 64.7676 77.6791 64.7154 77.5974C64.6625 77.5098 64.6523 77.4107 64.685 77.3C64.9997 76.2832 65.2785 75.2622 65.5212 74.2372C65.7697 73.2114 66.0208 72.1823 66.2744 71.1499C66.2612 71.1398 66.2513 71.1323 66.2448 71.1272C66.2432 71.1156 66.2359 71.1048 66.2227 71.0947C66.1357 71.0175 66.0944 70.9284 66.0987 70.8274C66.1031 70.7263 66.1301 70.64 66.1797 70.5684C66.2352 70.4961 66.3061 70.4512 66.3925 70.4339C66.4839 70.41 66.5731 70.4366 66.6601 70.5138ZM80.7327 73.8482C80.8238 73.7771 80.9152 73.7532 81.0069 73.7765C81.1045 73.7991 81.1789 73.8483 81.2304 73.9243C81.2868 73.9937 81.3154 74.0756 81.3161 74.1701C81.3167 74.2645 81.2715 74.3474 81.1805 74.4185C80.8263 74.6899 80.4783 74.9192 80.1366 75.1062C79.7941 75.2874 79.4457 75.4458 79.0912 75.5813C78.736 75.711 78.3669 75.8248 77.9838 75.9228C77.6058 76.0141 77.2005 76.1002 76.768 76.1811C76.4856 76.2361 76.1917 76.2927 75.8861 76.3509C75.5864 76.4082 75.2861 76.4391 74.9852 76.4434C74.6902 76.4469 74.4021 76.4141 74.1211 76.3449C73.8451 76.2691 73.5868 76.1259 73.3462 75.9154C73.1524 75.746 73.0031 75.5559 72.8984 75.3451C72.793 75.1286 72.7245 74.9012 72.693 74.6631C72.6607 74.4191 72.66 74.168 72.6909 73.9098C72.7268 73.645 72.7863 73.38 72.8695 73.1148C72.7584 73.1236 72.6717 73.0937 72.6094 73.0251C72.5464 72.9507 72.5091 72.8699 72.4976 72.7828C72.4919 72.6949 72.5105 72.6126 72.5536 72.536C72.6025 72.4586 72.685 72.4123 72.8012 72.3969C72.8651 72.3885 72.9261 72.3804 72.9841 72.3727C73.0422 72.365 73.1036 72.3599 73.1683 72.3572C73.3072 72.067 73.4647 71.7831 73.6408 71.5057C73.8169 71.2283 74.0019 70.9733 74.1957 70.7408C74.3896 70.5083 74.5865 70.2991 74.7865 70.113C74.9865 69.927 75.1795 69.7774 75.3655 69.6641C75.634 69.5045 75.9233 69.3687 76.2336 69.2568C76.5439 69.1448 76.8617 69.0674 77.187 69.0243C77.5181 68.9806 77.8454 68.9757 78.1691 69.0097C78.4986 69.043 78.8106 69.1229 79.1051 69.2495C79.3179 69.3395 79.469 69.4762 79.5582 69.6594C79.6475 69.8427 79.691 70.0379 79.6889 70.245C79.6867 70.4522 79.6464 70.6614 79.568 70.8727C79.4887 71.0782 79.3875 71.2512 79.2642 71.3916C78.9362 71.7719 78.5524 72.065 78.1127 72.2709C77.6788 72.476 77.2177 72.6315 76.7293 72.7375C76.2402 72.8376 75.7381 72.9069 75.2231 72.9455C74.7073 72.9782 74.2064 73.012 73.7204 73.0467C73.7119 73.0714 73.7033 73.0962 73.6948 73.121C73.6913 73.1392 73.6857 73.1636 73.6779 73.1941C73.5834 73.508 73.5304 73.8224 73.5189 74.1372C73.5073 74.452 73.5533 74.7325 73.6568 74.9789C73.7595 75.2195 73.9295 75.4098 74.1667 75.5498C74.4031 75.684 74.7283 75.7297 75.1423 75.6868C75.6499 75.6374 76.1499 75.5742 76.6421 75.4973C77.1335 75.4146 77.6124 75.304 78.0788 75.1655C78.5443 75.0212 78.9999 74.8457 79.4454 74.6391C79.8901 74.4266 80.3192 74.163 80.7327 73.8482ZM75.2929 70.6578C75.0534 70.9023 74.8274 71.1597 74.6149 71.4301C74.4024 71.7005 74.2129 71.9886 74.0465 72.2943C74.316 72.2764 74.5884 72.2581 74.8637 72.2394C75.1391 72.2208 75.4107 72.1967 75.6787 72.1671C75.9517 72.131 76.2207 72.0866 76.4856 72.0339C76.7497 71.9753 77.0086 71.8997 77.2623 71.807C77.4711 71.7321 77.6791 71.6514 77.8864 71.5649C78.0987 71.4719 78.2864 71.3495 78.4496 71.1979C78.56 71.0946 78.6492 70.9646 78.7172 70.8079C78.7909 70.6504 78.8269 70.4979 78.8251 70.3503C78.8291 70.2021 78.7853 70.0719 78.6937 69.9599C78.602 69.8479 78.4457 69.7829 78.2246 69.7648C77.9563 69.7471 77.6903 69.7468 77.4266 69.764C77.1629 69.7811 76.9056 69.824 76.6546 69.8926C76.4086 69.9547 76.1698 70.0483 75.9382 70.1735C75.7065 70.2987 75.4914 70.4602 75.2929 70.6578ZM87.2164 67.7957C87.4427 68.345 87.6577 68.8988 87.8616 69.4569C88.0646 70.0093 88.2681 70.5646 88.4719 71.1228C88.675 71.6751 88.8813 72.23 89.091 72.7874C89.3056 73.3382 89.5345 73.8842 89.7774 74.4254C89.8276 74.537 89.8287 74.6344 89.7806 74.7176C89.7325 74.8008 89.6664 74.8597 89.5823 74.8945C89.4983 74.9293 89.4104 74.935 89.3186 74.9116C89.2269 74.8883 89.1563 74.8238 89.1069 74.718C88.7716 73.9703 88.4654 73.2188 88.1882 72.4635C87.9102 71.7024 87.6319 70.9383 87.3532 70.1713C87.315 70.3301 87.2576 70.4765 87.1808 70.6108C87.109 70.7385 87.0121 70.8548 86.89 70.9596C86.7729 71.0578 86.6267 71.1362 86.4512 71.1949C86.2816 71.2528 86.079 71.2855 85.8436 71.293C85.3728 71.3079 84.925 71.2519 84.5004 71.1248C84.075 70.9919 83.6809 70.8047 83.3179 70.5631C82.9542 70.3156 82.6283 70.0189 82.3403 69.6728C82.0522 69.3267 81.8067 68.9454 81.6039 68.529C81.5544 68.4232 81.5509 68.3291 81.5932 68.2467C81.6413 68.1635 81.7073 68.1045 81.7914 68.0698C81.8755 68.035 81.9634 68.0293 82.0551 68.0526C82.1527 68.0752 82.2262 68.1394 82.2756 68.2451C82.4143 68.5341 82.5874 68.8156 82.7951 69.0896C83.0019 69.3577 83.2348 69.5988 83.4936 69.8129C83.7524 70.0269 84.0327 70.2026 84.3346 70.34C84.6422 70.4766 84.9655 70.5521 85.3043 70.5664C85.6016 70.5803 85.8413 70.5604 86.0233 70.5068C86.2104 70.4466 86.3555 70.3594 86.4587 70.2453C86.5618 70.1312 86.6295 69.9952 86.6618 69.8372C86.6999 69.6785 86.7158 69.508 86.7094 69.3256C86.7081 69.1366 86.691 68.9409 86.6583 68.7383C86.6249 68.53 86.5947 68.3242 86.5678 68.1209C86.5531 68.0992 86.5454 68.0854 86.5446 68.0796C86.501 67.9731 86.5003 67.8786 86.5426 67.7962C86.59 67.7072 86.6557 67.6453 86.7397 67.6105C86.8238 67.5758 86.9121 67.573 87.0046 67.6021C87.1021 67.6247 87.1727 67.6892 87.2164 67.7957ZM99.86 71.3192C99.951 71.248 100.042 71.2241 100.134 71.2474C100.232 71.27 100.306 71.3193 100.358 71.3952C100.414 71.4646 100.443 71.5465 100.443 71.641C100.444 71.7355 100.399 71.8183 100.308 71.8894C99.9535 72.1608 99.6056 72.3901 99.2639 72.5771C98.9214 72.7583 98.5729 72.9167 98.2185 73.0522C97.8633 73.1819 97.4942 73.2957 97.1111 73.3937C96.7331 73.485 96.3278 73.5711 95.8952 73.652C95.6129 73.707 95.319 73.7636 95.0134 73.8218C94.7136 73.8791 94.4133 73.91 94.1125 73.9143C93.8174 73.9178 93.5294 73.885 93.2484 73.8158C92.9724 73.74 92.7141 73.5968 92.4735 73.3863C92.2797 73.2169 92.1304 73.0268 92.0257 72.816C91.9202 72.5995 91.8518 72.3721 91.8203 72.134C91.788 71.89 91.7873 71.6389 91.8182 71.3807C91.8541 71.1159 91.9136 70.8509 91.9968 70.5858C91.8856 70.5945 91.7989 70.5646 91.7367 70.496C91.6736 70.4216 91.6364 70.3408 91.6248 70.2537C91.6191 70.1658 91.6378 70.0836 91.6809 70.0069C91.7297 69.9295 91.8123 69.8832 91.9284 69.8678C91.9923 69.8594 92.0533 69.8513 92.1114 69.8436C92.1695 69.8359 92.2309 69.8308 92.2955 69.8281C92.4345 69.5379 92.592 69.2541 92.7681 68.9766C92.9442 68.6992 93.1291 68.4442 93.323 68.2117C93.5168 67.9792 93.7138 67.77 93.9138 67.584C94.1138 67.3979 94.3068 67.2483 94.4927 67.135C94.7612 66.9754 95.0506 66.8396 95.3609 66.7277C95.6712 66.6157 95.9889 66.5383 96.3142 66.4953C96.6453 66.4515 96.9727 66.4466 97.2964 66.4806C97.6258 66.5139 97.9378 66.5938 98.2324 66.7204C98.4452 66.8104 98.5963 66.9471 98.6855 67.1303C98.7748 67.3136 98.8183 67.5088 98.8161 67.7159C98.814 67.9231 98.7737 68.1323 98.6952 68.3436C98.616 68.5491 98.5148 68.7221 98.3915 68.8625C98.0635 69.2428 97.6797 69.5359 97.24 69.7418C96.8061 69.9469 96.345 70.1024 95.8566 70.2084C95.3674 70.3085 94.8654 70.3779 94.3503 70.4164C93.8346 70.4491 93.3337 70.4829 92.8477 70.5176C92.8392 70.5423 92.8306 70.5671 92.8221 70.5919C92.8186 70.6101 92.8129 70.6345 92.8052 70.665C92.7107 70.979 92.6577 71.2933 92.6462 71.6081C92.6346 71.9229 92.6805 72.2034 92.784 72.4498C92.8868 72.6904 93.0567 72.8807 93.2939 73.0207C93.5304 73.1549 93.8556 73.2006 94.2695 73.1577C94.7772 73.1083 95.2771 73.0451 95.7694 72.9682C96.2608 72.8855 96.7397 72.7749 97.206 72.6364C97.6716 72.4921 98.1271 72.3166 98.5726 72.11C99.0174 71.8975 99.4465 71.6339 99.86 71.3192ZM94.4202 68.1287C94.1807 68.3732 93.9546 68.6306 93.7422 68.901C93.5297 69.1714 93.3402 69.4595 93.1738 69.7652C93.4433 69.7473 93.7157 69.729 93.991 69.7103C94.2663 69.6917 94.538 69.6676 94.806 69.638C95.079 69.6019 95.3479 69.5575 95.6128 69.5048C95.877 69.4462 96.1359 69.3706 96.3896 69.2779C96.5984 69.203 96.8064 69.1223 97.0137 69.0358C97.2259 68.9428 97.4137 68.8204 97.5768 68.6688C97.6873 68.5655 97.7765 68.4355 97.8444 68.2788C97.9182 68.1213 97.9542 67.9688 97.9524 67.8213C97.9564 67.673 97.9126 67.5428 97.821 67.4308C97.7293 67.3188 97.573 67.2538 97.3519 67.2357C97.0836 67.218 96.8176 67.2177 96.5539 67.2349C96.2902 67.252 96.0328 67.2949 95.7819 67.3635C95.5359 67.4256 95.2971 67.5193 95.0654 67.6445C94.8337 67.7697 94.6187 67.9311 94.4202 68.1287ZM106.802 64.1776C107.089 64.8725 107.362 65.5723 107.621 66.2769C107.885 66.9807 108.147 67.6849 108.406 68.3895C108.664 69.0941 108.928 69.795 109.198 70.4923C109.467 71.1895 109.754 71.8816 110.057 72.5684C110.108 72.68 110.109 72.7774 110.061 72.8606C110.012 72.9438 109.946 73.0027 109.862 73.0375C109.778 73.0722 109.69 73.078 109.599 73.0546C109.507 73.0313 109.436 72.9667 109.387 72.861C109.066 72.135 108.763 71.4068 108.477 70.6762C108.197 69.9449 107.923 69.2098 107.654 68.4712L103.742 68.9885C104.007 69.6981 104.271 70.4019 104.535 71.0999C104.805 71.7972 105.094 72.4918 105.405 73.1836C105.455 73.2952 105.456 73.3926 105.408 73.4758C105.365 73.5582 105.302 73.6168 105.218 73.6516C105.134 73.6863 105.043 73.6924 104.946 73.6698C104.854 73.6465 104.783 73.582 104.734 73.4762C104.43 72.7894 104.144 72.0973 103.874 71.4001C103.604 70.697 103.34 69.9932 103.081 69.2886C102.822 68.584 102.564 67.8823 102.306 67.1835C102.048 66.4789 101.775 65.7792 101.488 65.0842C101.444 64.9777 101.443 64.8832 101.486 64.8008C101.533 64.7118 101.599 64.6499 101.683 64.6151C101.767 64.5804 101.855 64.5747 101.947 64.598C102.044 64.6206 102.115 64.6851 102.158 64.7916C102.394 65.3692 102.622 65.9508 102.841 66.5365C103.06 67.1164 103.276 67.6996 103.489 68.286L107.401 67.7687C107.198 67.2105 106.992 66.6586 106.784 66.1128C106.58 65.5604 106.366 65.0125 106.141 64.469C106.097 64.3625 106.096 64.268 106.139 64.1856C106.186 64.0965 106.252 64.0347 106.336 63.9999C106.42 63.9652 106.508 63.9594 106.599 63.9828C106.691 64.0061 106.759 64.071 106.802 64.1776ZM118.96 64.2279C119.152 64.6931 119.335 65.1624 119.51 65.6357C119.685 66.1091 119.857 66.5828 120.026 67.0569C120.201 67.5303 120.379 68.0032 120.559 68.4758C120.745 68.9418 120.939 69.4038 121.141 69.8617C121.191 69.9674 121.192 70.0619 121.143 70.1451C121.101 70.2275 121.038 70.2861 120.954 70.3209C120.87 70.3556 120.779 70.3617 120.681 70.3392C120.59 70.3158 120.519 70.2513 120.47 70.1455C120.285 69.7326 120.109 69.3185 119.942 68.9032C119.78 68.4814 119.621 68.0591 119.464 67.6365C119.308 67.2139 119.151 66.7913 118.995 66.3687C118.845 65.9454 118.688 65.5227 118.526 65.1009C117.805 66.0414 117.087 66.9786 116.371 67.9125C115.661 68.8457 114.946 69.7825 114.225 70.723C114.139 70.8348 114.027 70.8821 113.889 70.8649C113.756 70.8412 113.661 70.7681 113.603 70.6457C113.395 70.1885 113.201 69.7266 113.021 69.2598C112.84 68.7872 112.662 68.3143 112.487 67.8409C112.318 67.3668 112.146 66.8931 111.971 66.4197C111.797 65.9464 111.613 65.4771 111.422 65.0119C111.378 64.9053 111.378 64.8109 111.42 64.7284C111.467 64.6394 111.533 64.5775 111.617 64.5428C111.701 64.508 111.789 64.5052 111.882 64.5344C111.979 64.5569 112.05 64.6215 112.094 64.728C112.267 65.1483 112.432 65.5698 112.589 65.9924C112.745 66.415 112.899 66.8379 113.049 67.2613C113.205 67.6839 113.362 68.1065 113.518 68.5291C113.68 68.951 113.851 69.3687 114.03 69.7825C114.75 68.842 115.469 67.9048 116.185 66.9709C116.9 66.0311 117.617 65.091 118.338 64.1505C118.379 64.0979 118.43 64.0616 118.492 64.0415C118.554 64.0156 118.615 64.0076 118.675 64.0173C118.735 64.0212 118.791 64.0434 118.844 64.0837C118.896 64.1182 118.934 64.1663 118.96 64.2279ZM128.744 61.2763C128.751 61.2872 128.778 61.3575 128.825 61.4873C128.871 61.6112 128.93 61.7689 129.003 61.9602C129.075 62.1458 129.156 62.3567 129.246 62.593C129.336 62.8235 129.422 63.0514 129.505 63.2769C129.594 63.5015 129.675 63.7154 129.75 63.9183C129.829 64.1205 129.892 64.2836 129.938 64.4076C129.968 64.4095 130 64.4082 130.035 64.4036C130.07 64.399 130.102 64.3948 130.131 64.3909C130.247 64.3756 130.34 64.4047 130.409 64.4784C130.477 64.5462 130.517 64.6266 130.529 64.7195C130.541 64.8066 130.522 64.8918 130.474 64.975C130.425 65.0524 130.343 65.0988 130.227 65.1141L130.201 65.1176C130.48 65.8904 130.765 66.6565 131.054 67.4162C131.343 68.17 131.655 68.9207 131.99 69.6683C132.041 69.7799 132.042 69.8773 131.994 69.9605C131.951 70.0429 131.888 70.1015 131.804 70.1363C131.72 70.171 131.629 70.1771 131.532 70.1546C131.44 70.1312 131.369 70.0638 131.319 69.9522C130.997 69.2204 130.693 68.4864 130.407 67.75C130.12 67.0078 129.84 66.2587 129.569 65.5025C129.047 65.9794 128.508 66.4378 127.951 66.8779C127.394 67.3121 126.83 67.7383 126.258 68.1567C125.687 68.575 125.113 68.9908 124.535 69.4041C123.956 69.8116 123.385 70.227 122.82 70.6504C122.729 70.7215 122.635 70.7458 122.537 70.7232C122.445 70.6941 122.37 70.6448 122.314 70.5755C122.262 70.4995 122.236 70.4143 122.236 70.3198C122.235 70.2253 122.28 70.1425 122.371 70.0714C122.909 69.6693 123.454 69.2722 124.005 68.8802C124.556 68.4882 125.104 68.0966 125.649 67.7053C126.199 67.3075 126.74 66.9021 127.27 66.4891C127.801 66.0762 128.317 65.6444 128.819 65.1939C128.541 65.1952 128.254 65.1917 127.958 65.1837C127.66 65.1698 127.37 65.1432 127.087 65.1037C126.803 65.0585 126.538 64.999 126.292 64.9251C126.046 64.8513 125.838 64.7576 125.67 64.6439C125.506 64.5237 125.39 64.3796 125.32 64.2114C125.256 64.0426 125.263 63.8437 125.339 63.615C125.419 63.3739 125.556 63.1607 125.751 62.9754C125.944 62.7843 126.162 62.6196 126.403 62.4813C126.644 62.3371 126.894 62.2154 127.153 62.1162C127.411 62.0111 127.65 61.9175 127.869 61.8353C127.914 61.8175 127.96 61.8027 128.005 61.7907C128.051 61.7788 128.096 61.7639 128.141 61.7461C128.126 61.7186 128.113 61.6907 128.104 61.6625C128.099 61.6276 128.089 61.5964 128.074 61.5689C128.03 61.4624 128.029 61.3679 128.072 61.2855C128.119 61.1965 128.185 61.1346 128.269 61.0998C128.353 61.0651 128.441 61.0594 128.532 61.0827C128.63 61.1053 128.7 61.1698 128.744 61.2763ZM129.181 64.4457C129.051 64.0904 128.919 63.7414 128.785 63.3986C128.656 63.0492 128.521 62.6977 128.38 62.344C127.99 62.4784 127.615 62.6344 127.254 62.8121C126.899 62.989 126.585 63.2049 126.311 63.4598C126.164 63.5975 126.091 63.7194 126.093 63.8255C126.101 63.925 126.153 64.0097 126.251 64.0795C126.355 64.1485 126.489 64.2046 126.655 64.2478C126.826 64.2901 126.999 64.3263 127.174 64.3563C127.355 64.3798 127.526 64.3985 127.687 64.4127C127.848 64.421 127.97 64.4256 128.052 64.4264C128.242 64.4309 128.429 64.4357 128.613 64.441C128.803 64.4454 128.992 64.447 129.181 64.4457ZM27.8886 101.767C27.662 100.054 27.4354 98.3399 27.2088 96.6263C26.9823 94.9127 26.7009 93.2093 26.3647 91.5161C26.3435 91.4007 26.364 91.3094 26.426 91.2421C26.488 91.1747 26.5626 91.1353 26.6497 91.1238C26.7427 91.1115 26.8307 91.1294 26.9139 91.1775C27.0029 91.2249 27.0609 91.3059 27.0879 91.4205C27.2762 92.3531 27.4409 93.2858 27.582 94.2187C27.7281 95.1451 27.8663 96.0784 27.9966 97.0186C28.2166 96.895 28.4257 96.755 28.6237 96.5988C28.8217 96.4426 29.0197 96.2864 29.2178 96.1302C29.4158 95.974 29.6179 95.8261 29.824 95.6865C30.0294 95.5412 30.2524 95.4171 30.4929 95.3144C30.9175 95.1282 31.3444 94.9595 31.7736 94.8082C32.2078 94.6503 32.638 94.4841 33.0641 94.3095C33.1706 94.2659 33.2654 94.2681 33.3486 94.3162C33.4376 94.3635 33.4995 94.4292 33.5343 94.5133C33.569 94.5974 33.5718 94.6856 33.5427 94.7782C33.5194 94.8699 33.4544 94.9376 33.3479 94.9812C33.1066 95.0781 32.8616 95.1696 32.6129 95.2557C32.3642 95.3418 32.1159 95.4308 31.868 95.5227C31.6201 95.6145 31.373 95.7122 31.1266 95.8157C30.8853 95.9127 30.6521 96.0262 30.427 96.1565C30.1569 96.3045 29.9074 96.4734 29.6783 96.6633C29.4485 96.8473 29.2158 97.0318 28.9802 97.2166C29.4463 97.3441 29.8966 97.5092 30.3312 97.7118C30.765 97.9085 31.1946 98.1177 31.6199 98.3393C32.0452 98.5608 32.4705 98.7824 32.8957 99.0039C33.3268 99.2247 33.7719 99.417 34.2309 99.5809C34.3424 99.6194 34.4101 99.6843 34.434 99.7757C34.4572 99.8613 34.4509 99.9479 34.4151 100.035C34.3845 100.116 34.3253 100.183 34.2378 100.236C34.1553 100.282 34.0583 100.286 33.9468 100.248C33.4448 100.072 32.9585 99.8585 32.4879 99.6075C32.0174 99.3565 31.5476 99.1113 31.0786 98.8718C30.6088 98.6266 30.1301 98.4033 29.6424 98.2018C29.1548 98.0003 28.6428 97.8611 28.1066 97.7842C28.1927 98.4348 28.2754 99.0829 28.3549 99.7285C28.4401 100.373 28.5228 101.021 28.6031 101.673C28.6184 101.789 28.5922 101.881 28.5244 101.949C28.4565 102.017 28.3761 102.057 28.2832 102.07C28.1961 102.081 28.1109 102.063 28.0277 102.015C27.9503 101.966 27.9039 101.883 27.8886 101.767ZM37.8367 92.4816C38.2603 92.8689 38.6651 93.2704 39.051 93.6863C39.4428 94.1014 39.8266 94.5235 40.2025 94.9526C40.5842 95.3808 40.9605 95.8128 41.3314 96.2484C41.7072 96.6774 42.0911 97.0995 42.4829 97.5146C42.5656 97.6042 42.5953 97.6948 42.572 97.7865C42.5537 97.8717 42.507 97.9429 42.4318 98.0001C42.3617 98.0508 42.2768 98.0797 42.1773 98.087C42.077 98.0884 41.9888 98.0469 41.9126 97.9624C41.5831 97.6159 41.2586 97.2628 40.9392 96.9031C40.6248 96.5369 40.3108 96.1735 39.9972 95.8131C39.6835 95.4526 39.3645 95.0959 39.04 94.7428C38.7206 94.3831 38.3907 94.0337 38.0503 93.6945C37.808 94.6781 37.5682 95.6585 37.331 96.6355C37.0988 97.6059 36.8342 98.5777 36.5373 99.5508C36.4989 99.6623 36.4372 99.7325 36.3524 99.7614C36.2668 99.7846 36.1803 99.7783 36.0928 99.7426C36.0112 99.7061 35.9442 99.647 35.892 99.5652C35.8391 99.4776 35.8289 99.3785 35.8616 99.2678C36.1763 98.251 36.4551 97.2301 36.6978 96.205C36.9463 95.1792 37.1974 94.1501 37.451 93.1177C37.4378 93.1076 37.4279 93.1001 37.4214 93.095C37.4198 93.0834 37.4125 93.0726 37.3993 93.0625C37.3123 92.9854 37.271 92.8963 37.2753 92.7952C37.2797 92.6941 37.3067 92.6078 37.3563 92.5362C37.4118 92.4639 37.4827 92.4191 37.5691 92.4017C37.6605 92.3778 37.7497 92.4044 37.8367 92.4816ZM51.7081 91.2769C51.8996 91.7422 52.0828 92.2114 52.2577 92.6848C52.4326 93.1581 52.6046 93.6319 52.7737 94.106C52.9485 94.5793 53.1263 95.0523 53.307 95.5249C53.4928 95.9909 53.6868 96.4528 53.8892 96.9107C53.9387 97.0165 53.9393 97.1109 53.8912 97.1941C53.8489 97.2766 53.7858 97.3352 53.7017 97.3699C53.6176 97.4047 53.5268 97.4108 53.4293 97.3882C53.3376 97.3649 53.267 97.3003 53.2175 97.1946C53.0329 96.7816 52.857 96.3675 52.6898 95.9523C52.5276 95.5304 52.3683 95.1082 52.212 94.6856C52.0556 94.263 51.8993 93.8404 51.7429 93.4178C51.5924 92.9944 51.436 92.5718 51.2739 92.15C50.553 93.0905 49.8347 94.0277 49.1189 94.9616C48.409 95.8947 47.6936 96.8316 46.9727 97.7721C46.887 97.8839 46.7751 97.9312 46.6369 97.914C46.5037 97.8902 46.4083 97.8171 46.3508 97.6947C46.1426 97.2376 45.9485 96.7756 45.7686 96.3089C45.5879 95.8363 45.4101 95.3633 45.2352 94.89C45.0661 94.4159 44.8942 93.9421 44.7193 93.4688C44.5444 92.9954 44.3612 92.5261 44.1696 92.0609C44.126 91.9544 44.1253 91.8599 44.1676 91.7775C44.2149 91.6885 44.2806 91.6266 44.3647 91.5918C44.4488 91.5571 44.5371 91.5543 44.6296 91.5834C44.7271 91.606 44.7977 91.6705 44.8413 91.7771C45.0151 92.1974 45.1802 92.6188 45.3365 93.0414C45.4929 93.464 45.6463 93.887 45.7969 94.3104C45.9533 94.733 46.1096 95.1556 46.266 95.5782C46.4281 96 46.5986 96.4178 46.7774 96.8315C47.4983 95.891 48.2166 94.9538 48.9324 94.0199C49.6474 93.0802 50.3653 92.1401 51.0861 91.1996C51.1265 91.147 51.1778 91.1106 51.2402 91.0906C51.3018 91.0647 51.3627 91.0566 51.4231 91.0664C51.4828 91.0703 51.5389 91.0924 51.5915 91.1328C51.6433 91.1673 51.6822 91.2153 51.7081 91.2769ZM64.0346 94.2128C64.1257 94.1417 64.2171 94.1178 64.3089 94.1411C64.4064 94.1637 64.4809 94.2129 64.5323 94.2889C64.5888 94.3582 64.6173 94.4402 64.618 94.5346C64.6187 94.6291 64.5735 94.7119 64.4824 94.7831C64.1282 95.0545 63.7802 95.2837 63.4385 95.4708C63.0961 95.652 62.7476 95.8103 62.3932 95.9459C62.038 96.0756 61.6688 96.1894 61.2858 96.2873C60.9078 96.3787 60.5025 96.4648 60.0699 96.5456C59.7876 96.6007 59.4936 96.6573 59.1881 96.7154C58.8883 96.7728 58.588 96.8036 58.2871 96.8079C57.9921 96.8115 57.704 96.7787 57.423 96.7094C57.147 96.6336 56.8887 96.4905 56.6481 96.28C56.4543 96.1105 56.3051 95.9205 56.2004 95.7097C56.0949 95.4931 56.0264 95.2658 55.9949 95.0276C55.9627 94.7837 55.962 94.5326 55.9928 94.2743C56.0288 94.0095 56.0883 93.7445 56.1714 93.4794C56.0603 93.4882 55.9736 93.4583 55.9113 93.3897C55.8483 93.3153 55.811 93.2345 55.7995 93.1474C55.7938 93.0595 55.8125 92.9772 55.8555 92.9006C55.9044 92.8232 55.9869 92.7768 56.1031 92.7615C56.167 92.753 56.228 92.745 56.2861 92.7373C56.3442 92.7296 56.4055 92.7244 56.4702 92.7218C56.6091 92.4315 56.7667 92.1477 56.9427 91.8703C57.1188 91.5928 57.3038 91.3379 57.4977 91.1054C57.6915 90.8729 57.8884 90.6636 58.0884 90.4776C58.2884 90.2916 58.4814 90.1419 58.6674 90.0287C58.9359 89.8691 59.2253 89.7333 59.5356 89.6213C59.8458 89.5094 60.1636 89.4319 60.4889 89.3889C60.82 89.3451 61.1474 89.3403 61.471 89.3743C61.8005 89.4076 62.1125 89.4875 62.407 89.614C62.6199 89.7041 62.7709 89.8407 62.8602 90.024C62.9494 90.2072 62.993 90.4024 62.9908 90.6096C62.9886 90.8167 62.9483 91.026 62.8699 91.2373C62.7907 91.4428 62.6894 91.6158 62.5662 91.7562C62.2382 92.1364 61.8543 92.4295 61.4146 92.6354C60.9808 92.8405 60.5196 92.9961 60.0312 93.102C59.5421 93.2022 59.04 93.2715 58.525 93.3101C58.0092 93.3428 57.5083 93.3765 57.0224 93.4112C57.0138 93.436 57.0053 93.4608 56.9967 93.4855C56.9932 93.5037 56.9876 93.5281 56.9798 93.5587C56.8854 93.8726 56.8324 94.187 56.8208 94.5017C56.8092 94.8165 56.8552 95.0971 56.9587 95.3435C57.0614 95.584 57.2314 95.7743 57.4686 95.9144C57.705 96.0486 58.0302 96.0942 58.4442 96.0513C58.9519 96.0019 59.4518 95.9388 59.944 95.8619C60.4355 95.7792 60.9144 95.6686 61.3807 95.5301C61.8463 95.3858 62.3018 95.2103 62.7473 95.0036C63.192 94.7911 63.6212 94.5275 64.0346 94.2128ZM58.5949 91.0224C58.3553 91.2668 58.1293 91.5243 57.9168 91.7947C57.7043 92.0651 57.5149 92.3532 57.3484 92.6589C57.618 92.641 57.8904 92.6227 58.1657 92.604C58.441 92.5853 58.7127 92.5612 58.9806 92.5317C59.2536 92.4956 59.5226 92.4512 59.7875 92.3984C60.0516 92.3398 60.3106 92.2642 60.5643 92.1716C60.7731 92.0967 60.9811 92.016 61.1883 91.9295C61.4006 91.8364 61.5883 91.7141 61.7515 91.5625C61.862 91.4592 61.9512 91.3292 62.0191 91.1725C62.0928 91.015 62.1288 90.8624 62.127 90.7149C62.1311 90.5666 62.0873 90.4365 61.9956 90.3245C61.904 90.2125 61.7476 90.1474 61.5266 90.1294C61.2582 90.1117 60.9922 90.1114 60.7285 90.1285C60.4648 90.1457 60.2075 90.1886 59.9565 90.2572C59.7106 90.3193 59.4718 90.4129 59.2401 90.5381C59.0084 90.6633 58.7933 90.8247 58.5949 91.0224ZM70.9771 87.0712C71.2641 87.7662 71.5369 88.4659 71.7955 89.1705C72.06 89.8744 72.3216 90.5786 72.5802 91.2832C72.8389 91.9878 73.1029 92.6887 73.3724 93.3859C73.642 94.0832 73.9285 94.7752 74.2321 95.4621C74.2823 95.5736 74.2834 95.671 74.2353 95.7542C74.1872 95.8374 74.1211 95.8964 74.037 95.9311C73.953 95.9659 73.8651 95.9716 73.7733 95.9483C73.6816 95.9249 73.611 95.8604 73.5615 95.7546C73.2409 95.0287 72.9378 94.3004 72.6521 93.5698C72.3721 92.8385 72.0976 92.1035 71.8286 91.3648L67.9163 91.8821C68.1816 92.5918 68.446 93.2956 68.7097 93.9936C68.9792 94.6909 69.2691 95.3854 69.5792 96.0773C69.6294 96.1889 69.6305 96.2862 69.5824 96.3694C69.5401 96.4519 69.4769 96.5105 69.3929 96.5452C69.3088 96.58 69.218 96.5861 69.1204 96.5635C69.0287 96.5402 68.9581 96.4756 68.9087 96.3699C68.6051 95.683 68.3185 94.991 68.049 94.2937C67.7788 93.5907 67.5143 92.8868 67.2556 92.1822C66.997 91.4777 66.7387 90.776 66.4808 90.0772C66.2222 89.3726 65.9494 88.6728 65.6624 87.9779C65.6188 87.8713 65.6181 87.7769 65.6604 87.6944C65.7078 87.6054 65.7735 87.5435 65.8575 87.5088C65.9416 87.474 66.0295 87.4683 66.1212 87.4917C66.2188 87.5142 66.2894 87.5788 66.333 87.6853C66.5689 88.2629 66.7966 88.8445 67.0159 89.4302C67.2344 90.01 67.4504 90.5932 67.6639 91.1797L71.5761 90.6624C71.3723 90.1042 71.1663 89.5522 70.9582 89.0064C70.7551 88.454 70.5408 87.9061 70.3153 87.3626C70.2717 87.2561 70.271 87.1616 70.3133 87.0792C70.3606 86.9902 70.4263 86.9283 70.5104 86.8936C70.5944 86.8588 70.6823 86.8531 70.7741 86.8764C70.8658 86.8998 70.9335 86.9647 70.9771 87.0712ZM83.8878 86.4457C84.004 86.4303 84.0961 86.4566 84.1642 86.5244C84.2323 86.5923 84.2724 86.6726 84.2847 86.7656C84.2962 86.8527 84.278 86.9379 84.2299 87.0211C84.1817 87.1043 84.0996 87.1535 83.9834 87.1689L79.9318 87.7046C80.3569 88.8187 80.7707 89.9372 81.1734 91.0601C81.581 92.1764 82.0282 93.2787 82.5149 94.3669C82.5651 94.4784 82.5662 94.5758 82.518 94.659C82.4699 94.7422 82.4039 94.8012 82.3198 94.836C82.2357 94.8707 82.1478 94.8764 82.0561 94.8531C81.9644 94.8298 81.8938 94.7652 81.8443 94.6595C81.5933 94.1016 81.3534 93.5393 81.1248 92.9726C80.9012 92.3993 80.6835 91.8252 80.4715 91.2504C80.2596 90.6756 80.0477 90.1007 79.8357 89.5259C79.6238 88.9511 79.4089 88.3766 79.1912 87.8026L74.2333 88.4581C74.1172 88.4735 74.025 88.4472 73.957 88.3794C73.8889 88.3116 73.8491 88.2341 73.8376 88.147C73.8253 88.054 73.8432 87.9659 73.8913 87.8827C73.9394 87.7996 74.0215 87.7503 74.1377 87.7349L78.9213 87.1024C78.8672 86.9618 78.8135 86.8241 78.7603 86.6893C78.7062 86.5487 78.6492 86.4084 78.5894 86.2686C78.5457 86.1621 78.5451 86.0676 78.5874 85.9852C78.6347 85.8962 78.7004 85.8343 78.7845 85.7995C78.8685 85.7648 78.9564 85.7591 79.0482 85.7824C79.1457 85.805 79.2163 85.8695 79.2599 85.976C79.3302 86.15 79.3976 86.3243 79.4621 86.499C79.5316 86.6671 79.6011 86.8352 79.6706 87.0033L83.8878 86.4457ZM91.9245 88.9204C91.937 89.2379 91.8956 89.5507 91.8004 89.8589C91.7052 90.167 91.5647 90.4456 91.379 90.6947C91.1932 90.9439 90.9636 91.1516 90.69 91.3178C90.4223 91.4832 90.1188 91.5795 89.7796 91.6066C89.452 91.6322 89.1287 91.601 88.8098 91.5132C88.4908 91.4253 88.1981 91.2897 87.9315 91.1063C87.6699 90.9162 87.4532 90.6849 87.2812 90.4121C87.1084 90.1335 87.0077 89.8188 86.979 89.468C86.9542 89.1462 86.9857 88.8258 87.0736 88.5068C87.1607 88.1821 87.2963 87.8893 87.4805 87.6285C87.6705 87.367 87.9048 87.1498 88.1834 86.9771C88.462 86.8043 88.7767 86.7036 89.1275 86.6749C89.4667 86.6478 89.7867 86.6764 90.0875 86.7608C90.3941 86.8443 90.6686 86.9765 90.9112 87.1572C91.153 87.3321 91.3595 87.553 91.5308 87.82C91.7012 88.0811 91.8233 88.3782 91.8969 88.7113C91.8984 88.7229 91.9003 88.7374 91.9026 88.7549C91.9107 88.7715 91.9163 88.7915 91.9194 88.8147C91.9217 88.8321 91.9211 88.8499 91.9176 88.8681C91.9199 88.8856 91.9222 88.903 91.9245 88.9204ZM87.7022 89.3723C87.7688 89.7418 87.9061 90.0428 88.1142 90.2753C88.3273 90.5013 88.5672 90.6617 88.8338 90.7564C89.0997 90.8454 89.3779 90.8707 89.6684 90.8323C89.9646 90.7931 90.2292 90.6931 90.4621 90.5323C90.6949 90.3715 90.8824 90.1575 91.0244 89.8905C91.1656 89.6177 91.2229 89.291 91.1962 88.9103C91.1419 88.6338 91.0458 88.3983 90.9077 88.2038C90.769 88.0034 90.6032 87.8451 90.4105 87.7287C90.2236 87.6116 90.0181 87.5324 89.794 87.4911C89.5756 87.449 89.3561 87.4426 89.1354 87.4718C88.9146 87.501 88.7072 87.5638 88.5131 87.6604C88.319 87.757 88.1528 87.8854 88.0144 88.0455C87.876 88.2057 87.7745 88.3994 87.71 88.6266C87.6505 88.8472 87.6479 89.0958 87.7022 89.3723ZM98.6461 88.4218C98.8996 88.5064 99.164 88.5838 99.4392 88.6538C99.7194 88.7172 99.9976 88.7868 100.274 88.8626C100.55 88.9384 100.818 89.027 101.08 89.1283C101.341 89.2239 101.582 89.3486 101.803 89.5026C101.868 89.5472 101.912 89.6065 101.933 89.6804C101.954 89.7486 101.954 89.8166 101.934 89.8843C101.912 89.9462 101.876 90.0043 101.824 90.0584C101.772 90.1126 101.708 90.1446 101.632 90.1546C101.233 90.2192 100.839 90.298 100.449 90.3909C100.065 90.483 99.6899 90.5947 99.3231 90.7259C98.9563 90.8572 98.5983 91.0109 98.2493 91.1871C97.9002 91.3633 97.5612 91.5706 97.2322 91.8092C97.2743 91.9041 97.3139 92.0023 97.3509 92.1038C97.393 92.1987 97.4351 92.2936 97.4772 92.3885C97.5275 92.5001 97.5285 92.5974 97.4804 92.6806C97.4323 92.7638 97.3662 92.8228 97.2822 92.8576C97.1981 92.8923 97.1102 92.898 97.0185 92.8747C96.9267 92.8514 96.8557 92.7839 96.8055 92.6724C96.4865 91.958 96.1874 91.2381 95.9082 90.5125C95.6283 89.7812 95.3538 89.0462 95.0847 88.3075C95.0549 88.3056 95.0251 88.3036 94.9953 88.3016C94.9713 88.2989 94.9444 88.2965 94.9146 88.2946L94.9134 88.2858C94.8182 88.2807 94.7431 88.2493 94.6882 88.1915C94.6325 88.1279 94.5996 88.0584 94.5897 87.9829C94.5789 87.9016 94.5922 87.823 94.6294 87.7471C94.6659 87.6655 94.7295 87.6098 94.8201 87.5801C94.666 87.1749 94.512 86.7697 94.3579 86.3645C94.2089 85.9528 94.0545 85.5447 93.8946 85.1403C93.7827 85.1433 93.6708 85.1462 93.5589 85.1492C93.4463 85.1464 93.3369 85.1461 93.2308 85.1483C93.1131 85.152 93.0198 85.1171 92.951 85.0434C92.8821 84.9698 92.8415 84.8865 92.8293 84.7936C92.817 84.7006 92.8356 84.6184 92.8853 84.5468C92.9342 84.4694 93.0174 84.4288 93.1352 84.4251C93.218 84.4259 93.2951 84.4276 93.3663 84.43C93.4426 84.4258 93.5222 84.4242 93.605 84.425C93.5857 84.3685 93.568 84.3235 93.5517 84.2902C93.5081 84.1837 93.5103 84.0888 93.5584 84.0056C93.6058 83.9166 93.6715 83.8547 93.7555 83.82C93.8396 83.7852 93.9275 83.7795 94.0192 83.8029C94.111 83.8262 94.1787 83.8911 94.2223 83.9976C94.2555 84.0701 94.2854 84.14 94.3121 84.2074C94.3387 84.2748 94.3658 84.3451 94.3932 84.4183C94.7711 84.4156 95.1472 84.4221 95.5216 84.4376C95.896 84.4531 96.2728 84.486 96.6518 84.5364C96.8496 84.5575 97.0838 84.5856 97.3544 84.6208C97.6309 84.6551 97.9016 84.7139 98.1668 84.7971C98.4312 84.8744 98.6728 84.9813 98.8919 85.1179C99.1101 85.2486 99.2665 85.4259 99.3611 85.6498C99.4809 85.9295 99.4852 86.186 99.3742 86.4194C99.2625 86.6469 99.0801 86.8543 98.827 87.0414C98.5732 87.2227 98.2724 87.3837 97.9245 87.5242C97.5767 87.6648 97.2232 87.7854 96.8642 87.8861C97.1642 87.9646 97.462 88.0493 97.7577 88.1403C98.0535 88.2312 98.3496 88.325 98.6461 88.4218ZM98.1746 85.5939C97.6223 85.3951 97.0502 85.2698 96.4582 85.218C95.8713 85.1597 95.2762 85.129 94.6729 85.126C94.8247 85.5138 94.9702 85.8994 95.1096 86.2829C95.2548 86.6656 95.3974 87.0516 95.5375 87.4409C96.0724 87.3288 96.6044 87.1727 97.1335 86.9728C97.2241 86.943 97.3427 86.9008 97.4891 86.8459C97.6405 86.7845 97.7912 86.7173 97.9412 86.6443C98.0961 86.5647 98.2358 86.4812 98.3602 86.3939C98.4904 86.3057 98.5792 86.2172 98.6265 86.1282C98.6738 86.0392 98.6648 85.9487 98.5995 85.8569C98.54 85.7643 98.3983 85.6766 98.1746 85.5939ZM95.8989 88.4304C96.0649 88.8813 96.2338 89.3318 96.4056 89.7819C96.5766 90.2262 96.7539 90.6726 96.9373 91.1212C97.4732 90.7489 98.0303 90.4477 98.6087 90.2175C99.1928 89.9866 99.7973 89.7974 100.422 89.6498C100.071 89.5425 99.7126 89.448 99.3472 89.3663C98.9818 89.2846 98.6537 89.195 98.3631 89.0975C97.9551 88.9623 97.5454 88.8362 97.1339 88.7192C96.7283 88.6015 96.3166 88.5052 95.8989 88.4304Z" fill="black"/>
<defs>
<filter id="filter0_d_2008_4497" x="0" y="-0.000244141" width="220" height="220" filterUnits="userSpaceOnUse" color-interpolation-filters="sRGB">
<feFlood flood-opacity="0" result="BackgroundImageFix"/>
<feColorMatrix in="SourceAlpha" type="matrix" values="0 0 0 0 0 0 0 0 0 0 0 0 0 0 0 0 0 0 127 0" result="hardAlpha"/>
<feOffset dx="-2" dy="4"/>
<feGaussianBlur stdDeviation="2"/>
<feComposite in2="hardAlpha" operator="out"/>
<feColorMatrix type="matrix" values="0 0 0 0 0 0 0 0 0 0 0 0 0 0 0 0 0 0 0.1 0"/>
<feBlend mode="normal" in2="BackgroundImageFix" result="effect1_dropShadow_2008_4497"/>
<feBlend mode="normal" in="SourceGraphic" in2="effect1_dropShadow_2008_4497" result="shape"/>
</filter>
</defs>
</svg>
