<svg width="294" height="187" viewBox="0 0 294 187" fill="none" xmlns="http://www.w3.org/2000/svg">
<path d="M293.402 182.298C293.566 182.076 293.52 181.763 293.298 181.598L289.684 178.918C289.462 178.753 289.149 178.799 288.984 179.021C288.82 179.243 288.866 179.556 289.088 179.721L292.301 182.104L289.918 185.316C289.753 185.538 289.799 185.851 290.021 186.016C290.243 186.18 290.556 186.134 290.721 185.912L293.402 182.298ZM1.49989 1L1.01134 0.893583C0.671958 2.45166 0.490316 4.09958 0.459547 5.82857L0.959468 5.83747L1.45939 5.84636C1.48912 4.17586 1.66445 2.59378 1.98843 1.10642L1.49989 1ZM2.12055 15.4347L1.6342 15.5508C2.34505 18.5307 3.37039 21.6671 4.69151 24.934L5.15505 24.7466L5.61858 24.5591C4.3131 21.3308 3.30435 18.2425 2.60691 15.3187L2.12055 15.4347ZM9.25719 33.5376L8.81443 33.7698C10.2634 36.5317 11.8898 39.3637 13.6851 42.2531L14.1098 41.9893L14.5345 41.7254C12.7508 38.8546 11.1366 36.0437 9.69996 33.3053L9.25719 33.5376ZM19.5016 50.1194L19.0926 50.4071C20.9132 52.9944 22.855 55.6165 24.9125 58.2652L25.3074 57.9585L25.7022 57.6518C23.6538 55.0148 21.7215 52.4053 19.9105 49.8316L19.5016 50.1194ZM31.4501 65.5364L31.068 65.8589C33.1258 68.2969 35.2743 70.7504 37.5095 73.2134L37.8798 72.8774L38.2501 72.5413C36.0226 70.0869 33.882 67.6424 31.8322 65.2139L31.4501 65.5364ZM44.5618 79.9995L44.2027 80.3475C46.4382 82.6548 48.7458 84.9652 51.1222 87.2739L51.4706 86.9153L51.819 86.5567C49.4497 84.2549 47.1493 81.9515 44.9209 79.6516L44.5618 79.9995ZM58.5615 93.6096L58.2234 93.978C60.5885 96.1486 63.012 98.3135 65.4911 100.468L65.8192 100.091L66.1472 99.7135C63.6747 97.5646 61.258 95.4057 58.8996 93.2412L58.5615 93.6096ZM73.2606 106.389L72.9426 106.775C75.4356 108.829 77.9778 110.871 80.5668 112.896L80.8748 112.502L81.1829 112.108C78.6005 110.089 76.065 108.052 73.5787 106.003L73.2606 106.389ZM88.6492 118.425L88.3512 118.827C90.9422 120.75 93.5749 122.654 96.2468 124.535L96.5347 124.126L96.8225 123.717C94.1574 121.841 91.5315 119.942 88.9471 118.024L88.6492 118.425ZM104.576 129.639L104.299 130.055C106.997 131.855 109.73 133.63 112.498 135.377L112.764 134.954L113.031 134.531C110.271 132.789 107.545 131.018 104.854 129.223L104.576 129.639ZM121.079 140.056L120.823 140.486C123.609 142.146 126.424 143.776 129.269 145.373L129.514 144.937L129.758 144.501C126.922 142.909 124.113 141.283 121.335 139.627L121.079 140.056ZM138.083 149.599L137.849 150.041C140.726 151.557 143.629 153.036 146.556 154.477L146.777 154.029L146.998 153.58C144.079 152.143 141.184 150.668 138.316 149.156L138.083 149.599ZM155.582 158.211L155.374 158.665C158.332 160.019 161.313 161.332 164.314 162.601L164.508 162.14L164.703 161.68C161.711 160.415 158.74 159.106 155.79 157.756L155.582 158.211ZM173.548 165.802L173.367 166.268C176.403 167.445 179.458 168.574 182.529 169.654L182.695 169.182L182.86 168.71C179.8 167.634 176.755 166.509 173.728 165.336L173.548 165.802ZM191.948 172.265L191.798 172.742C194.906 173.721 198.029 174.646 201.164 175.516L201.298 175.034L201.431 174.552C198.307 173.686 195.196 172.764 192.098 171.788L191.948 172.265ZM210.737 177.471L210.62 177.957C213.793 178.715 216.976 179.413 220.168 180.049L220.266 179.559L220.363 179.068C217.184 178.435 214.013 177.739 210.853 176.985L210.737 177.471ZM229.865 181.275L229.786 181.769C233.006 182.279 236.232 182.722 239.464 183.097L239.521 182.601L239.579 182.104C236.362 181.731 233.149 181.289 229.943 180.781L229.865 181.275ZM249.231 183.515L249.195 184.013C252.447 184.248 255.701 184.409 258.956 184.496L258.97 183.996L258.983 183.496C255.743 183.41 252.504 183.249 249.267 183.016L249.231 183.515ZM268.718 184.025L268.729 184.525C271.986 184.456 275.242 184.31 278.495 184.081L278.46 183.582L278.425 183.083C275.188 183.311 271.949 183.457 268.708 183.525L268.718 184.025ZM288.161 182.653L288.222 183.149C289.84 182.952 291.458 182.734 293.073 182.495L293 182L292.927 181.505C291.32 181.744 289.711 181.961 288.101 182.157L288.161 182.653Z" fill="#AFAFAF"/>
<path d="M118.532 102.128C118.532 103.239 118.215 104.084 117.58 104.662C116.945 105.232 116.045 105.516 114.878 105.516C112.619 105.516 111.476 104.438 111.448 102.282H112.764C112.773 102.954 112.965 103.463 113.338 103.808C113.721 104.154 114.248 104.326 114.92 104.326C115.601 104.326 116.129 104.144 116.502 103.78C116.885 103.407 117.076 102.856 117.076 102.128V100.364C116.889 100.775 116.553 101.116 116.068 101.386C115.583 101.648 115.013 101.778 114.36 101.778C113.436 101.778 112.713 101.498 112.19 100.938C111.667 100.369 111.406 99.5103 111.406 98.3623V95.8983H112.876V98.3483C112.876 99.0857 113.058 99.6363 113.422 100C113.786 100.364 114.276 100.546 114.892 100.546C115.545 100.546 116.073 100.355 116.474 99.9723C116.875 99.5803 117.076 99.0437 117.076 98.3623V95.8983H118.532V102.128ZM124.277 102.702H125.691C125.588 103.505 125.252 104.154 124.683 104.648C124.114 105.134 123.414 105.376 122.583 105.376C121.659 105.376 120.917 105.059 120.357 104.424C119.797 103.78 119.517 102.861 119.517 101.666C119.517 100.481 119.797 99.5943 120.357 99.0063C120.917 98.4183 121.678 98.1243 122.639 98.1243C123.516 98.1243 124.23 98.3577 124.781 98.8243C125.332 99.291 125.64 99.9397 125.705 100.77H124.291C124.235 100.294 124.058 99.9303 123.759 99.6783C123.46 99.4263 123.087 99.3003 122.639 99.3003C122.116 99.3003 121.696 99.4917 121.379 99.8743C121.071 100.248 120.917 100.84 120.917 101.652C120.917 102.483 121.076 103.118 121.393 103.556C121.71 103.986 122.126 104.2 122.639 104.2C123.059 104.2 123.423 104.07 123.731 103.808C124.048 103.538 124.23 103.169 124.277 102.702ZM133.119 105.194H131.747V99.4403H129.353L129.255 101.134C129.19 102.282 129.055 103.15 128.849 103.738C128.644 104.317 128.373 104.704 128.037 104.9C127.701 105.096 127.221 105.194 126.595 105.194H126.357V104.074H126.525C126.899 104.074 127.183 104.009 127.379 103.878C127.585 103.748 127.757 103.463 127.897 103.024C128.037 102.576 128.131 101.923 128.177 101.064L128.345 98.3063H133.119V105.194ZM137.562 104.2C138.206 104.2 138.7 103.99 139.046 103.57C139.391 103.15 139.564 102.544 139.564 101.75C139.564 100.966 139.391 100.364 139.046 99.9443C138.71 99.5243 138.215 99.3143 137.562 99.3143C136.908 99.3143 136.409 99.5243 136.064 99.9443C135.718 100.364 135.546 100.966 135.546 101.75C135.546 102.534 135.718 103.141 136.064 103.57C136.409 103.99 136.908 104.2 137.562 104.2ZM137.548 105.376C136.484 105.376 135.644 105.045 135.028 104.382C134.412 103.71 134.104 102.833 134.104 101.75C134.104 100.649 134.416 99.7717 135.042 99.1183C135.667 98.4557 136.507 98.1243 137.562 98.1243C138.607 98.1243 139.438 98.4557 140.054 99.1183C140.67 99.7717 140.978 100.644 140.978 101.736C140.978 102.838 140.67 103.72 140.054 104.382C139.438 105.045 138.602 105.376 137.548 105.376ZM145.657 105.194H142.031V98.3063H145.965C146.74 98.3063 147.304 98.4603 147.659 98.7683C148.014 99.067 148.191 99.4637 148.191 99.9583C148.191 100.36 148.084 100.696 147.869 100.966C147.654 101.228 147.37 101.396 147.015 101.47C147.407 101.545 147.738 101.736 148.009 102.044C148.28 102.343 148.415 102.744 148.415 103.248C148.415 103.855 148.191 104.331 147.743 104.676C147.295 105.022 146.6 105.194 145.657 105.194ZM143.361 104.2H145.461C146.497 104.2 147.015 103.822 147.015 103.066C147.015 102.329 146.562 101.96 145.657 101.96H143.361V104.2ZM143.361 101.148H145.615C146.418 101.148 146.819 100.836 146.819 100.21C146.819 99.585 146.394 99.2723 145.545 99.2723H143.361V101.148ZM150.628 105.194H149.284V98.3063H150.656V103.346L153.96 98.3063H155.43V105.194H154.058V100.014L150.628 105.194ZM162.554 105.194H161.182V102.702H159.432L157.738 105.194H156.296L158.13 102.632C156.992 102.399 156.422 101.699 156.422 100.532C156.422 99.8323 156.632 99.2863 157.052 98.8943C157.472 98.5023 158.046 98.3063 158.774 98.3063H162.554V105.194ZM158.872 101.652H161.182V99.3703H158.872C158.48 99.3703 158.172 99.473 157.948 99.6783C157.724 99.8837 157.612 100.164 157.612 100.518C157.612 100.873 157.724 101.153 157.948 101.358C158.172 101.554 158.48 101.652 158.872 101.652Z" fill="black" fill-opacity="0.6"/>
</svg>
