<svg width="159" height="84" viewBox="0 0 159 84" fill="none" xmlns="http://www.w3.org/2000/svg">
<path d="M8.68559 27.888C8.37772 27.9287 8.0379 27.9737 7.66614 28.0228C7.29438 28.072 6.90655 28.1114 6.50267 28.1412C6.09802 28.1652 5.68855 28.175 5.27425 28.1706C4.86576 28.1656 4.47124 28.132 4.0907 28.07C3.71015 28.0081 3.35151 27.9107 3.0148 27.7779C2.68312 27.6385 2.39253 27.4523 2.14305 27.2194C1.89356 26.9864 1.69892 26.6989 1.55912 26.3568C1.41933 26.0148 1.35318 25.6039 1.36067 25.1242C1.36826 24.5558 1.49022 24.0254 1.72656 23.5332C1.9629 23.0409 2.27488 22.6066 2.66249 22.2303C3.05514 21.8474 3.50638 21.5277 4.01621 21.2711C4.52604 21.0146 5.05496 20.8353 5.60296 20.7333C6.15019 20.6255 6.70022 20.6059 7.25307 20.6747C7.80514 20.7376 8.31975 20.8971 8.79689 21.1532C8.89905 21.2106 8.95956 21.2883 8.97842 21.3863C9.0031 21.4835 8.99758 21.5759 8.96186 21.6633C8.93118 21.7442 8.8742 21.805 8.79091 21.8455C8.70762 21.8861 8.61489 21.8777 8.51273 21.8202C8.1246 21.6115 7.68507 21.4834 7.19416 21.4361C6.70247 21.3829 6.20548 21.4013 5.70319 21.4914C5.2009 21.5814 4.71653 21.74 4.2501 21.9672C3.78289 22.1885 3.37642 22.4669 3.03067 22.8022C2.68493 23.1375 2.42314 23.5268 2.24532 23.9699C2.06673 24.4073 2.01781 24.8866 2.09856 25.4078C2.17469 25.8942 2.33844 26.2833 2.5898 26.5752C2.8462 26.8604 3.15844 27.0762 3.5265 27.2226C3.8938 27.3632 4.30143 27.4511 4.74938 27.4865C5.19656 27.516 5.64861 27.5153 6.10554 27.4845C6.5617 27.4478 7.00432 27.3981 7.43341 27.3355C7.86753 27.2663 8.25305 27.2094 8.58996 27.1648C8.70614 27.1495 8.79826 27.1757 8.86634 27.2435C8.93441 27.3114 8.97459 27.3918 8.98688 27.4847C8.9984 27.5718 8.98011 27.657 8.93201 27.7402C8.8839 27.8234 8.80176 27.8727 8.68559 27.888ZM18.7804 19.9129C18.972 20.3782 19.1552 20.8475 19.3301 21.3208C19.5049 21.7942 19.6769 22.2679 19.846 22.742C20.0209 23.2154 20.1987 23.6883 20.3794 24.1609C20.5651 24.6269 20.7592 25.0888 20.9616 25.5467C21.011 25.6525 21.0117 25.747 20.9636 25.8302C20.9213 25.9126 20.8581 25.9712 20.774 26.0059C20.69 26.0407 20.5992 26.0468 20.5016 26.0242C20.4099 26.0009 20.3393 25.9364 20.2898 25.8306C20.1052 25.4176 19.9293 25.0035 19.7621 24.5883C19.5999 24.1664 19.4407 23.7442 19.2843 23.3216C19.128 22.899 18.9716 22.4764 18.8153 22.0538C18.6647 21.6304 18.5084 21.2078 18.3462 20.786C17.6254 21.7265 16.9071 22.6637 16.1913 23.5976C15.4813 24.5308 14.7659 25.4676 14.0451 26.4081C13.9594 26.5199 13.8474 26.5672 13.7092 26.55C13.576 26.5262 13.4807 26.4531 13.4231 26.3307C13.2149 25.8736 13.0208 25.4117 12.8409 24.9449C12.6602 24.4723 12.4824 23.9993 12.3076 23.526C12.1385 23.0519 11.9665 22.5782 11.7916 22.1048C11.6167 21.6315 11.4335 21.1622 11.242 20.6969C11.1983 20.5904 11.1977 20.4959 11.24 20.4135C11.2873 20.3245 11.353 20.2626 11.437 20.2279C11.5211 20.1931 11.6094 20.1903 11.7019 20.2194C11.7994 20.242 11.87 20.3065 11.9137 20.4131C12.0875 20.8334 12.2525 21.2548 12.4089 21.6774C12.5652 22.1 12.7187 22.523 12.8692 22.9464C13.0256 23.369 13.1819 23.7916 13.3383 24.2142C13.5005 24.636 13.671 25.0538 13.8498 25.4675C14.5706 24.5271 15.2889 23.5898 16.0047 22.6559C16.7197 21.7162 17.4376 20.7761 18.1585 19.8356C18.1988 19.783 18.2501 19.7466 18.3125 19.7266C18.3741 19.7007 18.4351 19.6926 18.4955 19.7024C18.5551 19.7063 18.6112 19.7284 18.6638 19.7688C18.7157 19.8033 18.7545 19.8513 18.7804 19.9129ZM24.6917 25.355C24.3589 25.1625 24.0711 24.908 23.8283 24.5914C23.5847 24.269 23.3849 23.9201 23.2289 23.5448C23.0779 23.1628 22.9697 22.7693 22.9043 22.3642C22.8382 21.9533 22.819 21.5628 22.8469 21.1927C22.8874 20.6495 23.0308 20.1695 23.2771 19.7528C23.5285 19.3295 23.8443 18.9685 24.2244 18.67C24.6104 18.3708 25.0459 18.1329 25.5308 17.9565C26.0216 17.7793 26.5237 17.6656 27.0372 17.6155C27.5499 17.5595 28.0591 17.5661 28.5647 17.6351C29.0703 17.7042 29.5367 17.8346 29.964 18.0264C30.0712 18.0772 30.1367 18.1483 30.1607 18.2397C30.1846 18.3312 30.1787 18.4206 30.1429 18.5081C30.1123 18.5889 30.0557 18.6526 29.9731 18.699C29.8906 18.7453 29.7957 18.7431 29.6886 18.6923C29.3116 18.5234 28.8889 18.4109 28.4205 18.3546C27.9578 18.2976 27.4883 18.3005 27.012 18.3635C26.5407 18.4199 26.0829 18.5336 25.6386 18.7047C25.2001 18.875 24.8166 19.103 24.4879 19.3888C24.1651 19.6738 23.9182 20.0197 23.7474 20.4264C23.5758 20.8274 23.5246 21.2893 23.5937 21.812C23.6467 22.2129 23.7309 22.6036 23.8463 22.9844C23.9609 23.3593 24.1235 23.6954 24.3342 23.9926C24.5441 24.284 24.8089 24.5209 25.1285 24.7032C25.4474 24.8797 25.8372 24.9671 26.298 24.9652C26.6236 24.9695 26.9466 24.9534 27.2668 24.9169C27.5921 24.8739 27.9133 24.8226 28.2305 24.7629C28.5477 24.7032 28.8637 24.6349 29.1786 24.5578C29.4935 24.4807 29.8084 24.4036 30.1232 24.3265C30.2379 24.2995 30.3289 24.317 30.3962 24.379C30.4627 24.4353 30.5021 24.5098 30.5144 24.6028C30.5267 24.6957 30.5092 24.7867 30.4618 24.8757C30.4145 24.9647 30.3335 25.0227 30.2189 25.0497C29.9555 25.114 29.6697 25.1873 29.3614 25.2694C29.0589 25.3508 28.7469 25.4275 28.4254 25.4996C28.104 25.5716 27.7781 25.6325 27.4478 25.682C27.1174 25.7316 26.7898 25.7572 26.465 25.7588C26.1459 25.7596 25.8346 25.7298 25.5311 25.6695C25.2335 25.6084 24.9536 25.5035 24.6917 25.355ZM40.7517 16.4315C40.8679 16.4162 40.96 16.4424 41.0281 16.5102C41.0962 16.5781 41.1364 16.6585 41.1486 16.7514C41.1602 16.8385 41.1419 16.9237 41.0938 17.0069C41.0457 17.0901 40.9635 17.1394 40.8474 17.1547L36.7957 17.6905C37.2208 18.8045 37.6347 19.923 38.0373 21.0459C38.4449 22.1623 38.8921 23.2645 39.3788 24.3527C39.429 24.4643 39.4301 24.5617 39.382 24.6448C39.3339 24.728 39.2678 24.787 39.1837 24.8218C39.0997 24.8565 39.0118 24.8622 38.92 24.8389C38.8283 24.8156 38.7577 24.751 38.7082 24.6453C38.4572 24.0874 38.2173 23.5252 37.9887 22.9584C37.7652 22.3851 37.5474 21.8111 37.3355 21.2362C37.1235 20.6614 36.9116 20.0866 36.6996 19.5117C36.4877 18.9369 36.2728 18.3625 36.0551 17.7884L31.0973 18.4439C30.9811 18.4593 30.889 18.4331 30.8209 18.3652C30.7528 18.2974 30.713 18.2199 30.7015 18.1328C30.6892 18.0398 30.7071 17.9518 30.7552 17.8686C30.8033 17.7854 30.8855 17.7361 31.0016 17.7207L35.7852 17.0882C35.7311 16.9476 35.6775 16.8099 35.6242 16.6751C35.5701 16.5345 35.5132 16.3943 35.4533 16.2544C35.4097 16.1479 35.409 16.0534 35.4513 15.971C35.4986 15.882 35.5643 15.8201 35.6484 15.7854C35.7324 15.7506 35.8203 15.7449 35.9121 15.7682C36.0096 15.7908 36.0802 15.8553 36.1239 15.9619C36.1941 16.1358 36.2615 16.3101 36.326 16.4848C36.3955 16.6529 36.465 16.821 36.5345 16.9891L40.7517 16.4315ZM52.064 20.0778C52.1551 20.0067 52.2465 19.9827 52.3382 20.0061C52.4358 20.0286 52.5103 20.0779 52.5617 20.1538C52.6181 20.2232 52.6467 20.3051 52.6474 20.3996C52.648 20.4941 52.6029 20.5769 52.5118 20.648C52.1576 20.9195 51.8096 21.1487 51.4679 21.3357C51.1254 21.517 50.777 21.6753 50.4225 21.8109C50.0673 21.9406 49.6982 22.0544 49.3152 22.1523C48.9372 22.2437 48.5319 22.3298 48.0993 22.4106C47.817 22.4657 47.523 22.5223 47.2174 22.5804C46.9177 22.6378 46.6174 22.6686 46.3165 22.6729C46.0215 22.6765 45.7334 22.6436 45.4524 22.5744C45.1764 22.4986 44.9181 22.3554 44.6775 22.1449C44.4837 21.9755 44.3345 21.7854 44.2298 21.5747C44.1243 21.3581 44.0558 21.1308 44.0243 20.8926C43.9921 20.6486 43.9914 20.3975 44.0222 20.1393C44.0581 19.8745 44.1177 19.6095 44.2008 19.3444C44.0897 19.3532 44.003 19.3233 43.9407 19.2547C43.8777 19.1803 43.8404 19.0995 43.8289 19.0124C43.8232 18.9245 43.8419 18.8422 43.8849 18.7656C43.9338 18.6882 44.0163 18.6418 44.1325 18.6265C44.1964 18.618 44.2574 18.6099 44.3155 18.6023C44.3736 18.5946 44.4349 18.5894 44.4996 18.5868C44.6385 18.2965 44.796 18.0127 44.9721 17.7353C45.1482 17.4578 45.3332 17.2029 45.527 16.9704C45.7209 16.7379 45.9178 16.5286 46.1178 16.3426C46.3178 16.1566 46.5108 16.0069 46.6968 15.8937C46.9653 15.7341 47.2547 15.5983 47.5649 15.4863C47.8752 15.3744 48.193 15.2969 48.5183 15.2539C48.8494 15.2101 49.1768 15.2052 49.5004 15.2393C49.8299 15.2725 50.1419 15.3525 50.4364 15.479C50.6493 15.5691 50.8003 15.7057 50.8896 15.889C50.9788 16.0722 51.0224 16.2674 51.0202 16.4745C51.018 16.6817 50.9777 16.8909 50.8993 17.1023C50.8201 17.3078 50.7188 17.4807 50.5955 17.6212C50.2676 18.0014 49.8837 18.2945 49.444 18.5004C49.0101 18.7055 48.549 18.8611 48.0606 18.967C47.5715 19.0672 47.0694 19.1365 46.5544 19.175C46.0386 19.2078 45.5377 19.2415 45.0518 19.2762C45.0432 19.301 45.0347 19.3257 45.0261 19.3505C45.0226 19.3687 45.017 19.3931 45.0092 19.4237C44.9148 19.7376 44.8618 20.0519 44.8502 20.3667C44.8386 20.6815 44.8846 20.9621 44.9881 21.2084C45.0908 21.449 45.2608 21.6393 45.498 21.7793C45.7344 21.9136 46.0596 21.9592 46.4736 21.9163C46.9813 21.8669 47.4812 21.8038 47.9734 21.7269C48.4649 21.6442 48.9437 21.5336 49.4101 21.3951C49.8757 21.2508 50.3312 21.0753 50.7767 20.8686C51.2214 20.6561 51.6505 20.3925 52.064 20.0778ZM46.6243 16.8874C46.3847 17.1318 46.1587 17.3892 45.9462 17.6597C45.7337 17.9301 45.5443 18.2181 45.3778 18.5238C45.6473 18.5059 45.9198 18.4877 46.1951 18.469C46.4704 18.4503 46.742 18.4262 47.01 18.3967C47.283 18.3606 47.552 18.3162 47.8169 18.2634C48.081 18.2048 48.3399 18.1292 48.5937 18.0366C48.8024 17.9617 49.0105 17.881 49.2177 17.7945C49.43 17.7014 49.6177 17.5791 49.7809 17.4274C49.8914 17.3242 49.9806 17.1942 50.0485 17.0374C50.1222 16.8799 50.1582 16.7274 50.1564 16.5799C50.1605 16.4316 50.1167 16.3015 50.025 16.1895C49.9334 16.0775 49.777 16.0124 49.5559 15.9944C49.2876 15.9767 49.0216 15.9764 48.7579 15.9935C48.4942 16.0106 48.2369 16.0535 47.9859 16.1222C47.74 16.1843 47.5012 16.2779 47.2695 16.4031C47.0378 16.5283 46.8227 16.6897 46.6243 16.8874ZM60.954 12.8471C61.241 13.5421 61.5138 14.2419 61.7724 14.9465C62.0369 15.6503 62.2985 16.3545 62.5571 17.0591C62.8158 17.7637 63.0798 18.4646 63.3493 19.1619C63.6189 19.8591 63.9054 20.5512 64.209 21.238C64.2584 21.3437 64.2591 21.4382 64.211 21.5214C64.1629 21.6046 64.0968 21.6636 64.0128 21.6983C63.9287 21.7331 63.8408 21.7388 63.7491 21.7155C63.6573 21.6922 63.5867 21.6276 63.5373 21.5218C63.27 20.9307 63.0168 20.3347 62.7778 19.7339C62.5438 19.1265 62.3127 18.5188 62.0846 17.9106C61.8614 17.2959 61.6387 16.6841 61.4163 16.0751C61.194 15.4662 60.9658 14.8581 60.7318 14.2507C60.6264 14.6606 60.5029 15.067 60.3611 15.47C60.2251 15.8721 60.0834 16.275 59.9358 16.6787C59.7875 17.0766 59.6391 17.4745 59.4908 17.8724C59.3424 18.2702 59.2086 18.6662 59.0893 19.0602C59.0672 19.1163 59.0348 19.162 58.9922 19.1972C58.9495 19.2324 58.8996 19.2567 58.8422 19.2702C58.7907 19.2829 58.7348 19.2844 58.6744 19.2747C58.6198 19.2642 58.5728 19.2438 58.5333 19.2135C58.2002 18.9739 57.8847 18.7112 57.5869 18.4255C57.2941 18.1333 57.0085 17.8282 56.73 17.5104C56.4574 17.1918 56.1924 16.8634 55.9348 16.5251C55.6773 16.1868 55.4198 15.8485 55.1623 15.5102C55.5565 16.5692 55.9441 17.6232 56.3251 18.6721C56.7112 19.7145 57.1321 20.7523 57.5879 21.7854C57.6373 21.8912 57.638 21.9857 57.5899 22.0689C57.5476 22.1513 57.4844 22.2099 57.4004 22.2446C57.3163 22.2794 57.2255 22.2855 57.1279 22.2629C57.0362 22.2396 56.9656 22.1751 56.9162 22.0693C56.6126 21.3825 56.326 20.6904 56.0565 19.9932C55.7862 19.2901 55.5218 18.5863 55.2631 17.8817C55.0045 17.1771 54.7462 16.4754 54.4883 15.7766C54.2297 15.072 53.9569 14.3722 53.6699 13.6773C53.6271 13.5766 53.6268 13.485 53.6691 13.4026C53.7114 13.3201 53.7684 13.2594 53.84 13.2204C53.9175 13.1806 54.0017 13.1695 54.0927 13.187C54.1829 13.1987 54.2545 13.2483 54.3074 13.3359C54.3148 13.3467 54.3217 13.3547 54.3283 13.3597C54.3341 13.359 54.3436 13.3636 54.3568 13.3737C54.7149 13.7578 55.0587 14.1675 55.3881 14.6026C55.7175 15.0378 56.0502 15.4755 56.3862 15.9157C56.7214 16.3502 57.0642 16.7747 57.4146 17.1894C57.7707 17.6033 58.1542 17.9781 58.5651 18.3139C58.7096 17.887 58.8653 17.4556 59.0323 17.0198C59.1993 16.584 59.36 16.1461 59.5146 15.706C59.675 15.2652 59.8176 14.8237 59.9424 14.3817C60.0729 13.9389 60.1683 13.4977 60.2284 13.0583C60.2296 13.0227 60.2395 12.9859 60.2581 12.948C60.2714 12.8694 60.3069 12.8027 60.3646 12.7478C60.4224 12.6928 60.4886 12.6575 60.5634 12.6417C60.6381 12.6259 60.7102 12.6341 60.7794 12.6663C60.8545 12.6978 60.9127 12.758 60.954 12.8471ZM67.0309 12.9036C67.4544 13.2909 67.8592 13.6924 68.2452 14.1083C68.637 14.5234 69.0208 14.9455 69.3967 15.3746C69.7784 15.8028 70.1547 16.2348 70.5255 16.6704C70.9014 17.0994 71.2852 17.5215 71.677 17.9366C71.7598 18.0262 71.7895 18.1168 71.7662 18.2085C71.7479 18.2937 71.7011 18.3649 71.6259 18.4221C71.5558 18.4728 71.471 18.5017 71.3715 18.509C71.2712 18.5104 71.1829 18.4689 71.1068 18.3844C70.8878 18.1592 70.6747 17.9332 70.4675 17.7065C70.2594 17.4739 70.0539 17.2381 69.8508 16.999L66.4353 17.4506C66.3256 17.8729 66.2131 18.2956 66.0976 18.7187C65.9872 19.1352 65.8651 19.5532 65.7315 19.9728C65.693 20.0843 65.6314 20.1545 65.5466 20.1834C65.461 20.2066 65.3744 20.2003 65.287 20.1646C65.2053 20.1281 65.1384 20.069 65.0862 19.9872C65.0333 19.8996 65.0231 19.8005 65.0557 19.6898C65.1688 19.338 65.2728 18.9844 65.3676 18.629C65.4683 18.2729 65.5657 17.9143 65.6598 17.5531L65.2154 17.6119C65.0992 17.6272 65.0042 17.6014 64.9303 17.5343C64.8622 17.4665 64.8224 17.389 64.8109 17.3019C64.7986 17.2089 64.8165 17.1209 64.8646 17.0377C64.9186 16.9537 65.0036 16.904 65.1198 16.8887L65.8517 16.7919C65.9866 16.248 66.1191 15.7075 66.249 15.1702C66.3781 14.6271 66.5098 14.0807 66.644 13.531C66.6308 13.5209 66.6209 13.5134 66.6144 13.5083C66.6136 13.5025 66.6066 13.4946 66.5935 13.4845C66.5065 13.4073 66.4651 13.3182 66.4695 13.2172C66.4739 13.1161 66.5009 13.0298 66.5505 12.9582C66.606 12.8859 66.6769 12.8411 66.7632 12.8237C66.8546 12.7998 66.9438 12.8264 67.0309 12.9036ZM69.276 16.3391C68.9419 15.9578 68.6085 15.5822 68.2759 15.2125C67.9491 14.8419 67.6053 14.4766 67.2445 14.1165C67.1414 14.5439 67.0383 14.9712 66.9352 15.3986C66.8322 15.826 66.7295 16.2562 66.6272 16.6894L69.276 16.3391ZM8.98829 42.7155C9.24181 42.8002 9.50618 42.8776 9.78141 42.9476C10.0617 43.011 10.3398 43.0806 10.6158 43.1564C10.8918 43.2322 11.1606 43.3208 11.4222 43.4221C11.6831 43.5177 11.9242 43.6424 12.1455 43.7964C12.2105 43.841 12.2538 43.9003 12.2754 43.9742C12.2962 44.0424 12.2963 44.1104 12.2758 44.1781C12.2544 44.24 12.2177 44.2981 12.1658 44.3522C12.1138 44.4064 12.0501 44.4384 11.9746 44.4484C11.5753 44.513 11.1809 44.5918 10.7913 44.6847C10.4074 44.7768 10.0321 44.8885 9.66531 45.0197C9.29849 45.151 8.94055 45.3047 8.59149 45.4809C8.24244 45.6571 7.90341 45.8644 7.57442 46.103C7.61652 46.1979 7.6561 46.2961 7.69316 46.3976C7.73526 46.4925 7.77736 46.5874 7.81947 46.6823C7.86968 46.7939 7.87074 46.8912 7.82263 46.9744C7.77453 47.0576 7.70845 47.1166 7.62439 47.1514C7.54033 47.1861 7.45243 47.1918 7.36069 47.1685C7.26895 47.1452 7.19797 47.0777 7.14775 46.9661C6.82871 46.2518 6.52961 45.5319 6.25045 44.8063C5.97053 44.075 5.69603 43.34 5.42696 42.6013C5.39715 42.5993 5.36733 42.5974 5.33752 42.5954C5.31352 42.5927 5.28661 42.5903 5.2568 42.5884L5.25565 42.5796C5.1604 42.5745 5.08532 42.5431 5.0304 42.4853C4.97471 42.4217 4.94188 42.3522 4.93189 42.2767C4.92114 42.1954 4.93439 42.1168 4.97164 42.0409C5.00813 41.9593 5.07169 41.9036 5.16233 41.8739C5.00828 41.4687 4.85423 41.0635 4.70017 40.6583C4.55116 40.2466 4.39673 39.8385 4.23687 39.4341C4.12497 39.4371 4.01306 39.44 3.90116 39.443C3.78849 39.4402 3.6791 39.4399 3.57301 39.4421C3.4553 39.4458 3.36202 39.4109 3.29318 39.3372C3.22434 39.2636 3.18377 39.1803 3.17148 39.0874C3.15919 38.9944 3.17787 38.9122 3.22751 38.8406C3.27638 38.7632 3.35967 38.7226 3.47739 38.7189C3.56024 38.7197 3.6373 38.7214 3.70854 38.7238C3.78482 38.7196 3.86439 38.7179 3.94725 38.7188C3.92795 38.6623 3.91019 38.6173 3.89396 38.584C3.85033 38.4775 3.85256 38.3826 3.90066 38.2994C3.948 38.2104 4.0137 38.1485 4.09776 38.1138C4.18182 38.079 4.26972 38.0733 4.36146 38.0966C4.4532 38.12 4.52089 38.1849 4.56452 38.2914C4.59774 38.3639 4.62768 38.4338 4.65432 38.5012C4.68096 38.5686 4.70799 38.6389 4.7354 38.7121C5.11331 38.7094 5.48947 38.7158 5.86387 38.7314C6.23827 38.7469 6.61498 38.7798 6.994 38.8302C7.19183 38.8513 7.42606 38.8794 7.69667 38.9146C7.97309 38.9489 8.24387 39.0077 8.50901 39.0908C8.77339 39.1682 9.01508 39.2751 9.23408 39.4117C9.45232 39.5424 9.60875 39.7197 9.70337 39.9436C9.82309 40.2233 9.82746 40.4798 9.71647 40.7132C9.60471 40.9407 9.4223 41.1481 9.16926 41.3352C8.91545 41.5165 8.61461 41.6774 8.26675 41.818C7.9189 41.9586 7.56545 42.0792 7.2064 42.1799C7.5064 42.2584 7.80425 42.3431 8.09997 42.4341C8.39569 42.525 8.6918 42.6188 8.98829 42.7155ZM8.51686 39.8877C7.96454 39.6889 7.3924 39.5636 6.80043 39.5118C6.2135 39.4535 5.61841 39.4228 5.01516 39.4198C5.1669 39.8076 5.31246 40.1932 5.45182 40.5767C5.59699 40.9594 5.73964 41.3454 5.87976 41.7347C6.41461 41.6226 6.9466 41.4665 7.47573 41.2666C7.56636 41.2368 7.68489 41.1946 7.83131 41.1397C7.98277 41.0783 8.13347 41.0111 8.28339 40.9381C8.43836 40.8585 8.57804 40.775 8.70242 40.6877C8.83262 40.5995 8.92138 40.511 8.96872 40.422C9.01605 40.333 9.00705 40.2425 8.94171 40.1507C8.88219 40.0581 8.74057 39.9704 8.51686 39.8877ZM6.2411 42.7242C6.40711 43.1751 6.57602 43.6255 6.74783 44.0757C6.91887 44.52 7.09611 44.9664 7.27954 45.415C7.81544 45.0427 8.37256 44.7415 8.9509 44.5113C9.53505 44.2804 10.1395 44.0912 10.7642 43.9435C10.4131 43.8363 10.0549 43.7418 9.68944 43.6601C9.32402 43.5784 8.99596 43.4888 8.70528 43.3913C8.29732 43.2561 7.88761 43.13 7.47615 43.013C7.07049 42.8952 6.65881 42.799 6.2411 42.7242ZM18.7975 41.0284C18.8099 41.346 18.7685 41.6588 18.6733 41.9669C18.5781 42.275 18.4377 42.5536 18.2519 42.8028C18.0662 43.0519 17.8365 43.2596 17.563 43.4258C17.2953 43.5912 16.9918 43.6875 16.6526 43.7146C16.325 43.7402 16.0017 43.7091 15.6827 43.6212C15.3638 43.5334 15.071 43.3977 14.8044 43.2143C14.5429 43.0243 14.3261 42.7929 14.1541 42.5201C13.9813 42.2415 13.8806 41.9268 13.852 41.576C13.8272 41.2542 13.8587 40.9338 13.9465 40.6149C14.0336 40.2901 14.1693 39.9973 14.3535 39.7366C14.5435 39.475 14.7778 39.2579 15.0564 39.0851C15.3349 38.9123 15.6496 38.8116 16.0005 38.7829C16.3397 38.7558 16.6597 38.7844 16.9604 38.8688C17.267 38.9524 17.5416 39.0845 17.7842 39.2652C18.026 39.4401 18.2325 39.661 18.4037 39.928C18.5742 40.1891 18.6962 40.4863 18.7698 40.8193C18.7714 40.8309 18.7733 40.8455 18.7756 40.8629C18.7837 40.8796 18.7893 40.8995 18.7924 40.9227C18.7947 40.9402 18.7941 40.958 18.7906 40.9762C18.7929 40.9936 18.7952 41.011 18.7975 41.0284ZM14.5752 41.4804C14.6418 41.8498 14.7791 42.1508 14.9871 42.3834C15.2002 42.6093 15.4401 42.7697 15.7068 42.8645C15.9727 42.9534 16.2509 42.9787 16.5413 42.9403C16.8376 42.9011 17.1021 42.8011 17.335 42.6403C17.5679 42.4795 17.7553 42.2656 17.8973 41.9986C18.0386 41.7257 18.0959 41.399 18.0692 41.0184C18.0149 40.7418 17.9187 40.5063 17.7807 40.3118C17.6419 40.1115 17.4762 39.9531 17.2835 39.8367C17.0966 39.7196 16.8911 39.6404 16.6669 39.5991C16.4486 39.5571 16.2291 39.5506 16.0083 39.5798C15.7876 39.609 15.5802 39.6719 15.3861 39.7685C15.192 39.8651 15.0257 39.9934 14.8873 40.1536C14.7489 40.3137 14.6475 40.5074 14.583 40.7346C14.5235 40.9553 14.5209 41.2038 14.5752 41.4804ZM25.1052 40.7529C25.3588 40.8376 25.6231 40.915 25.8984 40.985C26.1786 41.0484 26.4568 41.118 26.7327 41.1938C27.0087 41.2696 27.2775 41.3582 27.5392 41.4595C27.8001 41.5551 28.0411 41.6798 28.2624 41.8338C28.3275 41.8784 28.3704 41.9347 28.3912 42.0029C28.412 42.0711 28.4122 42.139 28.3916 42.2068C28.371 42.2745 28.3347 42.3355 28.2828 42.3896C28.23 42.4379 28.1663 42.47 28.0916 42.4858C27.6632 42.5543 27.246 42.639 26.8397 42.74C26.4326 42.8352 26.0348 42.9558 25.6463 43.1017C25.2636 43.2469 24.8873 43.4178 24.5173 43.6145C24.1531 43.8104 23.7997 44.0433 23.4571 44.3132C23.3603 44.3851 23.2659 44.4094 23.1742 44.386C23.0825 44.3627 23.0084 44.3164 22.9519 44.247C22.8947 44.1718 22.8657 44.087 22.8651 43.9925C22.8694 43.8915 22.9172 43.8054 23.0082 43.7342C23.5922 43.2787 24.2059 42.9139 24.8494 42.6397C25.4986 42.3647 26.1759 42.1451 26.8812 41.9809C26.5293 41.8679 26.1711 41.7734 25.8064 41.6975C25.441 41.6158 25.1129 41.5262 24.8222 41.4287C24.2533 41.2379 23.6845 41.0708 23.1158 40.9273C22.5522 40.7773 21.9715 40.6767 21.3738 40.6257C21.2727 40.6214 21.194 40.5845 21.1375 40.5151C21.081 40.4458 21.05 40.3671 21.0442 40.2792C21.0385 40.1913 21.0601 40.1087 21.109 40.0313C21.1579 39.9539 21.2375 39.9079 21.3478 39.8933C21.7305 39.8368 22.11 39.7571 22.4865 39.6541C22.8629 39.5511 23.2317 39.4344 23.5927 39.3039C23.6833 39.2742 23.8019 39.232 23.9483 39.1771C24.0997 39.1157 24.2504 39.0485 24.4004 38.9755C24.5553 38.8959 24.695 38.8124 24.8194 38.7251C24.9496 38.6369 25.0383 38.5483 25.0857 38.4593C25.133 38.3703 25.124 38.2799 25.0587 38.1881C24.9991 38.0955 24.8575 38.0078 24.6338 37.9251C24.2491 37.7868 23.8486 37.6861 23.4325 37.6229C23.0213 37.5532 22.6046 37.5078 22.1822 37.4868C21.7648 37.4593 21.3439 37.4499 20.9195 37.4587C20.501 37.4668 20.0911 37.4737 19.69 37.4795C19.5723 37.4832 19.479 37.4483 19.4101 37.3746C19.3413 37.301 19.3007 37.2177 19.2884 37.1247C19.2762 37.0318 19.2948 36.9495 19.3445 36.878C19.3933 36.8006 19.4766 36.76 19.5943 36.7563C20.1844 36.7492 20.7724 36.7483 21.3582 36.7535C21.9433 36.753 22.5275 36.791 23.111 36.8675C23.3088 36.8887 23.543 36.9168 23.8136 36.952C24.0901 36.9863 24.3608 37.0451 24.626 37.1282C24.8903 37.2056 25.132 37.3125 25.351 37.449C25.5693 37.5798 25.7257 37.7571 25.8203 37.981C25.9401 38.2607 25.9444 38.5172 25.8334 38.7506C25.7217 38.9781 25.5393 39.1854 25.2862 39.3726C25.0324 39.5539 24.7316 39.7148 24.3837 39.8554C24.0359 39.996 23.6824 40.1166 23.3234 40.2172C23.6234 40.2958 23.9212 40.3805 24.2169 40.4714C24.5127 40.5624 24.8088 40.6562 25.1052 40.7529ZM34.7105 34.3054C34.9975 35.0003 35.2703 35.7001 35.5289 36.4047C35.7934 37.1085 36.0549 37.8128 36.3136 38.5173C36.5723 39.2219 36.8363 39.9229 37.1058 40.6201C37.3753 41.3174 37.6619 42.0094 37.9655 42.6962C38.0157 42.8078 38.0168 42.9052 37.9686 42.9884C37.9205 43.0716 37.8545 43.1306 37.7704 43.1653C37.6863 43.2001 37.5984 43.2058 37.5067 43.1825C37.415 43.1591 37.3444 43.0946 37.2949 42.9888C36.9743 42.2629 36.6712 41.5346 36.3855 40.804C36.1055 40.0727 35.831 39.3377 35.562 38.599L31.6497 39.1163C31.915 39.8259 32.1794 40.5298 32.4431 41.2278C32.7126 41.925 33.0025 42.6196 33.3126 43.3115C33.3628 43.423 33.3639 43.5204 33.3158 43.6036C33.2735 43.686 33.2103 43.7446 33.1263 43.7794C33.0422 43.8141 32.9514 43.8202 32.8538 43.7977C32.7621 43.7743 32.6915 43.7098 32.6421 43.604C32.3385 42.9172 32.0519 42.2252 31.7824 41.5279C31.5121 40.8249 31.2477 40.121 30.989 39.4164C30.7304 38.7118 30.4721 38.0101 30.2142 37.3114C29.9556 36.6068 29.6828 35.907 29.3958 35.212C29.3522 35.1055 29.3515 35.011 29.3938 34.9286C29.4412 34.8396 29.5069 34.7777 29.5909 34.743C29.675 34.7082 29.7629 34.7025 29.8546 34.7258C29.9522 34.7484 30.0228 34.8129 30.0664 34.9195C30.3023 35.497 30.53 36.0787 30.7493 36.6643C30.9678 37.2442 31.1838 37.8274 31.3973 38.4138L35.3095 37.8965C35.1057 37.3384 34.8997 36.7864 34.6916 36.2406C34.4885 35.6882 34.2742 35.1403 34.0487 34.5968C34.0051 34.4903 34.0044 34.3958 34.0467 34.3134C34.094 34.2244 34.1597 34.1625 34.2438 34.1277C34.3278 34.093 34.4157 34.0873 34.5075 34.1106C34.5992 34.1339 34.6669 34.1989 34.7105 34.3054ZM40.818 34.5262C41.2415 34.9135 41.6463 35.3151 42.0323 35.731C42.4241 36.1461 42.8079 36.5682 43.1838 36.9972C43.5655 37.4255 43.9417 37.8574 44.3126 38.293C44.6885 38.7221 45.0723 39.1442 45.4641 39.5593C45.5469 39.6488 45.5766 39.7394 45.5532 39.8312C45.535 39.9164 45.4882 39.9875 45.413 40.0448C45.3429 40.0954 45.2581 40.1244 45.1586 40.1316C45.0583 40.1331 44.97 40.0915 44.8938 40.007C44.6749 39.7818 44.4618 39.5559 44.2545 39.3291C44.0465 39.0966 43.8409 38.8607 43.6379 38.6216L40.2223 39.0732C40.1127 39.4956 40.0001 39.9183 39.8847 40.3413C39.7743 40.7578 39.6522 41.1759 39.5186 41.5955C39.4801 41.7069 39.4185 41.7771 39.3337 41.8061C39.2481 41.8292 39.1615 41.8229 39.0741 41.7872C38.9924 41.7507 38.9255 41.6916 38.8733 41.6099C38.8203 41.5223 38.8102 41.4232 38.8428 41.3125C38.9559 40.9606 39.0599 40.607 39.1547 40.2517C39.2554 39.8956 39.3528 39.5369 39.4469 39.1758L39.0025 39.2345C38.8863 39.2499 38.7913 39.2241 38.7174 39.157C38.6493 39.0892 38.6095 39.0117 38.598 38.9245C38.5857 38.8316 38.6036 38.7435 38.6517 38.6603C38.7057 38.5764 38.7907 38.5267 38.9069 38.5113L39.6388 38.4146C39.7737 37.8707 39.9062 37.3301 40.0361 36.7928C40.1652 36.2497 40.2969 35.7033 40.4311 35.1537C40.4179 35.1436 40.408 35.136 40.4015 35.131C40.4007 35.1252 40.3937 35.1172 40.3806 35.1072C40.2935 35.03 40.2522 34.9409 40.2566 34.8398C40.2609 34.7388 40.288 34.6525 40.3376 34.5809C40.393 34.5086 40.4639 34.4637 40.5503 34.4464C40.6417 34.4225 40.7309 34.4491 40.818 34.5262ZM43.0631 37.9618C42.729 37.5804 42.3956 37.2049 42.063 36.8351C41.7362 36.4646 41.3924 36.0993 41.0315 35.7392C40.9285 36.1665 40.8254 36.5939 40.7223 37.0213C40.6193 37.4486 40.5166 37.8789 40.4143 38.312L43.0631 37.9618ZM50.7373 31.9292C50.8535 31.9138 50.9456 31.94 51.0137 32.0079C51.0818 32.0757 51.122 32.1561 51.1343 32.249C51.1458 32.3362 51.1275 32.4213 51.0794 32.5045C51.0313 32.5877 50.9491 32.637 50.833 32.6524L46.5374 33.2203C46.8015 33.8769 47.0548 34.5409 47.2972 35.2121C47.5447 35.8768 47.7892 36.5419 48.0309 37.2074C48.2784 37.8721 48.5287 38.5364 48.782 39.2004C49.0411 39.8635 49.3168 40.5186 49.6092 41.1655C49.6587 41.2713 49.6594 41.3658 49.6113 41.449C49.5632 41.5321 49.4971 41.5911 49.413 41.6259C49.329 41.6606 49.2411 41.6663 49.1493 41.643C49.0576 41.6197 48.987 41.5551 48.9375 41.4494C48.6339 40.7625 48.3474 40.0705 48.0779 39.3733C47.8076 38.6702 47.5432 37.9664 47.2845 37.2618C47.0258 36.5572 46.7647 35.8559 46.501 35.1578C46.2423 34.4532 45.9695 33.7535 45.6826 33.0585C45.6382 32.9462 45.6447 32.8389 45.7021 32.7368C45.7653 32.6339 45.855 32.5747 45.9712 32.5594L50.7373 31.9292ZM57.3181 32.1761C57.5159 32.1972 57.7502 32.2253 58.0208 32.2605C58.2972 32.2949 58.568 32.3536 58.8331 32.4368C59.0975 32.5141 59.3392 32.621 59.5582 32.7576C59.7764 32.8883 59.9329 33.0656 60.0275 33.2895C60.1244 33.5309 60.1391 33.7535 60.0715 33.9575C60.0089 34.1549 59.8881 34.3364 59.709 34.5019C59.5358 34.6666 59.3163 34.8168 59.0505 34.9524C58.7847 35.0881 58.5021 35.2082 58.2027 35.3128C57.9091 35.4166 57.6111 35.5092 57.3086 35.5906C57.0053 35.6661 56.7241 35.7299 56.465 35.7819C56.7318 36.5032 57.0007 37.2182 57.2718 37.9271C57.542 38.6302 57.8326 39.3305 58.1436 40.0282C58.1938 40.1398 58.1948 40.2372 58.1467 40.3204C58.0986 40.4035 58.0326 40.4625 57.9485 40.4973C57.8644 40.532 57.7765 40.5378 57.6848 40.5144C57.5931 40.4911 57.5225 40.4265 57.473 40.3208C57.1517 39.589 56.8481 38.8578 56.5624 38.1273C56.2825 37.3959 56.0076 36.658 55.7377 35.9135L55.6506 35.9251C55.5402 35.9397 55.4518 35.9188 55.3853 35.8626C55.3187 35.8064 55.2772 35.738 55.2606 35.6575C55.2433 35.5711 55.2529 35.4871 55.2893 35.4054C55.3251 35.318 55.3908 35.2561 55.4864 35.2198C55.3316 34.8088 55.1772 34.4007 55.0231 33.9955C54.8749 33.5896 54.7208 33.1844 54.561 32.78C54.4491 32.783 54.3372 32.786 54.2253 32.7889C54.1126 32.7861 54.0032 32.7858 53.8971 32.788C53.7794 32.7917 53.6861 32.7568 53.6173 32.6832C53.5484 32.6095 53.5079 32.5262 53.4956 32.4333C53.4833 32.3403 53.502 32.2581 53.5516 32.1865C53.6005 32.1091 53.6838 32.0685 53.8015 32.0648C53.8844 32.0657 53.9643 32.0669 54.0414 32.0685C54.1176 32.0644 54.1943 32.0631 54.2714 32.0647C54.2521 32.0082 54.2343 31.9632 54.2181 31.9299C54.1744 31.8234 54.1767 31.7285 54.2248 31.6453C54.2721 31.5563 54.3378 31.4945 54.4219 31.4597C54.5059 31.425 54.5938 31.4192 54.6856 31.4426C54.7773 31.4659 54.845 31.5308 54.8886 31.6374C54.9218 31.7098 54.9518 31.7797 54.9784 31.8471C55.0051 31.9145 55.0321 31.9848 55.0595 32.058C55.4374 32.0554 55.8136 32.0618 56.188 32.0773C56.5624 32.0928 56.9391 32.1257 57.3181 32.1761ZM57.7998 34.6125C57.8905 34.5828 58.009 34.5405 58.1554 34.4857C58.3069 34.4243 58.4576 34.3571 58.6075 34.284C58.7625 34.2044 58.9021 34.121 59.0265 34.0336C59.1567 33.9455 59.2455 33.8569 59.2928 33.7679C59.3402 33.6789 59.3312 33.5885 59.2658 33.4966C59.2063 33.404 59.0647 33.3164 58.841 33.2336C58.2886 33.0348 57.7165 32.9095 57.1245 32.8577C56.5376 32.7994 55.9425 32.7687 55.3393 32.7658C55.491 33.1535 55.6366 33.5391 55.7759 33.9226C55.9211 34.3053 56.0637 34.6913 56.2039 35.0806C56.7387 34.9685 57.2707 34.8125 57.7998 34.6125ZM63.7407 31.4953C64.1643 31.8826 64.5691 32.2842 64.955 32.7C65.3468 33.1152 65.7306 33.5372 66.1065 33.9663C66.4882 34.3945 66.8645 34.8265 67.2354 35.2621C67.6112 35.6911 67.9951 36.1132 68.3869 36.5283C68.4696 36.6179 68.4993 36.7085 68.476 36.8002C68.4577 36.8854 68.411 36.9566 68.3358 37.0138C68.2657 37.0645 68.1808 37.0934 68.0813 37.1007C67.981 37.1021 67.8928 37.0606 67.8166 36.9761C67.5977 36.7509 67.3846 36.5249 67.1773 36.2982C66.9692 36.0656 66.7637 35.8298 66.5607 35.5907L63.1451 36.0423C63.0355 36.4646 62.9229 36.8873 62.8074 37.3104C62.697 37.7269 62.575 38.1449 62.4413 38.5645C62.4029 38.676 62.3412 38.7462 62.2564 38.7751C62.1708 38.7983 62.0843 38.792 61.9968 38.7563C61.9152 38.7198 61.8482 38.6607 61.796 38.5789C61.7431 38.4914 61.7329 38.3922 61.7656 38.2815C61.8786 37.9297 61.9826 37.5761 62.0775 37.2207C62.1781 36.8646 62.2755 36.506 62.3696 36.1448L61.9253 36.2036C61.8091 36.219 61.714 36.1931 61.6402 36.126C61.5721 36.0582 61.5323 35.9807 61.5208 35.8936C61.5085 35.8006 61.5264 35.7126 61.5745 35.6294C61.6284 35.5454 61.7134 35.4958 61.8296 35.4804L62.5615 35.3836C62.6965 34.8398 62.8289 34.2992 62.9588 33.7619C63.088 33.2188 63.2196 32.6724 63.3538 32.1227C63.3407 32.1126 63.3308 32.1051 63.3242 32.1C63.3235 32.0942 63.3165 32.0863 63.3033 32.0762C63.2163 31.9991 63.175 31.91 63.1793 31.8089C63.1837 31.7078 63.2107 31.6215 63.2603 31.55C63.3158 31.4776 63.3867 31.4328 63.4731 31.4154C63.5645 31.3915 63.6537 31.4182 63.7407 31.4953ZM65.9858 34.9308C65.6517 34.5495 65.3184 34.1739 64.9858 33.8042C64.659 33.4336 64.3152 33.0683 63.9543 32.7082C63.8512 33.1356 63.7482 33.5629 63.6451 33.9903C63.542 34.4177 63.4393 34.8479 63.337 35.2811L65.9858 34.9308ZM76.8444 30.7202C76.9413 30.6482 77.0359 30.6269 77.1285 30.656C77.2202 30.6793 77.2947 30.7286 77.3519 30.8038C77.4084 30.8731 77.434 30.9554 77.4289 31.0507C77.4295 31.1452 77.3844 31.228 77.2933 31.2991C76.7446 31.7086 76.2152 32.1302 75.7052 32.5641C75.1951 32.998 74.6834 33.441 74.1698 33.893C74.2573 33.9288 74.3386 33.9623 74.4137 33.9938C74.4945 34.0245 74.5787 34.0577 74.6662 34.0934C74.9278 34.1947 75.1941 34.2866 75.4651 34.369C75.7411 34.4448 76.012 34.5272 76.2779 34.6161C76.5496 34.7043 76.8138 34.8024 77.0704 34.9103C77.327 35.0182 77.575 35.1509 77.8145 35.3084C77.9117 35.3724 77.9605 35.4516 77.9612 35.5461C77.9669 35.634 77.9392 35.7145 77.8779 35.7876C77.8225 35.8599 77.7465 35.9113 77.6501 35.9418C77.5587 35.9657 77.4644 35.9457 77.3673 35.8817C77.1015 35.7041 76.8159 35.5557 76.5105 35.4365C76.2044 35.3114 75.8911 35.1992 75.5706 35.0997C75.2493 34.9944 74.9288 34.895 74.6091 34.8013C74.2886 34.7018 73.9786 34.5921 73.679 34.4721C73.775 35.1983 73.8677 35.9218 73.9572 36.6429C74.0524 37.3632 74.148 38.0864 74.244 38.8125C74.2594 38.9287 74.2332 39.0208 74.1653 39.0889C74.0983 39.1627 74.0183 39.2058 73.9253 39.2181C73.8382 39.2296 73.7526 39.2084 73.6687 39.1545C73.5855 39.1064 73.5362 39.0243 73.5208 38.9081C73.4325 38.2401 73.3475 37.5746 73.2657 36.9116C73.184 36.2487 73.096 35.5835 73.0019 34.9163C72.4717 35.3765 71.9345 35.8287 71.3904 36.273C70.8514 36.7108 70.2889 37.1279 69.703 37.5246C69.6054 37.5907 69.5078 37.6124 69.4102 37.5899C69.3177 37.5607 69.2432 37.5115 69.1868 37.4421C69.1296 37.3669 69.101 37.285 69.1011 37.1963C69.1062 37.1011 69.1576 37.0204 69.2553 36.9543C69.8954 36.521 70.5059 36.0649 71.0868 35.5862C71.667 35.1017 72.246 34.6084 72.8239 34.1065C72.3339 33.8876 71.8498 33.6679 71.3714 33.4474C70.8923 33.2212 70.4099 32.9924 69.9243 32.7611C69.8171 32.7103 69.7515 32.6391 69.7276 32.5477C69.7087 32.4497 69.7146 32.3603 69.7453 32.2794C69.781 32.1919 69.8402 32.125 69.9227 32.0787C70.0052 32.0323 70.1001 32.0345 70.2073 32.0854C70.6368 32.2945 71.0631 32.5012 71.4861 32.7053C71.9141 32.9028 72.345 33.1 72.7789 33.2968C72.6636 32.5141 72.5432 31.7381 72.4178 30.9686C72.2983 30.1983 72.1609 29.4274 72.0057 28.656C71.9787 28.5413 71.9962 28.4503 72.0582 28.383C72.1261 28.315 72.2036 28.2752 72.2907 28.2636C72.3836 28.2514 72.4717 28.2693 72.5549 28.3174C72.6439 28.3647 72.7019 28.4457 72.7289 28.5603C72.891 29.3841 73.0374 30.201 73.1682 31.0112C73.299 31.8214 73.4222 32.6414 73.5378 33.4713C74.0831 32.9914 74.6238 32.5209 75.1598 32.06C75.7016 31.5982 76.2631 31.1516 76.8444 30.7202ZM81.7439 35.5512C81.7191 35.6314 81.6942 35.7115 81.6693 35.7916C81.6445 35.8717 81.6196 35.9518 81.5947 36.032C81.5621 36.1427 81.5005 36.2129 81.4098 36.2426C81.3242 36.2657 81.2377 36.2594 81.1502 36.2237C81.0686 36.1872 81.0016 36.1281 80.9495 36.0464C80.8965 35.9588 80.8893 35.8593 80.9277 35.7478C80.932 35.7354 80.9359 35.7201 80.9394 35.7019C80.9429 35.6837 80.9468 35.6685 80.951 35.6561L78.9906 35.9153C78.8744 35.9307 78.7823 35.9044 78.7142 35.8366C78.6461 35.7688 78.6063 35.6913 78.5948 35.6041C78.5825 35.5112 78.6004 35.4231 78.6485 35.3399C78.6966 35.2567 78.7788 35.2075 78.8949 35.1921L81.1778 34.8902C81.4339 34.0112 81.6664 33.1323 81.8753 32.2536C82.0834 31.3691 82.297 30.4809 82.5159 29.589L82.4567 29.5437C82.3697 29.4665 82.3284 29.3774 82.3327 29.2764C82.3371 29.1753 82.367 29.0886 82.4225 29.0163C82.4779 28.9439 82.5488 28.8991 82.6352 28.8817C82.7266 28.8578 82.8158 28.8845 82.9029 28.9616C83.3264 29.3489 83.7312 29.7505 84.1171 30.1663C84.5089 30.5815 84.8928 31.0035 85.2687 31.4326C85.6445 31.8616 86.0179 32.2939 86.3888 32.7295C86.7646 33.1586 87.1485 33.5807 87.5403 33.9958C87.5534 34.0059 87.5673 34.0218 87.582 34.0435L89.4728 33.7934C89.589 33.7781 89.6811 33.8043 89.7492 33.8722C89.8172 33.94 89.8574 34.0204 89.8697 34.1133C89.8812 34.2005 89.8629 34.2856 89.8148 34.3688C89.7667 34.452 89.6846 34.5013 89.5684 34.5166L81.7439 35.5512ZM83.1164 30.1745C82.9293 30.9499 82.7419 31.7223 82.554 32.4919C82.3712 33.2549 82.1739 34.0197 81.962 34.7866L86.7107 34.1587C86.4075 33.8323 86.1068 33.5027 85.8086 33.1697C85.5155 32.8302 85.2224 32.4907 84.9293 32.1512C84.6361 31.8117 84.338 31.4788 84.0348 31.1524C83.7366 30.8195 83.4305 30.4935 83.1164 30.1745ZM98.7355 32.0634C98.8266 31.9922 98.918 31.9683 99.0097 31.9916C99.1073 32.0142 99.1818 32.0635 99.2332 32.1394C99.2896 32.2088 99.3182 32.2907 99.3189 32.3852C99.3195 32.4796 99.2743 32.5625 99.1833 32.6336C98.8291 32.905 98.4811 33.1343 98.1394 33.3213C97.7969 33.5025 97.4485 33.6609 97.094 33.7964C96.7388 33.9261 96.3697 34.0399 95.9867 34.1379C95.6086 34.2292 95.2033 34.3153 94.7708 34.3962C94.4884 34.4512 94.1945 34.5078 93.8889 34.566C93.5892 34.6233 93.2889 34.6542 92.988 34.6585C92.693 34.662 92.4049 34.6292 92.1239 34.56C91.8479 34.4842 91.5896 34.341 91.349 34.1305C91.1552 33.9611 91.0059 33.771 90.9012 33.5602C90.7958 33.3437 90.7273 33.1163 90.6958 32.8782C90.6635 32.6342 90.6628 32.3831 90.6937 32.1249C90.7296 31.8601 90.7892 31.5951 90.8723 31.3299C90.7612 31.3387 90.6745 31.3088 90.6122 31.2402C90.5492 31.1658 90.5119 31.085 90.5004 30.9979C90.4947 30.91 90.5133 30.8277 90.5564 30.7511C90.6053 30.6737 90.6878 30.6274 90.804 30.612C90.8679 30.6036 90.9289 30.5955 90.9869 30.5878C91.045 30.5801 91.1064 30.575 91.1711 30.5723C91.31 30.2821 91.4675 29.9982 91.6436 29.7208C91.8197 29.4434 92.0047 29.1884 92.1985 28.9559C92.3924 28.7234 92.5893 28.5142 92.7893 28.3282C92.9893 28.1421 93.1823 27.9925 93.3683 27.8792C93.6368 27.7196 93.9262 27.5838 94.2364 27.4719C94.5467 27.3599 94.8645 27.2825 95.1898 27.2394C95.5209 27.1957 95.8482 27.1908 96.1719 27.2248C96.5014 27.2581 96.8134 27.338 97.1079 27.4646C97.3208 27.5546 97.4718 27.6913 97.5611 27.8745C97.6503 28.0578 97.6938 28.253 97.6917 28.4601C97.6895 28.6673 97.6492 28.8765 97.5708 29.0878C97.4916 29.2933 97.3903 29.4663 97.267 29.6067C96.939 29.987 96.5552 30.2801 96.1155 30.486C95.6816 30.6911 95.2205 30.8466 94.7321 30.9526C94.243 31.0527 93.7409 31.1221 93.2259 31.1606C92.7101 31.1933 92.2092 31.2271 91.7232 31.2618C91.7147 31.2865 91.7062 31.3113 91.6976 31.3361C91.6941 31.3543 91.6885 31.3787 91.6807 31.4092C91.5863 31.7232 91.5333 32.0375 91.5217 32.3523C91.5101 32.6671 91.5561 32.9476 91.6596 33.194C91.7623 33.4346 91.9323 33.6249 92.1695 33.7649C92.4059 33.8991 92.7311 33.9448 93.1451 33.9019C93.6527 33.8525 94.1527 33.7893 94.6449 33.7124C95.1363 33.6297 95.6152 33.5191 96.0816 33.3806C96.5471 33.2363 97.0027 33.0608 97.4482 32.8542C97.8929 32.6417 98.322 32.3781 98.7355 32.0634ZM93.2957 28.8729C93.0562 29.1174 92.8302 29.3748 92.6177 29.6452C92.4052 29.9156 92.2158 30.2037 92.0493 30.5094C92.3188 30.4915 92.5912 30.4732 92.8666 30.4545C93.1419 30.4359 93.4135 30.4118 93.6815 30.3822C93.9545 30.3461 94.2235 30.3017 94.4884 30.249C94.7525 30.1904 95.0114 30.1148 95.2651 30.0221C95.4739 29.9472 95.6819 29.8665 95.8892 29.78C96.1015 29.687 96.2892 29.5646 96.4524 29.413C96.5628 29.3097 96.652 29.1797 96.72 29.023C96.7937 28.8655 96.8297 28.713 96.8279 28.5655C96.8319 28.4172 96.7881 28.287 96.6965 28.175C96.6049 28.063 96.4485 27.998 96.2274 27.9799C95.9591 27.9622 95.6931 27.9619 95.4294 27.9791C95.1657 27.9962 94.9084 28.0391 94.6574 28.1077C94.4114 28.1698 94.1726 28.2634 93.941 28.3886C93.7093 28.5138 93.4942 28.6753 93.2957 28.8729ZM105.678 24.9218C105.965 25.6167 106.238 26.3165 106.496 27.0211C106.761 27.7249 107.022 28.4291 107.281 29.1337C107.54 29.8383 107.804 30.5392 108.073 31.2365C108.343 31.9337 108.629 32.6258 108.933 33.3126C108.983 33.4242 108.984 33.5216 108.936 33.6048C108.888 33.688 108.822 33.7469 108.738 33.7817C108.654 33.8164 108.566 33.8222 108.474 33.7988C108.382 33.7755 108.312 33.7109 108.262 33.6052C107.942 32.8792 107.639 32.151 107.353 31.4204C107.073 30.6891 106.799 29.954 106.529 29.2154L102.617 29.7327C102.882 30.4423 103.147 31.1461 103.411 31.8441C103.68 32.5414 103.97 33.236 104.28 33.9278C104.33 34.0394 104.331 34.1368 104.283 34.22C104.241 34.3024 104.178 34.361 104.094 34.3958C104.01 34.4305 103.919 34.4366 103.821 34.414C103.73 34.3907 103.659 34.3262 103.61 34.2204C103.306 33.5336 103.019 32.8415 102.75 32.1443C102.48 31.4412 102.215 30.7374 101.957 30.0328C101.698 29.3282 101.44 28.6265 101.182 27.9277C100.923 27.2231 100.65 26.5233 100.363 25.8284C100.32 25.7219 100.319 25.6274 100.361 25.545C100.409 25.456 100.474 25.3941 100.558 25.3593C100.642 25.3246 100.73 25.3189 100.822 25.3422C100.92 25.3648 100.99 25.4293 101.034 25.5358C101.27 26.1134 101.497 26.695 101.717 27.2807C101.935 27.8606 102.151 28.4437 102.365 29.0302L106.277 28.5129C106.073 27.9547 105.867 27.4027 105.659 26.857C105.456 26.3046 105.242 25.7567 105.016 25.2132C104.973 25.1067 104.972 25.0122 105.014 24.9297C105.061 24.8407 105.127 24.7789 105.211 24.7441C105.295 24.7094 105.383 24.7036 105.475 24.727C105.567 24.7503 105.634 24.8152 105.678 24.9218ZM117.836 24.9721C118.027 25.4373 118.211 25.9066 118.385 26.3799C118.56 26.8533 118.732 27.327 118.901 27.8011C119.076 28.2745 119.254 28.7474 119.435 29.22C119.62 29.686 119.815 30.148 120.017 30.6059C120.066 30.7116 120.067 30.8061 120.019 30.8893C119.977 30.9717 119.913 31.0303 119.829 31.0651C119.745 31.0998 119.655 31.1059 119.557 31.0834C119.465 31.06 119.395 30.9955 119.345 30.8897C119.161 30.4768 118.985 30.0627 118.817 29.6474C118.655 29.2256 118.496 28.8033 118.34 28.3807C118.183 27.9581 118.027 27.5355 117.871 27.1129C117.72 26.6896 117.564 26.2669 117.402 25.8451C116.681 26.7856 115.962 27.7228 115.247 28.6567C114.537 29.5899 113.821 30.5267 113.1 31.4672C113.015 31.579 112.903 31.6263 112.765 31.6091C112.631 31.5854 112.536 31.5123 112.479 31.3899C112.27 30.9327 112.076 30.4708 111.896 30.004C111.716 29.5314 111.538 29.0585 111.363 28.5851C111.194 28.111 111.022 27.6373 110.847 27.1639C110.672 26.6906 110.489 26.2213 110.297 25.7561C110.254 25.6495 110.253 25.5551 110.295 25.4726C110.343 25.3836 110.408 25.3217 110.492 25.287C110.576 25.2522 110.665 25.2494 110.757 25.2786C110.855 25.3011 110.925 25.3657 110.969 25.4722C111.143 25.8925 111.308 26.3139 111.464 26.7366C111.621 27.1592 111.774 27.5821 111.925 28.0055C112.081 28.4281 112.237 28.8507 112.394 29.2733C112.556 29.6952 112.726 30.1129 112.905 30.5267C113.626 29.5862 114.344 28.649 115.06 27.7151C115.775 26.7753 116.493 25.8352 117.214 24.8947C117.254 24.8421 117.306 24.8058 117.368 24.7857C117.429 24.7598 117.49 24.7518 117.551 24.7615C117.61 24.7654 117.667 24.7876 117.719 24.8279C117.771 24.8624 117.81 24.9105 117.836 24.9721ZM123.852 18.405C123.736 18.4204 123.641 18.3945 123.567 18.3275C123.499 18.2596 123.46 18.1822 123.448 18.095C123.436 18.0021 123.454 17.914 123.502 17.8308C123.556 17.7469 123.641 17.6972 123.757 17.6818L126.963 17.2579C127.08 17.2425 127.172 17.2687 127.24 17.3366C127.308 17.4044 127.348 17.4848 127.36 17.5777C127.372 17.6649 127.353 17.75 127.305 17.8332C127.257 17.9164 127.175 17.9657 127.059 17.9811L123.852 18.405ZM129.961 23.3688C130.153 23.834 130.336 24.3033 130.511 24.7767C130.686 25.25 130.858 25.7238 131.027 26.1979C131.202 26.6712 131.379 27.1442 131.56 27.6168C131.746 28.0828 131.94 28.5447 132.142 29.0026C132.192 29.1084 132.192 29.2028 132.144 29.286C132.102 29.3685 132.039 29.427 131.955 29.4618C131.871 29.4966 131.78 29.5027 131.682 29.4801C131.591 29.4568 131.52 29.3922 131.471 29.2865C131.286 28.8735 131.11 28.4594 130.943 28.0441C130.781 27.6223 130.621 27.2001 130.465 26.7775C130.309 26.3549 130.152 25.9323 129.996 25.5097C129.845 25.0863 129.689 24.6637 129.527 24.2418C128.806 25.1823 128.088 26.1195 127.372 27.0535C126.662 27.9866 125.947 28.9234 125.226 29.8639C125.14 29.9757 125.028 30.023 124.89 30.0059C124.757 29.9821 124.661 29.909 124.604 29.7866C124.396 29.3295 124.202 28.8675 124.022 28.4007C123.841 27.9282 123.663 27.4552 123.488 26.9819C123.319 26.5077 123.147 26.034 122.972 25.5607C122.797 25.0873 122.614 24.618 122.423 24.1528C122.379 24.0463 122.378 23.9518 122.421 23.8694C122.468 23.7804 122.534 23.7185 122.618 23.6837C122.702 23.649 122.79 23.6462 122.883 23.6753C122.98 23.6979 123.051 23.7624 123.094 23.8689C123.268 24.2892 123.433 24.7107 123.59 25.1333C123.746 25.5559 123.899 25.9789 124.05 26.4023C124.206 26.8249 124.363 27.2475 124.519 27.6701C124.681 28.0919 124.852 28.5097 125.03 28.9234C125.751 27.9829 126.47 27.0457 127.185 26.1118C127.9 25.1721 128.618 24.232 129.339 23.2915C129.38 23.2388 129.431 23.2025 129.493 23.1824C129.555 23.1566 129.616 23.1485 129.676 23.1582C129.736 23.1622 129.792 23.1843 129.845 23.2246C129.896 23.2592 129.935 23.3072 129.961 23.3688ZM142.113 25.2816C142.367 25.3663 142.631 25.4436 142.907 25.5136C143.187 25.577 143.465 25.6467 143.741 25.7225C144.017 25.7983 144.286 25.8868 144.547 25.9882C144.808 26.0837 145.049 26.2085 145.271 26.3624C145.336 26.407 145.379 26.4634 145.399 26.5316C145.42 26.5997 145.42 26.6677 145.4 26.7354C145.379 26.8032 145.343 26.8641 145.291 26.9183C145.238 26.9666 145.174 26.9987 145.1 27.0145C144.671 27.0829 144.254 27.1677 143.848 27.2687C143.441 27.3639 143.043 27.4844 142.654 27.6304C142.272 27.7755 141.895 27.9465 141.525 28.1431C141.161 28.339 140.808 28.5719 140.465 28.8418C140.368 28.9138 140.274 28.938 140.182 28.9147C140.091 28.8914 140.017 28.845 139.96 28.7757C139.903 28.7005 139.874 28.6156 139.873 28.5212C139.878 28.4201 139.925 28.334 140.016 28.2629C140.6 27.8074 141.214 27.4425 141.858 27.1683C142.507 26.8934 143.184 26.6738 143.889 26.5096C143.537 26.3965 143.179 26.3021 142.815 26.2262C142.449 26.1445 142.121 26.0548 141.83 25.9573C141.261 25.7666 140.693 25.5995 140.124 25.456C139.56 25.3059 138.98 25.2054 138.382 25.1544C138.281 25.15 138.202 25.1132 138.146 25.0438C138.089 24.9744 138.058 24.8958 138.052 24.8079C138.047 24.72 138.068 24.6373 138.117 24.56C138.166 24.4826 138.246 24.4366 138.356 24.422C138.739 24.3655 139.118 24.2858 139.495 24.1828C139.871 24.0798 140.24 23.9631 140.601 23.8326C140.691 23.8029 140.81 23.7606 140.956 23.7058C141.108 23.6444 141.259 23.5772 141.409 23.5042C141.563 23.4246 141.703 23.3411 141.828 23.2537C141.958 23.1656 142.046 23.077 142.094 22.988C142.141 22.899 142.132 22.8086 142.067 22.7167C142.007 22.6241 141.866 22.5365 141.642 22.4538C141.257 22.3155 140.857 22.2148 140.441 22.1516C140.03 22.0818 139.613 22.0365 139.19 22.0155C138.773 21.9879 138.352 21.9786 137.928 21.9874C137.509 21.9955 137.099 22.0024 136.698 22.0081C136.58 22.0119 136.487 21.9769 136.418 21.9033C136.349 21.8296 136.309 21.7463 136.297 21.6534C136.284 21.5605 136.303 21.4782 136.353 21.4066C136.401 21.3292 136.485 21.2887 136.603 21.2849C137.193 21.2778 137.781 21.2769 138.366 21.2822C138.951 21.2817 139.536 21.3197 140.119 21.3962C140.317 21.4173 140.551 21.4455 140.822 21.4806C141.098 21.515 141.369 21.5737 141.634 21.6569C141.899 21.7342 142.14 21.8412 142.359 21.9777C142.577 22.1084 142.734 22.2857 142.828 22.5096C142.948 22.7893 142.953 23.0459 142.842 23.2792C142.73 23.5068 142.547 23.7141 142.294 23.9012C142.041 24.0826 141.74 24.2435 141.392 24.3841C141.044 24.5246 140.691 24.6452 140.332 24.7459C140.632 24.8244 140.929 24.9092 141.225 25.0001C141.521 25.091 141.817 25.1849 142.113 25.2816ZM148.489 20.2895C148.913 20.6768 149.317 21.0784 149.703 21.4942C150.095 21.9094 150.479 22.3314 150.855 22.7605C151.237 23.1887 151.613 23.6207 151.984 24.0563C152.36 24.4853 152.743 24.9074 153.135 25.3225C153.218 25.4121 153.248 25.5027 153.224 25.5944C153.206 25.6796 153.159 25.7508 153.084 25.808C153.014 25.8587 152.929 25.8876 152.83 25.8949C152.729 25.8963 152.641 25.8548 152.565 25.7703C152.346 25.5451 152.133 25.3191 151.926 25.0924C151.718 24.8598 151.512 24.624 151.309 24.3849L147.893 24.8365C147.784 25.2588 147.671 25.6815 147.556 26.1046C147.445 26.5211 147.323 26.9391 147.19 27.3587C147.151 27.4702 147.09 27.5404 147.005 27.5693C146.919 27.5925 146.833 27.5862 146.745 27.5505C146.663 27.514 146.597 27.4549 146.544 27.3731C146.491 27.2856 146.481 27.1864 146.514 27.0757C146.627 26.7239 146.731 26.3703 146.826 26.0149C146.926 25.6588 147.024 25.3002 147.118 24.939L146.674 24.9978C146.557 25.0132 146.462 24.9873 146.388 24.9202C146.32 24.8524 146.281 24.7749 146.269 24.6878C146.257 24.5948 146.275 24.5068 146.323 24.4236C146.377 24.3396 146.462 24.29 146.578 24.2746L147.31 24.1778C147.445 23.634 147.577 23.0934 147.707 22.5561C147.836 22.013 147.968 21.4666 148.102 20.9169C148.089 20.9068 148.079 20.8993 148.073 20.8942C148.072 20.8884 148.065 20.8805 148.052 20.8704C147.965 20.7933 147.923 20.7042 147.928 20.6031C147.932 20.502 147.959 20.4157 148.009 20.3442C148.064 20.2718 148.135 20.227 148.221 20.2096C148.313 20.1857 148.402 20.2124 148.489 20.2895ZM150.734 23.725C150.4 23.3437 150.067 22.9681 149.734 22.5984C149.407 22.2279 149.063 21.8625 148.703 21.5024C148.6 21.9298 148.496 22.3572 148.393 22.7845C148.29 23.2119 148.188 23.6421 148.085 24.0753L150.734 23.725ZM12.7691 56.2232C12.8678 56.2102 12.9472 56.2292 13.0071 56.2804C13.0721 56.325 13.1155 56.3843 13.1371 56.4583C13.1645 56.5315 13.1686 56.6078 13.1496 56.6871C13.1305 56.7665 13.0888 56.8311 13.0245 56.881C13.2642 57.8895 13.4517 58.9049 13.5869 59.9273C13.7213 60.9438 13.8532 61.9637 13.9826 62.9868C13.9979 63.103 13.9717 63.1951 13.9038 63.2631C13.836 63.3312 13.7585 63.371 13.6714 63.3825C13.5843 63.3941 13.4991 63.3758 13.4159 63.3277C13.3327 63.2796 13.2834 63.1974 13.2681 63.0812C13.1329 62.0589 12.9989 61.0453 12.866 60.0403C12.7323 59.0296 12.5489 58.0225 12.3158 57.019L7.12269 57.7057C7.38682 58.3622 7.6401 59.0262 7.88253 59.6975C8.13 60.3622 8.37456 61.0272 8.61623 61.6927C8.8637 62.3574 9.11407 63.0217 9.36735 63.6857C9.62644 64.3488 9.90218 65.0039 10.1946 65.6508C10.2448 65.7624 10.2459 65.8598 10.1978 65.943C10.1497 66.0262 10.0836 66.0851 9.99951 66.1199C9.91545 66.1547 9.82716 66.1575 9.73466 66.1283C9.64292 66.105 9.57232 66.0405 9.52288 65.9347C9.22817 65.2703 8.9476 64.6011 8.68116 63.9271C8.41977 63.2465 8.16419 62.5652 7.91441 61.883C7.66464 61.2009 7.41196 60.5192 7.15638 59.8378C6.90584 59.1499 6.64444 58.4693 6.3722 57.796C6.27115 57.7917 6.18949 57.7552 6.12723 57.6866C6.07077 57.6172 6.04007 57.5415 6.03513 57.4594C6.02941 57.3715 6.05099 57.2888 6.09987 57.2114C6.14874 57.1341 6.22836 57.0881 6.33872 57.0735L12.7691 56.2232ZM20.5029 55.2006C20.7008 55.2217 20.935 55.2499 21.2056 55.285C21.482 55.3194 21.7528 55.3782 22.018 55.4613C22.2823 55.5386 22.524 55.6456 22.743 55.7821C22.9613 55.9128 23.1177 56.0902 23.2123 56.3141C23.3092 56.5554 23.3239 56.778 23.2563 56.982C23.1938 57.1794 23.0729 57.3609 22.8939 57.5264C22.7206 57.6912 22.5011 57.8414 22.2353 57.977C21.9696 58.1126 21.687 58.2327 21.3876 58.3373C21.094 58.4411 20.7959 58.5337 20.4934 58.6151C20.1902 58.6907 19.909 58.7545 19.6499 58.8064C19.9167 59.5277 20.1856 60.2428 20.4566 60.9516C20.7269 61.6547 21.0175 62.3551 21.3284 63.0527C21.3786 63.1643 21.3797 63.2617 21.3316 63.3449C21.2835 63.4281 21.2174 63.4871 21.1333 63.5218C21.0493 63.5566 20.9614 63.5623 20.8696 63.539C20.7779 63.5156 20.7073 63.4511 20.6579 63.3453C20.3365 62.6135 20.033 61.8824 19.7472 61.1518C19.4673 60.4205 19.1924 59.6826 18.9226 58.9381L18.8355 58.9496C18.7251 58.9642 18.6366 58.9434 18.5701 58.8872C18.5036 58.8309 18.462 58.7626 18.4454 58.682C18.4281 58.5956 18.4377 58.5116 18.4742 58.43C18.5099 58.3425 18.5756 58.2806 18.6713 58.2443C18.5165 57.8333 18.362 57.4253 18.208 57.0201C18.0597 56.6141 17.9057 56.209 17.7458 55.8045C17.6339 55.8075 17.522 55.8105 17.4101 55.8135C17.2974 55.8106 17.1881 55.8103 17.082 55.8125C16.9642 55.8163 16.871 55.7813 16.8021 55.7077C16.7333 55.634 16.6927 55.5508 16.6804 55.4578C16.6681 55.3649 16.6868 55.2826 16.7365 55.211C16.7853 55.1336 16.8686 55.0931 16.9863 55.0893C17.0692 55.0902 17.1491 55.0914 17.2262 55.0931C17.3025 55.0889 17.3791 55.0876 17.4562 55.0893C17.4369 55.0327 17.4191 54.9878 17.4029 54.9545C17.3593 54.8479 17.3615 54.7531 17.4096 54.6699C17.4569 54.5809 17.5226 54.519 17.6067 54.4842C17.6908 54.4495 17.7787 54.4438 17.8704 54.4671C17.9621 54.4904 18.0298 54.5554 18.0735 54.6619C18.1067 54.7343 18.1366 54.8043 18.1633 54.8717C18.1899 54.9391 18.2169 55.0094 18.2443 55.0826C18.6223 55.0799 18.9984 55.0863 19.3728 55.1018C19.7472 55.1173 20.1239 55.1503 20.5029 55.2006ZM20.9847 57.637C21.0753 57.6073 21.1938 57.565 21.3403 57.5102C21.4917 57.4488 21.6424 57.3816 21.7923 57.3086C21.9473 57.229 22.087 57.1455 22.2114 57.0581C22.3416 56.97 22.4303 56.8814 22.4777 56.7924C22.525 56.7034 22.516 56.613 22.4507 56.5211C22.3911 56.4285 22.2495 56.3409 22.0258 56.2582C21.4735 56.0593 20.9013 55.934 20.3094 55.8823C19.7224 55.8239 19.1274 55.7933 18.5241 55.7903C18.6758 56.178 18.8214 56.5637 18.9608 56.9471C19.1059 57.3298 19.2486 57.7158 19.3887 58.1051C19.9236 57.993 20.4555 57.837 20.9847 57.637ZM32.9759 54.3493C33.1675 54.8145 33.3507 55.2838 33.5256 55.7572C33.7005 56.2305 33.8724 56.7042 34.0415 57.1783C34.2164 57.6517 34.3942 58.1247 34.5749 58.5972C34.7606 59.0632 34.9547 59.5252 35.1571 59.9831C35.2065 60.0888 35.2072 60.1833 35.1591 60.2665C35.1168 60.3489 35.0536 60.4075 34.9696 60.4423C34.8855 60.477 34.7947 60.4831 34.6971 60.4606C34.6054 60.4372 34.5348 60.3727 34.4854 60.2669C34.3007 59.854 34.1248 59.4399 33.9576 59.0246C33.7954 58.6028 33.6362 58.1806 33.4798 57.758C33.3235 57.3354 33.1671 56.9127 33.0108 56.4901C32.8602 56.0668 32.7039 55.6442 32.5417 55.2223C31.8209 56.1628 31.1026 57.1 30.3868 58.0339C29.6768 58.9671 28.9614 59.9039 28.2406 60.8444C28.1549 60.9562 28.0429 61.0035 27.9047 60.9863C27.7715 60.9626 27.6762 60.8895 27.6186 60.7671C27.4104 60.3099 27.2164 59.848 27.0364 59.3812C26.8557 58.9087 26.6779 58.4357 26.5031 57.9623C26.334 57.4882 26.162 57.0145 25.9871 56.5411C25.8122 56.0678 25.629 55.5985 25.4375 55.1333C25.3938 55.0268 25.3932 54.9323 25.4355 54.8498C25.4828 54.7608 25.5485 54.699 25.6326 54.6642C25.7166 54.6294 25.8049 54.6266 25.8974 54.6558C25.995 54.6783 26.0656 54.7429 26.1092 54.8494C26.283 55.2697 26.448 55.6912 26.6044 56.1138C26.7607 56.5364 26.9142 56.9594 27.0647 57.3827C27.2211 57.8053 27.3775 58.2279 27.5338 58.6506C27.696 59.0724 27.8665 59.4902 28.0453 59.9039C28.7661 58.9634 29.4844 58.0262 30.2002 57.0923C30.9152 56.1525 31.6331 55.2124 32.354 54.2719C32.3943 54.2193 32.4456 54.183 32.508 54.1629C32.5696 54.137 32.6306 54.129 32.691 54.1387C32.7506 54.1427 32.8067 54.1648 32.8593 54.2051C32.9112 54.2396 32.9501 54.2877 32.9759 54.3493ZM42.3913 56.4555C42.6448 56.5402 42.9092 56.6176 43.1844 56.6875C43.4647 56.751 43.7428 56.8206 44.0188 56.8964C44.2948 56.9722 44.5636 57.0608 44.8252 57.1621C45.0861 57.2576 45.3272 57.3824 45.5485 57.5363C45.6135 57.5809 45.6568 57.6402 45.6784 57.7142C45.6992 57.7824 45.6993 57.8503 45.6787 57.9181C45.6574 57.98 45.6207 58.038 45.5688 58.0922C45.5168 58.1463 45.4531 58.1784 45.3776 58.1884C44.9783 58.253 44.5839 58.3318 44.1942 58.4247C43.8104 58.5168 43.4351 58.6285 43.0683 58.7597C42.7015 58.891 42.3435 59.0447 41.9945 59.2209C41.6454 59.397 41.3064 59.6044 40.9774 59.8429C41.0195 59.9379 41.0591 60.036 41.0961 60.1375C41.1382 60.2324 41.1803 60.3274 41.2224 60.4223C41.2727 60.5338 41.2737 60.6312 41.2256 60.7144C41.1775 60.7976 41.1114 60.8566 41.0274 60.8913C40.9433 60.9261 40.8554 60.9318 40.7637 60.9085C40.6719 60.8851 40.601 60.8177 40.5507 60.7061C40.2317 59.9918 39.9326 59.2718 39.6534 58.5463C39.3735 57.815 39.099 57.08 38.8299 56.3413C38.8001 56.3393 38.7703 56.3374 38.7405 56.3354C38.7165 56.3327 38.6896 56.3303 38.6598 56.3283L38.6586 56.3196C38.5634 56.3145 38.4883 56.283 38.4334 56.2253C38.3777 56.1617 38.3449 56.0922 38.3349 56.0167C38.3241 55.9353 38.3374 55.8568 38.3746 55.7809C38.4111 55.6992 38.4747 55.6436 38.5653 55.6138C38.4113 55.2087 38.2572 54.8035 38.1032 54.3983C37.9541 53.9866 37.7997 53.5785 37.6399 53.1741C37.528 53.177 37.416 53.18 37.3041 53.183C37.1915 53.1802 37.0821 53.1798 36.976 53.1821C36.8583 53.1858 36.765 53.1509 36.6962 53.0772C36.6273 53.0036 36.5868 52.9203 36.5745 52.8273C36.5622 52.7344 36.5809 52.6521 36.6305 52.5806C36.6794 52.5032 36.7627 52.4626 36.8804 52.4589C36.9632 52.4597 37.0403 52.4614 37.1115 52.4638C37.1878 52.4596 37.2674 52.4579 37.3502 52.4588C37.3309 52.4022 37.3132 52.3573 37.2969 52.324C37.2533 52.2175 37.2555 52.1226 37.3036 52.0394C37.351 51.9504 37.4167 51.8885 37.5007 51.8538C37.5848 51.819 37.6727 51.8133 37.7644 51.8366C37.8562 51.86 37.9239 51.9249 37.9675 52.0314C38.0007 52.1039 38.0307 52.1738 38.0573 52.2412C38.0839 52.3086 38.111 52.3789 38.1384 52.4521C38.5163 52.4494 38.8924 52.4558 39.2669 52.4713C39.6413 52.4868 40.018 52.5198 40.397 52.5701C40.5948 52.5913 40.829 52.6194 41.0997 52.6545C41.3761 52.6889 41.6469 52.7477 41.912 52.8308C42.1764 52.9082 42.4181 53.0151 42.6371 53.1516C42.8553 53.2824 43.0117 53.4597 43.1063 53.6836C43.2261 53.9633 43.2304 54.2198 43.1195 54.4531C43.0077 54.6807 42.8253 54.888 42.5722 55.0752C42.3184 55.2565 42.0176 55.4174 41.6697 55.558C41.3219 55.6985 40.9684 55.8192 40.6094 55.9198C40.9094 55.9984 41.2072 56.0831 41.503 56.174C41.7987 56.265 42.0948 56.3588 42.3913 56.4555ZM41.9198 53.6277C41.3675 53.4288 40.7954 53.3035 40.2034 53.2518C39.6165 53.1935 39.0214 53.1628 38.4181 53.1598C38.5699 53.5476 38.7154 53.9332 38.8548 54.3167C39 54.6994 39.1426 55.0854 39.2827 55.4747C39.8176 55.3626 40.3496 55.2065 40.8787 55.0065C40.9693 54.9768 41.0879 54.9345 41.2343 54.8797C41.3858 54.8183 41.5365 54.7511 41.6864 54.6781C41.8413 54.5985 41.981 54.515 42.1054 54.4276C42.2356 54.3395 42.3244 54.2509 42.3717 54.1619C42.419 54.0729 42.41 53.9825 42.3447 53.8907C42.2852 53.7981 42.1436 53.7104 41.9198 53.6277ZM39.6441 56.4641C39.8101 56.915 39.979 57.3655 40.1508 57.8156C40.3219 58.2599 40.4991 58.7064 40.6825 59.155C41.2184 58.7827 41.7755 58.4815 42.3539 58.2513C42.938 58.0204 43.5425 57.8311 44.1672 57.6835C43.8161 57.5763 43.4579 57.4818 43.0924 57.4001C42.727 57.3184 42.3989 57.2288 42.1083 57.1313C41.7003 56.9961 41.2906 56.87 40.8791 56.753C40.4735 56.6352 40.0618 56.5389 39.6441 56.4641ZM49.6601 51.5138C50.0837 51.901 50.4884 52.3026 50.8744 52.7185C51.2662 53.1336 51.65 53.5557 52.0259 53.9847C52.4076 54.413 52.7839 54.845 53.1547 55.2806C53.5306 55.7096 53.9145 56.1317 54.3062 56.5468C54.389 56.6363 54.4187 56.727 54.3954 56.8187C54.3771 56.9039 54.3304 56.9751 54.2552 57.0323C54.185 57.0829 54.1002 57.1119 54.0007 57.1191C53.9004 57.1206 53.8122 57.079 53.736 56.9946C53.4065 56.648 53.082 56.295 52.7626 55.9353C52.4482 55.569 52.1342 55.2057 51.8205 54.8453C51.5069 54.4848 51.1879 54.1281 50.8634 53.775C50.544 53.4153 50.2141 53.0659 49.8737 52.7267C49.6314 53.7103 49.3916 54.6906 49.1544 55.6677C48.9221 56.6381 48.6576 57.6099 48.3607 58.583C48.3223 58.6945 48.2606 58.7647 48.1758 58.7936C48.0902 58.8168 48.0037 58.8105 47.9162 58.7747C47.8345 58.7383 47.7676 58.6791 47.7154 58.5974C47.6625 58.5098 47.6523 58.4107 47.685 58.3C47.9997 57.2832 48.2785 56.2622 48.5212 55.2372C48.7697 54.2114 49.0208 53.1823 49.2744 52.1499C49.2612 52.1398 49.2513 52.1323 49.2448 52.1272C49.2432 52.1156 49.2359 52.1048 49.2227 52.0947C49.1357 52.0175 49.0944 51.9284 49.0987 51.8274C49.1031 51.7263 49.1301 51.64 49.1797 51.5684C49.2352 51.4961 49.3061 51.4512 49.3925 51.4339C49.4839 51.41 49.5731 51.4366 49.6601 51.5138ZM63.7327 54.8482C63.8238 54.7771 63.9152 54.7532 64.0069 54.7765C64.1045 54.7991 64.1789 54.8483 64.2304 54.9243C64.2868 54.9937 64.3154 55.0756 64.3161 55.1701C64.3167 55.2645 64.2715 55.3474 64.1805 55.4185C63.8263 55.6899 63.4783 55.9192 63.1366 56.1062C62.7941 56.2874 62.4457 56.4458 62.0912 56.5813C61.736 56.711 61.3669 56.8248 60.9838 56.9228C60.6058 57.0141 60.2005 57.1002 59.768 57.1811C59.4856 57.2361 59.1917 57.2927 58.8861 57.3509C58.5864 57.4082 58.2861 57.4391 57.9852 57.4434C57.6902 57.4469 57.4021 57.4141 57.1211 57.3449C56.8451 57.2691 56.5868 57.1259 56.3462 56.9154C56.1524 56.746 56.0031 56.5559 55.8984 56.3451C55.793 56.1286 55.7245 55.9012 55.693 55.6631C55.6607 55.4191 55.66 55.168 55.6909 54.9098C55.7268 54.645 55.7863 54.38 55.8695 54.1148C55.7584 54.1236 55.6717 54.0937 55.6094 54.0251C55.5464 53.9507 55.5091 53.8699 55.4976 53.7828C55.4919 53.6949 55.5105 53.6126 55.5536 53.536C55.6025 53.4586 55.685 53.4123 55.8012 53.3969C55.8651 53.3885 55.9261 53.3804 55.9841 53.3727C56.0422 53.365 56.1036 53.3599 56.1683 53.3572C56.3072 53.067 56.4647 52.7831 56.6408 52.5057C56.8169 52.2283 57.0019 51.9733 57.1957 51.7408C57.3896 51.5083 57.5865 51.2991 57.7865 51.113C57.9865 50.927 58.1795 50.7774 58.3655 50.6641C58.634 50.5045 58.9233 50.3687 59.2336 50.2568C59.5439 50.1448 59.8617 50.0674 60.187 50.0243C60.5181 49.9806 60.8454 49.9757 61.1691 50.0097C61.4986 50.043 61.8106 50.1229 62.1051 50.2495C62.3179 50.3395 62.469 50.4762 62.5582 50.6594C62.6475 50.8427 62.691 51.0379 62.6889 51.245C62.6867 51.4522 62.6464 51.6614 62.568 51.8727C62.4887 52.0782 62.3875 52.2512 62.2642 52.3916C61.9362 52.7719 61.5524 53.065 61.1127 53.2709C60.6788 53.476 60.2177 53.6315 59.7293 53.7375C59.2402 53.8376 58.7381 53.9069 58.2231 53.9455C57.7073 53.9782 57.2064 54.012 56.7204 54.0467C56.7119 54.0714 56.7033 54.0962 56.6948 54.121C56.6913 54.1392 56.6857 54.1636 56.6779 54.1941C56.5834 54.508 56.5304 54.8224 56.5189 55.1372C56.5073 55.452 56.5533 55.7325 56.6568 55.9789C56.7595 56.2195 56.9295 56.4098 57.1667 56.5498C57.4031 56.684 57.7283 56.7297 58.1423 56.6868C58.6499 56.6374 59.1499 56.5742 59.6421 56.4973C60.1335 56.4146 60.6124 56.304 61.0788 56.1655C61.5443 56.0212 61.9999 55.8457 62.4454 55.6391C62.8901 55.4266 63.3192 55.163 63.7327 54.8482ZM58.2929 51.6578C58.0534 51.9023 57.8274 52.1597 57.6149 52.4301C57.4024 52.7005 57.2129 52.9886 57.0465 53.2943C57.316 53.2764 57.5884 53.2581 57.8637 53.2394C58.1391 53.2208 58.4107 53.1967 58.6787 53.1671C58.9517 53.131 59.2207 53.0866 59.4856 53.0339C59.7497 52.9753 60.0086 52.8997 60.2623 52.807C60.4711 52.7321 60.6791 52.6514 60.8864 52.5649C61.0987 52.4719 61.2864 52.3495 61.4496 52.1979C61.56 52.0946 61.6492 51.9646 61.7172 51.8079C61.7909 51.6504 61.8269 51.4979 61.8251 51.3503C61.8291 51.2021 61.7853 51.0719 61.6937 50.9599C61.602 50.8479 61.4457 50.7829 61.2246 50.7648C60.9563 50.7471 60.6903 50.7468 60.4266 50.764C60.1629 50.7811 59.9056 50.824 59.6546 50.8926C59.4086 50.9547 59.1698 51.0483 58.9382 51.1735C58.7065 51.2987 58.4914 51.4602 58.2929 51.6578ZM70.2164 48.7957C70.4427 49.345 70.6577 49.8988 70.8616 50.4569C71.0646 51.0093 71.2681 51.5646 71.4719 52.1228C71.675 52.6751 71.8813 53.23 72.091 53.7874C72.3056 54.3382 72.5345 54.8842 72.7774 55.4254C72.8276 55.537 72.8287 55.6344 72.7806 55.7176C72.7325 55.8008 72.6664 55.8597 72.5823 55.8945C72.4983 55.9293 72.4104 55.935 72.3186 55.9116C72.2269 55.8883 72.1563 55.8238 72.1069 55.718C71.7716 54.9703 71.4654 54.2188 71.1882 53.4635C70.9102 52.7024 70.6319 51.9383 70.3532 51.1713C70.315 51.3301 70.2576 51.4765 70.1808 51.6108C70.109 51.7385 70.0121 51.8548 69.89 51.9596C69.7729 52.0578 69.6267 52.1362 69.4512 52.1949C69.2816 52.2528 69.079 52.2855 68.8436 52.293C68.3728 52.3079 67.925 52.2519 67.5004 52.1248C67.075 51.9919 66.6809 51.8047 66.3179 51.5631C65.9542 51.3156 65.6283 51.0189 65.3403 50.6728C65.0522 50.3267 64.8067 49.9454 64.6039 49.529C64.5544 49.4232 64.5509 49.3291 64.5932 49.2467C64.6413 49.1635 64.7073 49.1045 64.7914 49.0698C64.8755 49.035 64.9634 49.0293 65.0551 49.0526C65.1527 49.0752 65.2262 49.1394 65.2756 49.2451C65.4143 49.5341 65.5874 49.8156 65.7951 50.0896C66.0019 50.3577 66.2348 50.5988 66.4936 50.8129C66.7524 51.0269 67.0327 51.2026 67.3346 51.34C67.6422 51.4766 67.9655 51.5521 68.3043 51.5664C68.6016 51.5803 68.8413 51.5604 69.0233 51.5068C69.2104 51.4466 69.3555 51.3594 69.4587 51.2453C69.5618 51.1312 69.6295 50.9952 69.6618 50.8372C69.6999 50.6785 69.7158 50.508 69.7094 50.3256C69.7081 50.1366 69.691 49.9409 69.6583 49.7383C69.6249 49.53 69.5947 49.3242 69.5678 49.1209C69.5531 49.0992 69.5454 49.0854 69.5446 49.0796C69.501 48.9731 69.5003 48.8786 69.5426 48.7962C69.59 48.7072 69.6557 48.6453 69.7397 48.6105C69.8238 48.5758 69.9121 48.573 70.0046 48.6021C70.1021 48.6247 70.1727 48.6892 70.2164 48.7957ZM82.86 52.3192C82.951 52.248 83.0425 52.2241 83.1342 52.2474C83.2317 52.27 83.3062 52.3193 83.3576 52.3952C83.4141 52.4646 83.4427 52.5465 83.4433 52.641C83.444 52.7355 83.3988 52.8183 83.3077 52.8894C82.9535 53.1608 82.6056 53.3901 82.2639 53.5771C81.9214 53.7583 81.5729 53.9167 81.2185 54.0522C80.8633 54.1819 80.4942 54.2957 80.1111 54.3937C79.7331 54.485 79.3278 54.5711 78.8952 54.652C78.6129 54.707 78.319 54.7636 78.0134 54.8218C77.7136 54.8791 77.4133 54.91 77.1125 54.9143C76.8174 54.9178 76.5294 54.885 76.2484 54.8158C75.9724 54.74 75.7141 54.5968 75.4735 54.3863C75.2797 54.2169 75.1304 54.0268 75.0257 53.816C74.9202 53.5995 74.8518 53.3721 74.8203 53.134C74.788 52.89 74.7873 52.6389 74.8182 52.3807C74.8541 52.1159 74.9136 51.8509 74.9968 51.5858C74.8856 51.5945 74.7989 51.5646 74.7367 51.496C74.6736 51.4216 74.6364 51.3408 74.6248 51.2537C74.6191 51.1658 74.6378 51.0836 74.6809 51.0069C74.7297 50.9295 74.8123 50.8832 74.9284 50.8678C74.9923 50.8594 75.0533 50.8513 75.1114 50.8436C75.1695 50.8359 75.2309 50.8308 75.2955 50.8281C75.4345 50.5379 75.592 50.2541 75.7681 49.9766C75.9442 49.6992 76.1291 49.4442 76.323 49.2117C76.5168 48.9792 76.7138 48.77 76.9138 48.584C77.1138 48.3979 77.3068 48.2483 77.4927 48.135C77.7612 47.9754 78.0506 47.8396 78.3609 47.7277C78.6712 47.6157 78.9889 47.5383 79.3142 47.4953C79.6453 47.4515 79.9727 47.4466 80.2964 47.4806C80.6258 47.5139 80.9378 47.5938 81.2324 47.7204C81.4452 47.8104 81.5963 47.9471 81.6855 48.1303C81.7748 48.3136 81.8183 48.5088 81.8161 48.7159C81.814 48.9231 81.7737 49.1323 81.6952 49.3436C81.616 49.5491 81.5148 49.7221 81.3915 49.8625C81.0635 50.2428 80.6797 50.5359 80.24 50.7418C79.8061 50.9469 79.345 51.1024 78.8566 51.2084C78.3674 51.3085 77.8654 51.3779 77.3503 51.4164C76.8346 51.4491 76.3337 51.4829 75.8477 51.5176C75.8392 51.5423 75.8306 51.5671 75.8221 51.5919C75.8186 51.6101 75.8129 51.6345 75.8052 51.665C75.7107 51.979 75.6577 52.2933 75.6462 52.6081C75.6346 52.9229 75.6805 53.2034 75.784 53.4498C75.8868 53.6904 76.0567 53.8807 76.2939 54.0207C76.5304 54.1549 76.8556 54.2006 77.2695 54.1577C77.7772 54.1083 78.2771 54.0451 78.7694 53.9682C79.2608 53.8855 79.7397 53.7749 80.206 53.6364C80.6716 53.4921 81.1271 53.3166 81.5726 53.11C82.0174 52.8975 82.4465 52.6339 82.86 52.3192ZM77.4202 49.1287C77.1807 49.3732 76.9546 49.6306 76.7422 49.901C76.5297 50.1714 76.3402 50.4595 76.1738 50.7652C76.4433 50.7473 76.7157 50.729 76.991 50.7103C77.2663 50.6917 77.538 50.6676 77.806 50.638C78.079 50.6019 78.3479 50.5575 78.6128 50.5048C78.877 50.4462 79.1359 50.3706 79.3896 50.2779C79.5984 50.203 79.8064 50.1223 80.0137 50.0358C80.2259 49.9428 80.4137 49.8204 80.5768 49.6688C80.6873 49.5655 80.7765 49.4355 80.8444 49.2788C80.9182 49.1213 80.9542 48.9688 80.9524 48.8213C80.9564 48.673 80.9126 48.5428 80.821 48.4308C80.7293 48.3188 80.573 48.2538 80.3519 48.2357C80.0836 48.218 79.8176 48.2177 79.5539 48.2349C79.2902 48.252 79.0328 48.2949 78.7819 48.3635C78.5359 48.4256 78.2971 48.5193 78.0654 48.6445C77.8337 48.7697 77.6187 48.9311 77.4202 49.1287ZM89.8025 45.1776C90.0894 45.8725 90.3622 46.5723 90.6209 47.2769C90.8853 47.9807 91.1469 48.6849 91.4055 49.3895C91.6642 50.0941 91.9283 50.795 92.1978 51.4923C92.4673 52.1895 92.7538 52.8816 93.0574 53.5684C93.1076 53.68 93.1087 53.7774 93.0606 53.8606C93.0125 53.9438 92.9464 54.0027 92.8623 54.0375C92.7783 54.0722 92.6904 54.078 92.5986 54.0546C92.5069 54.0313 92.4363 53.9667 92.3869 53.861C92.0663 53.135 91.7631 52.4068 91.4774 51.6762C91.1975 50.9449 90.923 50.2098 90.6539 49.4712L86.7417 49.9885C87.0069 50.6981 87.2714 51.4019 87.5351 52.0999C87.8046 52.7972 88.0944 53.4918 88.4046 54.1836C88.4548 54.2952 88.4558 54.3926 88.4077 54.4758C88.3654 54.5582 88.3023 54.6168 88.2182 54.6516C88.1341 54.6863 88.0433 54.6924 87.9458 54.6698C87.854 54.6465 87.7835 54.582 87.734 54.4762C87.4304 53.7894 87.1439 53.0973 86.8744 52.4001C86.6041 51.697 86.3396 50.9932 86.081 50.2886C85.8223 49.584 85.564 48.8823 85.3062 48.1835C85.0475 47.4789 84.7747 46.7792 84.4878 46.0842C84.4441 45.9777 84.4435 45.8832 84.4858 45.8008C84.5331 45.7118 84.5988 45.6499 84.6829 45.6151C84.7669 45.5804 84.8548 45.5747 84.9466 45.598C85.0441 45.6206 85.1147 45.6851 85.1583 45.7916C85.3943 46.3692 85.6219 46.9508 85.8412 47.5365C86.0597 48.1164 86.2757 48.6996 86.4892 49.286L90.4014 48.7687C90.1976 48.2105 89.9916 47.6586 89.7835 47.1128C89.5805 46.5604 89.3662 46.0125 89.1406 45.469C89.097 45.3625 89.0963 45.268 89.1386 45.1856C89.186 45.0965 89.2517 45.0347 89.3357 44.9999C89.4198 44.9652 89.5077 44.9594 89.5994 44.9828C89.6912 45.0061 89.7588 45.071 89.8025 45.1776ZM101.96 45.2279C102.152 45.6931 102.335 46.1624 102.51 46.6357C102.685 47.1091 102.857 47.5828 103.026 48.0569C103.201 48.5303 103.379 49.0032 103.559 49.4758C103.745 49.9418 103.939 50.4038 104.141 50.8617C104.191 50.9674 104.192 51.0619 104.143 51.1451C104.101 51.2275 104.038 51.2861 103.954 51.3209C103.87 51.3556 103.779 51.3617 103.681 51.3392C103.59 51.3158 103.519 51.2513 103.47 51.1455C103.285 50.7326 103.109 50.3185 102.942 49.9032C102.78 49.4814 102.621 49.0591 102.464 48.6365C102.308 48.2139 102.151 47.7913 101.995 47.3687C101.845 46.9454 101.688 46.5227 101.526 46.1009C100.805 47.0414 100.087 47.9786 99.3711 48.9125C98.6611 49.8457 97.9457 50.7825 97.2249 51.723C97.1392 51.8348 97.0273 51.8821 96.8891 51.8649C96.7559 51.8412 96.6605 51.7681 96.603 51.6457C96.3948 51.1885 96.2007 50.7266 96.0208 50.2598C95.8401 49.7872 95.6623 49.3143 95.4874 48.8409C95.3183 48.3668 95.1464 47.8931 94.9715 47.4197C94.7966 46.9464 94.6134 46.4771 94.4218 46.0119C94.3782 45.9053 94.3775 45.8109 94.4198 45.7284C94.4671 45.6394 94.5328 45.5775 94.6169 45.5428C94.701 45.508 94.7892 45.5052 94.8818 45.5344C94.9793 45.5569 95.0499 45.6215 95.0935 45.728C95.2673 46.1483 95.4324 46.5698 95.5887 46.9924C95.7451 47.415 95.8985 47.8379 96.0491 48.2613C96.2054 48.6839 96.3618 49.1065 96.5182 49.5291C96.6803 49.951 96.8508 50.3687 97.0296 50.7825C97.7505 49.842 98.4688 48.9048 99.1846 47.9709C99.8996 47.0311 100.617 46.091 101.338 45.1505C101.379 45.0979 101.43 45.0616 101.492 45.0415C101.554 45.0156 101.615 45.0076 101.675 45.0173C101.735 45.0212 101.791 45.0434 101.844 45.0837C101.896 45.1182 101.934 45.1663 101.96 45.2279ZM111.744 42.2763C111.751 42.2872 111.778 42.3575 111.825 42.4873C111.871 42.6112 111.93 42.7689 112.003 42.9602C112.075 43.1458 112.156 43.3567 112.246 43.593C112.336 43.8235 112.422 44.0514 112.505 44.2769C112.594 44.5015 112.675 44.7154 112.75 44.9183C112.829 45.1205 112.892 45.2836 112.938 45.4076C112.968 45.4095 113 45.4082 113.035 45.4036C113.07 45.399 113.102 45.3948 113.131 45.3909C113.247 45.3756 113.34 45.4047 113.409 45.4784C113.477 45.5462 113.517 45.6266 113.529 45.7195C113.541 45.8066 113.522 45.8918 113.474 45.975C113.425 46.0524 113.343 46.0988 113.227 46.1141L113.201 46.1176C113.48 46.8904 113.765 47.6565 114.054 48.4162C114.343 49.17 114.655 49.9207 114.99 50.6683C115.041 50.7799 115.042 50.8773 114.994 50.9605C114.951 51.0429 114.888 51.1015 114.804 51.1363C114.72 51.171 114.629 51.1771 114.532 51.1546C114.44 51.1312 114.369 51.0638 114.319 50.9522C113.997 50.2204 113.693 49.4864 113.407 48.75C113.12 48.0078 112.84 47.2587 112.569 46.5025C112.047 46.9794 111.508 47.4378 110.951 47.8779C110.394 48.3121 109.83 48.7383 109.258 49.1567C108.687 49.575 108.113 49.9908 107.535 50.4041C106.956 50.8116 106.385 51.227 105.82 51.6504C105.729 51.7215 105.635 51.7458 105.537 51.7232C105.445 51.6941 105.37 51.6448 105.314 51.5755C105.262 51.4995 105.236 51.4143 105.236 51.3198C105.235 51.2253 105.28 51.1425 105.371 51.0714C105.909 50.6693 106.454 50.2722 107.005 49.8802C107.556 49.4882 108.104 49.0966 108.649 48.7053C109.199 48.3075 109.74 47.9021 110.27 47.4891C110.801 47.0762 111.317 46.6444 111.819 46.1939C111.541 46.1952 111.254 46.1917 110.958 46.1837C110.66 46.1698 110.37 46.1432 110.087 46.1037C109.803 46.0585 109.538 45.999 109.292 45.9251C109.046 45.8513 108.838 45.7576 108.67 45.6439C108.506 45.5237 108.39 45.3796 108.32 45.2114C108.256 45.0426 108.263 44.8437 108.339 44.615C108.419 44.3739 108.556 44.1607 108.751 43.9754C108.944 43.7843 109.162 43.6196 109.403 43.4813C109.644 43.3371 109.894 43.2154 110.153 43.1162C110.411 43.0111 110.65 42.9175 110.869 42.8353C110.914 42.8175 110.96 42.8027 111.005 42.7907C111.051 42.7788 111.096 42.7639 111.141 42.7461C111.126 42.7186 111.113 42.6907 111.104 42.6625C111.099 42.6276 111.089 42.5964 111.074 42.5689C111.03 42.4624 111.029 42.3679 111.072 42.2855C111.119 42.1965 111.185 42.1346 111.269 42.0998C111.353 42.0651 111.441 42.0594 111.532 42.0827C111.63 42.1053 111.7 42.1698 111.744 42.2763ZM112.181 45.4457C112.051 45.0904 111.919 44.7414 111.785 44.3986C111.656 44.0492 111.521 43.6977 111.38 43.344C110.99 43.4784 110.615 43.6344 110.254 43.8121C109.899 43.989 109.585 44.2049 109.311 44.4598C109.164 44.5975 109.091 44.7194 109.093 44.8255C109.101 44.925 109.153 45.0097 109.251 45.0795C109.355 45.1485 109.489 45.2046 109.655 45.2478C109.826 45.2901 109.999 45.3263 110.174 45.3563C110.355 45.3798 110.526 45.3985 110.687 45.4127C110.848 45.421 110.97 45.4256 111.052 45.4264C111.242 45.4309 111.429 45.4357 111.613 45.441C111.803 45.4454 111.992 45.447 112.181 45.4457ZM10.8886 82.7671C10.662 81.0535 10.4354 79.3399 10.2088 77.6263C9.98226 75.9127 9.70088 74.2093 9.3647 72.5161C9.34353 72.4007 9.36395 72.3094 9.42598 72.2421C9.488 72.1747 9.56258 72.1353 9.64972 72.1238C9.74266 72.1115 9.83072 72.1294 9.91392 72.1775C10.0029 72.2249 10.0609 72.3059 10.0879 72.4205C10.2762 73.3531 10.4409 74.2858 10.582 75.2187C10.7281 76.1451 10.8663 77.0784 10.9966 78.0186C11.2166 77.895 11.4257 77.755 11.6237 77.5988C11.8217 77.4426 12.0197 77.2864 12.2178 77.1302C12.4158 76.974 12.6179 76.8261 12.824 76.6865C13.0294 76.5412 13.2524 76.4171 13.4929 76.3144C13.9175 76.1282 14.3444 75.9595 14.7736 75.8082C15.2078 75.6503 15.638 75.4841 16.0641 75.3095C16.1706 75.2659 16.2654 75.2681 16.3486 75.3162C16.4376 75.3635 16.4995 75.4292 16.5343 75.5133C16.569 75.5974 16.5718 75.6856 16.5427 75.7782C16.5194 75.8699 16.4544 75.9376 16.3479 75.9812C16.1066 76.0781 15.8616 76.1696 15.6129 76.2557C15.3642 76.3418 15.1159 76.4308 14.868 76.5227C14.6201 76.6145 14.373 76.7122 14.1266 76.8157C13.8853 76.9127 13.6521 77.0262 13.427 77.1565C13.1569 77.3045 12.9074 77.4734 12.6783 77.6633C12.4485 77.8473 12.2158 78.0318 11.9802 78.2166C12.4463 78.3441 12.8966 78.5092 13.3312 78.7118C13.765 78.9085 14.1946 79.1177 14.6199 79.3393C15.0452 79.5608 15.4705 79.7824 15.8957 80.0039C16.3268 80.2247 16.7719 80.417 17.2309 80.5809C17.3424 80.6194 17.4101 80.6843 17.434 80.7757C17.4572 80.8613 17.4509 80.9479 17.4151 81.0353C17.3845 81.1162 17.3253 81.1831 17.2378 81.2361C17.1553 81.2825 17.0583 81.2864 16.9468 81.248C16.4448 81.072 15.9585 80.8585 15.4879 80.6075C15.0174 80.3565 14.5476 80.1113 14.0786 79.8718C13.6088 79.6266 13.1301 79.4033 12.6424 79.2018C12.1548 79.0003 11.6428 78.8611 11.1066 78.7842C11.1927 79.4348 11.2754 80.0829 11.3549 80.7285C11.4401 81.3732 11.5228 82.0213 11.6031 82.6727C11.6184 82.7888 11.5922 82.881 11.5244 82.949C11.4565 83.0171 11.3761 83.0573 11.2832 83.0696C11.1961 83.0811 11.1109 83.0628 11.0277 83.0147C10.9503 82.9658 10.9039 82.8833 10.8886 82.7671ZM20.8367 73.4816C21.2603 73.8689 21.6651 74.2704 22.051 74.6863C22.4428 75.1014 22.8266 75.5235 23.2025 75.9526C23.5842 76.3808 23.9605 76.8128 24.3314 77.2484C24.7072 77.6774 25.0911 78.0995 25.4829 78.5146C25.5656 78.6042 25.5953 78.6948 25.572 78.7865C25.5537 78.8717 25.507 78.9429 25.4318 79.0001C25.3617 79.0508 25.2768 79.0797 25.1773 79.087C25.077 79.0884 24.9888 79.0469 24.9126 78.9624C24.5831 78.6159 24.2586 78.2628 23.9392 77.9031C23.6248 77.5369 23.3108 77.1735 22.9972 76.8131C22.6835 76.4526 22.3645 76.0959 22.04 75.7428C21.7206 75.3831 21.3907 75.0337 21.0503 74.6945C20.808 75.6781 20.5682 76.6585 20.331 77.6355C20.0988 78.6059 19.8342 79.5777 19.5373 80.5508C19.4989 80.6623 19.4372 80.7325 19.3524 80.7614C19.2668 80.7846 19.1803 80.7783 19.0928 80.7426C19.0112 80.7061 18.9442 80.647 18.892 80.5652C18.8391 80.4776 18.8289 80.3785 18.8616 80.2678C19.1763 79.251 19.4551 78.2301 19.6978 77.205C19.9463 76.1792 20.1974 75.1501 20.451 74.1177C20.4378 74.1076 20.4279 74.1001 20.4214 74.095C20.4198 74.0834 20.4125 74.0726 20.3993 74.0625C20.3123 73.9854 20.271 73.8963 20.2753 73.7952C20.2797 73.6941 20.3067 73.6078 20.3563 73.5362C20.4118 73.4639 20.4827 73.4191 20.5691 73.4017C20.6605 73.3778 20.7497 73.4044 20.8367 73.4816ZM34.7081 72.2769C34.8996 72.7422 35.0828 73.2114 35.2577 73.6848C35.4326 74.1581 35.6046 74.6319 35.7737 75.106C35.9485 75.5793 36.1263 76.0523 36.307 76.5249C36.4928 76.9909 36.6868 77.4528 36.8892 77.9107C36.9387 78.0165 36.9393 78.1109 36.8912 78.1941C36.8489 78.2766 36.7858 78.3352 36.7017 78.3699C36.6176 78.4047 36.5268 78.4108 36.4293 78.3882C36.3376 78.3649 36.267 78.3003 36.2175 78.1946C36.0329 77.7816 35.857 77.3675 35.6898 76.9523C35.5276 76.5304 35.3683 76.1082 35.212 75.6856C35.0556 75.263 34.8993 74.8404 34.7429 74.4178C34.5924 73.9944 34.436 73.5718 34.2739 73.15C33.553 74.0905 32.8347 75.0277 32.1189 75.9616C31.409 76.8947 30.6936 77.8316 29.9727 78.7721C29.887 78.8839 29.7751 78.9312 29.6369 78.914C29.5037 78.8902 29.4083 78.8171 29.3508 78.6947C29.1426 78.2376 28.9485 77.7756 28.7686 77.3089C28.5879 76.8363 28.4101 76.3633 28.2352 75.89C28.0661 75.4159 27.8942 74.9421 27.7193 74.4688C27.5444 73.9954 27.3612 73.5261 27.1696 73.0609C27.126 72.9544 27.1253 72.8599 27.1676 72.7775C27.2149 72.6885 27.2806 72.6266 27.3647 72.5918C27.4488 72.5571 27.5371 72.5543 27.6296 72.5834C27.7271 72.606 27.7977 72.6705 27.8413 72.7771C28.0151 73.1974 28.1802 73.6188 28.3365 74.0414C28.4929 74.464 28.6463 74.887 28.7969 75.3104C28.9533 75.733 29.1096 76.1556 29.266 76.5782C29.4281 77 29.5986 77.4178 29.7774 77.8315C30.4983 76.891 31.2166 75.9538 31.9324 75.0199C32.6474 74.0802 33.3653 73.1401 34.0861 72.1996C34.1265 72.147 34.1778 72.1106 34.2402 72.0906C34.3018 72.0647 34.3627 72.0566 34.4231 72.0664C34.4828 72.0703 34.5389 72.0924 34.5915 72.1328C34.6433 72.1673 34.6822 72.2153 34.7081 72.2769ZM47.0346 75.2128C47.1257 75.1417 47.2171 75.1178 47.3089 75.1411C47.4064 75.1637 47.4809 75.2129 47.5323 75.2889C47.5888 75.3582 47.6173 75.4402 47.618 75.5346C47.6187 75.6291 47.5735 75.7119 47.4824 75.7831C47.1282 76.0545 46.7802 76.2837 46.4385 76.4708C46.0961 76.652 45.7476 76.8103 45.3932 76.9459C45.038 77.0756 44.6688 77.1894 44.2858 77.2873C43.9078 77.3787 43.5025 77.4648 43.0699 77.5456C42.7876 77.6007 42.4936 77.6573 42.1881 77.7154C41.8883 77.7728 41.588 77.8036 41.2871 77.8079C40.9921 77.8115 40.704 77.7787 40.423 77.7094C40.147 77.6336 39.8887 77.4905 39.6481 77.28C39.4543 77.1105 39.3051 76.9205 39.2004 76.7097C39.0949 76.4931 39.0264 76.2658 38.9949 76.0276C38.9627 75.7837 38.962 75.5326 38.9928 75.2743C39.0288 75.0095 39.0883 74.7445 39.1714 74.4794C39.0603 74.4882 38.9736 74.4583 38.9113 74.3897C38.8483 74.3153 38.811 74.2345 38.7995 74.1474C38.7938 74.0595 38.8125 73.9772 38.8555 73.9006C38.9044 73.8232 38.9869 73.7768 39.1031 73.7615C39.167 73.753 39.228 73.745 39.2861 73.7373C39.3442 73.7296 39.4055 73.7244 39.4702 73.7218C39.6091 73.4315 39.7667 73.1477 39.9427 72.8703C40.1188 72.5928 40.3038 72.3379 40.4977 72.1054C40.6915 71.8729 40.8884 71.6636 41.0884 71.4776C41.2884 71.2916 41.4814 71.1419 41.6674 71.0287C41.9359 70.8691 42.2253 70.7333 42.5356 70.6213C42.8458 70.5094 43.1636 70.4319 43.4889 70.3889C43.82 70.3451 44.1474 70.3403 44.471 70.3743C44.8005 70.4076 45.1125 70.4875 45.407 70.614C45.6199 70.7041 45.7709 70.8407 45.8602 71.024C45.9494 71.2072 45.993 71.4024 45.9908 71.6096C45.9886 71.8167 45.9483 72.026 45.8699 72.2373C45.7907 72.4428 45.6894 72.6158 45.5662 72.7562C45.2382 73.1364 44.8543 73.4295 44.4146 73.6354C43.9808 73.8405 43.5196 73.9961 43.0312 74.102C42.5421 74.2022 42.04 74.2715 41.525 74.3101C41.0092 74.3428 40.5083 74.3765 40.0224 74.4112C40.0138 74.436 40.0053 74.4608 39.9967 74.4855C39.9932 74.5037 39.9876 74.5281 39.9798 74.5587C39.8854 74.8726 39.8324 75.187 39.8208 75.5017C39.8092 75.8165 39.8552 76.0971 39.9587 76.3435C40.0614 76.584 40.2314 76.7743 40.4686 76.9144C40.705 77.0486 41.0302 77.0942 41.4442 77.0513C41.9519 77.0019 42.4518 76.9388 42.944 76.8619C43.4355 76.7792 43.9144 76.6686 44.3807 76.5301C44.8463 76.3858 45.3018 76.2103 45.7473 76.0036C46.192 75.7911 46.6212 75.5275 47.0346 75.2128ZM41.5949 72.0224C41.3553 72.2668 41.1293 72.5243 40.9168 72.7947C40.7043 73.0651 40.5149 73.3532 40.3484 73.6589C40.618 73.641 40.8904 73.6227 41.1657 73.604C41.441 73.5853 41.7127 73.5612 41.9806 73.5317C42.2536 73.4956 42.5226 73.4512 42.7875 73.3984C43.0516 73.3398 43.3106 73.2642 43.5643 73.1716C43.7731 73.0967 43.9811 73.016 44.1883 72.9295C44.4006 72.8364 44.5883 72.7141 44.7515 72.5625C44.862 72.4592 44.9512 72.3292 45.0191 72.1725C45.0928 72.015 45.1288 71.8624 45.127 71.7149C45.1311 71.5666 45.0873 71.4365 44.9956 71.3245C44.904 71.2125 44.7476 71.1474 44.5266 71.1294C44.2582 71.1117 43.9922 71.1114 43.7285 71.1285C43.4648 71.1457 43.2075 71.1886 42.9565 71.2572C42.7106 71.3193 42.4718 71.4129 42.2401 71.5381C42.0084 71.6633 41.7933 71.8247 41.5949 72.0224ZM53.9771 68.0712C54.2641 68.7662 54.5369 69.4659 54.7955 70.1705C55.06 70.8744 55.3216 71.5786 55.5802 72.2832C55.8389 72.9878 56.1029 73.6887 56.3724 74.3859C56.642 75.0832 56.9285 75.7752 57.2321 76.4621C57.2823 76.5736 57.2834 76.671 57.2353 76.7542C57.1872 76.8374 57.1211 76.8964 57.037 76.9311C56.953 76.9659 56.8651 76.9716 56.7733 76.9483C56.6816 76.9249 56.611 76.8604 56.5615 76.7546C56.2409 76.0287 55.9378 75.3004 55.6521 74.5698C55.3721 73.8385 55.0976 73.1035 54.8286 72.3648L50.9163 72.8821C51.1816 73.5918 51.446 74.2956 51.7097 74.9936C51.9792 75.6909 52.2691 76.3854 52.5792 77.0773C52.6294 77.1889 52.6305 77.2862 52.5824 77.3694C52.5401 77.4519 52.4769 77.5105 52.3929 77.5452C52.3088 77.58 52.218 77.5861 52.1204 77.5635C52.0287 77.5402 51.9581 77.4756 51.9087 77.3699C51.6051 76.683 51.3185 75.991 51.049 75.2937C50.7788 74.5907 50.5143 73.8868 50.2556 73.1822C49.997 72.4777 49.7387 71.776 49.4808 71.0772C49.2222 70.3726 48.9494 69.6728 48.6624 68.9779C48.6188 68.8713 48.6181 68.7769 48.6604 68.6944C48.7078 68.6054 48.7735 68.5435 48.8575 68.5088C48.9416 68.474 49.0295 68.4683 49.1212 68.4917C49.2188 68.5142 49.2894 68.5788 49.333 68.6853C49.5689 69.2629 49.7966 69.8445 50.0159 70.4302C50.2344 71.01 50.4504 71.5932 50.6639 72.1797L54.5761 71.6624C54.3723 71.1042 54.1663 70.5522 53.9582 70.0064C53.7551 69.454 53.5408 68.9061 53.3153 68.3626C53.2717 68.2561 53.271 68.1616 53.3133 68.0792C53.3606 67.9902 53.4263 67.9283 53.5104 67.8936C53.5944 67.8588 53.6823 67.8531 53.7741 67.8764C53.8658 67.8998 53.9335 67.9647 53.9771 68.0712ZM66.8878 67.4457C67.004 67.4303 67.0961 67.4566 67.1642 67.5244C67.2323 67.5923 67.2724 67.6726 67.2847 67.7656C67.2962 67.8527 67.278 67.9379 67.2299 68.0211C67.1817 68.1043 67.0996 68.1535 66.9834 68.1689L62.9318 68.7046C63.3569 69.8187 63.7707 70.9372 64.1734 72.0601C64.581 73.1764 65.0282 74.2787 65.5149 75.3669C65.5651 75.4784 65.5662 75.5758 65.518 75.659C65.4699 75.7422 65.4039 75.8012 65.3198 75.836C65.2357 75.8707 65.1478 75.8764 65.0561 75.8531C64.9644 75.8298 64.8938 75.7652 64.8443 75.6595C64.5933 75.1016 64.3534 74.5393 64.1248 73.9726C63.9012 73.3993 63.6835 72.8252 63.4715 72.2504C63.2596 71.6756 63.0477 71.1007 62.8357 70.5259C62.6238 69.9511 62.4089 69.3766 62.1912 68.8026L57.2333 69.4581C57.1172 69.4735 57.025 69.4472 56.957 69.3794C56.8889 69.3116 56.8491 69.2341 56.8376 69.147C56.8253 69.054 56.8432 68.9659 56.8913 68.8827C56.9394 68.7996 57.0215 68.7503 57.1377 68.7349L61.9213 68.1024C61.8672 67.9618 61.8135 67.8241 61.7603 67.6893C61.7062 67.5487 61.6492 67.4084 61.5894 67.2686C61.5457 67.1621 61.5451 67.0676 61.5874 66.9852C61.6347 66.8962 61.7004 66.8343 61.7845 66.7995C61.8685 66.7648 61.9564 66.7591 62.0482 66.7824C62.1457 66.805 62.2163 66.8695 62.2599 66.976C62.3302 67.15 62.3976 67.3243 62.4621 67.499C62.5316 67.6671 62.6011 67.8352 62.6706 68.0033L66.8878 67.4457ZM74.9245 69.9204C74.937 70.2379 74.8956 70.5507 74.8004 70.8589C74.7052 71.167 74.5647 71.4456 74.379 71.6947C74.1932 71.9439 73.9636 72.1516 73.69 72.3178C73.4223 72.4832 73.1188 72.5795 72.7796 72.6066C72.452 72.6322 72.1287 72.601 71.8098 72.5132C71.4908 72.4253 71.1981 72.2897 70.9315 72.1063C70.6699 71.9162 70.4532 71.6849 70.2812 71.4121C70.1084 71.1335 70.0077 70.8188 69.979 70.468C69.9542 70.1462 69.9857 69.8258 70.0736 69.5068C70.1607 69.1821 70.2963 68.8893 70.4805 68.6285C70.6705 68.367 70.9048 68.1498 71.1834 67.9771C71.462 67.8043 71.7767 67.7036 72.1275 67.6749C72.4667 67.6478 72.7867 67.6764 73.0875 67.7608C73.3941 67.8443 73.6686 67.9765 73.9112 68.1572C74.153 68.3321 74.3595 68.553 74.5308 68.82C74.7012 69.0811 74.8233 69.3782 74.8969 69.7113C74.8984 69.7229 74.9003 69.7374 74.9026 69.7549C74.9107 69.7715 74.9163 69.7915 74.9194 69.8147C74.9217 69.8321 74.9211 69.8499 74.9176 69.8681C74.9199 69.8856 74.9222 69.903 74.9245 69.9204ZM70.7022 70.3723C70.7688 70.7418 70.9061 71.0428 71.1142 71.2753C71.3273 71.5013 71.5672 71.6617 71.8338 71.7564C72.0997 71.8454 72.3779 71.8707 72.6684 71.8323C72.9646 71.7931 73.2292 71.6931 73.4621 71.5323C73.6949 71.3715 73.8824 71.1575 74.0244 70.8905C74.1656 70.6177 74.2229 70.291 74.1962 69.9103C74.1419 69.6338 74.0458 69.3983 73.9077 69.2038C73.769 69.0034 73.6032 68.8451 73.4105 68.7287C73.2236 68.6116 73.0181 68.5324 72.794 68.4911C72.5756 68.449 72.3561 68.4426 72.1354 68.4718C71.9146 68.501 71.7072 68.5638 71.5131 68.6604C71.319 68.757 71.1528 68.8854 71.0144 69.0455C70.876 69.2057 70.7745 69.3994 70.71 69.6266C70.6505 69.8472 70.6479 70.0958 70.7022 70.3723ZM81.6461 69.4218C81.8996 69.5064 82.164 69.5838 82.4392 69.6538C82.7194 69.7172 82.9976 69.7868 83.2736 69.8626C83.5495 69.9384 83.8184 70.027 84.08 70.1283C84.3409 70.2239 84.582 70.3486 84.8033 70.5026C84.8683 70.5472 84.9116 70.6065 84.9332 70.6804C84.954 70.7486 84.9541 70.8166 84.9335 70.8843C84.9122 70.9462 84.8755 71.0043 84.8236 71.0584C84.7716 71.1126 84.7079 71.1446 84.6324 71.1546C84.2331 71.2192 83.8387 71.298 83.449 71.3909C83.0652 71.483 82.6899 71.5947 82.3231 71.7259C81.9563 71.8572 81.5983 72.0109 81.2493 72.1871C80.9002 72.3633 80.5612 72.5706 80.2322 72.8092C80.2743 72.9041 80.3139 73.0023 80.3509 73.1038C80.393 73.1987 80.4351 73.2936 80.4772 73.3885C80.5275 73.5001 80.5285 73.5974 80.4804 73.6806C80.4323 73.7638 80.3662 73.8228 80.2822 73.8576C80.1981 73.8923 80.1102 73.898 80.0185 73.8747C79.9267 73.8514 79.8557 73.7839 79.8055 73.6724C79.4865 72.958 79.1874 72.2381 78.9082 71.5125C78.6283 70.7812 78.3538 70.0462 78.0847 69.3075C78.0549 69.3056 78.0251 69.3036 77.9953 69.3016C77.9713 69.2989 77.9444 69.2965 77.9146 69.2946L77.9134 69.2858C77.8182 69.2807 77.7431 69.2493 77.6882 69.1915C77.6325 69.1279 77.5996 69.0584 77.5897 68.9829C77.5789 68.9016 77.5922 68.823 77.6294 68.7471C77.6659 68.6655 77.7295 68.6098 77.8201 68.5801C77.666 68.1749 77.512 67.7697 77.3579 67.3645C77.2089 66.9528 77.0545 66.5447 76.8946 66.1403C76.7827 66.1433 76.6708 66.1462 76.5589 66.1492C76.4463 66.1464 76.3369 66.1461 76.2308 66.1483C76.1131 66.152 76.0198 66.1171 75.951 66.0434C75.8821 65.9698 75.8415 65.8865 75.8293 65.7936C75.817 65.7006 75.8356 65.6184 75.8853 65.5468C75.9342 65.4694 76.0174 65.4288 76.1352 65.4251C76.218 65.4259 76.2951 65.4276 76.3663 65.43C76.4426 65.4258 76.5222 65.4242 76.605 65.425C76.5857 65.3685 76.568 65.3235 76.5517 65.2902C76.5081 65.1837 76.5103 65.0888 76.5584 65.0056C76.6058 64.9166 76.6715 64.8547 76.7555 64.82C76.8396 64.7852 76.9275 64.7795 77.0192 64.8029C77.111 64.8262 77.1787 64.8911 77.2223 64.9976C77.2555 65.0701 77.2854 65.14 77.3121 65.2074C77.3387 65.2748 77.3658 65.3451 77.3932 65.4183C77.7711 65.4156 78.1472 65.4221 78.5216 65.4376C78.896 65.4531 79.2728 65.486 79.6518 65.5364C79.8496 65.5575 80.0838 65.5856 80.3544 65.6208C80.6309 65.6551 80.9016 65.7139 81.1668 65.7971C81.4312 65.8744 81.6728 65.9813 81.8919 66.1179C82.1101 66.2486 82.2665 66.4259 82.3611 66.6498C82.4809 66.9295 82.4852 67.186 82.3742 67.4194C82.2625 67.6469 82.0801 67.8543 81.827 68.0414C81.5732 68.2227 81.2724 68.3837 80.9245 68.5242C80.5767 68.6648 80.2232 68.7854 79.8642 68.8861C80.1642 68.9646 80.462 69.0493 80.7577 69.1403C81.0535 69.2312 81.3496 69.325 81.6461 69.4218ZM81.1746 66.5939C80.6223 66.3951 80.0502 66.2698 79.4582 66.218C78.8713 66.1597 78.2762 66.129 77.6729 66.126C77.8247 66.5138 77.9702 66.8994 78.1096 67.2829C78.2548 67.6656 78.3974 68.0516 78.5375 68.4409C79.0724 68.3288 79.6044 68.1727 80.1335 67.9728C80.2241 67.943 80.3427 67.9008 80.4891 67.8459C80.6405 67.7845 80.7912 67.7173 80.9412 67.6443C81.0961 67.5647 81.2358 67.4812 81.3602 67.3939C81.4904 67.3057 81.5792 67.2172 81.6265 67.1282C81.6738 67.0392 81.6648 66.9487 81.5995 66.8569C81.54 66.7643 81.3983 66.6766 81.1746 66.5939ZM78.8989 69.4304C79.0649 69.8813 79.2338 70.3318 79.4056 70.7819C79.5766 71.2262 79.7539 71.6726 79.9373 72.1212C80.4732 71.7489 81.0303 71.4477 81.6087 71.2175C82.1928 70.9866 82.7973 70.7974 83.422 70.6498C83.0709 70.5425 82.7126 70.448 82.3472 70.3663C81.9818 70.2846 81.6537 70.195 81.3631 70.0975C80.9551 69.9623 80.5454 69.8362 80.1339 69.7192C79.7283 69.6015 79.3166 69.5052 78.8989 69.4304Z" fill="black"/>
</svg>
