<svg width="395" height="312" viewBox="0 0 395 312" fill="none" xmlns="http://www.w3.org/2000/svg">
<path d="M200.831 167.175L199.355 168.239L194.29 166.386L193.964 168.399L195.732 170.851L194.529 171.719L189.091 164.179L190.295 163.311L192.907 166.934L193.759 160.814L195.337 159.676L194.506 164.866L200.831 167.175ZM202.843 164.498C203.366 164.121 203.644 163.662 203.678 163.119C203.713 162.577 203.498 161.983 203.034 161.34C202.576 160.704 202.083 160.317 201.558 160.178C201.039 160.034 200.515 160.153 199.985 160.535C199.456 160.917 199.173 161.38 199.139 161.922C199.104 162.465 199.317 163.054 199.775 163.69C200.234 164.326 200.729 164.717 201.26 164.863C201.786 165.002 202.313 164.88 202.843 164.498ZM203.52 165.46C202.657 166.083 201.782 166.305 200.894 166.128C200.002 165.943 199.239 165.412 198.605 164.534C197.961 163.64 197.702 162.746 197.827 161.85C197.946 160.947 198.434 160.187 199.289 159.57C200.137 158.958 201.005 158.741 201.892 158.919C202.774 159.088 203.534 159.616 204.173 160.502C204.817 161.395 205.083 162.29 204.971 163.188C204.859 164.086 204.375 164.843 203.52 165.46ZM213.295 158.187L212.285 158.915L209.206 154.646L210.729 160.037L209.616 160.84L204.998 157.715L208.06 161.962L207.05 162.69L203.021 157.103L204.611 155.957L209.303 159.184L207.722 153.713L209.266 152.6L213.295 158.187ZM218.128 154.926L217.367 153.87C217.476 154.228 217.448 154.605 217.284 154.999C217.114 155.387 216.81 155.738 216.371 156.055C215.75 156.503 215.113 156.68 214.459 156.588C213.813 156.49 213.253 156.111 212.778 155.453L210.223 151.91L211.359 151.091L213.799 154.475C214.443 155.368 215.17 155.523 215.98 154.939C216.419 154.622 216.679 154.256 216.76 153.841C216.842 153.414 216.734 152.991 216.433 152.575L213.993 149.191L215.129 148.372L219.248 154.084C219.815 154.871 220.026 155.658 219.878 156.443C219.731 157.228 219.271 157.899 218.499 158.456C217.757 158.991 217.024 159.203 216.3 159.092C215.583 158.976 214.963 158.555 214.439 157.828L215.506 157.058C215.807 157.474 216.169 157.714 216.594 157.776C217.023 157.846 217.439 157.736 217.84 157.446C218.264 157.141 218.503 156.761 218.556 156.309C218.609 155.856 218.467 155.395 218.128 154.926Z" fill="black" fill-opacity="0.6"/>
<path d="M321.748 5.43508C321.987 5.29825 322.071 4.99288 321.934 4.75303L319.704 0.844344C319.568 0.604473 319.262 0.520963 319.022 0.657801C318.782 0.794626 318.699 1.09999 318.836 1.33985L320.818 4.81426L317.343 6.79631C317.104 6.93315 317.02 7.23852 317.157 7.47837C317.294 7.71824 317.599 7.80175 317.839 7.66492L321.748 5.43508ZM263.5 225.5L263.787 225.91L263.5 225.5ZM41.541 235.867L42.0104 236.039C42.5527 234.561 43.2323 233.118 44.0425 231.71L43.6091 231.461L43.1758 231.212C42.3388 232.666 41.6345 234.16 41.0716 235.695L41.541 235.867ZM49.6058 223.781L49.9592 224.135C52.1154 221.981 54.6049 219.928 57.3919 217.975L57.105 217.565L56.8181 217.156C53.9911 219.137 51.4557 221.226 49.2525 223.427L49.6058 223.781ZM65.4559 212.464L65.6924 212.905C68.4461 211.426 71.3825 210.019 74.4798 208.682L74.2816 208.223L74.0834 207.764C70.9631 209.111 68.0009 210.53 65.2194 212.023L65.4559 212.464ZM83.391 204.649L83.5591 205.119C86.5456 204.053 89.641 203.042 92.8302 202.085L92.6865 201.606L92.5427 201.127C89.3385 202.088 86.2267 203.105 83.2229 204.178L83.391 204.649ZM102.115 198.999L102.238 199.483C105.345 198.693 108.519 197.949 111.749 197.25L111.643 196.761L111.537 196.273C108.297 196.974 105.111 197.721 101.992 198.514L102.115 198.999ZM121.247 194.846L121.337 195.338C124.517 194.755 127.735 194.214 130.983 193.714L130.907 193.22L130.831 192.726C127.574 193.227 124.346 193.77 121.157 194.355L121.247 194.846ZM140.603 191.858L140.666 192.354C143.885 191.944 147.122 191.574 150.367 191.241L150.316 190.744L150.265 190.246C147.012 190.58 143.767 190.951 140.54 191.362L140.603 191.858ZM160.063 189.862L160.102 190.36C163.361 190.104 166.617 189.886 169.86 189.706L169.832 189.207L169.805 188.708C166.554 188.888 163.29 189.106 160.024 189.363L160.063 189.862ZM179.61 188.778L179.626 189.277C182.908 189.172 186.166 189.105 189.389 189.078L189.385 188.578L189.381 188.078C186.15 188.105 182.884 188.172 179.594 188.278L179.61 188.778ZM199.148 188.615L199.14 189.115C202.452 189.17 205.714 189.267 208.911 189.407L208.933 188.907L208.955 188.408C205.748 188.268 202.478 188.17 199.157 188.115L199.148 188.615ZM218.714 189.483L218.677 189.981C222.018 190.231 225.267 190.53 228.408 190.88L228.463 190.383L228.518 189.886C225.365 189.535 222.104 189.234 218.751 188.984L218.714 189.483ZM238.153 191.673L238.075 192.167C241.437 192.695 244.626 193.29 247.618 193.949L247.726 193.461L247.833 192.972C244.819 192.308 241.609 191.71 238.23 191.179L238.153 191.673ZM257.268 196.002L257.114 196.478C260.543 197.583 263.537 198.804 266.034 200.137L266.269 199.696L266.504 199.255C263.941 197.887 260.89 196.644 257.421 195.526L257.268 196.002ZM273.693 205.863L273.271 206.132C274.931 208.734 275.095 211.623 273.417 214.861L273.861 215.091L274.305 215.321C276.133 211.792 275.981 208.521 274.114 205.594L273.693 205.863ZM267.53 222.421L267.207 222.038C266.028 223.033 264.699 224.051 263.213 225.09L263.5 225.5L263.787 225.91C265.293 224.855 266.647 223.819 267.852 222.803L267.53 222.421ZM263.5 225.5L263.213 225.09C261.68 226.164 260.213 227.072 258.813 227.823L259.049 228.264L259.285 228.704C260.725 227.933 262.225 227.003 263.787 225.91L263.5 225.5ZM249.469 231.129L249.465 230.629C246.06 230.656 243.249 229.312 240.961 226.783L240.59 227.118L240.219 227.453C242.682 230.176 245.759 231.659 249.473 231.629L249.469 231.129ZM235.85 218.28L236.325 218.124C235.382 215.252 234.657 211.944 234.142 208.257L233.647 208.326L233.151 208.395C233.673 212.126 234.409 215.495 235.375 218.436L235.85 218.28ZM232.783 198.274L233.283 198.254C233.154 195.055 233.138 191.676 233.23 188.145L232.73 188.132L232.23 188.119C232.138 191.67 232.154 195.07 232.284 198.294L232.783 198.274ZM233.253 177.994L233.752 178.031C233.998 174.758 234.321 171.39 234.718 167.943L234.221 167.886L233.724 167.829C233.326 171.288 233.002 174.669 232.755 177.956L233.253 177.994ZM235.554 157.817L236.048 157.89C236.538 154.601 237.088 151.259 237.693 147.878L237.201 147.79L236.709 147.702C236.102 151.092 235.551 154.443 235.059 157.743L235.554 157.817ZM239.13 137.813L239.619 137.914C240.298 134.637 241.026 131.337 241.8 128.024L241.313 127.91L240.826 127.797C240.05 131.117 239.321 134.426 238.64 137.711L239.13 137.813ZM243.743 118.068L244.226 118.194C245.074 114.931 245.965 111.667 246.896 108.414L246.416 108.277L245.935 108.139C245.001 111.4 244.109 114.672 243.259 117.942L243.743 118.068ZM249.331 98.552L249.808 98.7016C250.822 95.4671 251.875 92.2541 252.964 89.0735L252.491 88.9115L252.018 88.7495C250.926 91.9386 249.87 95.1599 248.854 98.4025L249.331 98.552ZM255.904 79.3739L256.372 79.549C257.568 76.3521 258.799 73.2015 260.064 70.109L259.602 69.9197L259.139 69.7304C257.869 72.8326 256.634 75.9928 255.436 79.1988L255.904 79.3739ZM263.608 60.5806L264.064 60.7858C265.476 57.6472 266.924 54.588 268.404 51.6225L267.956 51.3992L267.509 51.176C266.023 54.1542 264.569 57.2255 263.152 60.3755L263.608 60.5806ZM272.7 42.4208L273.136 42.6653C274.835 39.6332 276.57 36.7331 278.336 33.9836L277.915 33.7134L277.494 33.4432C275.717 36.211 273.972 39.1285 272.263 42.1764L272.7 42.4208ZM283.712 25.3916L284.11 25.6942C286.242 22.89 288.41 20.3196 290.607 18.0122L290.245 17.6674L289.883 17.3226C287.657 19.6603 285.465 22.2595 283.314 25.089L283.712 25.3916ZM297.759 10.9145L298.059 11.3151C300.937 9.16522 303.846 7.50122 306.774 6.37837L306.595 5.91154L306.416 5.44469C303.388 6.60621 300.398 8.31958 297.46 10.5139L297.759 10.9145ZM316.471 4.2084L316.449 4.70794C318.084 4.77878 319.724 5.03348 321.368 5.48308L321.5 5.00079L321.632 4.5185C319.917 4.04943 318.203 3.78298 316.492 3.70888L316.471 4.2084Z" fill="#AFAFAF"/>
</svg>
