<svg width="356" height="81" viewBox="0 0 356 81" fill="none" xmlns="http://www.w3.org/2000/svg">
<path d="M1.54454 64.1147C4.54938 64.2153 11.4276 65.1546 14.9018 68.1075C19.2446 71.7988 22.9226 79.7579 31.269 79.4867C40.9508 79.1721 45.2817 65.6236 51.6259 66.8507C54.7983 67.4642 54.6326 69.6192 58.6387 69.3086C62.6449 68.998 65.976 58.2208 72.6531 57.9084C79.3301 57.5959 79.0008 64.061 85.678 64.0564C89.6844 64.0536 91.3511 60.3582 95.6888 56.661C99.4313 53.471 105.366 50.1894 108.371 50.1873C111.376 50.1853 111.711 52.3399 115.05 52.3376C118.388 52.3353 119.763 48.6084 125.731 49.2517C131.407 49.8635 135.755 60.3274 143.768 60.3219C154.117 60.3147 153.437 42.7676 162.118 42.7616C170.798 42.7556 168.805 56.6103 178.153 56.6038C181.825 56.6012 182.825 53.8299 185.496 53.828C188.835 53.8257 188.503 56.5966 191.173 56.2869C196.515 55.6675 195.841 47.6638 199.514 47.0456C203.186 46.4273 204.522 48.2735 206.859 48.2719C209.196 48.2703 210.196 45.4989 213.201 45.4968C216.206 45.4947 221.885 50.9251 226.893 50.7208C233.036 50.4703 238.907 43.324 242.243 39.3196C248.914 31.3109 251.241 15.7935 256.582 15.2972C260.922 14.894 260.258 19.6046 263.93 19.9099C266.601 20.132 267.602 18.0603 269.605 18.3667C271.608 18.6732 282.637 34.366 285.31 37.4427C287.181 39.5963 288.654 45.1366 292.994 44.8258C297.334 44.5149 301.337 40.2022 304.676 40.5078C308.015 40.8133 308.35 42.6602 310.687 42.6585C313.024 42.6569 317.356 30.6477 319.357 27.8756C321.358 25.1036 323.692 19.8685 327.364 19.8659C331.037 19.8634 330.038 23.5583 333.376 23.556C336.715 23.5537 337.709 12.1624 341.047 11.5444C344.385 10.9264 345.055 13.6966 347.392 13.3871C349.261 13.1396 353.061 5.0712 354.728 1.06797" stroke="#A1E663" stroke-width="1.30878" stroke-linecap="round"/>
</svg>
