<svg width="472" height="157" viewBox="0 0 472 157" fill="none" xmlns="http://www.w3.org/2000/svg">
<path d="M0.500362 101.75C0.500363 101.474 0.724232 101.25 1.00036 101.25L5.50036 101.25C5.77651 101.25 6.00037 101.474 6.00036 101.75C6.00036 102.026 5.77651 102.25 5.50036 102.25L1.50037 102.25L1.50036 106.25C1.50035 106.526 1.27652 106.75 1.00036 106.75C0.724229 106.75 0.500373 106.526 0.500383 106.25L0.500362 101.75ZM471.5 0.999871L471.962 1.19004C471.322 2.74618 470.663 4.29034 469.983 5.82251L469.526 5.61981L469.069 5.4171C469.745 3.89321 470.401 2.35741 471.038 0.809703L471.5 0.999871ZM465.228 14.6449L465.673 14.8719C464.151 17.8589 462.552 20.7974 460.879 23.6876L460.447 23.4371L460.014 23.1867C461.678 20.3117 463.268 17.3888 464.782 14.4178L465.228 14.6449ZM455.214 31.9556L455.633 32.2283C453.809 35.0319 451.913 37.7869 449.949 40.4935L449.545 40.1999L449.14 39.9062C451.094 37.2131 452.98 34.4721 454.795 31.6829L455.214 31.9556ZM443.472 48.1463L443.861 48.4596C441.769 51.0628 439.611 53.618 437.39 56.1252L437.016 55.7937L436.642 55.4622C438.852 52.9667 441 50.4237 443.082 47.8331L443.472 48.1463ZM430.217 63.1221L430.576 63.4705C428.249 65.8668 425.863 68.2159 423.422 70.5179L423.079 70.1541L422.736 69.7903C425.167 67.4982 427.542 65.1594 429.859 62.7738L430.217 63.1221ZM415.667 76.8497L415.994 77.2276C413.474 79.4108 410.901 81.5481 408.278 83.6396L407.967 83.2488L407.655 82.8579C410.267 80.7746 412.829 78.6459 415.34 76.4717L415.667 76.8497ZM400.026 89.3327L400.323 89.7354C397.641 91.7094 394.914 93.6391 392.144 95.5244L391.863 95.1111L391.582 94.6978C394.342 92.8192 397.059 90.8967 399.73 88.9301L400.026 89.3327ZM383.481 100.6L383.747 101.023C380.934 102.796 378.081 104.526 375.191 106.213L374.939 105.781L374.687 105.349C377.567 103.668 380.41 101.944 383.214 100.177L383.481 100.6ZM366.198 110.693L366.436 111.133C363.511 112.715 360.553 114.255 357.564 115.753L357.34 115.306L357.116 114.86C360.096 113.365 363.045 111.83 365.96 110.253L366.198 110.693ZM348.319 119.66L348.529 120.114C345.509 121.516 342.46 122.878 339.386 124.199L339.189 123.74L338.991 123.28C342.057 121.963 345.097 120.605 348.108 119.207L348.319 119.66ZM329.938 127.562L330.123 128.027C327.024 129.257 323.902 130.448 320.759 131.599L320.587 131.129L320.415 130.66C323.55 129.512 326.663 128.324 329.754 127.097L329.938 127.562ZM311.148 134.445L311.308 134.919C308.145 135.984 304.964 137.01 301.766 137.997L301.619 137.519L301.472 137.041C304.661 136.057 307.834 135.034 310.989 133.971L311.148 134.445ZM292.026 140.35L292.161 140.831C288.947 141.736 285.719 142.603 282.479 143.431L282.356 142.946L282.232 142.462C285.464 141.636 288.684 140.771 291.89 139.868L292.026 140.35ZM272.634 145.308L272.747 145.795C269.492 146.545 266.228 147.256 262.957 147.93L262.856 147.44L262.755 146.95C266.019 146.279 269.275 145.569 272.522 144.821L272.634 145.308ZM253.03 149.344L253.12 149.836C249.832 150.433 246.539 150.993 243.243 151.515L243.165 151.021L243.087 150.527C246.376 150.007 249.661 149.448 252.941 148.852L253.03 149.344ZM233.262 152.472L233.329 152.968C230.014 153.415 226.699 153.824 223.385 154.195L223.329 153.698L223.273 153.201C226.58 152.831 229.888 152.423 233.195 151.977L233.262 152.472ZM213.374 154.697L213.418 155.195C210.082 155.492 206.75 155.749 203.423 155.969L203.39 155.47L203.357 154.971C206.676 154.752 210.001 154.495 213.33 154.199L213.374 154.697ZM193.41 156.012L193.431 156.512C190.078 156.655 186.734 156.759 183.4 156.824L183.39 156.324L183.381 155.824C186.707 155.76 190.043 155.656 193.388 155.513L193.41 156.012ZM173.412 156.4L173.41 156.9C170.046 156.886 166.695 156.831 163.361 156.736L163.375 156.236L163.389 155.736C166.716 155.831 170.058 155.886 173.414 155.9L173.412 156.4ZM153.393 155.827L153.366 156.326C150.009 156.147 146.672 155.926 143.355 155.663L143.395 155.164L143.434 154.666C146.742 154.928 150.071 155.149 153.419 155.328L153.393 155.827ZM133.427 154.242L133.375 154.739C130.039 154.386 126.728 153.989 123.444 153.549L123.511 153.053L123.577 152.558C126.851 152.996 130.153 153.392 133.48 153.745L133.427 154.242ZM113.583 151.577L113.502 152.071C110.193 151.529 106.915 150.942 103.673 150.31L103.769 149.819L103.864 149.328C107.097 149.958 110.364 150.544 113.664 151.084L113.583 151.577ZM93.9487 147.741L93.8372 148.229C90.55 147.477 87.3038 146.676 84.1021 145.828L84.2302 145.344L84.3583 144.861C87.5488 145.707 90.7838 146.504 94.0602 147.254L93.9487 147.741ZM74.6453 142.617L74.4997 143.096C71.2536 142.107 68.0597 141.065 64.9217 139.971L65.0862 139.499L65.2508 139.027C68.376 140.116 71.5574 141.154 74.7911 142.139L74.6453 142.617ZM55.7189 136.01L55.5342 136.474C52.4023 135.23 49.3345 133.928 46.3351 132.571L46.5413 132.116L46.7474 131.66C49.7322 133.011 52.7856 134.306 55.9036 135.545L55.7189 136.01ZM37.492 127.74L37.2626 128.185C34.2524 126.63 31.3231 125.014 28.4797 123.335L28.7339 122.905L28.9881 122.474C31.8146 124.143 34.7273 125.75 37.7214 127.296L37.492 127.74ZM20.3108 117.576L20.0302 117.99C17.2195 116.083 14.5101 114.108 11.9079 112.063L12.2168 111.67L12.5257 111.277C15.1088 113.306 17.7993 115.268 20.5915 117.162L20.3108 117.576ZM4.57799 105.181L4.23942 105.549C3.01135 104.419 1.81354 103.271 0.646811 102.104L1.00037 101.75L1.35392 101.397C2.51065 102.553 3.69845 103.692 4.91654 104.813L4.57799 105.181Z" fill="#AFAFAF"/>
</svg>
