<svg width="282" height="359" viewBox="0 0 282 359" fill="none" xmlns="http://www.w3.org/2000/svg">
<path d="M254.538 0.809595C254.643 0.55432 254.935 0.432734 255.191 0.538039L259.351 2.2539C259.606 2.35917 259.728 2.6515 259.622 2.90678C259.517 3.16206 259.225 3.28364 258.969 3.17834L255.272 1.65314L253.746 5.35093C253.641 5.6062 253.349 5.72782 253.094 5.62251C252.838 5.51721 252.717 5.22491 252.822 4.96963L254.538 0.809595ZM0.499966 351.5L0.634457 351.019C2.2266 351.463 3.82737 351.884 5.43622 352.281L5.31652 352.766L5.19681 353.251C3.57814 352.852 1.96751 352.429 0.365475 351.982L0.499966 351.5ZM15.0829 354.865L15.1734 354.374C18.4239 354.972 21.7019 355.478 25.0036 355.892L24.9413 356.388L24.8791 356.884C21.5589 356.468 18.2619 355.959 14.9923 355.357L15.0829 354.865ZM34.8688 357.354L34.9036 356.855C38.2036 357.085 41.5225 357.227 44.8562 357.282L44.848 357.782L44.8398 358.282C41.4886 358.227 38.152 358.084 34.8341 357.853L34.8688 357.354ZM54.8344 357.689L54.817 357.189C58.1168 357.074 61.427 356.877 64.7441 356.597L64.7861 357.095L64.8281 357.594C61.4949 357.874 58.1682 358.073 54.8518 358.188L54.8344 357.689ZM74.7139 356.018L74.6482 355.522C77.9302 355.087 81.2151 354.573 84.4993 353.981L84.588 354.473L84.6766 354.965C81.3774 355.56 78.0772 356.076 74.7797 356.513L74.7139 356.018ZM94.3544 352.485L94.2437 351.997C97.4707 351.265 100.694 350.458 103.909 349.578L104.041 350.06L104.173 350.542C100.944 351.426 97.7065 352.237 94.4651 352.973L94.3544 352.485ZM113.621 347.214L113.469 346.738C116.616 345.729 119.752 344.65 122.874 343.501L123.047 343.971L123.219 344.44C120.084 345.593 116.935 346.677 113.774 347.69L113.621 347.214ZM132.345 340.33L132.153 339.868C135.213 338.596 138.256 337.257 141.278 335.852L141.489 336.305L141.7 336.759C138.665 338.169 135.61 339.514 132.537 340.791L132.345 340.33ZM150.444 331.919L150.215 331.475C153.161 329.957 156.084 328.375 158.981 326.731L159.228 327.166L159.475 327.601C156.566 329.252 153.631 330.84 150.673 332.364L150.444 331.919ZM167.81 322.064L167.546 321.639C170.357 319.89 173.14 318.081 175.892 316.212L176.173 316.625L176.454 317.039C173.691 318.916 170.897 320.732 168.074 322.488L167.81 322.064ZM184.321 310.846L184.024 310.444C186.687 308.474 189.315 306.446 191.907 304.361L192.221 304.75L192.534 305.14C189.932 307.234 187.292 309.27 184.619 311.248L184.321 310.846ZM199.868 298.339L199.539 297.963C202.038 295.78 204.497 293.542 206.914 291.249L207.259 291.612L207.603 291.975C205.175 294.277 202.706 296.524 200.197 298.716L199.868 298.339ZM214.35 284.604L213.992 284.256C216.3 281.879 218.565 279.449 220.783 276.967L221.156 277.3L221.529 277.633C219.301 280.126 217.027 282.566 214.709 284.953L214.35 284.604ZM227.654 269.716L227.267 269.399C229.367 266.842 231.418 264.234 233.418 261.578L233.818 261.878L234.217 262.179C232.209 264.847 230.149 267.465 228.04 270.033L227.654 269.716ZM239.656 253.77L239.245 253.487C241.12 250.762 242.943 247.989 244.71 245.17L245.134 245.435L245.557 245.701C243.782 248.532 241.952 251.317 240.068 254.053L239.656 253.77ZM250.25 236.869L249.816 236.622C251.453 233.741 253.034 230.816 254.555 227.845L255 228.073L255.445 228.301C253.917 231.284 252.329 234.223 250.685 237.116L250.25 236.869ZM259.348 219.112L258.894 218.904C260.274 215.894 261.595 212.842 262.854 209.748L263.317 209.936L263.78 210.125C262.516 213.232 261.189 216.298 259.803 219.321L259.348 219.112ZM266.872 200.625L266.401 200.457C267.511 197.347 268.56 194.198 269.544 191.009L270.022 191.157L270.5 191.304C269.511 194.507 268.458 197.67 267.342 200.793L266.872 200.625ZM272.764 181.545L272.28 181.419C273.114 178.234 273.886 175.014 274.592 171.758L275.08 171.864L275.569 171.97C274.86 175.24 274.085 178.474 273.247 181.672L272.764 181.545ZM276.996 162.02L276.504 161.935C277.062 158.703 277.556 155.438 277.986 152.141L278.481 152.205L278.977 152.27C278.546 155.581 278.05 158.86 277.489 162.105L276.996 162.02ZM279.569 142.244L279.071 142.2C279.36 138.932 279.585 135.633 279.745 132.305L280.245 132.329L280.744 132.353C280.584 135.695 280.357 139.006 280.067 142.288L279.569 142.244ZM280.527 122.324L280.027 122.32C280.055 119.037 280.02 115.727 279.92 112.389L280.42 112.374L280.919 112.359C281.02 115.71 281.055 119.033 281.027 122.329L280.527 122.324ZM279.932 102.385L279.433 102.418C279.212 99.1429 278.929 95.8426 278.582 92.5177L279.08 92.4659L279.577 92.4141C279.925 95.751 280.209 99.0634 280.431 102.351L279.932 102.385ZM277.866 82.5354L277.371 82.6048C276.916 79.3574 276.401 76.0876 275.825 72.7957L276.317 72.7095L276.81 72.6233C277.388 75.9262 277.905 79.2073 278.361 82.466L277.866 82.5354ZM274.424 62.8659L273.935 62.9684C273.264 59.7672 272.536 56.546 271.749 53.3052L272.235 53.1872L272.721 53.0692C273.51 56.3202 274.241 59.5517 274.913 62.7634L274.424 62.8659ZM269.706 43.4424L269.224 43.5754C268.358 40.4359 267.437 37.2787 266.459 34.1041L266.937 33.957L267.415 33.8099C268.395 36.9938 269.319 40.1604 270.188 43.3094L269.706 43.4424ZM263.832 24.3673L263.359 24.5281C262.311 21.4437 261.211 18.3434 260.057 15.2275L260.526 15.0539L260.995 14.8803C262.152 18.0046 263.255 21.1134 264.306 24.2064L263.832 24.3673ZM256.922 5.70732L256.458 5.89333C255.832 4.3301 255.192 2.76307 254.538 1.19228L255 1.00026L255.462 0.808242C256.117 2.38302 256.758 3.95403 257.386 5.52134L256.922 5.70732Z" fill="#AFAFAF"/>
</svg>
