<svg width="20" height="21" viewBox="0 0 20 21" fill="none" xmlns="http://www.w3.org/2000/svg">
<path fill-rule="evenodd" clip-rule="evenodd" d="M4.09537 3.02642C4.09537 3.45736 4.11347 3.91752 4.19699 4.3167L4.25923 4.6746C4.35737 5.36912 4.78069 6.71468 5.10937 7.36918C5.17321 7.4959 5.66893 8.3816 5.66893 8.48988C5.66893 8.6852 5.58891 8.49974 5.52603 8.951C5.50539 9.09994 5.57081 9.36766 5.38947 9.41846C5.09731 9.50072 4.75051 9.29238 4.75051 10.1184C4.75051 10.2696 4.77117 10.3296 4.77719 10.4369C4.78735 10.6176 4.69781 10.5922 4.69781 10.7751C4.69781 10.8764 4.81625 10.8361 4.85245 11.0667L4.99631 11.8158C5.02077 11.913 5.09127 12.0949 5.09127 12.1673C5.09127 12.6488 4.92423 12.7536 5.23895 13.1753C5.34469 13.3173 5.32785 13.5812 5.32755 13.7695C5.32627 14.2814 5.36407 14.4494 5.58097 14.8813L6.56067 16.6581C6.71723 16.9598 6.87285 17.2428 7.04051 17.5435L7.29045 17.976C7.38159 18.1072 7.49051 18.2622 7.60261 18.3727C7.63405 18.4038 7.65185 18.4181 7.68011 18.4527C8.26507 19.1587 9.93803 19.2997 10.7653 18.9519C11.4039 18.6836 11.7139 18.0453 12.0508 17.4813L12.8803 16.0795C13.2268 15.5041 13.8295 14.5815 13.7092 13.8324C13.6387 13.3938 14.0623 13.6514 14.0623 13.1918C14.0623 12.8311 14.0099 12.6021 14.0099 12.3776L14.1331 11.6602C14.1538 11.5166 14.1652 11.4309 14.1982 11.3051C14.2109 11.2572 14.2246 11.2029 14.2573 11.154C14.2998 11.0902 14.3513 11.0841 14.3513 11.0117C14.3513 10.8564 14.2836 10.9247 14.3205 10.5871C14.3443 10.3702 14.4551 9.40958 14.0626 9.40958C13.7241 9.40958 13.6374 9.5293 13.6422 9.2003C13.6485 8.76744 13.5558 8.96244 13.9162 8.50132C13.9677 8.43558 13.9842 8.42446 14.0315 8.35428C14.3097 7.94112 14.7098 7.31646 14.8908 6.87726C14.9483 6.73786 14.9909 6.66672 15.0509 6.53842C15.109 6.41424 15.1411 6.2761 15.1903 6.15258L15.404 5.60508C15.4615 5.4536 16.2224 3.47386 15.7413 3.47386C15.5149 3.47386 15.3602 4.0636 15.2846 4.25096C15.2595 4.31288 15.2402 4.344 15.2202 4.39672C14.9432 5.1246 14.645 5.8312 14.1935 6.46824L13.3846 7.33934C13.134 7.54068 13.1071 7.51082 13.0388 7.44064C13.0366 7.43842 12.9956 7.38506 12.9803 7.36792C12.9343 7.31646 12.8946 7.28788 12.8495 7.23644C12.8012 7.18118 12.785 7.14116 12.7291 7.09416L12.2436 6.76612C11.5281 6.37582 11.2004 6.30056 10.3915 6.20434C10.2829 6.19132 10.2419 6.1532 10.154 6.1532L9.79829 6.164C9.56615 6.19862 9.52359 6.11256 9.06439 6.19164C8.81573 6.2345 8.68363 6.1494 8.41401 6.22276C8.31843 6.2488 8.24919 6.26308 8.15773 6.28118C8.02689 6.30722 8.03197 6.32374 7.94687 6.359C7.69915 6.46126 7.67057 6.36312 7.05829 6.67752C6.95667 6.72992 6.95065 6.7658 6.87443 6.80836C6.79281 6.85376 6.75725 6.8325 6.68421 6.9068C6.54733 7.04622 6.54193 7.2682 6.26057 7.05734C5.35199 6.37614 5.06237 5.19732 4.75941 4.14776C4.69081 3.9099 4.46153 2.79077 4.27829 2.79077C4.13125 2.79077 4.09473 2.8816 4.09473 3.02704L4.09537 3.02642ZM7.86271 16.8591C7.59975 16.3342 7.36349 15.7711 7.15389 15.17C6.97033 14.7409 6.95859 14.4024 7.11863 14.1547C7.31427 14.1303 7.52767 14.4294 7.75823 15.0525C8.02499 15.3018 8.62551 15.4799 9.55981 15.5866C10.4941 15.4799 11.0946 15.3021 11.3614 15.0525C11.5919 14.4294 11.8053 14.1303 12.001 14.1547C12.1613 14.4024 12.1496 14.7409 11.9657 15.17C11.7561 15.7711 11.5198 16.3345 11.2569 16.8591C11.0803 17.2116 10.6659 17.1386 10.3305 17.0071C10.0838 16.9103 9.77161 16.8601 9.55949 16.8601C9.34735 16.8601 9.03549 16.9103 8.78843 17.0071C8.45307 17.1386 8.03865 17.2116 7.86207 16.8591H7.86271ZM10.945 14.0137C11.0098 13.7292 10.918 13.4319 10.7043 13.2331C11.0051 13.2627 11.2299 13.5227 11.2156 13.8244C11.2016 14.1261 10.9536 14.364 10.6513 14.3656C10.7329 14.3519 10.7974 14.2913 10.845 14.1836C10.777 14.0515 10.6246 14.0651 10.3874 14.2246C10.1679 14.3465 9.92755 14.5063 9.57823 14.5063V14.2128C9.90563 14.2128 10.1279 14.1356 10.3756 13.9781C10.6398 13.8359 10.8294 13.8476 10.9447 14.0134L10.945 14.0137ZM12.6821 11.8834C12.7266 11.3086 12.5624 11.0816 12.1893 11.2026C11.1778 11.309 10.5049 11.1838 10.1705 10.8269C9.88309 11.7107 10.0708 12.2782 10.7339 12.5287C11.2185 12.336 11.6567 12.2579 12.0483 12.2941C12.4624 12.3093 12.6736 12.1724 12.6821 11.8831V11.8834ZM8.17519 14.0137C8.11041 13.7292 8.20219 13.4319 8.41591 13.2331C8.11517 13.2627 7.89033 13.5227 7.90463 13.8244C7.91859 14.1261 8.16663 14.364 8.46895 14.3656C8.38733 14.3519 8.32287 14.2913 8.27523 14.1836C8.34319 14.0515 8.49563 14.0651 8.73285 14.2246C8.95229 14.3465 9.19269 14.5063 9.54201 14.5063V14.2128C9.21461 14.2128 8.99231 14.1356 8.74461 13.9781C8.48039 13.8359 8.29079 13.8476 8.17551 14.0134L8.17519 14.0137ZM6.43809 11.8834C6.39363 11.3086 6.55781 11.0816 6.93095 11.2026C7.94241 11.309 8.61535 11.1838 8.94975 10.8269C9.23715 11.7107 9.04947 12.2782 8.38639 12.5287C7.90177 12.336 7.46353 12.2579 7.07195 12.2941C6.65785 12.3093 6.44667 12.1724 6.43809 11.8831V11.8834Z" fill="white"/>
</svg>
