<svg width="20" height="21" viewBox="0 0 20 21" fill="none" xmlns="http://www.w3.org/2000/svg">
<path d="M14.9331 6.03741H13.7018V5.42179H15.2409C15.4132 5.42179 15.5487 5.55723 15.5487 5.72961V6.96087C15.5487 7.13325 15.4132 7.26869 15.2409 7.26869H14.9331V7.88433H14.3174V6.65305H14.9331V6.03741ZM14.3174 9.11561H14.9331V8.49997H14.3174V9.11561ZM13.0861 5.42179H12.4705V7.88433H13.0861V5.42179ZM16.78 12.8094V14.6563C16.78 14.9949 16.5029 15.272 16.1643 15.272H15.5487V15.8876C15.5487 16.5709 15.0008 17.1189 14.3174 17.1189H5.6985C5.37196 17.1189 5.05878 16.9891 4.82786 16.7582C4.59696 16.5273 4.46724 16.2141 4.46724 15.8876V15.272H3.8516C3.513 15.272 3.23596 14.9949 3.23596 14.6563V12.8094C3.23596 12.4708 3.513 12.1938 3.8516 12.1938H4.46724C4.46724 9.81127 6.39418 7.88433 8.77668 7.88433H9.39232V7.10247C9.02294 6.89315 8.77668 6.49299 8.77668 6.03741C8.77668 5.36021 9.33076 4.80615 10.008 4.80615C10.6852 4.80615 11.2392 5.36021 11.2392 6.03741C11.2392 6.49299 10.993 6.89315 10.6236 7.10247V7.88433H11.2392C11.4486 7.88433 11.6517 7.90279 11.8549 7.93357V9.73123H14.773C15.2793 10.4525 15.5503 11.3126 15.5487 12.1938H16.1643C16.5029 12.1938 16.78 12.4708 16.78 12.8094ZM8.77668 13.1172C8.77668 12.7091 8.61454 12.3176 8.3259 12.0289C8.03726 11.7403 7.64578 11.5782 7.2376 11.5782C6.8294 11.5782 6.43794 11.7403 6.1493 12.0289C5.86066 12.3176 5.6985 12.7091 5.6985 13.1172C5.6985 13.5254 5.86066 13.9169 6.1493 14.2055C6.43794 14.4942 6.8294 14.6563 7.2376 14.6563C7.64578 14.6563 8.03726 14.4942 8.3259 14.2055C8.61454 13.9169 8.77668 13.5254 8.77668 13.1172ZM14.3174 13.1172C14.3174 12.7091 14.1553 12.3176 13.8666 12.0289C13.578 11.7403 13.1865 11.5782 12.7783 11.5782C12.3701 11.5782 11.9787 11.7403 11.69 12.0289C11.4014 12.3176 11.2392 12.7091 11.2392 13.1172C11.2392 13.5254 11.4014 13.9169 11.69 14.2055C11.9787 14.4942 12.3701 14.6563 12.7783 14.6563C13.1865 14.6563 13.578 14.4942 13.8666 14.2055C14.1553 13.9169 14.3174 13.5254 14.3174 13.1172ZM13.0861 8.49997H12.4705V9.11561H13.0861V8.49997Z" fill="white"/>
</svg>
