<svg width="315" height="122" viewBox="0 0 315 122" fill="none" xmlns="http://www.w3.org/2000/svg">
<path d="M3.60501 6.19351C3.77423 5.97529 4.08832 5.93559 4.30654 6.10481L7.86252 8.86251C8.08074 9.03174 8.12044 9.34583 7.95122 9.56404C7.782 9.78225 7.46791 9.82196 7.24969 9.65274L4.08883 7.20145L1.63754 10.3623C1.46832 10.5805 1.15422 10.6202 0.936004 10.451C0.717784 10.2818 0.678085 9.96771 0.847304 9.7495L3.60501 6.19351ZM313.452 77.0001L313.717 77.4236C312.341 78.2873 310.952 79.1386 309.549 79.9775L309.293 79.5484L309.036 79.1193C310.432 78.284 311.816 77.4364 313.186 76.5766L313.452 77.0001ZM300.777 84.4029L301.016 84.8422C298.152 86.3976 295.243 87.9039 292.29 89.3603L292.069 88.9119L291.848 88.4635C294.789 87.0128 297.687 85.5125 300.538 83.9635L300.777 84.4029ZM283.208 93.0773L283.412 93.5337C280.439 94.8641 277.43 96.1457 274.388 97.3777L274.2 96.9142L274.012 96.4508C277.044 95.2233 280.042 93.9464 283.003 92.621L283.208 93.0773ZM265.057 100.432L265.228 100.902C262.162 102.021 259.068 103.091 255.95 104.11L255.795 103.635L255.639 103.16C258.747 102.144 261.83 101.077 264.885 99.9624L265.057 100.432ZM246.43 106.527L246.569 107.007C243.434 107.919 240.278 108.781 237.106 109.592L236.982 109.107L236.858 108.623C240.02 107.814 243.165 106.955 246.29 106.047L246.43 106.527ZM227.453 111.381L227.561 111.869C224.368 112.577 221.161 113.234 217.946 113.839L217.854 113.348L217.761 112.856C220.966 112.253 224.162 111.599 227.345 110.893L227.453 111.381ZM208.198 115.004L208.274 115.498C205.039 116 201.799 116.448 198.557 116.843L198.497 116.347L198.436 115.851C201.667 115.457 204.897 115.01 208.121 114.51L208.198 115.004ZM188.75 117.373L188.794 117.871C185.526 118.16 182.261 118.394 179.002 118.573L178.974 118.073L178.947 117.574C182.195 117.396 185.449 117.163 188.705 116.875L188.75 117.373ZM169.184 118.44L169.194 118.94C165.913 119.006 162.643 119.014 159.385 118.963L159.393 118.463L159.401 117.963C162.646 118.014 165.905 118.006 169.174 117.94L169.184 118.44ZM149.607 118.13L149.581 118.629C146.294 118.456 143.026 118.221 139.781 117.923L139.827 117.425L139.872 116.927C143.105 117.224 146.36 117.458 149.633 117.631L149.607 118.13ZM130.086 116.331L130.02 116.827C126.756 116.393 123.521 115.892 120.317 115.324L120.405 114.831L120.492 114.339C123.681 114.905 126.902 115.403 130.152 115.836L130.086 116.331ZM110.804 112.903L110.695 113.391C107.482 112.668 104.308 111.874 101.177 111.006L101.311 110.525L101.444 110.043C104.559 110.905 107.717 111.696 110.914 112.416L110.804 112.903ZM91.9476 107.668L91.7891 108.142C88.6578 107.095 85.5777 105.97 82.5541 104.765L82.7392 104.3L82.9243 103.836C85.9298 105.033 88.9922 106.152 92.1062 107.194L91.9476 107.668ZM73.7476 100.401L73.5347 100.854C70.5496 99.4485 67.6299 97.9583 64.7812 96.3817L65.0233 95.9442L65.2654 95.5068C68.0944 97.0724 70.9947 98.5528 73.9606 99.9489L73.7476 100.401ZM56.6245 90.9066L56.3522 91.326C53.5902 89.5326 50.9088 87.6475 48.3139 85.6696L48.617 85.2719L48.9201 84.8743C51.4944 86.8366 54.1553 88.7072 56.8968 90.4873L56.6245 90.9066ZM41.0728 79.0331L40.7389 79.4052C38.2965 77.2132 35.9491 74.9249 33.7032 72.5389L34.0673 72.1962L34.4314 71.8535C36.6576 74.2186 38.9848 76.4873 41.4068 78.6609L41.0728 79.0331ZM27.674 64.7835L27.2814 65.0931C25.2591 62.5292 23.3433 59.8678 21.54 57.1077L21.9586 56.8342L22.3772 56.5608C24.1641 59.2957 26.0625 61.933 28.0665 64.4739L27.674 64.7835ZM16.9729 48.403L16.5317 48.6381C15.0038 45.7698 13.5878 42.8077 12.2894 39.7507L12.7496 39.5552L13.2098 39.3598C14.4968 42.3899 15.9002 45.3256 17.4143 48.1679L16.9729 48.403ZM9.30972 30.39L8.83467 30.5459C7.83059 27.486 6.9361 24.3407 6.15586 21.1093L6.64191 20.9919L7.12795 20.8746C7.90197 24.0804 8.7892 27.1999 9.7848 30.2341L9.30972 30.39ZM4.71111 11.4142L4.21762 11.4947C3.9525 9.8706 3.71448 8.22661 3.50408 6.56264L4.00013 6.49992L4.49617 6.4372C4.70508 8.08936 4.94137 9.72146 5.20457 11.3336L4.71111 11.4142Z" fill="#AFAFAF"/>
<path d="M129.806 98.282H132.494C133.073 98.282 133.521 98.1373 133.838 97.848C134.155 97.5493 134.314 97.148 134.314 96.644C134.314 96.1587 134.165 95.7993 133.866 95.566C133.577 95.3233 133.171 95.202 132.648 95.202H129.806V98.282ZM132.494 91.45H129.806V93.984H132.62C133.572 93.984 134.048 93.5547 134.048 92.696C134.048 91.8653 133.53 91.45 132.494 91.45ZM132.382 99.5H128.364V90.204H132.76C133.637 90.204 134.309 90.4233 134.776 90.862C135.252 91.2913 135.49 91.8607 135.49 92.57C135.49 93.0927 135.364 93.5127 135.112 93.83C134.869 94.1473 134.561 94.362 134.188 94.474C135.243 94.782 135.77 95.5473 135.77 96.77C135.77 97.638 135.485 98.31 134.916 98.786C134.347 99.262 133.502 99.5 132.382 99.5ZM136.576 92.612H137.934V94.922H140.622C141.359 94.922 141.938 95.1227 142.358 95.524C142.778 95.9253 142.988 96.4807 142.988 97.19C142.988 97.9087 142.778 98.4733 142.358 98.884C141.938 99.2947 141.359 99.5 140.622 99.5H136.576V92.612ZM140.538 95.93H137.934V98.45H140.538C140.92 98.45 141.224 98.338 141.448 98.114C141.672 97.89 141.784 97.582 141.784 97.19C141.784 96.7887 141.672 96.4807 141.448 96.266C141.224 96.042 140.92 95.93 140.538 95.93ZM145.032 99.5H143.632V92.612H145.032V99.5ZM147.62 99.5H146.262V92.612H152.422V99.5H151.05V93.746H147.62V99.5ZM160.093 99.5H158.721V93.746H156.327L156.229 95.44C156.163 96.588 156.028 97.456 155.823 98.044C155.617 98.6227 155.347 99.01 155.011 99.206C154.675 99.402 154.194 99.5 153.569 99.5H153.331V98.38H153.499C153.872 98.38 154.157 98.3147 154.353 98.184C154.558 98.0533 154.731 97.7687 154.871 97.33C155.011 96.882 155.104 96.2287 155.151 95.37L155.319 92.612H160.093V99.5ZM165.669 96.938L165.683 95.944C165.655 95.9813 165.618 96.014 165.571 96.042C165.534 96.0607 165.478 96.084 165.403 96.112C165.338 96.1307 165.277 96.1493 165.221 96.168C165.174 96.1867 165.095 96.2053 164.983 96.224C164.88 96.2427 164.801 96.2567 164.745 96.266C164.689 96.2753 164.586 96.2893 164.437 96.308C164.297 96.3267 164.199 96.3407 164.143 96.35C163.536 96.4527 163.102 96.5927 162.841 96.77C162.58 96.938 162.449 97.2227 162.449 97.624C162.449 98.324 162.846 98.674 163.639 98.674C164.218 98.674 164.694 98.5107 165.067 98.184C165.45 97.848 165.65 97.4327 165.669 96.938ZM167.083 99.5H165.781C165.772 99.4813 165.744 99.1687 165.697 98.562C165.258 99.3087 164.46 99.682 163.303 99.682C161.8 99.682 161.049 99.01 161.049 97.666C161.049 97.3207 161.105 97.022 161.217 96.77C161.338 96.5087 161.478 96.308 161.637 96.168C161.796 96.0187 162.029 95.8927 162.337 95.79C162.654 95.678 162.925 95.6033 163.149 95.566C163.382 95.5193 163.709 95.468 164.129 95.412C164.437 95.3653 164.656 95.3327 164.787 95.314C164.927 95.286 165.072 95.2487 165.221 95.202C165.38 95.146 165.487 95.0807 165.543 95.006C165.608 94.922 165.646 94.8193 165.655 94.698C165.655 93.914 165.156 93.522 164.157 93.522C163.177 93.522 162.65 93.9653 162.575 94.852H161.273C161.301 93.2373 162.281 92.43 164.213 92.43C165.249 92.43 165.986 92.6587 166.425 93.116C166.864 93.564 167.083 94.2407 167.083 95.146V99.5ZM171.537 99.5H170.165V93.746H167.589V92.612H174.113V93.746H171.537V99.5ZM174.985 92.612H176.343V94.922H179.031C179.769 94.922 180.347 95.1227 180.767 95.524C181.187 95.9253 181.397 96.4807 181.397 97.19C181.397 97.9087 181.187 98.4733 180.767 98.884C180.347 99.2947 179.769 99.5 179.031 99.5H174.985V92.612ZM178.947 95.93H176.343V98.45H178.947C179.33 98.45 179.633 98.338 179.857 98.114C180.081 97.89 180.193 97.582 180.193 97.19C180.193 96.7887 180.081 96.4807 179.857 96.266C179.633 96.042 179.33 95.93 178.947 95.93ZM183.441 99.5H182.041V92.612H183.441V99.5Z" fill="black" fill-opacity="0.6"/>
</svg>
