<svg width="22" height="22" viewBox="0 0 22 22" fill="none" xmlns="http://www.w3.org/2000/svg">
<path d="M6.06654 11.7026L6.6745 13.032C6.88025 13.4819 6.98313 13.7068 7.12417 13.9035C7.24932 14.0781 7.39645 14.2358 7.56192 14.3728C7.74839 14.5271 7.96566 14.6454 8.4002 14.8818L9.68416 15.5805L8.35484 16.1885C7.90494 16.3942 7.68 16.4971 7.48327 16.6381C7.3087 16.7633 7.15099 16.9104 7.01403 17.0759C6.85968 17.2624 6.74145 17.4796 6.50499 17.9142L5.8063 19.1981L5.19835 17.8688C4.99259 17.4189 4.88972 17.194 4.74867 16.9972C4.62352 16.8227 4.47639 16.6649 4.31092 16.528C4.12445 16.3736 3.90718 16.2554 3.47264 16.019L2.18868 15.3203L3.51801 14.7123C3.9679 14.5066 4.19284 14.4037 4.38958 14.2626C4.56415 14.1375 4.72186 13.9904 4.85882 13.8249C5.01316 13.6384 5.13139 13.4211 5.36785 12.9866L6.06654 11.7026Z" stroke="black" stroke-width="1.5" stroke-linecap="round" stroke-linejoin="round"/>
<path d="M13.4637 2.78728L14.3567 5.3735C14.5703 5.99231 14.6772 6.30172 14.8509 6.56488C15.0048 6.79813 15.1968 7.0039 15.4188 7.17366C15.6693 7.3652 15.9705 7.49323 16.573 7.7493L19.0911 8.8195L16.5049 9.71249C15.8861 9.92615 15.5766 10.033 15.3135 10.2067C15.0802 10.3606 14.8745 10.5526 14.7047 10.7746C14.5132 11.0251 14.3851 11.3264 14.1291 11.9289L13.0589 14.4469L12.1659 11.8607C11.9522 11.2419 11.8454 10.9325 11.6717 10.6693C11.5177 10.4361 11.3258 10.2303 11.1038 10.0605C10.8533 9.869 10.552 9.74096 9.94951 9.48489L7.43145 8.41469L10.0177 7.5217C10.6365 7.30804 10.9459 7.2012 11.2091 7.0275C11.4423 6.87355 11.6481 6.68158 11.8178 6.45958C12.0094 6.20909 12.1374 5.90784 12.3935 5.30534L13.4637 2.78728Z" stroke="black" stroke-width="1.5" stroke-linecap="round" stroke-linejoin="round"/>
</svg>
